<svg width="120" height="120" viewBox="0 0 120 120" fill="none" xmlns="http://www.w3.org/2000/svg">
<path d="M106.56 48.258C106.383 47.4898 106.056 46.764 105.598 46.1221C105.14 45.4802 104.561 44.9347 103.892 44.5168C103.223 44.099 102.479 43.8169 101.701 43.6867C100.924 43.5565 100.128 43.5807 99.36 43.758C98.5918 43.9353 97.866 44.2621 97.2241 44.7199C96.5822 45.1777 96.0367 45.7574 95.6189 46.426C95.201 47.0946 94.9189 47.8389 94.7887 48.6165C94.6585 49.3941 94.6827 50.1898 94.86 50.958C97.1133 59.9912 95.8253 69.5442 91.26 77.658C81.36 94.758 59.16 100.758 42.06 90.858C24.96 81.258 18.96 59.058 28.86 41.958C38.76 24.858 60.96 18.858 78.06 28.758C78.7298 29.152 79.4705 29.4102 80.2401 29.5178C81.0096 29.6255 81.7928 29.5806 82.5449 29.3856C83.2971 29.1906 84.0035 28.8493 84.6238 28.3813C85.244 27.9133 85.7661 27.3277 86.16 26.658C86.554 25.9883 86.8122 25.2475 86.9199 24.4779C87.0275 23.7084 86.9826 22.9252 86.7876 22.1731C86.5926 21.4209 86.2513 20.7145 85.7833 20.0943C85.3153 19.474 84.7298 18.952 84.06 18.558C60.96 5.058 31.86 12.858 18.36 35.958C14.3879 42.7818 12.1561 50.4782 11.8616 58.3684C11.5671 66.2586 13.2189 74.1 16.6713 81.2009C20.1237 88.3018 25.2706 94.444 31.6579 99.0855C38.0452 103.727 45.4767 106.725 53.2967 107.816C61.1167 108.906 69.0849 108.056 76.4984 105.339C83.9119 102.622 90.5428 98.1222 95.8062 92.2367C101.07 86.3513 104.804 79.261 106.679 71.5913C108.555 63.9216 108.514 55.9082 106.56 48.258ZM40.86 54.858C39.5074 53.9828 37.8625 53.6807 36.2872 54.0183C34.7119 54.3559 33.3352 55.3054 32.46 56.658C31.5848 58.0106 31.2827 59.6555 31.6203 61.2308C31.9579 62.8061 32.9074 64.1828 34.26 65.058L58.26 80.058C59.2505 80.6693 60.3963 80.9818 61.56 80.958C62.4879 80.9385 63.3999 80.7131 64.23 80.2981C65.0602 79.883 65.7877 79.2887 66.36 78.558L97.86 38.058C99.96 35.358 99.36 31.758 96.66 29.658C93.96 27.558 90.36 28.158 88.26 30.858L60.06 66.858L40.86 54.858Z" fill="#074139"/>
</svg>
