<svg width="335" height="22" viewBox="0 0 335 22" fill="none" xmlns="http://www.w3.org/2000/svg">
<line y1="10.9209" x2="103" y2="10.9209" stroke="#DBDBDB"/>
<path d="M129.144 11.83C129.144 12.9039 128.95 13.8319 128.562 14.6141C128.175 15.3963 127.643 15.9995 126.967 16.4237C126.29 16.848 125.518 17.0601 124.65 17.0601C123.781 17.0601 123.009 16.848 122.333 16.4237C121.657 15.9995 121.125 15.3963 120.737 14.6141C120.349 13.8319 120.156 12.9039 120.156 11.83C120.156 10.7561 120.349 9.8281 120.737 9.0459C121.125 8.2637 121.657 7.66048 122.333 7.23624C123.009 6.812 123.781 6.59988 124.65 6.59988C125.518 6.59988 126.29 6.812 126.967 7.23624C127.643 7.66048 128.175 8.2637 128.562 9.0459C128.95 9.8281 129.144 10.7561 129.144 11.83ZM127.951 11.83C127.951 10.9484 127.804 10.2043 127.509 9.59775C127.217 8.99121 126.821 8.53217 126.32 8.22061C125.823 7.90906 125.266 7.75328 124.65 7.75328C124.033 7.75328 123.475 7.90906 122.974 8.22061C122.477 8.53217 122.081 8.99121 121.786 9.59775C121.495 10.2043 121.349 10.9484 121.349 11.83C121.349 12.7116 121.495 13.4557 121.786 14.0622C122.081 14.6688 122.477 15.1278 122.974 15.4394C123.475 15.7509 124.033 15.9067 124.65 15.9067C125.266 15.9067 125.823 15.7509 126.32 15.4394C126.821 15.1278 127.217 14.6688 127.509 14.0622C127.804 13.4557 127.951 12.7116 127.951 11.83ZM131.058 16.9209V9.28453H132.192V10.4379H132.271C132.411 10.0601 132.662 9.75352 133.027 9.5182C133.392 9.28288 133.803 9.16522 134.26 9.16522C134.346 9.16522 134.454 9.16687 134.583 9.17019C134.712 9.1735 134.81 9.17847 134.876 9.1851V10.3783C134.837 10.3683 134.746 10.3534 134.603 10.3335C134.464 10.3103 134.316 10.2987 134.161 10.2987C133.789 10.2987 133.458 10.3766 133.166 10.5324C132.878 10.6849 132.649 10.897 132.48 11.1688C132.314 11.4372 132.232 11.7438 132.232 12.0885V16.9209H131.058ZM140.364 16.9209V6.73908H141.537V10.4976H141.637C141.723 10.365 141.842 10.196 141.994 9.9905C142.15 9.78169 142.372 9.59609 142.661 9.43368C142.952 9.26796 143.347 9.1851 143.844 9.1851C144.487 9.1851 145.054 9.34585 145.544 9.66735C146.035 9.98884 146.418 10.4446 146.693 11.0345C146.968 11.6245 147.105 12.3205 147.105 13.1226C147.105 13.9313 146.968 14.6323 146.693 15.2256C146.418 15.8155 146.036 16.2729 145.549 16.5977C145.062 16.9192 144.5 17.08 143.864 17.08C143.373 17.08 142.981 16.9988 142.686 16.8364C142.391 16.6707 142.164 16.4834 142.004 16.2746C141.845 16.0625 141.723 15.8868 141.637 15.7476H141.497V16.9209H140.364ZM141.517 13.1027C141.517 13.6794 141.602 14.1882 141.771 14.629C141.94 15.0665 142.187 15.4095 142.512 15.6581C142.836 15.9034 143.234 16.026 143.705 16.026C144.195 16.026 144.605 15.8968 144.933 15.6382C145.264 15.3764 145.513 15.0251 145.678 14.5843C145.847 14.1401 145.932 13.6463 145.932 13.1027C145.932 12.5658 145.849 12.0819 145.683 11.651C145.521 11.2168 145.274 10.8738 144.943 10.6219C144.615 10.3667 144.202 10.2391 143.705 10.2391C143.227 10.2391 142.826 10.3601 142.502 10.602C142.177 10.8406 141.932 11.1754 141.766 11.6063C141.6 12.0338 141.517 12.5326 141.517 13.1027ZM152.102 17.08C151.366 17.08 150.731 16.9176 150.198 16.5928C149.667 16.2646 149.258 15.8073 148.97 15.2206C148.685 14.6307 148.542 13.9446 148.542 13.1624C148.542 12.3802 148.685 11.6908 148.97 11.0942C149.258 10.4943 149.659 10.027 150.173 9.6922C150.69 9.35414 151.293 9.1851 151.982 9.1851C152.38 9.1851 152.773 9.25139 153.161 9.38397C153.548 9.51654 153.901 9.73198 154.22 10.0303C154.538 10.3253 154.791 10.7164 154.98 11.2036C155.169 11.6908 155.264 12.2907 155.264 13.0033V13.5004H149.377V12.4862H154.07C154.07 12.0554 153.984 11.6709 153.812 11.3328C153.643 10.9948 153.401 10.728 153.086 10.5324C152.775 10.3369 152.407 10.2391 151.982 10.2391C151.515 10.2391 151.111 10.3551 150.769 10.5871C150.431 10.8158 150.171 11.1141 149.989 11.482C149.807 11.8499 149.715 12.2443 149.715 12.6652V13.3414C149.715 13.9181 149.815 14.4069 150.014 14.808C150.216 15.2057 150.496 15.509 150.854 15.7178C151.212 15.9233 151.628 16.026 152.102 16.026C152.41 16.026 152.688 15.9829 152.937 15.8968C153.189 15.8073 153.406 15.6747 153.588 15.499C153.771 15.32 153.911 15.098 154.011 14.8328L155.144 15.151C155.025 15.5355 154.825 15.8735 154.543 16.1652C154.261 16.4536 153.913 16.6789 153.499 16.8414C153.084 17.0004 152.619 17.08 152.102 17.08ZM160.369 9.28453V10.2789H156.412V9.28453H160.369ZM157.566 7.45499H158.739V14.7334C158.739 15.0648 158.787 15.3134 158.883 15.4791C158.982 15.6415 159.108 15.7509 159.261 15.8073C159.417 15.8603 159.581 15.8868 159.753 15.8868C159.882 15.8868 159.988 15.8802 160.071 15.8669C160.154 15.8503 160.22 15.8371 160.27 15.8271L160.509 16.8811C160.429 16.911 160.318 16.9408 160.176 16.9706C160.033 17.0038 159.852 17.0203 159.634 17.0203C159.302 17.0203 158.977 16.9491 158.659 16.8066C158.344 16.664 158.083 16.4469 157.874 16.1553C157.668 15.8636 157.566 15.4957 157.566 15.0516V7.45499ZM165.455 9.28453V10.2789H161.498V9.28453H165.455ZM162.651 7.45499H163.825V14.7334C163.825 15.0648 163.873 15.3134 163.969 15.4791C164.068 15.6415 164.194 15.7509 164.347 15.8073C164.503 15.8603 164.667 15.8868 164.839 15.8868C164.968 15.8868 165.074 15.8802 165.157 15.8669C165.24 15.8503 165.306 15.8371 165.356 15.8271L165.595 16.8811C165.515 16.911 165.404 16.9408 165.262 16.9706C165.119 17.0038 164.938 17.0203 164.72 17.0203C164.388 17.0203 164.063 16.9491 163.745 16.8066C163.43 16.664 163.169 16.4469 162.96 16.1553C162.754 15.8636 162.651 15.4957 162.651 15.0516V7.45499ZM170.34 17.08C169.604 17.08 168.97 16.9176 168.436 16.5928C167.906 16.2646 167.496 15.8073 167.208 15.2206C166.923 14.6307 166.78 13.9446 166.78 13.1624C166.78 12.3802 166.923 11.6908 167.208 11.0942C167.496 10.4943 167.897 10.027 168.411 9.6922C168.928 9.35414 169.531 9.1851 170.221 9.1851C170.618 9.1851 171.011 9.25139 171.399 9.38397C171.787 9.51654 172.14 9.73198 172.458 10.0303C172.776 10.3253 173.03 10.7164 173.219 11.2036C173.407 11.6908 173.502 12.2907 173.502 13.0033V13.5004H167.616V12.4862H172.309C172.309 12.0554 172.223 11.6709 172.05 11.3328C171.881 10.9948 171.639 10.728 171.324 10.5324C171.013 10.3369 170.645 10.2391 170.221 10.2391C169.753 10.2391 169.349 10.3551 169.008 10.5871C168.67 10.8158 168.409 11.1141 168.227 11.482C168.045 11.8499 167.954 12.2443 167.954 12.6652V13.3414C167.954 13.9181 168.053 14.4069 168.252 14.808C168.454 15.2057 168.734 15.509 169.092 15.7178C169.45 15.9233 169.866 16.026 170.34 16.026C170.648 16.026 170.927 15.9829 171.175 15.8968C171.427 15.8073 171.644 15.6747 171.827 15.499C172.009 15.32 172.15 15.098 172.249 14.8328L173.383 15.151C173.263 15.5355 173.063 15.8735 172.781 16.1652C172.499 16.4536 172.151 16.6789 171.737 16.8414C171.323 17.0004 170.857 17.08 170.34 17.08ZM175.287 16.9209V9.28453H176.42V10.4379H176.5C176.639 10.0601 176.891 9.75352 177.256 9.5182C177.62 9.28288 178.031 9.16522 178.488 9.16522C178.575 9.16522 178.682 9.16687 178.812 9.17019C178.941 9.1735 179.039 9.17847 179.105 9.1851V10.3783C179.065 10.3683 178.974 10.3534 178.831 10.3335C178.692 10.3103 178.545 10.2987 178.389 10.2987C178.018 10.2987 177.686 10.3766 177.395 10.5324C177.106 10.6849 176.878 10.897 176.709 11.1688C176.543 11.4372 176.46 11.7438 176.46 12.0885V16.9209H175.287ZM185.189 19.7845C184.99 19.7845 184.813 19.768 184.657 19.7348C184.501 19.705 184.393 19.6752 184.334 19.6453L184.632 18.6112C184.917 18.6842 185.169 18.7107 185.388 18.6908C185.607 18.6709 185.8 18.5731 185.969 18.3975C186.142 18.2251 186.299 17.945 186.442 17.5573L186.661 16.9607L183.837 9.28453H185.109L187.217 15.3698H187.297L189.405 9.28453H190.678L187.436 18.0345C187.29 18.4289 187.11 18.7554 186.894 19.0139C186.679 19.2758 186.429 19.4697 186.143 19.5956C185.862 19.7216 185.544 19.7845 185.189 19.7845ZM195.154 17.08C194.419 17.08 193.784 16.9176 193.25 16.5928C192.72 16.2646 192.311 15.8073 192.022 15.2206C191.737 14.6307 191.595 13.9446 191.595 13.1624C191.595 12.3802 191.737 11.6908 192.022 11.0942C192.311 10.4943 192.712 10.027 193.225 9.6922C193.743 9.35414 194.346 9.1851 195.035 9.1851C195.433 9.1851 195.826 9.25139 196.213 9.38397C196.601 9.51654 196.954 9.73198 197.272 10.0303C197.591 10.3253 197.844 10.7164 198.033 11.2036C198.222 11.6908 198.316 12.2907 198.316 13.0033V13.5004H192.43V12.4862H197.123C197.123 12.0554 197.037 11.6709 196.865 11.3328C196.696 10.9948 196.454 10.728 196.139 10.5324C195.827 10.3369 195.459 10.2391 195.035 10.2391C194.568 10.2391 194.163 10.3551 193.822 10.5871C193.484 10.8158 193.224 11.1141 193.042 11.482C192.859 11.8499 192.768 12.2443 192.768 12.6652V13.3414C192.768 13.9181 192.868 14.4069 193.066 14.808C193.269 15.2057 193.549 15.509 193.907 15.7178C194.265 15.9233 194.681 16.026 195.154 16.026C195.463 16.026 195.741 15.9829 195.99 15.8968C196.242 15.8073 196.459 15.6747 196.641 15.499C196.823 15.32 196.964 15.098 197.064 14.8328L198.197 15.151C198.078 15.5355 197.877 15.8735 197.596 16.1652C197.314 16.4536 196.966 16.6789 196.551 16.8414C196.137 17.0004 195.672 17.08 195.154 17.08ZM203.422 9.28453V10.2789H199.465V9.28453H203.422ZM200.618 7.45499H201.792V14.7334C201.792 15.0648 201.84 15.3134 201.936 15.4791C202.035 15.6415 202.161 15.7509 202.314 15.8073C202.469 15.8603 202.633 15.8868 202.806 15.8868C202.935 15.8868 203.041 15.8802 203.124 15.8669C203.207 15.8503 203.273 15.8371 203.323 15.8271L203.561 16.8811C203.482 16.911 203.371 16.9408 203.228 16.9706C203.086 17.0038 202.905 17.0203 202.686 17.0203C202.355 17.0203 202.03 16.9491 201.712 16.8066C201.397 16.664 201.135 16.4469 200.926 16.1553C200.721 15.8636 200.618 15.4957 200.618 15.0516V7.45499ZM206.042 17.0004C205.797 17.0004 205.587 16.9126 205.411 16.7369C205.235 16.5613 205.147 16.3508 205.147 16.1056C205.147 15.8603 205.235 15.6498 205.411 15.4742C205.587 15.2985 205.797 15.2107 206.042 15.2107C206.288 15.2107 206.498 15.2985 206.674 15.4742C206.849 15.6498 206.937 15.8603 206.937 16.1056C206.937 16.268 206.896 16.4171 206.813 16.553C206.733 16.6889 206.626 16.7983 206.49 16.8811C206.357 16.9607 206.208 17.0004 206.042 17.0004ZM209.898 17.0004C209.652 17.0004 209.442 16.9126 209.266 16.7369C209.091 16.5613 209.003 16.3508 209.003 16.1056C209.003 15.8603 209.091 15.6498 209.266 15.4742C209.442 15.2985 209.652 15.2107 209.898 15.2107C210.143 15.2107 210.353 15.2985 210.529 15.4742C210.705 15.6498 210.793 15.8603 210.793 16.1056C210.793 16.268 210.751 16.4171 210.668 16.553C210.589 16.6889 210.481 16.7983 210.345 16.8811C210.213 16.9607 210.063 17.0004 209.898 17.0004ZM213.753 17.0004C213.508 17.0004 213.297 16.9126 213.122 16.7369C212.946 16.5613 212.858 16.3508 212.858 16.1056C212.858 15.8603 212.946 15.6498 213.122 15.4742C213.297 15.2985 213.508 15.2107 213.753 15.2107C213.998 15.2107 214.209 15.2985 214.385 15.4742C214.56 15.6498 214.648 15.8603 214.648 16.1056C214.648 16.268 214.607 16.4171 214.524 16.553C214.444 16.6889 214.337 16.7983 214.201 16.8811C214.068 16.9607 213.919 17.0004 213.753 17.0004Z" fill="#00392F"/>
<line x1="232" y1="10.9209" x2="335" y2="10.9209" stroke="#DBDBDB"/>
</svg>
