<svg width="335" height="50" viewBox="0 0 335 50" fill="none" xmlns="http://www.w3.org/2000/svg">
<rect x="0.5" y="1.4209" width="334" height="48" rx="24" stroke="#DBDBDB"/>
<path d="M82.5 25.4209C82.5 21.0026 78.9183 17.4209 74.5 17.4209C70.0817 17.4209 66.5 21.0026 66.5 25.4209C66.5 29.4139 69.4255 32.7236 73.25 33.3237V27.7334H71.2188V25.4209H73.25V23.6584C73.25 21.6534 74.4444 20.5459 76.2718 20.5459C77.147 20.5459 78.0625 20.7021 78.0625 20.7021V22.6709H77.0538C76.0599 22.6709 75.75 23.2876 75.75 23.9203V25.4209H77.9688L77.6141 27.7334H75.75V33.3237C79.5745 32.7236 82.5 29.414 82.5 25.4209Z" fill="#1877F2"/>
<path d="M77.6141 27.7334L77.9688 25.4209H75.75V23.9203C75.75 23.2875 76.0599 22.6709 77.0538 22.6709H78.0625V20.7021C78.0625 20.7021 77.147 20.5459 76.2717 20.5459C74.4444 20.5459 73.25 21.6534 73.25 23.6584V25.4209H71.2188V27.7334H73.25V33.3237C73.6635 33.3885 74.0814 33.421 74.5 33.4209C74.9186 33.421 75.3365 33.3885 75.75 33.3237V27.7334H77.6141Z" fill="white"/>
<path d="M100.331 24.1744H98.4714C98.4184 23.8695 98.3206 23.5994 98.1781 23.3641C98.0356 23.1254 97.8583 22.9233 97.6461 22.7575C97.434 22.5918 97.1921 22.4675 96.9203 22.3847C96.6518 22.2985 96.3618 22.2554 96.0502 22.2554C95.4967 22.2554 95.0062 22.3946 94.5787 22.673C94.1511 22.9481 93.8163 23.3525 93.5744 23.8861C93.3324 24.4164 93.2115 25.0644 93.2115 25.83C93.2115 26.6089 93.3324 27.2651 93.5744 27.7987C93.8197 28.329 94.1544 28.7301 94.5787 29.0019C95.0062 29.2703 95.4951 29.4046 96.0453 29.4046C96.3502 29.4046 96.6352 29.3648 96.9004 29.2852C97.1689 29.2024 97.4092 29.0814 97.6213 28.9223C97.8367 28.7632 98.0173 28.5677 98.1632 28.3357C98.3123 28.1037 98.4151 27.8385 98.4714 27.5402L100.331 27.5502C100.261 28.0341 100.11 28.4881 99.8784 28.9124C99.6497 29.3366 99.3497 29.7111 98.9785 30.036C98.6073 30.3575 98.1731 30.6093 97.676 30.7916C97.1788 30.9706 96.627 31.0601 96.0204 31.0601C95.1255 31.0601 94.3268 30.853 93.6241 30.4387C92.9215 30.0244 92.368 29.4261 91.9636 28.6439C91.5592 27.8617 91.3571 26.9237 91.3571 25.83C91.3571 24.7329 91.5609 23.795 91.9686 23.0161C92.3762 22.2339 92.9314 21.6356 93.6341 21.2213C94.3367 20.807 95.1322 20.5999 96.0204 20.5999C96.5872 20.5999 97.1142 20.6794 97.6014 20.8385C98.0886 20.9976 98.5228 21.2313 98.9039 21.5395C99.2851 21.8444 99.5983 22.219 99.8436 22.6631C100.092 23.1039 100.255 23.6077 100.331 24.1744ZM105.521 31.07C104.776 31.07 104.129 30.906 103.582 30.5779C103.036 30.2497 102.611 29.7907 102.31 29.2007C102.011 28.6108 101.862 27.9214 101.862 27.1325C101.862 26.3437 102.011 25.6527 102.31 25.0594C102.611 24.4661 103.036 24.0054 103.582 23.6773C104.129 23.3492 104.776 23.1851 105.521 23.1851C106.267 23.1851 106.913 23.3492 107.46 23.6773C108.007 24.0054 108.43 24.4661 108.728 25.0594C109.03 25.6527 109.18 26.3437 109.18 27.1325C109.18 27.9214 109.03 28.6108 108.728 29.2007C108.43 29.7907 108.007 30.2497 107.46 30.5779C106.913 30.906 106.267 31.07 105.521 31.07ZM105.531 29.6283C105.936 29.6283 106.274 29.5173 106.545 29.2952C106.817 29.0698 107.019 28.7682 107.152 28.3904C107.288 28.0125 107.356 27.5916 107.356 27.1276C107.356 26.6602 107.288 26.2377 107.152 25.8598C107.019 25.4787 106.817 25.1754 106.545 24.95C106.274 24.7246 105.936 24.6119 105.531 24.6119C105.117 24.6119 104.772 24.7246 104.497 24.95C104.225 25.1754 104.022 25.4787 103.886 25.8598C103.753 26.2377 103.687 26.6602 103.687 27.1276C103.687 27.5916 103.753 28.0125 103.886 28.3904C104.022 28.7682 104.225 29.0698 104.497 29.2952C104.772 29.5173 105.117 29.6283 105.531 29.6283ZM112.758 26.4465V30.9209H110.958V23.2845H112.678V24.5821H112.768C112.943 24.1546 113.223 23.8148 113.608 23.5629C113.996 23.311 114.474 23.1851 115.045 23.1851C115.572 23.1851 116.031 23.2978 116.422 23.5232C116.816 23.7485 117.121 24.075 117.336 24.5026C117.555 24.9301 117.663 25.4488 117.66 26.0587V30.9209H115.86V26.3371C115.86 25.8267 115.727 25.4273 115.462 25.1389C115.2 24.8506 114.837 24.7064 114.373 24.7064C114.059 24.7064 113.778 24.776 113.533 24.9152C113.291 25.0511 113.101 25.2483 112.961 25.5068C112.826 25.7654 112.758 26.0786 112.758 26.4465ZM123.552 23.2845V24.6766H119.162V23.2845H123.552ZM120.246 21.455H122.046V28.624C122.046 28.866 122.082 29.0516 122.155 29.1808C122.232 29.3068 122.331 29.393 122.454 29.4394C122.576 29.4858 122.712 29.509 122.861 29.509C122.974 29.509 123.077 29.5007 123.17 29.4841C123.266 29.4675 123.339 29.4526 123.388 29.4394L123.692 30.8463C123.595 30.8795 123.458 30.9159 123.279 30.9557C123.103 30.9955 122.888 31.0187 122.633 31.0253C122.182 31.0386 121.776 30.9706 121.415 30.8215C121.053 30.669 120.767 30.4337 120.555 30.1155C120.346 29.7973 120.243 29.3996 120.246 28.9223V21.455ZM125.308 30.9209V23.2845H127.107V30.9209H125.308ZM126.212 22.2007C125.927 22.2007 125.682 22.1063 125.477 21.9173C125.271 21.7251 125.168 21.4948 125.168 21.2263C125.168 20.9545 125.271 20.7242 125.477 20.5352C125.682 20.343 125.927 20.2469 126.212 20.2469C126.501 20.2469 126.746 20.343 126.948 20.5352C127.154 20.7242 127.256 20.9545 127.256 21.2263C127.256 21.4948 127.154 21.7251 126.948 21.9173C126.746 22.1063 126.501 22.2007 126.212 22.2007ZM131.008 26.4465V30.9209H129.208V23.2845H130.928V24.5821H131.018C131.193 24.1546 131.473 23.8148 131.858 23.5629C132.246 23.311 132.724 23.1851 133.295 23.1851C133.822 23.1851 134.281 23.2978 134.672 23.5232C135.066 23.7485 135.371 24.075 135.586 24.5026C135.805 24.9301 135.913 25.4488 135.91 26.0587V30.9209H134.11V26.3371C134.11 25.8267 133.977 25.4273 133.712 25.1389C133.45 24.8506 133.087 24.7064 132.623 24.7064C132.309 24.7064 132.028 24.776 131.783 24.9152C131.541 25.0511 131.351 25.2483 131.211 25.5068C131.076 25.7654 131.008 26.0786 131.008 26.4465ZM142.856 27.7093V23.2845H144.656V30.9209H142.911V29.5637H142.831C142.659 29.9912 142.376 30.3409 141.981 30.6127C141.59 30.8844 141.108 31.0203 140.535 31.0203C140.034 31.0203 139.592 30.9093 139.207 30.6872C138.826 30.4619 138.528 30.1354 138.312 29.7078C138.097 29.277 137.989 28.7566 137.989 28.1468V23.2845H139.789V27.8683C139.789 28.3522 139.921 28.7367 140.187 29.0218C140.452 29.3068 140.8 29.4493 141.231 29.4493C141.496 29.4493 141.753 29.3847 142.001 29.2554C142.25 29.1262 142.454 28.9339 142.613 28.6787C142.775 28.4202 142.856 28.097 142.856 27.7093ZM150.137 31.07C149.372 31.07 148.711 30.911 148.154 30.5928C147.6 30.2713 147.174 29.8172 146.876 29.2306C146.578 28.6406 146.429 27.9462 146.429 27.1475C146.429 26.3619 146.578 25.6726 146.876 25.0793C147.178 24.4827 147.599 24.0187 148.139 23.6872C148.679 23.3525 149.314 23.1851 150.043 23.1851C150.514 23.1851 150.958 23.2613 151.375 23.4138C151.796 23.5629 152.167 23.795 152.489 24.1098C152.814 24.4247 153.069 24.8257 153.255 25.3129C153.44 25.7968 153.533 26.3735 153.533 27.0431V27.5949H147.274V26.3818H151.808C151.805 26.0371 151.73 25.7306 151.584 25.4621C151.438 25.1903 151.234 24.9765 150.973 24.8208C150.714 24.665 150.413 24.5871 150.068 24.5871C149.7 24.5871 149.377 24.6766 149.098 24.8556C148.82 25.0312 148.603 25.2632 148.447 25.5516C148.295 25.8366 148.217 26.1498 148.213 26.4912V27.5502C148.213 27.9943 148.295 28.3754 148.457 28.6936C148.619 29.0085 148.846 29.2504 149.138 29.4195C149.43 29.5852 149.771 29.6681 150.162 29.6681C150.424 29.6681 150.661 29.6316 150.873 29.5587C151.085 29.4825 151.269 29.3714 151.425 29.2256C151.581 29.0798 151.699 28.8991 151.778 28.6837L153.458 28.8726C153.352 29.3167 153.15 29.7045 152.852 30.036C152.557 30.3641 152.179 30.6193 151.718 30.8016C151.258 30.9806 150.731 31.07 150.137 31.07ZM160.604 30.9209L158.447 23.2845H160.281L161.623 28.6539H161.693L163.065 23.2845H164.88L166.252 28.624H166.327L167.649 23.2845H169.488L167.326 30.9209H165.452L164.02 25.7604H163.915L162.483 30.9209H160.604ZM170.995 30.9209V23.2845H172.795V30.9209H170.995ZM171.9 22.2007C171.615 22.2007 171.37 22.1063 171.164 21.9173C170.959 21.7251 170.856 21.4948 170.856 21.2263C170.856 20.9545 170.959 20.7242 171.164 20.5352C171.37 20.343 171.615 20.2469 171.9 20.2469C172.188 20.2469 172.433 20.343 172.636 20.5352C172.841 20.7242 172.944 20.9545 172.944 21.2263C172.944 21.4948 172.841 21.7251 172.636 21.9173C172.433 22.1063 172.188 22.2007 171.9 22.2007ZM178.709 23.2845V24.6766H174.319V23.2845H178.709ZM175.403 21.455H177.202V28.624C177.202 28.866 177.239 29.0516 177.312 29.1808C177.388 29.3068 177.487 29.393 177.61 29.4394C177.733 29.4858 177.868 29.509 178.018 29.509C178.13 29.509 178.233 29.5007 178.326 29.4841C178.422 29.4675 178.495 29.4526 178.545 29.4394L178.848 30.8463C178.752 30.8795 178.614 30.9159 178.435 30.9557C178.26 30.9955 178.044 31.0187 177.789 31.0253C177.338 31.0386 176.932 30.9706 176.571 30.8215C176.21 30.669 175.923 30.4337 175.711 30.1155C175.502 29.7973 175.399 29.3996 175.403 28.9223V21.455ZM182.428 26.4465V30.9209H180.628V20.7391H182.388V24.5821H182.477C182.656 24.1512 182.933 23.8115 183.308 23.5629C183.685 23.311 184.166 23.1851 184.749 23.1851C185.28 23.1851 185.742 23.2961 186.136 23.5182C186.531 23.7403 186.836 24.0651 187.051 24.4926C187.27 24.9202 187.379 25.4422 187.379 26.0587V30.9209H185.58V26.3371C185.58 25.8234 185.447 25.424 185.182 25.1389C184.92 24.8506 184.552 24.7064 184.078 24.7064C183.76 24.7064 183.475 24.776 183.223 24.9152C182.974 25.0511 182.779 25.2483 182.636 25.5068C182.497 25.7654 182.428 26.0786 182.428 26.4465ZM193.266 30.9209V20.7391H199.789V22.2852H195.11V25.0494H199.341V26.5956H195.11V30.9209H193.266ZM203.769 31.075C203.285 31.075 202.849 30.9888 202.461 30.8165C202.077 30.6408 201.772 30.3823 201.546 30.0409C201.324 29.6995 201.213 29.2786 201.213 28.7781C201.213 28.3473 201.293 27.991 201.452 27.7093C201.611 27.4275 201.828 27.2021 202.103 27.0331C202.378 26.8641 202.688 26.7365 203.033 26.6503C203.381 26.5608 203.74 26.4962 204.112 26.4564C204.559 26.41 204.922 26.3686 205.2 26.3321C205.479 26.2923 205.681 26.2327 205.807 26.1531C205.936 26.0703 206.001 25.9427 206.001 25.7703V25.7405C206.001 25.366 205.89 25.076 205.668 24.8705C205.446 24.665 205.126 24.5622 204.708 24.5622C204.267 24.5622 203.918 24.6584 203.659 24.8506C203.404 25.0428 203.232 25.2699 203.142 25.5317L201.462 25.2931C201.594 24.829 201.813 24.4413 202.118 24.1297C202.423 23.8148 202.796 23.5795 203.237 23.4237C203.677 23.2646 204.165 23.1851 204.698 23.1851C205.066 23.1851 205.432 23.2282 205.797 23.3144C206.162 23.4005 206.495 23.5431 206.796 23.7419C207.098 23.9375 207.34 24.2043 207.522 24.5423C207.708 24.8804 207.801 25.303 207.801 25.8101V30.9209H206.07V29.8719H206.011C205.901 30.084 205.747 30.2829 205.548 30.4685C205.353 30.6508 205.106 30.7983 204.808 30.911C204.513 31.0203 204.166 31.075 203.769 31.075ZM204.236 29.7526C204.597 29.7526 204.91 29.6813 205.176 29.5388C205.441 29.393 205.645 29.2007 205.787 28.9621C205.933 28.7235 206.006 28.4633 206.006 28.1816V27.2817C205.95 27.3281 205.853 27.3712 205.718 27.411C205.585 27.4507 205.436 27.4855 205.27 27.5154C205.104 27.5452 204.94 27.5717 204.778 27.5949C204.615 27.6181 204.475 27.638 204.355 27.6546C204.087 27.691 203.847 27.7507 203.634 27.8335C203.422 27.9164 203.255 28.0324 203.132 28.1816C203.01 28.3274 202.948 28.5163 202.948 28.7483C202.948 29.0798 203.069 29.33 203.311 29.499C203.553 29.6681 203.861 29.7526 204.236 29.7526ZM213.191 31.07C212.429 31.07 211.774 30.9027 211.227 30.5679C210.684 30.2332 210.265 29.7708 209.97 29.1808C209.678 28.5876 209.532 27.9048 209.532 27.1325C209.532 26.357 209.681 25.6726 209.98 25.0793C210.278 24.4827 210.699 24.0187 211.242 23.6872C211.789 23.3525 212.436 23.1851 213.181 23.1851C213.801 23.1851 214.35 23.2994 214.827 23.5281C215.307 23.7535 215.69 24.0734 215.975 24.4877C216.26 24.8986 216.423 25.3792 216.463 25.9294H214.742C214.673 25.5615 214.507 25.2549 214.245 25.0097C213.987 24.7611 213.64 24.6368 213.206 24.6368C212.838 24.6368 212.515 24.7362 212.237 24.9351C211.958 25.1307 211.741 25.4124 211.585 25.7803C211.433 26.1482 211.357 26.589 211.357 27.1027C211.357 27.6231 211.433 28.0705 211.585 28.445C211.738 28.8163 211.952 29.103 212.227 29.3051C212.505 29.504 212.832 29.6034 213.206 29.6034C213.471 29.6034 213.708 29.5537 213.917 29.4543C214.129 29.3515 214.307 29.204 214.449 29.0118C214.592 28.8196 214.689 28.5859 214.742 28.3108H216.463C216.419 28.8511 216.26 29.33 215.985 29.7476C215.71 30.1619 215.336 30.4867 214.862 30.722C214.388 30.954 213.831 31.07 213.191 31.07ZM221.571 31.07C220.805 31.07 220.144 30.911 219.587 30.5928C219.034 30.2713 218.608 29.8172 218.31 29.2306C218.011 28.6406 217.862 27.9462 217.862 27.1475C217.862 26.3619 218.011 25.6726 218.31 25.0793C218.611 24.4827 219.032 24.0187 219.572 23.6872C220.113 23.3525 220.747 23.1851 221.477 23.1851C221.947 23.1851 222.391 23.2613 222.809 23.4138C223.23 23.5629 223.601 23.795 223.923 24.1098C224.247 24.4247 224.503 24.8257 224.688 25.3129C224.874 25.7968 224.967 26.3735 224.967 27.0431V27.5949H218.707V26.3818H223.241C223.238 26.0371 223.164 25.7306 223.018 25.4621C222.872 25.1903 222.668 24.9765 222.406 24.8208C222.148 24.665 221.846 24.5871 221.501 24.5871C221.134 24.5871 220.81 24.6766 220.532 24.8556C220.254 25.0312 220.036 25.2632 219.881 25.5516C219.728 25.8366 219.65 26.1498 219.647 26.4912V27.5502C219.647 27.9943 219.728 28.3754 219.891 28.6936C220.053 29.0085 220.28 29.2504 220.572 29.4195C220.863 29.5852 221.205 29.6681 221.596 29.6681C221.858 29.6681 222.095 29.6316 222.307 29.5587C222.519 29.4825 222.703 29.3714 222.859 29.2256C223.014 29.0798 223.132 28.8991 223.212 28.6837L224.892 28.8726C224.786 29.3167 224.584 29.7045 224.286 30.036C223.991 30.3641 223.613 30.6193 223.152 30.8016C222.691 30.9806 222.164 31.07 221.571 31.07ZM226.819 30.9209V20.7391H228.618V24.5473H228.693C228.786 24.3617 228.917 24.1645 229.086 23.9557C229.255 23.7436 229.483 23.5629 229.772 23.4138C230.06 23.2613 230.428 23.1851 230.876 23.1851C231.465 23.1851 231.997 23.3359 232.471 23.6375C232.949 23.9358 233.327 24.3783 233.605 24.9649C233.887 25.5483 234.028 26.2642 234.028 27.1127C234.028 27.9512 233.89 28.6638 233.615 29.2504C233.34 29.8371 232.965 30.2845 232.491 30.5928C232.017 30.901 231.48 31.0551 230.881 31.0551C230.443 31.0551 230.08 30.9822 229.792 30.8364C229.503 30.6905 229.271 30.5149 229.096 30.3094C228.923 30.1006 228.789 29.9034 228.693 29.7178H228.589V30.9209H226.819ZM228.584 27.1027C228.584 27.5966 228.653 28.0291 228.792 28.4003C228.935 28.7715 229.139 29.0615 229.404 29.2703C229.672 29.4758 229.997 29.5786 230.378 29.5786C230.776 29.5786 231.109 29.4725 231.378 29.2604C231.646 29.045 231.848 28.7516 231.984 28.3804C232.123 28.0059 232.193 27.58 232.193 27.1027C232.193 26.6288 232.125 26.2078 231.989 25.8399C231.853 25.472 231.651 25.1837 231.383 24.9749C231.114 24.7661 230.779 24.6617 230.378 24.6617C229.994 24.6617 229.667 24.7628 229.399 24.9649C229.131 25.1671 228.927 25.4505 228.787 25.8151C228.652 26.1797 228.584 26.6089 228.584 27.1027ZM239.138 31.07C238.393 31.07 237.746 30.906 237.2 30.5779C236.653 30.2497 236.228 29.7907 235.927 29.2007C235.629 28.6108 235.479 27.9214 235.479 27.1325C235.479 26.3437 235.629 25.6527 235.927 25.0594C236.228 24.4661 236.653 24.0054 237.2 23.6773C237.746 23.3492 238.393 23.1851 239.138 23.1851C239.884 23.1851 240.531 23.3492 241.077 23.6773C241.624 24.0054 242.047 24.4661 242.345 25.0594C242.647 25.6527 242.798 26.3437 242.798 27.1325C242.798 27.9214 242.647 28.6108 242.345 29.2007C242.047 29.7907 241.624 30.2497 241.077 30.5779C240.531 30.906 239.884 31.07 239.138 31.07ZM239.148 29.6283C239.553 29.6283 239.891 29.5173 240.163 29.2952C240.434 29.0698 240.637 28.7682 240.769 28.3904C240.905 28.0125 240.973 27.5916 240.973 27.1276C240.973 26.6602 240.905 26.2377 240.769 25.8598C240.637 25.4787 240.434 25.1754 240.163 24.95C239.891 24.7246 239.553 24.6119 239.148 24.6119C238.734 24.6119 238.389 24.7246 238.114 24.95C237.843 25.1754 237.639 25.4787 237.503 25.8598C237.37 26.2377 237.304 26.6602 237.304 27.1276C237.304 27.5916 237.37 28.0125 237.503 28.3904C237.639 28.7682 237.843 29.0698 238.114 29.2952C238.389 29.5173 238.734 29.6283 239.148 29.6283ZM247.906 31.07C247.16 31.07 246.514 30.906 245.967 30.5779C245.42 30.2497 244.996 29.7907 244.694 29.2007C244.396 28.6108 244.247 27.9214 244.247 27.1325C244.247 26.3437 244.396 25.6527 244.694 25.0594C244.996 24.4661 245.42 24.0054 245.967 23.6773C246.514 23.3492 247.16 23.1851 247.906 23.1851C248.652 23.1851 249.298 23.3492 249.845 23.6773C250.392 24.0054 250.814 24.4661 251.113 25.0594C251.414 25.6527 251.565 26.3437 251.565 27.1325C251.565 27.9214 251.414 28.6108 251.113 29.2007C250.814 29.7907 250.392 30.2497 249.845 30.5779C249.298 30.906 248.652 31.07 247.906 31.07ZM247.916 29.6283C248.32 29.6283 248.658 29.5173 248.93 29.2952C249.202 29.0698 249.404 28.7682 249.537 28.3904C249.673 28.0125 249.741 27.5916 249.741 27.1276C249.741 26.6602 249.673 26.2377 249.537 25.8598C249.404 25.4787 249.202 25.1754 248.93 24.95C248.658 24.7246 248.32 24.6119 247.916 24.6119C247.502 24.6119 247.157 24.7246 246.882 24.95C246.61 25.1754 246.406 25.4787 246.27 25.8598C246.138 26.2377 246.072 26.6602 246.072 27.1276C246.072 27.5916 246.138 28.0125 246.27 28.3904C246.406 28.7682 246.61 29.0698 246.882 29.2952C247.157 29.5173 247.502 29.6283 247.916 29.6283ZM254.983 28.5246L254.978 26.352H255.267L258.011 23.2845H260.114L256.738 27.0431H256.365L254.983 28.5246ZM253.343 30.9209V20.7391H255.142V30.9209H253.343ZM258.135 30.9209L255.65 27.4458L256.863 26.178L260.288 30.9209H258.135Z" fill="#1C1B1F"/>
</svg>
