<svg width="335" height="50" viewBox="0 0 335 50" fill="none" xmlns="http://www.w3.org/2000/svg">
<rect x="0.5" y="1.4209" width="334" height="48" rx="24" stroke="#DBDBDB"/>
<path d="M81.0737 17.9473C79.4751 18.5019 78.0964 19.5545 77.1402 20.9505C76.184 22.3466 75.7007 24.0124 75.7613 25.7035C75.8219 27.3945 76.4231 29.0215 77.4767 30.3456C78.5303 31.6697 79.9808 32.621 81.615 33.0598C82.9399 33.4016 84.328 33.4167 85.66 33.1035C86.8666 32.8325 87.9822 32.2527 88.8975 31.421C89.8501 30.529 90.5415 29.3941 90.8975 28.1385C91.2844 26.7731 91.3532 25.3372 91.0987 23.941H83.6587V27.0273H87.9675C87.8814 27.5195 87.6968 27.9893 87.4249 28.4086C87.153 28.8278 86.7993 29.1879 86.385 29.4673C85.8588 29.8153 85.2657 30.0495 84.6437 30.1548C84.0199 30.2708 83.3801 30.2708 82.7562 30.1548C82.124 30.024 81.5259 29.7631 81 29.3885C80.1552 28.7905 79.5208 27.9409 79.1875 26.961C78.8485 25.9628 78.8485 24.8805 79.1875 23.8823C79.4248 23.1825 79.817 22.5454 80.335 22.0185C80.9277 21.4045 81.6782 20.9655 82.5039 20.7499C83.3297 20.5342 84.1989 20.5502 85.0162 20.796C85.6547 20.992 86.2386 21.3344 86.7212 21.796C87.2071 21.3127 87.6921 20.8281 88.1762 20.3423C88.4262 20.081 88.6987 19.8323 88.945 19.5648C88.2082 18.8791 87.3433 18.3456 86.4 17.9948C84.6821 17.371 82.8025 17.3542 81.0737 17.9473Z" fill="white"/>
<path d="M81.0737 17.9471C82.8023 17.3537 84.682 17.37 86.4 17.9934C87.3435 18.3466 88.208 18.8827 88.9437 19.5709C88.6937 19.8384 88.43 20.0884 88.175 20.3484C87.69 20.8326 87.2054 21.3151 86.7212 21.7959C86.2385 21.3343 85.6547 20.9919 85.0162 20.7959C84.1992 20.5492 83.33 20.5323 82.504 20.7471C81.678 20.9618 80.9271 21.4 80.3337 22.0134C79.8158 22.5403 79.4235 23.1774 79.1862 23.8771L76.595 21.8709C77.5225 20.0316 79.1284 18.6247 81.0737 17.9471Z" fill="#E33629"/>
<path d="M75.9076 23.8583C76.0468 23.1681 76.2781 22.4996 76.5951 21.8708L79.1863 23.8821C78.8473 24.8804 78.8473 25.9626 79.1863 26.9608C78.323 27.6275 77.4592 28.2975 76.5951 28.9708C75.8015 27.3912 75.5595 25.5915 75.9076 23.8583Z" fill="#F8BD00"/>
<path d="M83.6588 23.9397H91.0988C91.3533 25.3359 91.2844 26.7718 90.8975 28.1372C90.5416 29.3928 89.8501 30.5276 88.8975 31.4197C88.0613 30.7672 87.2213 30.1197 86.385 29.4672C86.7996 29.1875 87.1535 28.8271 87.4254 28.4074C87.6973 27.9877 87.8817 27.5174 87.9675 27.0247H83.6588C83.6575 25.9972 83.6588 24.9684 83.6588 23.9397Z" fill="#587DBD"/>
<path d="M76.5938 28.9709C77.4579 28.3043 78.3217 27.6343 79.185 26.9609C79.519 27.9412 80.1543 28.7908 81 29.3884C81.5275 29.7613 82.1269 30.0201 82.76 30.1484C83.3838 30.2644 84.0237 30.2644 84.6475 30.1484C85.2695 30.0432 85.8626 29.809 86.3888 29.4609C87.225 30.1134 88.065 30.7609 88.9012 31.4134C87.9861 32.2456 86.8705 32.8258 85.6637 33.0972C84.3318 33.4103 82.9437 33.3953 81.6188 33.0534C80.5709 32.7737 79.5921 32.2804 78.7438 31.6047C77.8458 30.8918 77.1124 29.9934 76.5938 28.9709Z" fill="#319F43"/>
<path d="M109.618 24.1744H107.759C107.705 23.8695 107.608 23.5994 107.465 23.3641C107.323 23.1254 107.145 22.9233 106.933 22.7575C106.721 22.5918 106.479 22.4675 106.207 22.3847C105.939 22.2985 105.649 22.2554 105.337 22.2554C104.784 22.2554 104.293 22.3946 103.866 22.673C103.438 22.9481 103.103 23.3525 102.862 23.8861C102.62 24.4164 102.499 25.0644 102.499 25.83C102.499 26.6089 102.62 27.2651 102.862 27.7987C103.107 28.329 103.442 28.7301 103.866 29.0019C104.293 29.2703 104.782 29.4046 105.332 29.4046C105.637 29.4046 105.922 29.3648 106.188 29.2852C106.456 29.2024 106.696 29.0814 106.908 28.9223C107.124 28.7632 107.304 28.5677 107.45 28.3357C107.599 28.1037 107.702 27.8385 107.759 27.5402L109.618 27.5502C109.548 28.0341 109.397 28.4881 109.165 28.9124C108.937 29.3366 108.637 29.7111 108.266 30.036C107.894 30.3575 107.46 30.6093 106.963 30.7916C106.466 30.9706 105.914 31.0601 105.308 31.0601C104.413 31.0601 103.614 30.853 102.911 30.4387C102.209 30.0244 101.655 29.4261 101.251 28.6439C100.846 27.8617 100.644 26.9237 100.644 25.83C100.644 24.7329 100.848 23.795 101.256 23.0161C101.663 22.2339 102.219 21.6356 102.921 21.2213C103.624 20.807 104.419 20.5999 105.308 20.5999C105.874 20.5999 106.401 20.6794 106.888 20.8385C107.376 20.9976 107.81 21.2313 108.191 21.5395C108.572 21.8444 108.885 22.219 109.131 22.6631C109.379 23.1039 109.542 23.6077 109.618 24.1744ZM114.808 31.07C114.063 31.07 113.416 30.906 112.869 30.5779C112.323 30.2497 111.898 29.7907 111.597 29.2007C111.298 28.6108 111.149 27.9214 111.149 27.1325C111.149 26.3437 111.298 25.6527 111.597 25.0594C111.898 24.4661 112.323 24.0054 112.869 23.6773C113.416 23.3492 114.063 23.1851 114.808 23.1851C115.554 23.1851 116.2 23.3492 116.747 23.6773C117.294 24.0054 117.717 24.4661 118.015 25.0594C118.317 25.6527 118.468 26.3437 118.468 27.1325C118.468 27.9214 118.317 28.6108 118.015 29.2007C117.717 29.7907 117.294 30.2497 116.747 30.5779C116.2 30.906 115.554 31.07 114.808 31.07ZM114.818 29.6283C115.223 29.6283 115.561 29.5173 115.833 29.2952C116.104 29.0698 116.307 28.7682 116.439 28.3904C116.575 28.0125 116.643 27.5916 116.643 27.1276C116.643 26.6602 116.575 26.2377 116.439 25.8598C116.307 25.4787 116.104 25.1754 115.833 24.95C115.561 24.7246 115.223 24.6119 114.818 24.6119C114.404 24.6119 114.059 24.7246 113.784 24.95C113.512 25.1754 113.309 25.4787 113.173 25.8598C113.04 26.2377 112.974 26.6602 112.974 27.1276C112.974 27.5916 113.04 28.0125 113.173 28.3904C113.309 28.7682 113.512 29.0698 113.784 29.2952C114.059 29.5173 114.404 29.6283 114.818 29.6283ZM122.045 26.4465V30.9209H120.245V23.2845H121.965V24.5821H122.055C122.23 24.1546 122.51 23.8148 122.895 23.5629C123.283 23.311 123.762 23.1851 124.332 23.1851C124.859 23.1851 125.318 23.2978 125.709 23.5232C126.103 23.7485 126.408 24.075 126.624 24.5026C126.842 24.9301 126.95 25.4488 126.947 26.0587V30.9209H125.147V26.3371C125.147 25.8267 125.014 25.4273 124.749 25.1389C124.487 24.8506 124.125 24.7064 123.661 24.7064C123.346 24.7064 123.066 24.776 122.82 24.9152C122.578 25.0511 122.388 25.2483 122.249 25.5068C122.113 25.7654 122.045 26.0786 122.045 26.4465ZM132.839 23.2845V24.6766H128.45V23.2845H132.839ZM129.533 21.455H131.333V28.624C131.333 28.866 131.37 29.0516 131.442 29.1808C131.519 29.3068 131.618 29.393 131.741 29.4394C131.863 29.4858 131.999 29.509 132.148 29.509C132.261 29.509 132.364 29.5007 132.457 29.4841C132.553 29.4675 132.626 29.4526 132.675 29.4394L132.979 30.8463C132.883 30.8795 132.745 30.9159 132.566 30.9557C132.39 30.9955 132.175 31.0187 131.92 31.0253C131.469 31.0386 131.063 30.9706 130.702 30.8215C130.34 30.669 130.054 30.4337 129.842 30.1155C129.633 29.7973 129.53 29.3996 129.533 28.9223V21.455ZM134.595 30.9209V23.2845H136.394V30.9209H134.595ZM135.499 22.2007C135.214 22.2007 134.969 22.1063 134.764 21.9173C134.558 21.7251 134.455 21.4948 134.455 21.2263C134.455 20.9545 134.558 20.7242 134.764 20.5352C134.969 20.343 135.214 20.2469 135.499 20.2469C135.788 20.2469 136.033 20.343 136.235 20.5352C136.441 20.7242 136.544 20.9545 136.544 21.2263C136.544 21.4948 136.441 21.7251 136.235 21.9173C136.033 22.1063 135.788 22.2007 135.499 22.2007ZM140.295 26.4465V30.9209H138.495V23.2845H140.215V24.5821H140.305C140.48 24.1546 140.76 23.8148 141.145 23.5629C141.533 23.311 142.012 23.1851 142.582 23.1851C143.109 23.1851 143.568 23.2978 143.959 23.5232C144.353 23.7485 144.658 24.075 144.874 24.5026C145.092 24.9301 145.2 25.4488 145.197 26.0587V30.9209H143.397V26.3371C143.397 25.8267 143.264 25.4273 142.999 25.1389C142.737 24.8506 142.375 24.7064 141.911 24.7064C141.596 24.7064 141.316 24.776 141.07 24.9152C140.828 25.0511 140.638 25.2483 140.499 25.5068C140.363 25.7654 140.295 26.0786 140.295 26.4465ZM152.143 27.7093V23.2845H153.943V30.9209H152.198V29.5637H152.119C151.946 29.9912 151.663 30.3409 151.268 30.6127C150.877 30.8844 150.395 31.0203 149.822 31.0203C149.321 31.0203 148.879 30.9093 148.494 30.6872C148.113 30.4619 147.815 30.1354 147.599 29.7078C147.384 29.277 147.276 28.7566 147.276 28.1468V23.2845H149.076V27.8683C149.076 28.3522 149.209 28.7367 149.474 29.0218C149.739 29.3068 150.087 29.4493 150.518 29.4493C150.783 29.4493 151.04 29.3847 151.288 29.2554C151.537 29.1262 151.741 28.9339 151.9 28.6787C152.062 28.4202 152.143 28.097 152.143 27.7093ZM159.425 31.07C158.659 31.07 157.998 30.911 157.441 30.5928C156.887 30.2713 156.461 29.8172 156.163 29.2306C155.865 28.6406 155.716 27.9462 155.716 27.1475C155.716 26.3619 155.865 25.6726 156.163 25.0793C156.465 24.4827 156.886 24.0187 157.426 23.6872C157.966 23.3525 158.601 23.1851 159.33 23.1851C159.801 23.1851 160.245 23.2613 160.662 23.4138C161.083 23.5629 161.455 23.795 161.776 24.1098C162.101 24.4247 162.356 24.8257 162.542 25.3129C162.727 25.7968 162.82 26.3735 162.82 27.0431V27.5949H156.561V26.3818H161.095C161.092 26.0371 161.017 25.7306 160.871 25.4621C160.725 25.1903 160.522 24.9765 160.26 24.8208C160.001 24.665 159.7 24.5871 159.355 24.5871C158.987 24.5871 158.664 24.6766 158.385 24.8556C158.107 25.0312 157.89 25.2632 157.734 25.5516C157.582 25.8366 157.504 26.1498 157.501 26.4912V27.5502C157.501 27.9943 157.582 28.3754 157.744 28.6936C157.907 29.0085 158.134 29.2504 158.425 29.4195C158.717 29.5852 159.058 29.6681 159.449 29.6681C159.711 29.6681 159.948 29.6316 160.16 29.5587C160.372 29.4825 160.556 29.3714 160.712 29.2256C160.868 29.0798 160.986 28.8991 161.065 28.6837L162.746 28.8726C162.64 29.3167 162.437 29.7045 162.139 30.036C161.844 30.3641 161.466 30.6193 161.006 30.8016C160.545 30.9806 160.018 31.07 159.425 31.07ZM169.891 30.9209L167.734 23.2845H169.568L170.911 28.6539H170.98L172.352 23.2845H174.167L175.539 28.624H175.614L176.936 23.2845H178.776L176.613 30.9209H174.739L173.307 25.7604H173.202L171.771 30.9209H169.891ZM180.282 30.9209V23.2845H182.082V30.9209H180.282ZM181.187 22.2007C180.902 22.2007 180.657 22.1063 180.451 21.9173C180.246 21.7251 180.143 21.4948 180.143 21.2263C180.143 20.9545 180.246 20.7242 180.451 20.5352C180.657 20.343 180.902 20.2469 181.187 20.2469C181.475 20.2469 181.721 20.343 181.923 20.5352C182.128 20.7242 182.231 20.9545 182.231 21.2263C182.231 21.4948 182.128 21.7251 181.923 21.9173C181.721 22.1063 181.475 22.2007 181.187 22.2007ZM187.996 23.2845V24.6766H183.606V23.2845H187.996ZM184.69 21.455H186.489V28.624C186.489 28.866 186.526 29.0516 186.599 29.1808C186.675 29.3068 186.774 29.393 186.897 29.4394C187.02 29.4858 187.156 29.509 187.305 29.509C187.417 29.509 187.52 29.5007 187.613 29.4841C187.709 29.4675 187.782 29.4526 187.832 29.4394L188.135 30.8463C188.039 30.8795 187.901 30.9159 187.722 30.9557C187.547 30.9955 187.331 31.0187 187.076 31.0253C186.625 31.0386 186.219 30.9706 185.858 30.8215C185.497 30.669 185.21 30.4337 184.998 30.1155C184.789 29.7973 184.686 29.3996 184.69 28.9223V21.455ZM191.715 26.4465V30.9209H189.915V20.7391H191.675V24.5821H191.764C191.943 24.1512 192.22 23.8115 192.595 23.5629C192.972 23.311 193.453 23.1851 194.036 23.1851C194.567 23.1851 195.029 23.2961 195.423 23.5182C195.818 23.7403 196.123 24.0651 196.338 24.4926C196.557 24.9202 196.666 25.4422 196.666 26.0587V30.9209H194.867V26.3371C194.867 25.8234 194.734 25.424 194.469 25.1389C194.207 24.8506 193.839 24.7064 193.365 24.7064C193.047 24.7064 192.762 24.776 192.51 24.9152C192.262 25.0511 192.066 25.2483 191.923 25.5068C191.784 25.7654 191.715 26.0786 191.715 26.4465ZM209.374 23.9905C209.291 23.722 209.177 23.4817 209.031 23.2696C208.889 23.0542 208.716 22.8702 208.514 22.7178C208.315 22.5653 208.086 22.451 207.828 22.3747C207.569 22.2952 207.288 22.2554 206.983 22.2554C206.436 22.2554 205.949 22.393 205.521 22.6681C205.094 22.9432 204.757 23.3475 204.512 23.8811C204.27 24.4114 204.149 25.0577 204.149 25.82C204.149 26.589 204.27 27.2403 204.512 27.7739C204.754 28.3075 205.09 28.7135 205.521 28.9919C205.952 29.267 206.452 29.4046 207.023 29.4046C207.54 29.4046 207.987 29.3051 208.365 29.1063C208.746 28.9074 209.039 28.6257 209.245 28.2611C209.45 27.8932 209.553 27.4623 209.553 26.9685L209.971 27.0331H207.206V25.5914H211.338V26.8144C211.338 27.686 211.152 28.4401 210.781 29.0764C210.41 29.7128 209.899 30.2033 209.25 30.548C208.6 30.8894 207.854 31.0601 207.013 31.0601C206.075 31.0601 205.251 30.8496 204.542 30.4287C203.836 30.0045 203.284 29.4029 202.886 28.624C202.492 27.8418 202.295 26.9138 202.295 25.8399C202.295 25.018 202.411 24.2838 202.643 23.6375C202.878 22.9912 203.206 22.4427 203.627 21.9919C204.048 21.5378 204.542 21.1932 205.108 20.9578C205.675 20.7192 206.292 20.5999 206.958 20.5999C207.521 20.5999 208.047 20.6827 208.534 20.8485C209.021 21.0109 209.454 21.2429 209.831 21.5445C210.213 21.8461 210.526 22.204 210.771 22.6183C211.016 23.0326 211.177 23.49 211.253 23.9905H209.374ZM216.623 31.07C215.877 31.07 215.231 30.906 214.684 30.5779C214.137 30.2497 213.713 29.7907 213.411 29.2007C213.113 28.6108 212.964 27.9214 212.964 27.1325C212.964 26.3437 213.113 25.6527 213.411 25.0594C213.713 24.4661 214.137 24.0054 214.684 23.6773C215.231 23.3492 215.877 23.1851 216.623 23.1851C217.369 23.1851 218.015 23.3492 218.562 23.6773C219.109 24.0054 219.531 24.4661 219.83 25.0594C220.131 25.6527 220.282 26.3437 220.282 27.1325C220.282 27.9214 220.131 28.6108 219.83 29.2007C219.531 29.7907 219.109 30.2497 218.562 30.5779C218.015 30.906 217.369 31.07 216.623 31.07ZM216.633 29.6283C217.037 29.6283 217.375 29.5173 217.647 29.2952C217.919 29.0698 218.121 28.7682 218.254 28.3904C218.389 28.0125 218.457 27.5916 218.457 27.1276C218.457 26.6602 218.389 26.2377 218.254 25.8598C218.121 25.4787 217.919 25.1754 217.647 24.95C217.375 24.7246 217.037 24.6119 216.633 24.6119C216.219 24.6119 215.874 24.7246 215.599 24.95C215.327 25.1754 215.123 25.4787 214.987 25.8598C214.855 26.2377 214.788 26.6602 214.788 27.1276C214.788 27.5916 214.855 28.0125 214.987 28.3904C215.123 28.7682 215.327 29.0698 215.599 29.2952C215.874 29.5173 216.219 29.6283 216.633 29.6283ZM225.39 31.07C224.645 31.07 223.998 30.906 223.452 30.5779C222.905 30.2497 222.48 29.7907 222.179 29.2007C221.881 28.6108 221.731 27.9214 221.731 27.1325C221.731 26.3437 221.881 25.6527 222.179 25.0594C222.48 24.4661 222.905 24.0054 223.452 23.6773C223.998 23.3492 224.645 23.1851 225.39 23.1851C226.136 23.1851 226.782 23.3492 227.329 23.6773C227.876 24.0054 228.299 24.4661 228.597 25.0594C228.899 25.6527 229.05 26.3437 229.05 27.1325C229.05 27.9214 228.899 28.6108 228.597 29.2007C228.299 29.7907 227.876 30.2497 227.329 30.5779C226.782 30.906 226.136 31.07 225.39 31.07ZM225.4 29.6283C225.805 29.6283 226.143 29.5173 226.415 29.2952C226.686 29.0698 226.889 28.7682 227.021 28.3904C227.157 28.0125 227.225 27.5916 227.225 27.1276C227.225 26.6602 227.157 26.2377 227.021 25.8598C226.889 25.4787 226.686 25.1754 226.415 24.95C226.143 24.7246 225.805 24.6119 225.4 24.6119C224.986 24.6119 224.641 24.7246 224.366 24.95C224.095 25.1754 223.891 25.4787 223.755 25.8598C223.622 26.2377 223.556 26.6602 223.556 27.1276C223.556 27.5916 223.622 28.0125 223.755 28.3904C223.891 28.7682 224.095 29.0698 224.366 29.2952C224.641 29.5173 224.986 29.6283 225.4 29.6283ZM234.148 33.9436C233.502 33.9436 232.947 33.8558 232.483 33.6801C232.019 33.5078 231.646 33.2758 231.364 32.9841C231.082 32.6924 230.887 32.3693 230.777 32.0146L232.398 31.6219C232.471 31.771 232.577 31.9185 232.716 32.0644C232.855 32.2135 233.043 32.3361 233.278 32.4323C233.517 32.5317 233.817 32.5814 234.178 32.5814C234.688 32.5814 235.111 32.4571 235.446 32.2085C235.78 31.9633 235.948 31.5589 235.948 30.9955V29.5487H235.858C235.766 29.7343 235.63 29.9249 235.451 30.1205C235.275 30.316 235.041 30.4801 234.75 30.6127C234.461 30.7452 234.098 30.8115 233.661 30.8115C233.074 30.8115 232.542 30.674 232.065 30.3989C231.591 30.1205 231.213 29.7062 230.931 29.156C230.653 28.6025 230.514 27.9098 230.514 27.0779C230.514 26.2393 230.653 25.5317 230.931 24.955C231.213 24.375 231.593 23.9358 232.07 23.6375C232.547 23.3359 233.079 23.1851 233.666 23.1851C234.113 23.1851 234.481 23.2613 234.77 23.4138C235.061 23.5629 235.293 23.7436 235.466 23.9557C235.638 24.1645 235.769 24.3617 235.858 24.5473H235.958V23.2845H237.733V31.0452C237.733 31.6981 237.577 32.2384 237.265 32.6659C236.954 33.0935 236.528 33.4133 235.988 33.6254C235.447 33.8376 234.834 33.9436 234.148 33.9436ZM234.163 29.3996C234.544 29.3996 234.869 29.3068 235.137 29.1212C235.406 28.9356 235.61 28.6688 235.749 28.3208C235.888 27.9727 235.958 27.5551 235.958 27.0679C235.958 26.5873 235.888 26.1664 235.749 25.8051C235.613 25.4439 235.411 25.1638 235.142 24.9649C234.877 24.7628 234.551 24.6617 234.163 24.6617C233.762 24.6617 233.427 24.7661 233.159 24.9749C232.89 25.1837 232.688 25.4704 232.552 25.835C232.416 26.1962 232.348 26.6072 232.348 27.0679C232.348 27.5352 232.416 27.9446 232.552 28.2959C232.691 28.6439 232.895 28.9157 233.164 29.1112C233.435 29.3035 233.769 29.3996 234.163 29.3996ZM241.627 20.7391V30.9209H239.827V20.7391H241.627ZM247.108 31.07C246.343 31.07 245.681 30.911 245.124 30.5928C244.571 30.2713 244.145 29.8172 243.847 29.2306C243.548 28.6406 243.399 27.9462 243.399 27.1475C243.399 26.3619 243.548 25.6726 243.847 25.0793C244.148 24.4827 244.569 24.0187 245.11 23.6872C245.65 23.3525 246.285 23.1851 247.014 23.1851C247.484 23.1851 247.928 23.2613 248.346 23.4138C248.767 23.5629 249.138 23.795 249.46 24.1098C249.785 24.4247 250.04 24.8257 250.225 25.3129C250.411 25.7968 250.504 26.3735 250.504 27.0431V27.5949H244.244V26.3818H248.779C248.775 26.0371 248.701 25.7306 248.555 25.4621C248.409 25.1903 248.205 24.9765 247.943 24.8208C247.685 24.665 247.383 24.5871 247.039 24.5871C246.671 24.5871 246.347 24.6766 246.069 24.8556C245.791 25.0312 245.574 25.2632 245.418 25.5516C245.265 25.8366 245.187 26.1498 245.184 26.4912V27.5502C245.184 27.9943 245.265 28.3754 245.428 28.6936C245.59 29.0085 245.817 29.2504 246.109 29.4195C246.401 29.5852 246.742 29.6681 247.133 29.6681C247.395 29.6681 247.632 29.6316 247.844 29.5587C248.056 29.4825 248.24 29.3714 248.396 29.2256C248.552 29.0798 248.669 28.8991 248.749 28.6837L250.429 28.8726C250.323 29.3167 250.121 29.7045 249.823 30.036C249.528 30.3641 249.15 30.6193 248.689 30.8016C248.228 30.9806 247.701 31.07 247.108 31.07Z" fill="#1C1B1F"/>
</svg>
