<svg width="343" height="185" viewBox="0 0 343 185" fill="none" xmlns="http://www.w3.org/2000/svg">
<path d="M8.30469 13.3125V15H2.58594V13.3125H8.30469ZM3.23438 3.625V15H1.08594V3.625H3.23438ZM11.7734 6.54688V15H9.70312V6.54688H11.7734ZM9.5625 4.33594C9.5625 4.02865 9.66667 3.77344 9.875 3.57031C10.0885 3.36719 10.375 3.26562 10.7344 3.26562C11.0938 3.26562 11.3776 3.36719 11.5859 3.57031C11.7995 3.77344 11.9062 4.02865 11.9062 4.33594C11.9062 4.63802 11.7995 4.89062 11.5859 5.09375C11.3776 5.29688 11.0938 5.39844 10.7344 5.39844C10.375 5.39844 10.0885 5.29688 9.875 5.09375C9.66667 4.89062 9.5625 4.63802 9.5625 4.33594ZM18.3906 12.6875C18.3906 12.5104 18.3438 12.3516 18.25 12.2109C18.1562 12.0703 17.9792 11.9427 17.7188 11.8281C17.4635 11.7083 17.0885 11.5964 16.5938 11.4922C16.1562 11.3984 15.7526 11.2812 15.3828 11.1406C15.013 11 14.6953 10.8307 14.4297 10.6328C14.1641 10.4297 13.9557 10.1927 13.8047 9.92188C13.6589 9.64583 13.5859 9.32812 13.5859 8.96875C13.5859 8.61979 13.6615 8.29167 13.8125 7.98438C13.9635 7.67188 14.1823 7.39844 14.4688 7.16406C14.7552 6.92448 15.1042 6.73698 15.5156 6.60156C15.9271 6.46094 16.3906 6.39062 16.9062 6.39062C17.625 6.39062 18.2422 6.50781 18.7578 6.74219C19.2786 6.97656 19.6771 7.29948 19.9531 7.71094C20.2292 8.11719 20.3672 8.57552 20.3672 9.08594H18.3047C18.3047 8.86198 18.2526 8.65885 18.1484 8.47656C18.0495 8.29427 17.8958 8.14844 17.6875 8.03906C17.4792 7.92448 17.2161 7.86719 16.8984 7.86719C16.612 7.86719 16.3698 7.91406 16.1719 8.00781C15.9792 8.10156 15.8333 8.22396 15.7344 8.375C15.6354 8.52604 15.5859 8.69271 15.5859 8.875C15.5859 9.01042 15.612 9.13281 15.6641 9.24219C15.7214 9.34635 15.8125 9.44271 15.9375 9.53125C16.0625 9.61979 16.2318 9.70052 16.4453 9.77344C16.6641 9.84635 16.9323 9.91667 17.25 9.98438C17.8802 10.1094 18.4297 10.276 18.8984 10.4844C19.3724 10.6875 19.7422 10.9583 20.0078 11.2969C20.2734 11.6354 20.4062 12.0677 20.4062 12.5938C20.4062 12.9688 20.3255 13.3125 20.1641 13.625C20.0026 13.9323 19.7682 14.2005 19.4609 14.4297C19.1536 14.6589 18.7865 14.8385 18.3594 14.9688C17.9323 15.0938 17.4505 15.1562 16.9141 15.1562C16.138 15.1562 15.4818 15.0182 14.9453 14.7422C14.4089 14.4609 14.0026 14.1068 13.7266 13.6797C13.4505 13.2474 13.3125 12.7995 13.3125 12.3359H15.2891C15.3047 12.6641 15.3932 12.9271 15.5547 13.125C15.7161 13.3229 15.9193 13.4661 16.1641 13.5547C16.4141 13.638 16.6771 13.6797 16.9531 13.6797C17.2656 13.6797 17.5286 13.638 17.7422 13.5547C17.9557 13.4661 18.1172 13.349 18.2266 13.2031C18.3359 13.0521 18.3906 12.8802 18.3906 12.6875ZM25.9766 6.54688V8.03125H21.1328V6.54688H25.9766ZM22.4297 4.46875H24.5V12.5625C24.5 12.8125 24.5339 13.0052 24.6016 13.1406C24.6693 13.276 24.7708 13.3672 24.9062 13.4141C25.0417 13.4609 25.2031 13.4844 25.3906 13.4844C25.526 13.4844 25.651 13.4766 25.7656 13.4609C25.8802 13.4453 25.9766 13.4297 26.0547 13.4141L26.0625 14.9609C25.8906 15.0182 25.6953 15.0651 25.4766 15.1016C25.263 15.138 25.0208 15.1562 24.75 15.1562C24.2865 15.1562 23.8802 15.0781 23.5312 14.9219C23.1823 14.7604 22.9115 14.5026 22.7188 14.1484C22.526 13.7891 22.4297 13.3151 22.4297 12.7266V4.46875ZM31.1484 15.1562C30.5078 15.1562 29.9323 15.0521 29.4219 14.8438C28.9115 14.6354 28.4766 14.3464 28.1172 13.9766C27.763 13.6016 27.4896 13.1667 27.2969 12.6719C27.1094 12.1719 27.0156 11.6354 27.0156 11.0625V10.75C27.0156 10.099 27.1094 9.50781 27.2969 8.97656C27.4844 8.4401 27.75 7.97917 28.0938 7.59375C28.4375 7.20833 28.849 6.91146 29.3281 6.70312C29.8073 6.49479 30.3359 6.39062 30.9141 6.39062C31.513 6.39062 32.0417 6.49219 32.5 6.69531C32.9583 6.89323 33.3411 7.17448 33.6484 7.53906C33.9557 7.90365 34.1875 8.34115 34.3438 8.85156C34.5 9.35677 34.5781 9.91667 34.5781 10.5312V11.3984H27.9531V9.97656H32.5469V9.82031C32.5365 9.49219 32.474 9.19271 32.3594 8.92188C32.2448 8.64583 32.0677 8.42708 31.8281 8.26562C31.5885 8.09896 31.2786 8.01562 30.8984 8.01562C30.5911 8.01562 30.3229 8.08333 30.0938 8.21875C29.8698 8.34896 29.6823 8.53646 29.5312 8.78125C29.3854 9.02083 29.276 9.30729 29.2031 9.64062C29.1302 9.97396 29.0938 10.3438 29.0938 10.75V11.0625C29.0938 11.4167 29.1406 11.7448 29.2344 12.0469C29.3333 12.349 29.4766 12.612 29.6641 12.8359C29.8568 13.0547 30.0859 13.2266 30.3516 13.3516C30.6224 13.4714 30.9297 13.5312 31.2734 13.5312C31.7057 13.5312 32.0964 13.4479 32.4453 13.2812C32.7995 13.1094 33.1068 12.8568 33.3672 12.5234L34.4062 13.6016C34.2292 13.862 33.9896 14.112 33.6875 14.3516C33.3906 14.5911 33.0312 14.7865 32.6094 14.9375C32.1875 15.0833 31.7005 15.1562 31.1484 15.1562ZM41.0312 13.2031V3H43.1094V15H41.2344L41.0312 13.2031ZM35.6016 10.875V10.7109C35.6016 10.0651 35.6745 9.47917 35.8203 8.95312C35.9714 8.42188 36.1901 7.96615 36.4766 7.58594C36.763 7.20573 37.1094 6.91146 37.5156 6.70312C37.9271 6.49479 38.3932 6.39062 38.9141 6.39062C39.4193 6.39062 39.8594 6.49219 40.2344 6.69531C40.6146 6.89844 40.9375 7.1875 41.2031 7.5625C41.474 7.9375 41.6901 8.38281 41.8516 8.89844C42.013 9.40885 42.1302 9.97135 42.2031 10.5859V11.0312C42.1302 11.6302 42.013 12.1797 41.8516 12.6797C41.6901 13.1797 41.474 13.6172 41.2031 13.9922C40.9375 14.362 40.6146 14.6484 40.2344 14.8516C39.8542 15.0547 39.4089 15.1562 38.8984 15.1562C38.3828 15.1562 37.9193 15.0495 37.5078 14.8359C37.1016 14.6224 36.7552 14.3229 36.4688 13.9375C36.1875 13.5521 35.9714 13.099 35.8203 12.5781C35.6745 12.0573 35.6016 11.4896 35.6016 10.875ZM37.6719 10.7109V10.875C37.6719 11.2396 37.7031 11.5807 37.7656 11.8984C37.8281 12.2161 37.9297 12.4974 38.0703 12.7422C38.2109 12.9818 38.3906 13.1693 38.6094 13.3047C38.8333 13.4401 39.1042 13.5078 39.4219 13.5078C39.8281 13.5078 40.1615 13.4193 40.4219 13.2422C40.6875 13.0599 40.8932 12.8125 41.0391 12.5C41.1849 12.1823 41.2786 11.8255 41.3203 11.4297V10.2031C41.2995 9.89062 41.2448 9.60156 41.1562 9.33594C41.0729 9.07031 40.9531 8.84115 40.7969 8.64844C40.6458 8.45573 40.4583 8.30469 40.2344 8.19531C40.0104 8.08594 39.7448 8.03125 39.4375 8.03125C39.1198 8.03125 38.849 8.10156 38.625 8.24219C38.401 8.3776 38.2188 8.56771 38.0781 8.8125C37.9375 9.05729 37.8333 9.34115 37.7656 9.66406C37.7031 9.98698 37.6719 10.3359 37.6719 10.7109ZM55.0703 12.0469C55.0703 11.8281 55.0365 11.6328 54.9688 11.4609C54.9062 11.2839 54.7891 11.125 54.6172 10.9844C54.4505 10.8385 54.2135 10.6979 53.9062 10.5625C53.6042 10.4219 53.2135 10.276 52.7344 10.125C52.2031 9.95833 51.7083 9.77083 51.25 9.5625C50.7917 9.35417 50.388 9.11198 50.0391 8.83594C49.6953 8.5599 49.4271 8.24219 49.2344 7.88281C49.0417 7.51823 48.9453 7.09635 48.9453 6.61719C48.9453 6.14844 49.0443 5.72135 49.2422 5.33594C49.4453 4.95052 49.7318 4.61979 50.1016 4.34375C50.4714 4.0625 50.9062 3.84635 51.4062 3.69531C51.9115 3.54427 52.4688 3.46875 53.0781 3.46875C53.9219 3.46875 54.651 3.6224 55.2656 3.92969C55.8854 4.23698 56.3646 4.65365 56.7031 5.17969C57.0417 5.70573 57.2109 6.29688 57.2109 6.95312H55.0703C55.0703 6.59896 54.9948 6.28646 54.8438 6.01562C54.6979 5.74479 54.474 5.53125 54.1719 5.375C53.875 5.21875 53.5 5.14062 53.0469 5.14062C52.6094 5.14062 52.2448 5.20573 51.9531 5.33594C51.6667 5.46615 51.4505 5.64323 51.3047 5.86719C51.1641 6.09115 51.0938 6.34115 51.0938 6.61719C51.0938 6.82552 51.1432 7.01302 51.2422 7.17969C51.3411 7.34115 51.4896 7.49479 51.6875 7.64062C51.8854 7.78125 52.1302 7.91406 52.4219 8.03906C52.7188 8.15885 53.0625 8.27865 53.4531 8.39844C54.0781 8.58594 54.625 8.79427 55.0938 9.02344C55.5677 9.2526 55.9609 9.51302 56.2734 9.80469C56.5911 10.0964 56.8281 10.4245 56.9844 10.7891C57.1458 11.1536 57.2266 11.5677 57.2266 12.0312C57.2266 12.5208 57.1302 12.9583 56.9375 13.3438C56.7448 13.7292 56.4688 14.0573 56.1094 14.3281C55.75 14.599 55.3177 14.8047 54.8125 14.9453C54.3125 15.0859 53.7526 15.1562 53.1328 15.1562C52.5807 15.1562 52.0339 15.0833 51.4922 14.9375C50.9557 14.7865 50.4688 14.5625 50.0312 14.2656C49.5938 13.9635 49.2448 13.5833 48.9844 13.125C48.724 12.6615 48.5938 12.1198 48.5938 11.5H50.75C50.75 11.8594 50.8073 12.1667 50.9219 12.4219C51.0417 12.6719 51.2083 12.8776 51.4219 13.0391C51.6406 13.1953 51.8958 13.3099 52.1875 13.3828C52.4792 13.4557 52.7943 13.4922 53.1328 13.4922C53.5703 13.4922 53.9297 13.4323 54.2109 13.3125C54.4974 13.1875 54.7109 13.0156 54.8516 12.7969C54.9974 12.5781 55.0703 12.3281 55.0703 12.0469ZM62.5234 15.1562C61.8828 15.1562 61.3073 15.0521 60.7969 14.8438C60.2865 14.6354 59.8516 14.3464 59.4922 13.9766C59.138 13.6016 58.8646 13.1667 58.6719 12.6719C58.4844 12.1719 58.3906 11.6354 58.3906 11.0625V10.75C58.3906 10.099 58.4844 9.50781 58.6719 8.97656C58.8594 8.4401 59.125 7.97917 59.4688 7.59375C59.8125 7.20833 60.224 6.91146 60.7031 6.70312C61.1823 6.49479 61.7109 6.39062 62.2891 6.39062C62.888 6.39062 63.4167 6.49219 63.875 6.69531C64.3333 6.89323 64.7161 7.17448 65.0234 7.53906C65.3307 7.90365 65.5625 8.34115 65.7188 8.85156C65.875 9.35677 65.9531 9.91667 65.9531 10.5312V11.3984H59.3281V9.97656H63.9219V9.82031C63.9115 9.49219 63.849 9.19271 63.7344 8.92188C63.6198 8.64583 63.4427 8.42708 63.2031 8.26562C62.9635 8.09896 62.6536 8.01562 62.2734 8.01562C61.9661 8.01562 61.6979 8.08333 61.4688 8.21875C61.2448 8.34896 61.0573 8.53646 60.9062 8.78125C60.7604 9.02083 60.651 9.30729 60.5781 9.64062C60.5052 9.97396 60.4688 10.3438 60.4688 10.75V11.0625C60.4688 11.4167 60.5156 11.7448 60.6094 12.0469C60.7083 12.349 60.8516 12.612 61.0391 12.8359C61.2318 13.0547 61.4609 13.2266 61.7266 13.3516C61.9974 13.4714 62.3047 13.5312 62.6484 13.5312C63.0807 13.5312 63.4714 13.4479 63.8203 13.2812C64.1745 13.1094 64.4818 12.8568 64.7422 12.5234L65.7812 13.6016C65.6042 13.862 65.3646 14.112 65.0625 14.3516C64.7656 14.5911 64.4062 14.7865 63.9844 14.9375C63.5625 15.0833 63.0755 15.1562 62.5234 15.1562ZM69.3984 8.27344V15H67.3359V6.54688H69.2891L69.3984 8.27344ZM71.9688 6.49219L71.9375 8.41406C71.8229 8.39323 71.6927 8.3776 71.5469 8.36719C71.4062 8.35677 71.2734 8.35156 71.1484 8.35156C70.8307 8.35156 70.5521 8.39583 70.3125 8.48438C70.0729 8.56771 69.8724 8.6901 69.7109 8.85156C69.5547 9.01302 69.4349 9.21094 69.3516 9.44531C69.2682 9.67448 69.2214 9.9349 69.2109 10.2266L68.7656 10.1719C68.7656 9.63542 68.8203 9.13802 68.9297 8.67969C69.0391 8.22135 69.1979 7.82031 69.4062 7.47656C69.6146 7.13281 69.875 6.86719 70.1875 6.67969C70.5052 6.48698 70.8698 6.39062 71.2812 6.39062C71.3958 6.39062 71.5182 6.40104 71.6484 6.42188C71.7839 6.4375 71.8906 6.46094 71.9688 6.49219ZM76.0469 13.4375L78.0156 6.54688H80.1719L77.2734 15H75.9609L76.0469 13.4375ZM74.6094 6.54688L76.6016 13.4531L76.6719 15H75.3516L72.4453 6.54688H74.6094ZM83.4453 6.54688V15H81.375V6.54688H83.4453ZM81.2344 4.33594C81.2344 4.02865 81.3385 3.77344 81.5469 3.57031C81.7604 3.36719 82.0469 3.26562 82.4062 3.26562C82.7656 3.26562 83.0495 3.36719 83.2578 3.57031C83.4714 3.77344 83.5781 4.02865 83.5781 4.33594C83.5781 4.63802 83.4714 4.89062 83.2578 5.09375C83.0495 5.29688 82.7656 5.39844 82.4062 5.39844C82.0469 5.39844 81.7604 5.29688 81.5469 5.09375C81.3385 4.89062 81.2344 4.63802 81.2344 4.33594ZM88.8828 13.5312C89.1745 13.5312 89.4349 13.474 89.6641 13.3594C89.8932 13.2448 90.0755 13.0833 90.2109 12.875C90.3516 12.6667 90.4271 12.4245 90.4375 12.1484H92.3828C92.3724 12.7214 92.2109 13.2344 91.8984 13.6875C91.5859 14.1406 91.1693 14.5 90.6484 14.7656C90.1328 15.026 89.5547 15.1562 88.9141 15.1562C88.263 15.1562 87.6953 15.0469 87.2109 14.8281C86.7266 14.6094 86.3229 14.3047 86 13.9141C85.6823 13.5234 85.4427 13.0703 85.2812 12.5547C85.125 12.0391 85.0469 11.487 85.0469 10.8984V10.6484C85.0469 10.0599 85.125 9.50781 85.2812 8.99219C85.4427 8.47656 85.6823 8.02344 86 7.63281C86.3229 7.24219 86.7266 6.9375 87.2109 6.71875C87.6953 6.5 88.2604 6.39062 88.9062 6.39062C89.5885 6.39062 90.1875 6.52344 90.7031 6.78906C91.224 7.05469 91.6302 7.42969 91.9219 7.91406C92.2188 8.39844 92.3724 8.96875 92.3828 9.625H90.4375C90.4271 9.32292 90.3594 9.05208 90.2344 8.8125C90.1094 8.57292 89.9323 8.38021 89.7031 8.23438C89.474 8.08854 89.1953 8.01562 88.8672 8.01562C88.5182 8.01562 88.2266 8.08854 87.9922 8.23438C87.763 8.38021 87.5833 8.58073 87.4531 8.83594C87.3281 9.08594 87.2396 9.36719 87.1875 9.67969C87.1406 9.98698 87.1172 10.3099 87.1172 10.6484V10.8984C87.1172 11.2422 87.1406 11.5703 87.1875 11.8828C87.2396 12.1953 87.3281 12.4766 87.4531 12.7266C87.5833 12.9714 87.763 13.1667 87.9922 13.3125C88.2266 13.4583 88.5234 13.5312 88.8828 13.5312ZM97.5547 15.1562C96.9141 15.1562 96.3385 15.0521 95.8281 14.8438C95.3177 14.6354 94.8828 14.3464 94.5234 13.9766C94.1693 13.6016 93.8958 13.1667 93.7031 12.6719C93.5156 12.1719 93.4219 11.6354 93.4219 11.0625V10.75C93.4219 10.099 93.5156 9.50781 93.7031 8.97656C93.8906 8.4401 94.1562 7.97917 94.5 7.59375C94.8438 7.20833 95.2552 6.91146 95.7344 6.70312C96.2135 6.49479 96.7422 6.39062 97.3203 6.39062C97.9193 6.39062 98.4479 6.49219 98.9062 6.69531C99.3646 6.89323 99.7474 7.17448 100.055 7.53906C100.362 7.90365 100.594 8.34115 100.75 8.85156C100.906 9.35677 100.984 9.91667 100.984 10.5312V11.3984H94.3594V9.97656H98.9531V9.82031C98.9427 9.49219 98.8802 9.19271 98.7656 8.92188C98.651 8.64583 98.474 8.42708 98.2344 8.26562C97.9948 8.09896 97.6849 8.01562 97.3047 8.01562C96.9974 8.01562 96.7292 8.08333 96.5 8.21875C96.276 8.34896 96.0885 8.53646 95.9375 8.78125C95.7917 9.02083 95.6823 9.30729 95.6094 9.64062C95.5365 9.97396 95.5 10.3438 95.5 10.75V11.0625C95.5 11.4167 95.5469 11.7448 95.6406 12.0469C95.7396 12.349 95.8828 12.612 96.0703 12.8359C96.263 13.0547 96.4922 13.2266 96.7578 13.3516C97.0286 13.4714 97.3359 13.5312 97.6797 13.5312C98.112 13.5312 98.5026 13.4479 98.8516 13.2812C99.2057 13.1094 99.513 12.8568 99.7734 12.5234L100.812 13.6016C100.635 13.862 100.396 14.112 100.094 14.3516C99.7969 14.5911 99.4375 14.7865 99.0156 14.9375C98.5938 15.0833 98.1068 15.1562 97.5547 15.1562ZM107.016 12.6875C107.016 12.5104 106.969 12.3516 106.875 12.2109C106.781 12.0703 106.604 11.9427 106.344 11.8281C106.089 11.7083 105.714 11.5964 105.219 11.4922C104.781 11.3984 104.378 11.2812 104.008 11.1406C103.638 11 103.32 10.8307 103.055 10.6328C102.789 10.4297 102.581 10.1927 102.43 9.92188C102.284 9.64583 102.211 9.32812 102.211 8.96875C102.211 8.61979 102.286 8.29167 102.438 7.98438C102.589 7.67188 102.807 7.39844 103.094 7.16406C103.38 6.92448 103.729 6.73698 104.141 6.60156C104.552 6.46094 105.016 6.39062 105.531 6.39062C106.25 6.39062 106.867 6.50781 107.383 6.74219C107.904 6.97656 108.302 7.29948 108.578 7.71094C108.854 8.11719 108.992 8.57552 108.992 9.08594H106.93C106.93 8.86198 106.878 8.65885 106.773 8.47656C106.674 8.29427 106.521 8.14844 106.312 8.03906C106.104 7.92448 105.841 7.86719 105.523 7.86719C105.237 7.86719 104.995 7.91406 104.797 8.00781C104.604 8.10156 104.458 8.22396 104.359 8.375C104.26 8.52604 104.211 8.69271 104.211 8.875C104.211 9.01042 104.237 9.13281 104.289 9.24219C104.346 9.34635 104.438 9.44271 104.562 9.53125C104.688 9.61979 104.857 9.70052 105.07 9.77344C105.289 9.84635 105.557 9.91667 105.875 9.98438C106.505 10.1094 107.055 10.276 107.523 10.4844C107.997 10.6875 108.367 10.9583 108.633 11.2969C108.898 11.6354 109.031 12.0677 109.031 12.5938C109.031 12.9688 108.951 13.3125 108.789 13.625C108.628 13.9323 108.393 14.2005 108.086 14.4297C107.779 14.6589 107.411 14.8385 106.984 14.9688C106.557 15.0938 106.076 15.1562 105.539 15.1562C104.763 15.1562 104.107 15.0182 103.57 14.7422C103.034 14.4609 102.628 14.1068 102.352 13.6797C102.076 13.2474 101.938 12.7995 101.938 12.3359H103.914C103.93 12.6641 104.018 12.9271 104.18 13.125C104.341 13.3229 104.544 13.4661 104.789 13.5547C105.039 13.638 105.302 13.6797 105.578 13.6797C105.891 13.6797 106.154 13.638 106.367 13.5547C106.581 13.4661 106.742 13.349 106.852 13.2031C106.961 13.0521 107.016 12.8802 107.016 12.6875Z" fill="black"/>
<rect y="35" width="70" height="65" rx="6" fill="#E8FFFC"/>
<g clip-path="url(#clip0_26_961)">
<path d="M26.8709 61.4593V62.8064H35.5807V57H30.0558L26.8709 61.4593ZM34.4193 58.1613V61.6451H28.1653L30.654 58.1613H34.4193Z" fill="#074139"/>
<path d="M36.1613 57V62.8064H44.871V61.4593L41.6862 57H36.1613ZM37.3226 61.6451V58.1613H41.0881L43.5768 61.6451H37.3226Z" fill="#074139"/>
<path d="M50.8186 61.6626L48.4978 61.0819C47.9131 60.9339 47.5751 60.7056 47.0856 60.1465L44.1674 56.0617C43.4189 55.1043 42.5613 54.6775 41.3872 54.6775H30.355C29.1804 54.6775 28.3227 55.1043 27.5597 56.0821L24.6907 60.103C24.1693 60.7034 23.7716 60.9763 23.2914 61.0726L19.7849 61.6573C18.1195 62.004 17 63.3993 17 65.1291V69.1935C17 70.4524 18.0638 71.5162 19.3226 71.5162H21.1111C21.3944 73.4823 23.0858 75 25.1291 75H53V73.8387H47.7097C48.3333 73.2284 48.7584 72.4196 48.8889 71.5161H51.258C52.6975 71.5161 53 70.5685 53 69.7741V64.5483C53 63.109 51.8254 61.8327 50.8186 61.6626ZM25.1291 73.8388C23.5282 73.8388 22.2258 72.5363 22.2258 70.9355C22.2258 69.3346 23.5282 68.0322 25.1291 68.0322C26.73 68.0322 28.0324 69.3346 28.0324 70.9355C28.0324 72.5364 26.73 73.8388 25.1291 73.8388ZM27.9679 73.8387C28.5914 73.2284 29.0165 72.4196 29.1471 71.5161H40.8529C40.983 72.4196 41.408 73.2284 42.0321 73.8387H27.9679ZM44.8709 73.8387C43.27 73.8387 41.9676 72.5363 41.9676 70.9354C41.9676 69.3345 43.27 68.0321 44.8709 68.0321C46.4718 68.0321 47.7742 69.3345 47.7742 70.9354C47.7742 72.5363 46.4718 73.8387 44.8709 73.8387ZM51.8387 69.7742C51.8387 70.2729 51.7574 70.3549 51.258 70.3549H48.8889C48.6056 68.3888 46.9142 66.871 44.8709 66.871C42.8277 66.871 41.1362 68.3889 40.8529 70.3549H29.1471C28.8637 68.3888 27.1723 66.871 25.1291 66.871C23.0858 66.871 21.3943 68.3889 21.1111 70.3549H19.3226C18.7043 70.3549 18.1613 69.812 18.1613 69.1935V66.2903H19.3226V67.4516H20.4839V66.2903C20.4839 65.5412 20.0717 65.1289 19.3226 65.1289H18.1613C18.1613 63.6924 19.1223 62.9812 19.999 62.7983L23.5015 62.2142C24.2592 62.062 24.877 61.6585 25.6017 60.8212L28.4899 56.7765C29.0241 56.093 29.5299 55.8388 30.3549 55.8388H41.3871C42.2116 55.8388 42.7174 56.0932 43.237 56.7569L46.1744 60.8649C46.744 61.5198 47.2834 61.9728 48.2137 62.2079L50.5792 62.7978C51.0751 62.8831 51.8387 63.6722 51.8387 64.5484V69.7742Z" fill="#074139"/>
<path d="M35.5807 63.9678H33.8387V65.1291H35.5807V63.9678Z" fill="#074139"/>
<path d="M25.1291 69.1936C24.1687 69.1936 23.3871 69.9752 23.3871 70.9356C23.3871 71.8959 24.1687 72.6775 25.1291 72.6775C26.0894 72.6775 26.871 71.8959 26.871 70.9356C26.8709 69.9752 26.0894 69.1936 25.1291 69.1936ZM25.1291 71.5162C24.8091 71.5162 24.5484 71.2561 24.5484 70.9356C24.5484 70.615 24.8091 70.3549 25.1291 70.3549C25.449 70.3549 25.7097 70.615 25.7097 70.9356C25.7097 71.2561 25.4489 71.5162 25.1291 71.5162Z" fill="#074139"/>
<path d="M44.8709 69.1936C43.9106 69.1936 43.129 69.9752 43.129 70.9356C43.129 71.8959 43.9106 72.6775 44.8709 72.6775C45.8313 72.6775 46.6129 71.8959 46.6129 70.9356C46.6129 69.9752 45.8314 69.1936 44.8709 69.1936ZM44.8709 71.5162C44.551 71.5162 44.2903 71.2561 44.2903 70.9356C44.2903 70.615 44.551 70.3549 44.8709 70.3549C45.1909 70.3549 45.4516 70.615 45.4516 70.9356C45.4516 71.2561 45.1909 71.5162 44.8709 71.5162Z" fill="#074139"/>
<path d="M21.0646 73.8386H19.9033V74.9999H21.0646V73.8386Z" fill="#074139"/>
<path d="M18.742 73.8386H17.5807V74.9999H18.742V73.8386Z" fill="#074139"/>
<path d="M25.7097 44.8064H24.5484V53.5161H25.7097V44.8064Z" fill="#074139"/>
<path d="M21.6451 44.8064H20.4838V55.8386H21.6451V44.8064Z" fill="#074139"/>
<path d="M46.0322 44.8064H44.8709V55.8386H46.0322V44.8064Z" fill="#074139"/>
<path d="M50.0968 44.8064H48.9355V55.8386H50.0968V44.8064Z" fill="#074139"/>
<path d="M29.7742 44.8064H28.6129V53.5161H29.7742V44.8064Z" fill="#074139"/>
<path d="M33.8387 47.1292H32.6774V53.5163H33.8387V47.1292Z" fill="#074139"/>
<path d="M37.9033 44.8064H36.742V51.1935H37.9033V44.8064Z" fill="#074139"/>
<path d="M41.9678 44.8064H40.8064V53.5161H41.9678V44.8064Z" fill="#074139"/>
<path d="M50.3872 40.742H43.1291V39H41.9678V40.742H28.0322V39H26.8709V40.742H19.613C18.1723 40.742 17 41.9143 17 43.3548V44.2258H53V43.3548C53 41.9143 51.8277 40.742 50.3872 40.742ZM18.2826 43.0645C18.5068 42.4838 19.0189 41.9032 19.613 41.9032H50.3872C50.9811 41.9032 51.4932 42.4838 51.7175 43.0645H18.2826Z" fill="#074139"/>
<path d="M25.7097 57H24.5484V58.1613H25.7097V57Z" fill="#074139"/>
<path d="M50.0968 57H48.9355V58.1613H50.0968V57Z" fill="#074139"/>
<path d="M21.6451 57H20.4838V58.1613H21.6451V57Z" fill="#074139"/>
<path d="M21.6451 59.3225H20.4838V60.4838H21.6451V59.3225Z" fill="#074139"/>
<path d="M50.0968 59.3225H48.9355V60.4838H50.0968V59.3225Z" fill="#074139"/>
<path d="M37.9033 52.355H36.742V53.5163H37.9033V52.355Z" fill="#074139"/>
<path d="M25.7097 54.6775H24.5484V55.8388H25.7097V54.6775Z" fill="#074139"/>
<path d="M18.1613 59.9033H17V61.0646H18.1613V59.9033Z" fill="#074139"/>
<path d="M53 59.9033H51.8387V61.0646H53V59.9033Z" fill="#074139"/>
<path d="M33.8387 44.8064H32.6774V45.9677H33.8387V44.8064Z" fill="#074139"/>
</g>
<path d="M16.2676 90.2871H17.3926C17.334 90.8262 17.1797 91.3086 16.9297 91.7344C16.6797 92.1602 16.3262 92.498 15.8691 92.748C15.4121 92.9941 14.8418 93.1172 14.1582 93.1172C13.6582 93.1172 13.2031 93.0234 12.793 92.8359C12.3867 92.6484 12.0371 92.3828 11.7441 92.0391C11.4512 91.6914 11.2246 91.2754 11.0645 90.791C10.9082 90.3027 10.8301 89.7598 10.8301 89.1621V88.3125C10.8301 87.7148 10.9082 87.1738 11.0645 86.6895C11.2246 86.2012 11.4531 85.7832 11.75 85.4355C12.0508 85.0879 12.4121 84.8203 12.834 84.6328C13.2559 84.4453 13.7305 84.3516 14.2578 84.3516C14.9023 84.3516 15.4473 84.4727 15.8926 84.7148C16.3379 84.957 16.6836 85.293 16.9297 85.7227C17.1797 86.1484 17.334 86.6426 17.3926 87.2051H16.2676C16.2129 86.8066 16.1113 86.4648 15.9629 86.1797C15.8145 85.8906 15.6035 85.668 15.3301 85.5117C15.0566 85.3555 14.6992 85.2773 14.2578 85.2773C13.8789 85.2773 13.5449 85.3496 13.2559 85.4941C12.9707 85.6387 12.7305 85.8438 12.5352 86.1094C12.3438 86.375 12.1992 86.6934 12.1016 87.0645C12.0039 87.4355 11.9551 87.8477 11.9551 88.3008V89.1621C11.9551 89.5801 11.998 89.9727 12.084 90.3398C12.1738 90.707 12.3086 91.0293 12.4883 91.3066C12.668 91.584 12.8965 91.8027 13.1738 91.9629C13.4512 92.1191 13.7793 92.1973 14.1582 92.1973C14.6387 92.1973 15.0215 92.1211 15.3066 91.9688C15.5918 91.8164 15.8066 91.5977 15.9512 91.3125C16.0996 91.0273 16.2051 90.6855 16.2676 90.2871ZM22.5078 91.916V88.6523C22.5078 88.4023 22.457 88.1855 22.3555 88.002C22.2578 87.8145 22.1094 87.6699 21.9102 87.5684C21.7109 87.4668 21.4648 87.416 21.1719 87.416C20.8984 87.416 20.6582 87.4629 20.4512 87.5566C20.248 87.6504 20.0879 87.7734 19.9707 87.9258C19.8574 88.0781 19.8008 88.2422 19.8008 88.418H18.7168C18.7168 88.1914 18.7754 87.9668 18.8926 87.7441C19.0098 87.5215 19.1777 87.3203 19.3965 87.1406C19.6191 86.957 19.8848 86.8125 20.1934 86.707C20.5059 86.5977 20.8535 86.543 21.2363 86.543C21.6973 86.543 22.1035 86.6211 22.4551 86.7773C22.8105 86.9336 23.0879 87.1699 23.2871 87.4863C23.4902 87.7988 23.5918 88.1914 23.5918 88.6641V91.6172C23.5918 91.8281 23.6094 92.0527 23.6445 92.291C23.6836 92.5293 23.7402 92.7344 23.8145 92.9062V93H22.6836C22.6289 92.875 22.5859 92.709 22.5547 92.502C22.5234 92.291 22.5078 92.0957 22.5078 91.916ZM22.6953 89.1562L22.707 89.918H21.6113C21.3027 89.918 21.0273 89.9434 20.7852 89.9941C20.543 90.041 20.3398 90.1133 20.1758 90.2109C20.0117 90.3086 19.8867 90.4316 19.8008 90.5801C19.7148 90.7246 19.6719 90.8945 19.6719 91.0898C19.6719 91.2891 19.7168 91.4707 19.8066 91.6348C19.8965 91.7988 20.0312 91.9297 20.2109 92.0273C20.3945 92.1211 20.6191 92.168 20.8848 92.168C21.2168 92.168 21.5098 92.0977 21.7637 91.957C22.0176 91.8164 22.2188 91.6445 22.3672 91.4414C22.5195 91.2383 22.6016 91.041 22.6133 90.8496L23.0762 91.3711C23.0488 91.5352 22.9746 91.7168 22.8535 91.916C22.7324 92.1152 22.5703 92.3066 22.3672 92.4902C22.168 92.6699 21.9297 92.8203 21.6523 92.9414C21.3789 93.0586 21.0703 93.1172 20.7266 93.1172C20.2969 93.1172 19.9199 93.0332 19.5957 92.8652C19.2754 92.6973 19.0254 92.4727 18.8457 92.1914C18.6699 91.9062 18.582 91.5879 18.582 91.2363C18.582 90.8965 18.6484 90.5977 18.7812 90.3398C18.9141 90.0781 19.1055 89.8613 19.3555 89.6895C19.6055 89.5137 19.9062 89.3809 20.2578 89.291C20.6094 89.2012 21.002 89.1562 21.4355 89.1562H22.6953ZM26.3809 87.6562V93H25.2969V86.6602H26.3516L26.3809 87.6562ZM28.3613 86.625L28.3555 87.6328C28.2656 87.6133 28.1797 87.6016 28.0977 87.5977C28.0195 87.5898 27.9297 87.5859 27.8281 87.5859C27.5781 87.5859 27.3574 87.625 27.166 87.7031C26.9746 87.7812 26.8125 87.8906 26.6797 88.0312C26.5469 88.1719 26.4414 88.3398 26.3633 88.5352C26.2891 88.7266 26.2402 88.9375 26.2168 89.168L25.9121 89.3438C25.9121 88.9609 25.9492 88.6016 26.0234 88.2656C26.1016 87.9297 26.2207 87.6328 26.3809 87.375C26.541 87.1133 26.7441 86.9102 26.9902 86.7656C27.2402 86.6172 27.5371 86.543 27.8809 86.543C27.959 86.543 28.0488 86.5527 28.1504 86.5723C28.252 86.5879 28.3223 86.6055 28.3613 86.625ZM33.9453 91.875L35.5742 86.6602H36.2891L36.1484 87.6973L34.4902 93H33.793L33.9453 91.875ZM32.8496 86.6602L34.2383 91.9336L34.3379 93H33.6055L31.7656 86.6602H32.8496ZM37.8477 91.8926L39.1719 86.6602H40.25L38.4102 93H37.6836L37.8477 91.8926ZM36.4473 86.6602L38.041 91.7871L38.2227 93H37.5312L35.8262 87.6855L35.6855 86.6602H36.4473ZM45.1016 91.916V88.6523C45.1016 88.4023 45.0508 88.1855 44.9492 88.002C44.8516 87.8145 44.7031 87.6699 44.5039 87.5684C44.3047 87.4668 44.0586 87.416 43.7656 87.416C43.4922 87.416 43.252 87.4629 43.0449 87.5566C42.8418 87.6504 42.6816 87.7734 42.5645 87.9258C42.4512 88.0781 42.3945 88.2422 42.3945 88.418H41.3105C41.3105 88.1914 41.3691 87.9668 41.4863 87.7441C41.6035 87.5215 41.7715 87.3203 41.9902 87.1406C42.2129 86.957 42.4785 86.8125 42.7871 86.707C43.0996 86.5977 43.4473 86.543 43.8301 86.543C44.291 86.543 44.6973 86.6211 45.0488 86.7773C45.4043 86.9336 45.6816 87.1699 45.8809 87.4863C46.084 87.7988 46.1855 88.1914 46.1855 88.6641V91.6172C46.1855 91.8281 46.2031 92.0527 46.2383 92.291C46.2773 92.5293 46.334 92.7344 46.4082 92.9062V93H45.2773C45.2227 92.875 45.1797 92.709 45.1484 92.502C45.1172 92.291 45.1016 92.0957 45.1016 91.916ZM45.2891 89.1562L45.3008 89.918H44.2051C43.8965 89.918 43.6211 89.9434 43.3789 89.9941C43.1367 90.041 42.9336 90.1133 42.7695 90.2109C42.6055 90.3086 42.4805 90.4316 42.3945 90.5801C42.3086 90.7246 42.2656 90.8945 42.2656 91.0898C42.2656 91.2891 42.3105 91.4707 42.4004 91.6348C42.4902 91.7988 42.625 91.9297 42.8047 92.0273C42.9883 92.1211 43.2129 92.168 43.4785 92.168C43.8105 92.168 44.1035 92.0977 44.3574 91.957C44.6113 91.8164 44.8125 91.6445 44.9609 91.4414C45.1133 91.2383 45.1953 91.041 45.207 90.8496L45.6699 91.3711C45.6426 91.5352 45.5684 91.7168 45.4473 91.916C45.3262 92.1152 45.1641 92.3066 44.9609 92.4902C44.7617 92.6699 44.5234 92.8203 44.2461 92.9414C43.9727 93.0586 43.6641 93.1172 43.3203 93.1172C42.8906 93.1172 42.5137 93.0332 42.1895 92.8652C41.8691 92.6973 41.6191 92.4727 41.4395 92.1914C41.2637 91.9062 41.1758 91.5879 41.1758 91.2363C41.1758 90.8965 41.2422 90.5977 41.375 90.3398C41.5078 90.0781 41.6992 89.8613 41.9492 89.6895C42.1992 89.5137 42.5 89.3809 42.8516 89.291C43.2031 89.2012 43.5957 89.1562 44.0293 89.1562H45.2891ZM51.582 91.3184C51.582 91.1621 51.5469 91.0176 51.4766 90.8848C51.4102 90.748 51.2715 90.625 51.0605 90.5156C50.8535 90.4023 50.541 90.3047 50.123 90.2227C49.7715 90.1484 49.4531 90.0605 49.168 89.959C48.8867 89.8574 48.6465 89.7344 48.4473 89.5898C48.252 89.4453 48.1016 89.2754 47.9961 89.0801C47.8906 88.8848 47.8379 88.6562 47.8379 88.3945C47.8379 88.1445 47.8926 87.9082 48.002 87.6855C48.1152 87.4629 48.2734 87.2656 48.4766 87.0938C48.6836 86.9219 48.9316 86.7871 49.2207 86.6895C49.5098 86.5918 49.832 86.543 50.1875 86.543C50.6953 86.543 51.1289 86.6328 51.4883 86.8125C51.8477 86.9922 52.123 87.2324 52.3145 87.5332C52.5059 87.8301 52.6016 88.1602 52.6016 88.5234H51.5176C51.5176 88.3477 51.4648 88.1777 51.3594 88.0137C51.2578 87.8457 51.1074 87.707 50.9082 87.5977C50.7129 87.4883 50.4727 87.4336 50.1875 87.4336C49.8867 87.4336 49.6426 87.4805 49.4551 87.5742C49.2715 87.6641 49.1367 87.7793 49.0508 87.9199C48.9688 88.0605 48.9277 88.209 48.9277 88.3652C48.9277 88.4824 48.9473 88.5879 48.9863 88.6816C49.0293 88.7715 49.1035 88.8555 49.209 88.9336C49.3145 89.0078 49.4629 89.0781 49.6543 89.1445C49.8457 89.2109 50.0898 89.2773 50.3867 89.3438C50.9062 89.4609 51.334 89.6016 51.6699 89.7656C52.0059 89.9297 52.2559 90.1309 52.4199 90.3691C52.584 90.6074 52.666 90.8965 52.666 91.2363C52.666 91.5137 52.6074 91.7676 52.4902 91.998C52.377 92.2285 52.2109 92.4277 51.9922 92.5957C51.7773 92.7598 51.5195 92.8887 51.2188 92.9824C50.9219 93.0723 50.5879 93.1172 50.2168 93.1172C49.6582 93.1172 49.1855 93.0176 48.7988 92.8184C48.4121 92.6191 48.1191 92.3613 47.9199 92.0449C47.7207 91.7285 47.6211 91.3945 47.6211 91.043H48.7109C48.7266 91.3398 48.8125 91.5762 48.9688 91.752C49.125 91.9238 49.3164 92.0469 49.543 92.1211C49.7695 92.1914 49.9941 92.2266 50.2168 92.2266C50.5137 92.2266 50.7617 92.1875 50.9609 92.1094C51.1641 92.0312 51.3184 91.9238 51.4238 91.7871C51.5293 91.6504 51.582 91.4941 51.582 91.3184ZM55.1738 84V93H54.0898V84H55.1738ZM54.916 89.5898L54.4648 89.5723C54.4688 89.1387 54.5332 88.7383 54.6582 88.3711C54.7832 88 54.959 87.6777 55.1855 87.4043C55.4121 87.1309 55.6816 86.9199 55.9941 86.7715C56.3105 86.6191 56.6602 86.543 57.043 86.543C57.3555 86.543 57.6367 86.5859 57.8867 86.6719C58.1367 86.7539 58.3496 86.8867 58.5254 87.0703C58.7051 87.2539 58.8418 87.4922 58.9355 87.7852C59.0293 88.0742 59.0762 88.4277 59.0762 88.8457V93H57.9863V88.834C57.9863 88.502 57.9375 88.2363 57.8398 88.0371C57.7422 87.834 57.5996 87.6875 57.4121 87.5977C57.2246 87.5039 56.9941 87.457 56.7207 87.457C56.4512 87.457 56.2051 87.5137 55.9824 87.627C55.7637 87.7402 55.5742 87.8965 55.4141 88.0957C55.2578 88.2949 55.1348 88.5234 55.0449 88.7812C54.959 89.0352 54.916 89.3047 54.916 89.5898Z" fill="#074139"/>
<rect x="91" y="35" width="70" height="65" rx="6" fill="#E8FFFC"/>
<g clip-path="url(#clip1_26_961)">
<path d="M144 45.6C144 45.42 143.94 45.3 143.82 45.18L137.82 39.18C137.7 39.06 137.58 39 137.4 39C137.22 39 137.1 39.06 136.98 39.18L131.068 45.1481L130.62 44.7C130.08 44.1 129.3 43.8 128.52 43.8C127.74 43.8 127.02 44.1 126.42 44.7L125.294 45.826C125.248 45.8435 125.203 45.8678 125.16 45.9C124.92 46.08 124.86 46.44 124.98 46.68L125.82 48.3599C126.24 49.1399 126.06 50.1 125.46 50.6999L123 53.16C122.28 53.82 122.28 54.96 123 55.68L127.26 59.94C127.62 60.3 128.04 60.48 128.52 60.48C129 60.48 129.48 60.3 129.72 59.88L132.18 57.42C132.78 56.82 133.74 56.64 134.52 57.06L136.2 57.9C136.24 57.9162 136.281 57.9288 136.321 57.9385C136.406 57.9924 136.499 58.02 136.62 58.02C136.74 58.02 136.92 57.96 136.98 57.84L138.24 56.58C139.38 55.38 139.38 53.46 138.24 52.32L137.852 51.9319L143.82 46.02C143.94 45.9 144 45.78 144 45.6ZM131.46 56.64L129 59.1C128.76 59.34 128.4 59.34 128.16 59.1L123.9 54.84C123.66 54.6 123.66 54.24 123.9 54L126.36 51.54C127.131 50.7689 127.432 49.6462 127.207 48.5773C127.805 48.9942 128.46 49.38 129.18 49.74C129.405 49.8712 129.642 50.02 129.885 50.1864C130.03 50.2863 130.178 50.3925 130.327 50.505C130.725 50.805 131.13 51.1499 131.52 51.54C131.861 51.855 132.179 52.1929 132.46 52.5388C132.5 52.5882 132.539 52.6378 132.577 52.6875C132.885 53.0849 133.14 53.4899 133.32 53.88C133.68 54.6 134.04 55.2 134.46 55.8C133.38 55.5 132.24 55.86 131.46 56.64ZM137.4 55.68L136.56 56.52C135.72 55.62 135 54.6 134.34 53.28C133.86 52.44 133.14 51.48 132.3 50.64C131.46 49.74 130.5 49.02 129.66 48.6C128.4 47.94 127.32 47.22 126.42 46.3801L127.32 45.54C127.98 44.88 129.18 44.88 129.84 45.54L137.4 53.16C138.12 53.82 138.12 54.96 137.4 55.68ZM137.04 51.06L131.94 45.96L137.4 40.44L142.56 45.6L137.04 51.06Z" fill="#074139"/>
<path d="M128.1 52.3799C127.86 52.14 127.5 52.14 127.26 52.3799L125.58 54.0599C125.46 54.1799 125.4 54.2999 125.4 54.4799C125.4 54.5999 125.46 54.7799 125.58 54.8999L128.1 57.4199C128.22 57.5399 128.34 57.5999 128.52 57.5999C128.7 57.5999 128.88 57.5399 129 57.4199L130.62 55.7399C130.86 55.4999 130.86 55.1399 130.62 54.8999L128.1 52.3799ZM128.52 56.1599L126.84 54.48L127.68 53.6399L129.36 55.3199L128.52 56.1599Z" fill="#074139"/>
<path d="M128.52 62.94L120.06 54.48C119.82 54.2401 119.46 54.2401 119.22 54.48L113.28 60.42C113.04 60.66 113.04 61.02 113.28 61.2601L114.118 62.098L108.18 67.98C108.06 68.1001 108 68.22 108 68.4C108 68.58 108.06 68.7 108.18 68.82L114.18 74.82C114.3 74.94 114.42 75 114.6 75C114.78 75 114.9 74.94 115.02 74.82L120.902 68.8819L121.74 69.7199C121.86 69.8399 121.98 69.8999 122.16 69.8999C122.34 69.8999 122.52 69.8399 122.58 69.7199L128.52 63.7799C128.76 63.54 128.76 63.18 128.52 62.94ZM114.6 73.56L109.44 68.4L114.96 62.94L120.06 68.04L114.6 73.56ZM122.16 68.4601L121.32 67.6201L121.32 67.62L115.38 61.68L115.38 61.68L114.54 60.84L119.64 55.74L127.26 63.36L122.16 68.4601Z" fill="#074139"/>
<path d="M117.06 60.7801C116.82 61.02 116.82 61.38 117.06 61.6201L121.32 65.8801C121.44 66.0001 121.56 66.0601 121.74 66.0601C121.92 66.0601 122.04 66.0001 122.16 65.8801L124.68 63.3601C124.92 63.1201 124.92 62.7601 124.68 62.5201L120.42 58.2601C120.18 58.0201 119.82 58.0201 119.58 58.2601L117.06 60.7801ZM120.06 59.58L123.48 63L121.8 64.68L118.38 61.26L120.06 59.58Z" fill="#074139"/>
<path d="M118.98 47.2801C119.1 47.3401 119.28 47.4001 119.4 47.4001H122.4C122.76 47.4001 123 47.1602 123 46.8002C123 46.4402 122.76 46.2002 122.4 46.2002H120.84L124.62 42.4202C124.86 42.1802 124.86 41.8202 124.62 41.5802C124.38 41.3401 124.02 41.3402 123.78 41.5802L120 45.3602V43.8001C120 43.4401 119.76 43.2002 119.4 43.2002C119.04 43.2002 118.8 43.4401 118.8 43.8001V46.8601V46.9201C118.8 47.0401 118.86 47.1001 118.92 47.2201C118.92 47.2201 118.92 47.2801 118.98 47.2801Z" fill="#074139"/>
<path d="M133.02 66.7201C132.9 66.6601 132.72 66.6001 132.6 66.6001H129.6C129.24 66.6001 129 66.8401 129 67.2001C129 67.5601 129.24 67.8001 129.6 67.8001H131.16L127.38 71.5801C127.14 71.82 127.14 72.18 127.38 72.4201C127.5 72.5401 127.62 72.6001 127.8 72.6001C127.98 72.6001 128.1 72.5401 128.22 72.3601L132 68.5801V70.1401C132 70.5001 132.24 70.7401 132.6 70.7401C132.96 70.7401 133.2 70.5001 133.2 70.1401V67.1401V67.0801C133.2 66.9601 133.14 66.9001 133.08 66.7801C133.08 66.7801 133.08 66.7201 133.02 66.7201Z" fill="#074139"/>
</g>
<path d="M97.377 85.2246L94.5527 93H93.3984L96.6504 84.4688H97.3945L97.377 85.2246ZM99.7441 93L96.9141 85.2246L96.8965 84.4688H97.6406L100.904 93H99.7441ZM99.5977 89.8418V90.7676H94.8047V89.8418H99.5977ZM104.42 92.2266C104.678 92.2266 104.916 92.1738 105.135 92.0684C105.354 91.9629 105.533 91.8184 105.674 91.6348C105.814 91.4473 105.895 91.2344 105.914 90.9961H106.945C106.926 91.3711 106.799 91.7207 106.564 92.0449C106.334 92.3652 106.031 92.625 105.656 92.8242C105.281 93.0195 104.869 93.1172 104.42 93.1172C103.943 93.1172 103.527 93.0332 103.172 92.8652C102.82 92.6973 102.527 92.4668 102.293 92.1738C102.062 91.8809 101.889 91.5449 101.771 91.166C101.658 90.7832 101.602 90.3789 101.602 89.9531V89.707C101.602 89.2812 101.658 88.8789 101.771 88.5C101.889 88.1172 102.062 87.7793 102.293 87.4863C102.527 87.1934 102.82 86.9629 103.172 86.7949C103.527 86.627 103.943 86.543 104.42 86.543C104.916 86.543 105.35 86.6445 105.721 86.8477C106.092 87.0469 106.383 87.3203 106.594 87.668C106.809 88.0117 106.926 88.4023 106.945 88.8398H105.914C105.895 88.5781 105.82 88.3418 105.691 88.1309C105.566 87.9199 105.395 87.752 105.176 87.627C104.961 87.498 104.709 87.4336 104.42 87.4336C104.088 87.4336 103.809 87.5 103.582 87.6328C103.359 87.7617 103.182 87.9375 103.049 88.1602C102.92 88.3789 102.826 88.623 102.768 88.8926C102.713 89.1582 102.686 89.4297 102.686 89.707V89.9531C102.686 90.2305 102.713 90.5039 102.768 90.7734C102.822 91.043 102.914 91.2871 103.043 91.5059C103.176 91.7246 103.354 91.9004 103.576 92.0332C103.803 92.1621 104.084 92.2266 104.42 92.2266ZM110.701 92.2266C110.959 92.2266 111.197 92.1738 111.416 92.0684C111.635 91.9629 111.814 91.8184 111.955 91.6348C112.096 91.4473 112.176 91.2344 112.195 90.9961H113.227C113.207 91.3711 113.08 91.7207 112.846 92.0449C112.615 92.3652 112.312 92.625 111.938 92.8242C111.562 93.0195 111.15 93.1172 110.701 93.1172C110.225 93.1172 109.809 93.0332 109.453 92.8652C109.102 92.6973 108.809 92.4668 108.574 92.1738C108.344 91.8809 108.17 91.5449 108.053 91.166C107.939 90.7832 107.883 90.3789 107.883 89.9531V89.707C107.883 89.2812 107.939 88.8789 108.053 88.5C108.17 88.1172 108.344 87.7793 108.574 87.4863C108.809 87.1934 109.102 86.9629 109.453 86.7949C109.809 86.627 110.225 86.543 110.701 86.543C111.197 86.543 111.631 86.6445 112.002 86.8477C112.373 87.0469 112.664 87.3203 112.875 87.668C113.09 88.0117 113.207 88.4023 113.227 88.8398H112.195C112.176 88.5781 112.102 88.3418 111.973 88.1309C111.848 87.9199 111.676 87.752 111.457 87.627C111.242 87.498 110.99 87.4336 110.701 87.4336C110.369 87.4336 110.09 87.5 109.863 87.6328C109.641 87.7617 109.463 87.9375 109.33 88.1602C109.201 88.3789 109.107 88.623 109.049 88.8926C108.994 89.1582 108.967 89.4297 108.967 89.707V89.9531C108.967 90.2305 108.994 90.5039 109.049 90.7734C109.104 91.043 109.195 91.2871 109.324 91.5059C109.457 91.7246 109.635 91.9004 109.857 92.0332C110.084 92.1621 110.365 92.2266 110.701 92.2266ZM117.076 93.1172C116.635 93.1172 116.234 93.043 115.875 92.8945C115.52 92.7422 115.213 92.5293 114.955 92.2559C114.701 91.9824 114.506 91.6582 114.369 91.2832C114.232 90.9082 114.164 90.498 114.164 90.0527V89.8066C114.164 89.291 114.24 88.832 114.393 88.4297C114.545 88.0234 114.752 87.6797 115.014 87.3984C115.275 87.1172 115.572 86.9043 115.904 86.7598C116.236 86.6152 116.58 86.543 116.936 86.543C117.389 86.543 117.779 86.6211 118.107 86.7773C118.439 86.9336 118.711 87.1523 118.922 87.4336C119.133 87.7109 119.289 88.0391 119.391 88.418C119.492 88.793 119.543 89.2031 119.543 89.6484V90.1348H114.809V89.25H118.459V89.168C118.443 88.8867 118.385 88.6133 118.283 88.3477C118.186 88.082 118.029 87.8633 117.814 87.6914C117.6 87.5195 117.307 87.4336 116.936 87.4336C116.689 87.4336 116.463 87.4863 116.256 87.5918C116.049 87.6934 115.871 87.8457 115.723 88.0488C115.574 88.252 115.459 88.5 115.377 88.793C115.295 89.0859 115.254 89.4238 115.254 89.8066V90.0527C115.254 90.3535 115.295 90.6367 115.377 90.9023C115.463 91.1641 115.586 91.3945 115.746 91.5938C115.91 91.793 116.107 91.9492 116.338 92.0625C116.572 92.1758 116.838 92.2324 117.135 92.2324C117.518 92.2324 117.842 92.1543 118.107 91.998C118.373 91.8418 118.605 91.6328 118.805 91.3711L119.461 91.8926C119.324 92.0996 119.15 92.2969 118.939 92.4844C118.729 92.6719 118.469 92.8242 118.16 92.9414C117.855 93.0586 117.494 93.1172 117.076 93.1172ZM124.5 91.3184C124.5 91.1621 124.465 91.0176 124.395 90.8848C124.328 90.748 124.189 90.625 123.979 90.5156C123.771 90.4023 123.459 90.3047 123.041 90.2227C122.689 90.1484 122.371 90.0605 122.086 89.959C121.805 89.8574 121.564 89.7344 121.365 89.5898C121.17 89.4453 121.02 89.2754 120.914 89.0801C120.809 88.8848 120.756 88.6562 120.756 88.3945C120.756 88.1445 120.811 87.9082 120.92 87.6855C121.033 87.4629 121.191 87.2656 121.395 87.0938C121.602 86.9219 121.85 86.7871 122.139 86.6895C122.428 86.5918 122.75 86.543 123.105 86.543C123.613 86.543 124.047 86.6328 124.406 86.8125C124.766 86.9922 125.041 87.2324 125.232 87.5332C125.424 87.8301 125.52 88.1602 125.52 88.5234H124.436C124.436 88.3477 124.383 88.1777 124.277 88.0137C124.176 87.8457 124.025 87.707 123.826 87.5977C123.631 87.4883 123.391 87.4336 123.105 87.4336C122.805 87.4336 122.561 87.4805 122.373 87.5742C122.189 87.6641 122.055 87.7793 121.969 87.9199C121.887 88.0605 121.846 88.209 121.846 88.3652C121.846 88.4824 121.865 88.5879 121.904 88.6816C121.947 88.7715 122.021 88.8555 122.127 88.9336C122.232 89.0078 122.381 89.0781 122.572 89.1445C122.764 89.2109 123.008 89.2773 123.305 89.3438C123.824 89.4609 124.252 89.6016 124.588 89.7656C124.924 89.9297 125.174 90.1309 125.338 90.3691C125.502 90.6074 125.584 90.8965 125.584 91.2363C125.584 91.5137 125.525 91.7676 125.408 91.998C125.295 92.2285 125.129 92.4277 124.91 92.5957C124.695 92.7598 124.438 92.8887 124.137 92.9824C123.84 93.0723 123.506 93.1172 123.135 93.1172C122.576 93.1172 122.104 93.0176 121.717 92.8184C121.33 92.6191 121.037 92.3613 120.838 92.0449C120.639 91.7285 120.539 91.3945 120.539 91.043H121.629C121.645 91.3398 121.73 91.5762 121.887 91.752C122.043 91.9238 122.234 92.0469 122.461 92.1211C122.688 92.1914 122.912 92.2266 123.135 92.2266C123.432 92.2266 123.68 92.1875 123.879 92.1094C124.082 92.0312 124.236 91.9238 124.342 91.7871C124.447 91.6504 124.5 91.4941 124.5 91.3184ZM130.699 91.3184C130.699 91.1621 130.664 91.0176 130.594 90.8848C130.527 90.748 130.389 90.625 130.178 90.5156C129.971 90.4023 129.658 90.3047 129.24 90.2227C128.889 90.1484 128.57 90.0605 128.285 89.959C128.004 89.8574 127.764 89.7344 127.564 89.5898C127.369 89.4453 127.219 89.2754 127.113 89.0801C127.008 88.8848 126.955 88.6562 126.955 88.3945C126.955 88.1445 127.01 87.9082 127.119 87.6855C127.232 87.4629 127.391 87.2656 127.594 87.0938C127.801 86.9219 128.049 86.7871 128.338 86.6895C128.627 86.5918 128.949 86.543 129.305 86.543C129.812 86.543 130.246 86.6328 130.605 86.8125C130.965 86.9922 131.24 87.2324 131.432 87.5332C131.623 87.8301 131.719 88.1602 131.719 88.5234H130.635C130.635 88.3477 130.582 88.1777 130.477 88.0137C130.375 87.8457 130.225 87.707 130.025 87.5977C129.83 87.4883 129.59 87.4336 129.305 87.4336C129.004 87.4336 128.76 87.4805 128.572 87.5742C128.389 87.6641 128.254 87.7793 128.168 87.9199C128.086 88.0605 128.045 88.209 128.045 88.3652C128.045 88.4824 128.064 88.5879 128.104 88.6816C128.146 88.7715 128.221 88.8555 128.326 88.9336C128.432 89.0078 128.58 89.0781 128.771 89.1445C128.963 89.2109 129.207 89.2773 129.504 89.3438C130.023 89.4609 130.451 89.6016 130.787 89.7656C131.123 89.9297 131.373 90.1309 131.537 90.3691C131.701 90.6074 131.783 90.8965 131.783 91.2363C131.783 91.5137 131.725 91.7676 131.607 91.998C131.494 92.2285 131.328 92.4277 131.109 92.5957C130.895 92.7598 130.637 92.8887 130.336 92.9824C130.039 93.0723 129.705 93.1172 129.334 93.1172C128.775 93.1172 128.303 93.0176 127.916 92.8184C127.529 92.6191 127.236 92.3613 127.037 92.0449C126.838 91.7285 126.738 91.3945 126.738 91.043H127.828C127.844 91.3398 127.93 91.5762 128.086 91.752C128.242 91.9238 128.434 92.0469 128.66 92.1211C128.887 92.1914 129.111 92.2266 129.334 92.2266C129.631 92.2266 129.879 92.1875 130.078 92.1094C130.281 92.0312 130.436 91.9238 130.541 91.7871C130.646 91.6504 130.699 91.4941 130.699 91.3184ZM132.92 89.9004V89.7656C132.92 89.3086 132.986 88.8848 133.119 88.4941C133.252 88.0996 133.443 87.7578 133.693 87.4688C133.943 87.1758 134.246 86.9492 134.602 86.7891C134.957 86.625 135.355 86.543 135.797 86.543C136.242 86.543 136.643 86.625 136.998 86.7891C137.357 86.9492 137.662 87.1758 137.912 87.4688C138.166 87.7578 138.359 88.0996 138.492 88.4941C138.625 88.8848 138.691 89.3086 138.691 89.7656V89.9004C138.691 90.3574 138.625 90.7812 138.492 91.1719C138.359 91.5625 138.166 91.9043 137.912 92.1973C137.662 92.4863 137.359 92.7129 137.004 92.877C136.652 93.0371 136.254 93.1172 135.809 93.1172C135.363 93.1172 134.963 93.0371 134.607 92.877C134.252 92.7129 133.947 92.4863 133.693 92.1973C133.443 91.9043 133.252 91.5625 133.119 91.1719C132.986 90.7812 132.92 90.3574 132.92 89.9004ZM134.004 89.7656V89.9004C134.004 90.2168 134.041 90.5156 134.115 90.7969C134.189 91.0742 134.301 91.3203 134.449 91.5352C134.602 91.75 134.791 91.9199 135.018 92.0449C135.244 92.166 135.508 92.2266 135.809 92.2266C136.105 92.2266 136.365 92.166 136.588 92.0449C136.814 91.9199 137.002 91.75 137.15 91.5352C137.299 91.3203 137.41 91.0742 137.484 90.7969C137.562 90.5156 137.602 90.2168 137.602 89.9004V89.7656C137.602 89.4531 137.562 89.1582 137.484 88.8809C137.41 88.5996 137.297 88.3516 137.145 88.1367C136.996 87.918 136.809 87.7461 136.582 87.6211C136.359 87.4961 136.098 87.4336 135.797 87.4336C135.5 87.4336 135.238 87.4961 135.012 87.6211C134.789 87.7461 134.602 87.918 134.449 88.1367C134.301 88.3516 134.189 88.5996 134.115 88.8809C134.041 89.1582 134.004 89.4531 134.004 89.7656ZM141.135 87.6562V93H140.051V86.6602H141.105L141.135 87.6562ZM143.115 86.625L143.109 87.6328C143.02 87.6133 142.934 87.6016 142.852 87.5977C142.773 87.5898 142.684 87.5859 142.582 87.5859C142.332 87.5859 142.111 87.625 141.92 87.7031C141.729 87.7812 141.566 87.8906 141.434 88.0312C141.301 88.1719 141.195 88.3398 141.117 88.5352C141.043 88.7266 140.994 88.9375 140.971 89.168L140.666 89.3438C140.666 88.9609 140.703 88.6016 140.777 88.2656C140.855 87.9297 140.975 87.6328 141.135 87.375C141.295 87.1133 141.498 86.9102 141.744 86.7656C141.994 86.6172 142.291 86.543 142.635 86.543C142.713 86.543 142.803 86.5527 142.904 86.5723C143.006 86.5879 143.076 86.6055 143.115 86.625ZM145.295 86.6602V93H144.205V86.6602H145.295ZM144.123 84.9785C144.123 84.8027 144.176 84.6543 144.281 84.5332C144.391 84.4121 144.551 84.3516 144.762 84.3516C144.969 84.3516 145.127 84.4121 145.236 84.5332C145.35 84.6543 145.406 84.8027 145.406 84.9785C145.406 85.1465 145.35 85.291 145.236 85.4121C145.127 85.5293 144.969 85.5879 144.762 85.5879C144.551 85.5879 144.391 85.5293 144.281 85.4121C144.176 85.291 144.123 85.1465 144.123 84.9785ZM149.666 93.1172C149.225 93.1172 148.824 93.043 148.465 92.8945C148.109 92.7422 147.803 92.5293 147.545 92.2559C147.291 91.9824 147.096 91.6582 146.959 91.2832C146.822 90.9082 146.754 90.498 146.754 90.0527V89.8066C146.754 89.291 146.83 88.832 146.982 88.4297C147.135 88.0234 147.342 87.6797 147.604 87.3984C147.865 87.1172 148.162 86.9043 148.494 86.7598C148.826 86.6152 149.17 86.543 149.525 86.543C149.979 86.543 150.369 86.6211 150.697 86.7773C151.029 86.9336 151.301 87.1523 151.512 87.4336C151.723 87.7109 151.879 88.0391 151.98 88.418C152.082 88.793 152.133 89.2031 152.133 89.6484V90.1348H147.398V89.25H151.049V89.168C151.033 88.8867 150.975 88.6133 150.873 88.3477C150.775 88.082 150.619 87.8633 150.404 87.6914C150.189 87.5195 149.896 87.4336 149.525 87.4336C149.279 87.4336 149.053 87.4863 148.846 87.5918C148.639 87.6934 148.461 87.8457 148.312 88.0488C148.164 88.252 148.049 88.5 147.967 88.793C147.885 89.0859 147.844 89.4238 147.844 89.8066V90.0527C147.844 90.3535 147.885 90.6367 147.967 90.9023C148.053 91.1641 148.176 91.3945 148.336 91.5938C148.5 91.793 148.697 91.9492 148.928 92.0625C149.162 92.1758 149.428 92.2324 149.725 92.2324C150.107 92.2324 150.432 92.1543 150.697 91.998C150.963 91.8418 151.195 91.6328 151.395 91.3711L152.051 91.8926C151.914 92.0996 151.74 92.2969 151.529 92.4844C151.318 92.6719 151.059 92.8242 150.75 92.9414C150.445 93.0586 150.084 93.1172 149.666 93.1172ZM157.09 91.3184C157.09 91.1621 157.055 91.0176 156.984 90.8848C156.918 90.748 156.779 90.625 156.568 90.5156C156.361 90.4023 156.049 90.3047 155.631 90.2227C155.279 90.1484 154.961 90.0605 154.676 89.959C154.395 89.8574 154.154 89.7344 153.955 89.5898C153.76 89.4453 153.609 89.2754 153.504 89.0801C153.398 88.8848 153.346 88.6562 153.346 88.3945C153.346 88.1445 153.4 87.9082 153.51 87.6855C153.623 87.4629 153.781 87.2656 153.984 87.0938C154.191 86.9219 154.439 86.7871 154.729 86.6895C155.018 86.5918 155.34 86.543 155.695 86.543C156.203 86.543 156.637 86.6328 156.996 86.8125C157.355 86.9922 157.631 87.2324 157.822 87.5332C158.014 87.8301 158.109 88.1602 158.109 88.5234H157.025C157.025 88.3477 156.973 88.1777 156.867 88.0137C156.766 87.8457 156.615 87.707 156.416 87.5977C156.221 87.4883 155.98 87.4336 155.695 87.4336C155.395 87.4336 155.15 87.4805 154.963 87.5742C154.779 87.6641 154.645 87.7793 154.559 87.9199C154.477 88.0605 154.436 88.209 154.436 88.3652C154.436 88.4824 154.455 88.5879 154.494 88.6816C154.537 88.7715 154.611 88.8555 154.717 88.9336C154.822 89.0078 154.971 89.0781 155.162 89.1445C155.354 89.2109 155.598 89.2773 155.895 89.3438C156.414 89.4609 156.842 89.6016 157.178 89.7656C157.514 89.9297 157.764 90.1309 157.928 90.3691C158.092 90.6074 158.174 90.8965 158.174 91.2363C158.174 91.5137 158.115 91.7676 157.998 91.998C157.885 92.2285 157.719 92.4277 157.5 92.5957C157.285 92.7598 157.027 92.8887 156.727 92.9824C156.43 93.0723 156.096 93.1172 155.725 93.1172C155.166 93.1172 154.693 93.0176 154.307 92.8184C153.92 92.6191 153.627 92.3613 153.428 92.0449C153.229 91.7285 153.129 91.3945 153.129 91.043H154.219C154.234 91.3398 154.32 91.5762 154.477 91.752C154.633 91.9238 154.824 92.0469 155.051 92.1211C155.277 92.1914 155.502 92.2266 155.725 92.2266C156.021 92.2266 156.27 92.1875 156.469 92.1094C156.672 92.0312 156.826 91.9238 156.932 91.7871C157.037 91.6504 157.09 91.4941 157.09 91.3184Z" fill="#074139"/>
<rect x="182" y="35" width="70" height="65" rx="6" fill="#E8FFFC"/>
<g clip-path="url(#clip2_26_961)">
<path d="M217 74.9999C216.878 74.9977 216.757 74.9788 216.64 74.9437C212.483 73.5607 208.868 70.9035 206.307 67.3492C203.747 63.7949 202.371 59.5243 202.375 55.1437V45.7499C202.375 45.4516 202.494 45.1654 202.704 44.9544C202.915 44.7435 203.202 44.6249 203.5 44.6249C205.85 44.6333 208.178 44.1741 210.349 43.2741C212.52 42.3741 214.49 41.0512 216.145 39.3824C216.371 39.1508 216.677 39.014 217 38.9999C217.15 38.9931 217.3 39.0165 217.441 39.0686C217.582 39.1208 217.712 39.2007 217.821 39.3037C219.476 40.9867 221.45 42.3238 223.626 43.2373C225.803 44.1508 228.139 44.6225 230.5 44.6249C230.798 44.6249 231.085 44.7435 231.295 44.9544C231.506 45.1654 231.625 45.4516 231.625 45.7499V55.1437C231.641 59.5339 230.271 63.8171 227.709 67.3826C225.148 70.9482 221.526 73.614 217.36 74.9999C217.241 75.0162 217.119 75.0162 217 74.9999ZM204.625 46.8749V55.1774C204.629 59.0156 205.821 62.7585 208.036 65.8926C210.252 69.0267 213.383 71.3984 217 72.6824C220.622 71.3965 223.757 69.0196 225.973 65.8788C228.19 62.738 229.378 58.9876 229.375 55.1437V46.8749C224.773 46.6249 220.4 44.7883 217 41.6774C213.598 44.7859 209.226 46.6222 204.625 46.8749Z" fill="#074139"/>
<path d="M214.75 50.25H219.25V53.8275C219.25 54.0722 219.153 54.3068 218.98 54.4798C218.807 54.6528 218.572 54.75 218.328 54.75H215.672C215.428 54.75 215.193 54.6528 215.02 54.4798C214.847 54.3068 214.75 54.0722 214.75 53.8275V50.25Z" fill="#77ACF1"/>
<path d="M221.826 64.875H212.174C211.366 64.872 210.592 64.5499 210.021 63.9788C209.45 63.4077 209.128 62.6339 209.125 61.8263V52.1737C209.128 51.3661 209.45 50.5923 210.021 50.0212C210.592 49.4501 211.366 49.128 212.174 49.125H221.826C222.634 49.128 223.408 49.4501 223.979 50.0212C224.55 50.5923 224.872 51.3661 224.875 52.1737V61.8263C224.872 62.6339 224.55 63.4077 223.979 63.9788C223.408 64.5499 222.634 64.872 221.826 64.875ZM212.174 51.375C211.962 51.375 211.759 51.4592 211.609 51.6089C211.459 51.7587 211.375 51.9619 211.375 52.1737V61.8263C211.375 62.0381 211.459 62.2413 211.609 62.3911C211.759 62.5408 211.962 62.625 212.174 62.625H221.826C222.038 62.625 222.241 62.5408 222.391 62.3911C222.541 62.2413 222.625 62.0381 222.625 61.8263V52.1737C222.625 51.9619 222.541 51.7587 222.391 51.6089C222.241 51.4592 222.038 51.375 221.826 51.375H212.174Z" fill="#074139"/>
</g>
<path d="M193.023 84.4688V93H191.893V84.4688H193.023ZM196 88.0137V93H194.916V86.6602H195.941L196 88.0137ZM195.742 89.5898L195.291 89.5723C195.295 89.1387 195.359 88.7383 195.484 88.3711C195.609 88 195.785 87.6777 196.012 87.4043C196.238 87.1309 196.508 86.9199 196.82 86.7715C197.137 86.6191 197.486 86.543 197.869 86.543C198.182 86.543 198.463 86.5859 198.713 86.6719C198.963 86.7539 199.176 86.8867 199.352 87.0703C199.531 87.2539 199.668 87.4922 199.762 87.7852C199.855 88.0742 199.902 88.4277 199.902 88.8457V93H198.812V88.834C198.812 88.502 198.764 88.2363 198.666 88.0371C198.568 87.834 198.426 87.6875 198.238 87.5977C198.051 87.5039 197.82 87.457 197.547 87.457C197.277 87.457 197.031 87.5137 196.809 87.627C196.59 87.7402 196.4 87.8965 196.24 88.0957C196.084 88.2949 195.961 88.5234 195.871 88.7812C195.785 89.0352 195.742 89.3047 195.742 89.5898ZM205.24 91.3184C205.24 91.1621 205.205 91.0176 205.135 90.8848C205.068 90.748 204.93 90.625 204.719 90.5156C204.512 90.4023 204.199 90.3047 203.781 90.2227C203.43 90.1484 203.111 90.0605 202.826 89.959C202.545 89.8574 202.305 89.7344 202.105 89.5898C201.91 89.4453 201.76 89.2754 201.654 89.0801C201.549 88.8848 201.496 88.6562 201.496 88.3945C201.496 88.1445 201.551 87.9082 201.66 87.6855C201.773 87.4629 201.932 87.2656 202.135 87.0938C202.342 86.9219 202.59 86.7871 202.879 86.6895C203.168 86.5918 203.49 86.543 203.846 86.543C204.354 86.543 204.787 86.6328 205.146 86.8125C205.506 86.9922 205.781 87.2324 205.973 87.5332C206.164 87.8301 206.26 88.1602 206.26 88.5234H205.176C205.176 88.3477 205.123 88.1777 205.018 88.0137C204.916 87.8457 204.766 87.707 204.566 87.5977C204.371 87.4883 204.131 87.4336 203.846 87.4336C203.545 87.4336 203.301 87.4805 203.113 87.5742C202.93 87.6641 202.795 87.7793 202.709 87.9199C202.627 88.0605 202.586 88.209 202.586 88.3652C202.586 88.4824 202.605 88.5879 202.645 88.6816C202.688 88.7715 202.762 88.8555 202.867 88.9336C202.973 89.0078 203.121 89.0781 203.312 89.1445C203.504 89.2109 203.748 89.2773 204.045 89.3438C204.564 89.4609 204.992 89.6016 205.328 89.7656C205.664 89.9297 205.914 90.1309 206.078 90.3691C206.242 90.6074 206.324 90.8965 206.324 91.2363C206.324 91.5137 206.266 91.7676 206.148 91.998C206.035 92.2285 205.869 92.4277 205.65 92.5957C205.436 92.7598 205.178 92.8887 204.877 92.9824C204.58 93.0723 204.246 93.1172 203.875 93.1172C203.316 93.1172 202.844 93.0176 202.457 92.8184C202.07 92.6191 201.777 92.3613 201.578 92.0449C201.379 91.7285 201.279 91.3945 201.279 91.043H202.369C202.385 91.3398 202.471 91.5762 202.627 91.752C202.783 91.9238 202.975 92.0469 203.201 92.1211C203.428 92.1914 203.652 92.2266 203.875 92.2266C204.172 92.2266 204.42 92.1875 204.619 92.1094C204.822 92.0312 204.977 91.9238 205.082 91.7871C205.188 91.6504 205.24 91.4941 205.24 91.3184ZM211.627 91.5352V86.6602H212.717V93H211.68L211.627 91.5352ZM211.832 90.1992L212.283 90.1875C212.283 90.6094 212.238 91 212.148 91.3594C212.062 91.7148 211.922 92.0234 211.727 92.2852C211.531 92.5469 211.275 92.752 210.959 92.9004C210.643 93.0449 210.258 93.1172 209.805 93.1172C209.496 93.1172 209.213 93.0723 208.955 92.9824C208.701 92.8926 208.482 92.7539 208.299 92.5664C208.115 92.3789 207.973 92.1348 207.871 91.834C207.773 91.5332 207.725 91.1719 207.725 90.75V86.6602H208.809V90.7617C208.809 91.0469 208.84 91.2832 208.902 91.4707C208.969 91.6543 209.057 91.8008 209.166 91.9102C209.279 92.0156 209.404 92.0898 209.541 92.1328C209.682 92.1758 209.826 92.1973 209.975 92.1973C210.436 92.1973 210.801 92.1094 211.07 91.9336C211.34 91.7539 211.533 91.5137 211.65 91.2129C211.771 90.9082 211.832 90.5703 211.832 90.1992ZM215.453 87.6562V93H214.369V86.6602H215.424L215.453 87.6562ZM217.434 86.625L217.428 87.6328C217.338 87.6133 217.252 87.6016 217.17 87.5977C217.092 87.5898 217.002 87.5859 216.9 87.5859C216.65 87.5859 216.43 87.625 216.238 87.7031C216.047 87.7812 215.885 87.8906 215.752 88.0312C215.619 88.1719 215.514 88.3398 215.436 88.5352C215.361 88.7266 215.312 88.9375 215.289 89.168L214.984 89.3438C214.984 88.9609 215.021 88.6016 215.096 88.2656C215.174 87.9297 215.293 87.6328 215.453 87.375C215.613 87.1133 215.816 86.9102 216.062 86.7656C216.312 86.6172 216.609 86.543 216.953 86.543C217.031 86.543 217.121 86.5527 217.223 86.5723C217.324 86.5879 217.395 86.6055 217.434 86.625ZM221.939 91.916V88.6523C221.939 88.4023 221.889 88.1855 221.787 88.002C221.689 87.8145 221.541 87.6699 221.342 87.5684C221.143 87.4668 220.896 87.416 220.604 87.416C220.33 87.416 220.09 87.4629 219.883 87.5566C219.68 87.6504 219.52 87.7734 219.402 87.9258C219.289 88.0781 219.232 88.2422 219.232 88.418H218.148C218.148 88.1914 218.207 87.9668 218.324 87.7441C218.441 87.5215 218.609 87.3203 218.828 87.1406C219.051 86.957 219.316 86.8125 219.625 86.707C219.938 86.5977 220.285 86.543 220.668 86.543C221.129 86.543 221.535 86.6211 221.887 86.7773C222.242 86.9336 222.52 87.1699 222.719 87.4863C222.922 87.7988 223.023 88.1914 223.023 88.6641V91.6172C223.023 91.8281 223.041 92.0527 223.076 92.291C223.115 92.5293 223.172 92.7344 223.246 92.9062V93H222.115C222.061 92.875 222.018 92.709 221.986 92.502C221.955 92.291 221.939 92.0957 221.939 91.916ZM222.127 89.1562L222.139 89.918H221.043C220.734 89.918 220.459 89.9434 220.217 89.9941C219.975 90.041 219.771 90.1133 219.607 90.2109C219.443 90.3086 219.318 90.4316 219.232 90.5801C219.146 90.7246 219.104 90.8945 219.104 91.0898C219.104 91.2891 219.148 91.4707 219.238 91.6348C219.328 91.7988 219.463 91.9297 219.643 92.0273C219.826 92.1211 220.051 92.168 220.316 92.168C220.648 92.168 220.941 92.0977 221.195 91.957C221.449 91.8164 221.65 91.6445 221.799 91.4414C221.951 91.2383 222.033 91.041 222.045 90.8496L222.508 91.3711C222.48 91.5352 222.406 91.7168 222.285 91.916C222.164 92.1152 222.002 92.3066 221.799 92.4902C221.6 92.6699 221.361 92.8203 221.084 92.9414C220.811 93.0586 220.502 93.1172 220.158 93.1172C219.729 93.1172 219.352 93.0332 219.027 92.8652C218.707 92.6973 218.457 92.4727 218.277 92.1914C218.102 91.9062 218.014 91.5879 218.014 91.2363C218.014 90.8965 218.08 90.5977 218.213 90.3398C218.346 90.0781 218.537 89.8613 218.787 89.6895C219.037 89.5137 219.338 89.3809 219.689 89.291C220.041 89.2012 220.434 89.1562 220.867 89.1562H222.127ZM225.812 88.0137V93H224.729V86.6602H225.754L225.812 88.0137ZM225.555 89.5898L225.104 89.5723C225.107 89.1387 225.172 88.7383 225.297 88.3711C225.422 88 225.598 87.6777 225.824 87.4043C226.051 87.1309 226.32 86.9199 226.633 86.7715C226.949 86.6191 227.299 86.543 227.682 86.543C227.994 86.543 228.275 86.5859 228.525 86.6719C228.775 86.7539 228.988 86.8867 229.164 87.0703C229.344 87.2539 229.48 87.4922 229.574 87.7852C229.668 88.0742 229.715 88.4277 229.715 88.8457V93H228.625V88.834C228.625 88.502 228.576 88.2363 228.479 88.0371C228.381 87.834 228.238 87.6875 228.051 87.5977C227.863 87.5039 227.633 87.457 227.359 87.457C227.09 87.457 226.844 87.5137 226.621 87.627C226.402 87.7402 226.213 87.8965 226.053 88.0957C225.896 88.2949 225.773 88.5234 225.684 88.7812C225.598 89.0352 225.555 89.3047 225.555 89.5898ZM233.898 92.2266C234.156 92.2266 234.395 92.1738 234.613 92.0684C234.832 91.9629 235.012 91.8184 235.152 91.6348C235.293 91.4473 235.373 91.2344 235.393 90.9961H236.424C236.404 91.3711 236.277 91.7207 236.043 92.0449C235.812 92.3652 235.51 92.625 235.135 92.8242C234.76 93.0195 234.348 93.1172 233.898 93.1172C233.422 93.1172 233.006 93.0332 232.65 92.8652C232.299 92.6973 232.006 92.4668 231.771 92.1738C231.541 91.8809 231.367 91.5449 231.25 91.166C231.137 90.7832 231.08 90.3789 231.08 89.9531V89.707C231.08 89.2812 231.137 88.8789 231.25 88.5C231.367 88.1172 231.541 87.7793 231.771 87.4863C232.006 87.1934 232.299 86.9629 232.65 86.7949C233.006 86.627 233.422 86.543 233.898 86.543C234.395 86.543 234.828 86.6445 235.199 86.8477C235.57 87.0469 235.861 87.3203 236.072 87.668C236.287 88.0117 236.404 88.4023 236.424 88.8398H235.393C235.373 88.5781 235.299 88.3418 235.17 88.1309C235.045 87.9199 234.873 87.752 234.654 87.627C234.439 87.498 234.188 87.4336 233.898 87.4336C233.566 87.4336 233.287 87.5 233.061 87.6328C232.838 87.7617 232.66 87.9375 232.527 88.1602C232.398 88.3789 232.305 88.623 232.246 88.8926C232.191 89.1582 232.164 89.4297 232.164 89.707V89.9531C232.164 90.2305 232.191 90.5039 232.246 90.7734C232.301 91.043 232.393 91.2871 232.521 91.5059C232.654 91.7246 232.832 91.9004 233.055 92.0332C233.281 92.1621 233.562 92.2266 233.898 92.2266ZM240.273 93.1172C239.832 93.1172 239.432 93.043 239.072 92.8945C238.717 92.7422 238.41 92.5293 238.152 92.2559C237.898 91.9824 237.703 91.6582 237.566 91.2832C237.43 90.9082 237.361 90.498 237.361 90.0527V89.8066C237.361 89.291 237.438 88.832 237.59 88.4297C237.742 88.0234 237.949 87.6797 238.211 87.3984C238.473 87.1172 238.77 86.9043 239.102 86.7598C239.434 86.6152 239.777 86.543 240.133 86.543C240.586 86.543 240.977 86.6211 241.305 86.7773C241.637 86.9336 241.908 87.1523 242.119 87.4336C242.33 87.7109 242.486 88.0391 242.588 88.418C242.689 88.793 242.74 89.2031 242.74 89.6484V90.1348H238.006V89.25H241.656V89.168C241.641 88.8867 241.582 88.6133 241.48 88.3477C241.383 88.082 241.227 87.8633 241.012 87.6914C240.797 87.5195 240.504 87.4336 240.133 87.4336C239.887 87.4336 239.66 87.4863 239.453 87.5918C239.246 87.6934 239.068 87.8457 238.92 88.0488C238.771 88.252 238.656 88.5 238.574 88.793C238.492 89.0859 238.451 89.4238 238.451 89.8066V90.0527C238.451 90.3535 238.492 90.6367 238.574 90.9023C238.66 91.1641 238.783 91.3945 238.943 91.5938C239.107 91.793 239.305 91.9492 239.535 92.0625C239.77 92.1758 240.035 92.2324 240.332 92.2324C240.715 92.2324 241.039 92.1543 241.305 91.998C241.57 91.8418 241.803 91.6328 242.002 91.3711L242.658 91.8926C242.521 92.0996 242.348 92.2969 242.137 92.4844C241.926 92.6719 241.666 92.8242 241.357 92.9414C241.053 93.0586 240.691 93.1172 240.273 93.1172Z" fill="#074139"/>
<rect x="273" y="35" width="70" height="65" rx="6" fill="#E8FFFC"/>
<path d="M320.148 68.2087H314.628C314.31 68.2087 314.053 68.4659 314.053 68.7831C314.053 69.1004 314.31 69.3576 314.628 69.3576H320.148C320.753 69.3576 321.246 69.85 321.246 70.4554C321.246 70.5628 321.23 70.6682 321.2 70.7689C320.886 70.6017 320.528 70.5065 320.148 70.5065H312.667C312.854 70.1748 312.953 69.7995 312.953 69.4086C312.953 68.8085 312.72 68.2443 312.295 67.82L305.964 61.4889C305.044 60.5691 303.305 59.8486 302.004 59.8486H294.18C293.862 59.8486 293.605 60.1058 293.605 60.4231C293.605 60.7404 293.862 60.9976 294.18 60.9976H302.004C303.004 60.9976 304.445 61.5946 305.152 62.3013L311.483 68.6324C311.69 68.8397 311.804 69.1154 311.804 69.4086C311.804 69.7018 311.69 69.9775 311.483 70.1849C311.055 70.6129 310.358 70.613 309.93 70.1849L304.785 65.0395C304.56 64.8152 304.197 64.8151 303.972 65.0395C303.748 65.2638 303.748 65.6275 303.972 65.8518L309.118 70.9973C309.546 71.4252 310.105 71.6435 310.667 71.6533C310.68 71.6543 310.693 71.6553 310.707 71.6553H320.148C320.753 71.6553 321.246 72.1478 321.246 72.7532C321.246 73.3585 320.753 73.851 320.148 73.851L309.605 73.8417C309.324 73.8415 308.847 73.7172 308.597 73.5798L297.881 66.9625C297.874 66.9583 297.867 66.9543 297.861 66.9505C297.441 66.7146 296.762 66.5367 296.28 66.5367H294.18C293.862 66.5367 293.605 66.794 293.605 67.1112C293.605 67.4285 293.862 67.6857 294.18 67.6857H296.28C296.561 67.6857 297.038 67.8095 297.289 67.9469L308.004 74.5643C308.011 74.5684 308.018 74.5724 308.025 74.5762C308.444 74.812 309.123 74.9902 309.604 74.9906L320.148 75C321.387 75 322.395 73.9922 322.395 72.7533C322.395 72.334 322.279 71.9413 322.078 71.6051C322.284 71.2603 322.395 70.8652 322.395 70.4554C322.395 69.2166 321.387 68.2087 320.148 68.2087Z" fill="#074139"/>
<path d="M311.773 64.3527C311.458 64.3878 311.231 64.672 311.266 64.9873C311.301 65.3025 311.584 65.5298 311.9 65.4945C312.132 65.4687 312.368 65.4556 312.602 65.4556C314.078 65.4556 315.511 65.9797 316.637 66.9314C316.745 67.0226 316.877 67.0671 317.008 67.0671C317.171 67.0671 317.333 66.9979 317.447 66.8635C317.652 66.6211 317.621 66.2587 317.379 66.0539C316.192 65.0512 314.718 64.4507 313.177 64.3304V55.036L316.188 52.2874C316.422 52.0735 316.439 51.7101 316.225 51.4758C316.011 51.2415 315.648 51.2249 315.413 51.4388L313.176 53.4805V49.7861C313.176 49.4689 312.919 49.2117 312.602 49.2117C312.285 49.2117 312.028 49.4689 312.028 49.7861V53.4804L309.791 51.4388C309.556 51.2249 309.193 51.2415 308.979 51.4758C308.765 51.7101 308.782 52.0735 309.016 52.2874L312.027 55.0359V64.3291C311.942 64.3357 311.857 64.3432 311.773 64.3527Z" fill="#074139"/>
<path d="M310.162 58.2783C310.209 58.2906 310.257 58.2965 310.305 58.2965C310.561 58.2965 310.794 58.124 310.861 57.8646C310.94 57.5573 310.754 57.2443 310.447 57.1654C306.627 56.1852 303.959 52.7421 303.959 48.7925C303.959 44.0264 307.836 40.1489 312.602 40.1489C317.368 40.1489 321.246 44.0264 321.246 48.7925C321.246 52.742 318.578 56.1851 314.757 57.1654C314.45 57.2443 314.265 57.5572 314.344 57.8646C314.422 58.1718 314.735 58.3572 315.043 58.2783C319.372 57.1676 322.395 53.2669 322.395 48.7925C322.395 43.3929 318.002 39 312.602 39C307.202 39 302.81 43.3929 302.81 48.7925C302.81 53.267 305.833 57.1677 310.162 58.2783Z" fill="#074139"/>
<path d="M288.582 89.6543H286.303V88.7344H288.582C289.023 88.7344 289.381 88.6641 289.654 88.5234C289.928 88.3828 290.127 88.1875 290.252 87.9375C290.381 87.6875 290.445 87.4023 290.445 87.082C290.445 86.7891 290.381 86.5137 290.252 86.2559C290.127 85.998 289.928 85.791 289.654 85.6348C289.381 85.4746 289.023 85.3945 288.582 85.3945H286.566V93H285.436V84.4688H288.582C289.227 84.4688 289.771 84.5801 290.217 84.8027C290.662 85.0254 291 85.334 291.23 85.7285C291.461 86.1191 291.576 86.5664 291.576 87.0703C291.576 87.6172 291.461 88.084 291.23 88.4707C291 88.8574 290.662 89.1523 290.217 89.3555C289.771 89.5547 289.227 89.6543 288.582 89.6543ZM292.473 89.9004V89.7656C292.473 89.3086 292.539 88.8848 292.672 88.4941C292.805 88.0996 292.996 87.7578 293.246 87.4688C293.496 87.1758 293.799 86.9492 294.154 86.7891C294.51 86.625 294.908 86.543 295.35 86.543C295.795 86.543 296.195 86.625 296.551 86.7891C296.91 86.9492 297.215 87.1758 297.465 87.4688C297.719 87.7578 297.912 88.0996 298.045 88.4941C298.178 88.8848 298.244 89.3086 298.244 89.7656V89.9004C298.244 90.3574 298.178 90.7812 298.045 91.1719C297.912 91.5625 297.719 91.9043 297.465 92.1973C297.215 92.4863 296.912 92.7129 296.557 92.877C296.205 93.0371 295.807 93.1172 295.361 93.1172C294.916 93.1172 294.516 93.0371 294.16 92.877C293.805 92.7129 293.5 92.4863 293.246 92.1973C292.996 91.9043 292.805 91.5625 292.672 91.1719C292.539 90.7812 292.473 90.3574 292.473 89.9004ZM293.557 89.7656V89.9004C293.557 90.2168 293.594 90.5156 293.668 90.7969C293.742 91.0742 293.854 91.3203 294.002 91.5352C294.154 91.75 294.344 91.9199 294.57 92.0449C294.797 92.166 295.061 92.2266 295.361 92.2266C295.658 92.2266 295.918 92.166 296.141 92.0449C296.367 91.9199 296.555 91.75 296.703 91.5352C296.852 91.3203 296.963 91.0742 297.037 90.7969C297.115 90.5156 297.154 90.2168 297.154 89.9004V89.7656C297.154 89.4531 297.115 89.1582 297.037 88.8809C296.963 88.5996 296.85 88.3516 296.697 88.1367C296.549 87.918 296.361 87.7461 296.135 87.6211C295.912 87.4961 295.65 87.4336 295.35 87.4336C295.053 87.4336 294.791 87.4961 294.564 87.6211C294.342 87.7461 294.154 87.918 294.002 88.1367C293.854 88.3516 293.742 88.5996 293.668 88.8809C293.594 89.1582 293.557 89.4531 293.557 89.7656ZM300.781 84V93H299.691V84H300.781ZM303.699 84V93H302.609V84H303.699ZM309.318 91.5352V86.6602H310.408V93H309.371L309.318 91.5352ZM309.523 90.1992L309.975 90.1875C309.975 90.6094 309.93 91 309.84 91.3594C309.754 91.7148 309.613 92.0234 309.418 92.2852C309.223 92.5469 308.967 92.752 308.65 92.9004C308.334 93.0449 307.949 93.1172 307.496 93.1172C307.188 93.1172 306.904 93.0723 306.646 92.9824C306.393 92.8926 306.174 92.7539 305.99 92.5664C305.807 92.3789 305.664 92.1348 305.562 91.834C305.465 91.5332 305.416 91.1719 305.416 90.75V86.6602H306.5V90.7617C306.5 91.0469 306.531 91.2832 306.594 91.4707C306.66 91.6543 306.748 91.8008 306.857 91.9102C306.971 92.0156 307.096 92.0898 307.232 92.1328C307.373 92.1758 307.518 92.1973 307.666 92.1973C308.127 92.1973 308.492 92.1094 308.762 91.9336C309.031 91.7539 309.225 91.5137 309.342 91.2129C309.463 90.9082 309.523 90.5703 309.523 90.1992ZM314.715 86.6602V87.4922H311.287V86.6602H314.715ZM312.447 85.1191H313.531V91.4297C313.531 91.6445 313.564 91.8066 313.631 91.916C313.697 92.0254 313.783 92.0977 313.889 92.1328C313.994 92.168 314.107 92.1855 314.229 92.1855C314.318 92.1855 314.412 92.1777 314.51 92.1621C314.611 92.1426 314.688 92.127 314.738 92.1152L314.744 93C314.658 93.0273 314.545 93.0527 314.404 93.0762C314.268 93.1035 314.102 93.1172 313.906 93.1172C313.641 93.1172 313.396 93.0645 313.174 92.959C312.951 92.8535 312.773 92.6777 312.641 92.4316C312.512 92.1816 312.447 91.8457 312.447 91.4238V85.1191ZM317.164 86.6602V93H316.074V86.6602H317.164ZM315.992 84.9785C315.992 84.8027 316.045 84.6543 316.15 84.5332C316.26 84.4121 316.42 84.3516 316.631 84.3516C316.838 84.3516 316.996 84.4121 317.105 84.5332C317.219 84.6543 317.275 84.8027 317.275 84.9785C317.275 85.1465 317.219 85.291 317.105 85.4121C316.996 85.5293 316.838 85.5879 316.631 85.5879C316.42 85.5879 316.26 85.5293 316.15 85.4121C316.045 85.291 315.992 85.1465 315.992 84.9785ZM318.617 89.9004V89.7656C318.617 89.3086 318.684 88.8848 318.816 88.4941C318.949 88.0996 319.141 87.7578 319.391 87.4688C319.641 87.1758 319.943 86.9492 320.299 86.7891C320.654 86.625 321.053 86.543 321.494 86.543C321.939 86.543 322.34 86.625 322.695 86.7891C323.055 86.9492 323.359 87.1758 323.609 87.4688C323.863 87.7578 324.057 88.0996 324.189 88.4941C324.322 88.8848 324.389 89.3086 324.389 89.7656V89.9004C324.389 90.3574 324.322 90.7812 324.189 91.1719C324.057 91.5625 323.863 91.9043 323.609 92.1973C323.359 92.4863 323.057 92.7129 322.701 92.877C322.35 93.0371 321.951 93.1172 321.506 93.1172C321.061 93.1172 320.66 93.0371 320.305 92.877C319.949 92.7129 319.645 92.4863 319.391 92.1973C319.141 91.9043 318.949 91.5625 318.816 91.1719C318.684 90.7812 318.617 90.3574 318.617 89.9004ZM319.701 89.7656V89.9004C319.701 90.2168 319.738 90.5156 319.812 90.7969C319.887 91.0742 319.998 91.3203 320.146 91.5352C320.299 91.75 320.488 91.9199 320.715 92.0449C320.941 92.166 321.205 92.2266 321.506 92.2266C321.803 92.2266 322.062 92.166 322.285 92.0449C322.512 91.9199 322.699 91.75 322.848 91.5352C322.996 91.3203 323.107 91.0742 323.182 90.7969C323.26 90.5156 323.299 90.2168 323.299 89.9004V89.7656C323.299 89.4531 323.26 89.1582 323.182 88.8809C323.107 88.5996 322.994 88.3516 322.842 88.1367C322.693 87.918 322.506 87.7461 322.279 87.6211C322.057 87.4961 321.795 87.4336 321.494 87.4336C321.197 87.4336 320.936 87.4961 320.709 87.6211C320.486 87.7461 320.299 87.918 320.146 88.1367C319.998 88.3516 319.887 88.5996 319.812 88.8809C319.738 89.1582 319.701 89.4531 319.701 89.7656ZM326.832 88.0137V93H325.748V86.6602H326.773L326.832 88.0137ZM326.574 89.5898L326.123 89.5723C326.127 89.1387 326.191 88.7383 326.316 88.3711C326.441 88 326.617 87.6777 326.844 87.4043C327.07 87.1309 327.34 86.9199 327.652 86.7715C327.969 86.6191 328.318 86.543 328.701 86.543C329.014 86.543 329.295 86.5859 329.545 86.6719C329.795 86.7539 330.008 86.8867 330.184 87.0703C330.363 87.2539 330.5 87.4922 330.594 87.7852C330.688 88.0742 330.734 88.4277 330.734 88.8457V93H329.645V88.834C329.645 88.502 329.596 88.2363 329.498 88.0371C329.4 87.834 329.258 87.6875 329.07 87.5977C328.883 87.5039 328.652 87.457 328.379 87.457C328.109 87.457 327.863 87.5137 327.641 87.627C327.422 87.7402 327.232 87.8965 327.072 88.0957C326.916 88.2949 326.793 88.5234 326.703 88.7812C326.617 89.0352 326.574 89.3047 326.574 89.5898Z" fill="#074139"/>
<rect y="120" width="70" height="65" rx="6" fill="#E8FFFC"/>
<g clip-path="url(#clip3_26_961)">
<path d="M40.4827 124.899L46.5077 159.433C46.576 159.825 46.949 160.087 47.3407 160.019C47.7324 159.95 47.9946 159.577 47.9262 159.186L41.9013 124.651C41.8329 124.259 41.46 123.997 41.0682 124.066C40.6765 124.134 40.4144 124.507 40.4827 124.899ZM28.0758 124.651L22.0508 159.186C21.9824 159.577 22.2446 159.95 22.6363 160.019C23.028 160.087 23.401 159.825 23.4693 159.433L29.4943 124.899C29.5627 124.507 29.3005 124.134 28.9088 124.066C28.5171 123.997 28.1441 124.259 28.0758 124.651ZM34.1752 124.72V127.6C34.1752 127.998 34.4975 128.32 34.8952 128.32C35.2928 128.32 35.6152 127.998 35.6152 127.6V124.72C35.6152 124.322 35.2928 124 34.8952 124C34.4975 124 34.1752 124.322 34.1752 124.72ZM34.1752 131.684V136.364C34.1752 136.762 34.4975 137.084 34.8952 137.084C35.2928 137.084 35.6152 136.762 35.6152 136.364V131.684C35.6152 131.286 35.2928 130.964 34.8952 130.964C34.4975 130.964 34.1752 131.286 34.1752 131.684ZM34.1752 140.448V146.928C34.1752 147.326 34.4975 147.648 34.8952 147.648C35.2928 147.648 35.6152 147.326 35.6152 146.928V140.448C35.6152 140.05 35.2928 139.728 34.8952 139.728C34.4975 139.728 34.1752 140.05 34.1752 140.448ZM34.1752 151.012V159.292C34.1752 159.69 34.4975 160.012 34.8952 160.012C35.2928 160.012 35.6152 159.69 35.6152 159.292V151.012C35.6152 150.614 35.2928 150.292 34.8952 150.292C34.4975 150.292 34.1752 150.614 34.1752 151.012Z" fill="#074139"/>
</g>
<path d="M18.6211 169.469V178H17.4902V169.469H18.6211ZM22.1953 173.307V174.232H18.375V173.307H22.1953ZM22.7754 169.469V170.395H18.375V169.469H22.7754ZM27.498 176.916V173.652C27.498 173.402 27.4473 173.186 27.3457 173.002C27.248 172.814 27.0996 172.67 26.9004 172.568C26.7012 172.467 26.4551 172.416 26.1621 172.416C25.8887 172.416 25.6484 172.463 25.4414 172.557C25.2383 172.65 25.0781 172.773 24.9609 172.926C24.8477 173.078 24.791 173.242 24.791 173.418H23.707C23.707 173.191 23.7656 172.967 23.8828 172.744C24 172.521 24.168 172.32 24.3867 172.141C24.6094 171.957 24.875 171.812 25.1836 171.707C25.4961 171.598 25.8438 171.543 26.2266 171.543C26.6875 171.543 27.0938 171.621 27.4453 171.777C27.8008 171.934 28.0781 172.17 28.2773 172.486C28.4805 172.799 28.582 173.191 28.582 173.664V176.617C28.582 176.828 28.5996 177.053 28.6348 177.291C28.6738 177.529 28.7305 177.734 28.8047 177.906V178H27.6738C27.6191 177.875 27.5762 177.709 27.5449 177.502C27.5137 177.291 27.498 177.096 27.498 176.916ZM27.6855 174.156L27.6973 174.918H26.6016C26.293 174.918 26.0176 174.943 25.7754 174.994C25.5332 175.041 25.3301 175.113 25.166 175.211C25.002 175.309 24.877 175.432 24.791 175.58C24.7051 175.725 24.6621 175.895 24.6621 176.09C24.6621 176.289 24.707 176.471 24.7969 176.635C24.8867 176.799 25.0215 176.93 25.2012 177.027C25.3848 177.121 25.6094 177.168 25.875 177.168C26.207 177.168 26.5 177.098 26.7539 176.957C27.0078 176.816 27.209 176.645 27.3574 176.441C27.5098 176.238 27.5918 176.041 27.6035 175.85L28.0664 176.371C28.0391 176.535 27.9648 176.717 27.8438 176.916C27.7227 177.115 27.5605 177.307 27.3574 177.49C27.1582 177.67 26.9199 177.82 26.6426 177.941C26.3691 178.059 26.0605 178.117 25.7168 178.117C25.2871 178.117 24.9102 178.033 24.5859 177.865C24.2656 177.697 24.0156 177.473 23.8359 177.191C23.6602 176.906 23.5723 176.588 23.5723 176.236C23.5723 175.896 23.6387 175.598 23.7715 175.34C23.9043 175.078 24.0957 174.861 24.3457 174.689C24.5957 174.514 24.8965 174.381 25.248 174.291C25.5996 174.201 25.9922 174.156 26.4258 174.156H27.6855ZM33.9785 176.318C33.9785 176.162 33.9434 176.018 33.873 175.885C33.8066 175.748 33.668 175.625 33.457 175.516C33.25 175.402 32.9375 175.305 32.5195 175.223C32.168 175.148 31.8496 175.061 31.5645 174.959C31.2832 174.857 31.043 174.734 30.8438 174.59C30.6484 174.445 30.498 174.275 30.3926 174.08C30.2871 173.885 30.2344 173.656 30.2344 173.395C30.2344 173.145 30.2891 172.908 30.3984 172.686C30.5117 172.463 30.6699 172.266 30.873 172.094C31.0801 171.922 31.3281 171.787 31.6172 171.689C31.9062 171.592 32.2285 171.543 32.584 171.543C33.0918 171.543 33.5254 171.633 33.8848 171.812C34.2441 171.992 34.5195 172.232 34.7109 172.533C34.9023 172.83 34.998 173.16 34.998 173.523H33.9141C33.9141 173.348 33.8613 173.178 33.7559 173.014C33.6543 172.846 33.5039 172.707 33.3047 172.598C33.1094 172.488 32.8691 172.434 32.584 172.434C32.2832 172.434 32.0391 172.48 31.8516 172.574C31.668 172.664 31.5332 172.779 31.4473 172.92C31.3652 173.061 31.3242 173.209 31.3242 173.365C31.3242 173.482 31.3438 173.588 31.3828 173.682C31.4258 173.771 31.5 173.855 31.6055 173.934C31.7109 174.008 31.8594 174.078 32.0508 174.145C32.2422 174.211 32.4863 174.277 32.7832 174.344C33.3027 174.461 33.7305 174.602 34.0664 174.766C34.4023 174.93 34.6523 175.131 34.8164 175.369C34.9805 175.607 35.0625 175.896 35.0625 176.236C35.0625 176.514 35.0039 176.768 34.8867 176.998C34.7734 177.229 34.6074 177.428 34.3887 177.596C34.1738 177.76 33.916 177.889 33.6152 177.982C33.3184 178.072 32.9844 178.117 32.6133 178.117C32.0547 178.117 31.582 178.018 31.1953 177.818C30.8086 177.619 30.5156 177.361 30.3164 177.045C30.1172 176.729 30.0176 176.395 30.0176 176.043H31.1074C31.123 176.34 31.209 176.576 31.3652 176.752C31.5215 176.924 31.7129 177.047 31.9395 177.121C32.166 177.191 32.3906 177.227 32.6133 177.227C32.9102 177.227 33.1582 177.188 33.3574 177.109C33.5605 177.031 33.7148 176.924 33.8203 176.787C33.9258 176.65 33.9785 176.494 33.9785 176.318ZM39.1406 171.66V172.492H35.7129V171.66H39.1406ZM36.873 170.119H37.957V176.43C37.957 176.645 37.9902 176.807 38.0566 176.916C38.123 177.025 38.209 177.098 38.3145 177.133C38.4199 177.168 38.5332 177.186 38.6543 177.186C38.7441 177.186 38.8379 177.178 38.9355 177.162C39.0371 177.143 39.1133 177.127 39.1641 177.115L39.1699 178C39.084 178.027 38.9707 178.053 38.8301 178.076C38.6934 178.104 38.5273 178.117 38.332 178.117C38.0664 178.117 37.8223 178.064 37.5996 177.959C37.377 177.854 37.1992 177.678 37.0664 177.432C36.9375 177.182 36.873 176.846 36.873 176.424V170.119ZM44.1504 176.916V173.652C44.1504 173.402 44.0996 173.186 43.998 173.002C43.9004 172.814 43.752 172.67 43.5527 172.568C43.3535 172.467 43.1074 172.416 42.8145 172.416C42.541 172.416 42.3008 172.463 42.0938 172.557C41.8906 172.65 41.7305 172.773 41.6133 172.926C41.5 173.078 41.4434 173.242 41.4434 173.418H40.3594C40.3594 173.191 40.418 172.967 40.5352 172.744C40.6523 172.521 40.8203 172.32 41.0391 172.141C41.2617 171.957 41.5273 171.812 41.8359 171.707C42.1484 171.598 42.4961 171.543 42.8789 171.543C43.3398 171.543 43.7461 171.621 44.0977 171.777C44.4531 171.934 44.7305 172.17 44.9297 172.486C45.1328 172.799 45.2344 173.191 45.2344 173.664V176.617C45.2344 176.828 45.252 177.053 45.2871 177.291C45.3262 177.529 45.3828 177.734 45.457 177.906V178H44.3262C44.2715 177.875 44.2285 177.709 44.1973 177.502C44.166 177.291 44.1504 177.096 44.1504 176.916ZM44.3379 174.156L44.3496 174.918H43.2539C42.9453 174.918 42.6699 174.943 42.4277 174.994C42.1855 175.041 41.9824 175.113 41.8184 175.211C41.6543 175.309 41.5293 175.432 41.4434 175.58C41.3574 175.725 41.3145 175.895 41.3145 176.09C41.3145 176.289 41.3594 176.471 41.4492 176.635C41.5391 176.799 41.6738 176.93 41.8535 177.027C42.0371 177.121 42.2617 177.168 42.5273 177.168C42.8594 177.168 43.1523 177.098 43.4062 176.957C43.6602 176.816 43.8613 176.645 44.0098 176.441C44.1621 176.238 44.2441 176.041 44.2559 175.85L44.7188 176.371C44.6914 176.535 44.6172 176.717 44.4961 176.916C44.375 177.115 44.2129 177.307 44.0098 177.49C43.8105 177.67 43.5723 177.82 43.2949 177.941C43.0215 178.059 42.7129 178.117 42.3691 178.117C41.9395 178.117 41.5625 178.033 41.2383 177.865C40.918 177.697 40.668 177.473 40.4883 177.191C40.3125 176.906 40.2246 176.588 40.2246 176.236C40.2246 175.896 40.291 175.598 40.4238 175.34C40.5566 175.078 40.748 174.861 40.998 174.689C41.248 174.514 41.5488 174.381 41.9004 174.291C42.252 174.201 42.6445 174.156 43.0781 174.156H44.3379ZM51.0469 171.66H52.0312V177.865C52.0312 178.424 51.918 178.9 51.6914 179.295C51.4648 179.689 51.1484 179.988 50.7422 180.191C50.3398 180.398 49.875 180.502 49.3477 180.502C49.1289 180.502 48.8711 180.467 48.5742 180.396C48.2812 180.33 47.9922 180.215 47.707 180.051C47.4258 179.891 47.1895 179.674 46.998 179.4L47.5664 178.756C47.832 179.076 48.1094 179.299 48.3984 179.424C48.6914 179.549 48.9805 179.611 49.2656 179.611C49.6094 179.611 49.9062 179.547 50.1562 179.418C50.4062 179.289 50.5996 179.098 50.7363 178.844C50.877 178.594 50.9473 178.285 50.9473 177.918V173.055L51.0469 171.66ZM46.6816 174.9V174.777C46.6816 174.293 46.7383 173.854 46.8516 173.459C46.9688 173.061 47.1348 172.719 47.3496 172.434C47.5684 172.148 47.832 171.93 48.1406 171.777C48.4492 171.621 48.7969 171.543 49.1836 171.543C49.582 171.543 49.9297 171.613 50.2266 171.754C50.5273 171.891 50.7812 172.092 50.9883 172.357C51.1992 172.619 51.3652 172.936 51.4863 173.307C51.6074 173.678 51.6914 174.098 51.7383 174.566V175.105C51.6953 175.57 51.6113 175.988 51.4863 176.359C51.3652 176.73 51.1992 177.047 50.9883 177.309C50.7812 177.57 50.5273 177.771 50.2266 177.912C49.9258 178.049 49.5742 178.117 49.1719 178.117C48.793 178.117 48.4492 178.037 48.1406 177.877C47.8359 177.717 47.5742 177.492 47.3555 177.203C47.1367 176.914 46.9688 176.574 46.8516 176.184C46.7383 175.789 46.6816 175.361 46.6816 174.9ZM47.7656 174.777V174.9C47.7656 175.217 47.7969 175.514 47.8594 175.791C47.9258 176.068 48.0254 176.312 48.1582 176.523C48.2949 176.734 48.4688 176.9 48.6797 177.021C48.8906 177.139 49.1426 177.197 49.4355 177.197C49.7949 177.197 50.0918 177.121 50.3262 176.969C50.5605 176.816 50.7461 176.615 50.8828 176.365C51.0234 176.115 51.1328 175.844 51.2109 175.551V174.139C51.168 173.924 51.1016 173.717 51.0117 173.518C50.9258 173.314 50.8125 173.135 50.6719 172.979C50.5352 172.818 50.3652 172.691 50.1621 172.598C49.959 172.504 49.7207 172.457 49.4473 172.457C49.1504 172.457 48.8945 172.52 48.6797 172.645C48.4688 172.766 48.2949 172.934 48.1582 173.148C48.0254 173.359 47.9258 173.605 47.8594 173.887C47.7969 174.164 47.7656 174.461 47.7656 174.777Z" fill="#074139"/>
<rect x="91" y="120" width="70" height="65" rx="6" fill="#E8FFFC"/>
<path d="M136.08 128.781H131.76C130.169 128.781 128.88 130.07 128.88 131.661V135.981C128.88 137.571 130.169 138.861 131.76 138.861H136.08C137.671 138.861 138.96 137.571 138.96 135.981V131.661C138.96 130.07 137.671 128.781 136.08 128.781Z" stroke="#074139" stroke-width="1.5" stroke-linecap="round" stroke-linejoin="round"/>
<path d="M120.24 128.781H115.92C114.329 128.781 113.04 130.07 113.04 131.661V135.981C113.04 137.571 114.329 138.861 115.92 138.861H120.24C121.831 138.861 123.12 137.571 123.12 135.981V131.661C123.12 130.07 121.831 128.781 120.24 128.781Z" stroke="#074139" stroke-width="1.5" stroke-linecap="round" stroke-linejoin="round"/>
<path d="M136.08 144.621H131.76C130.169 144.621 128.88 145.91 128.88 147.501V151.821C128.88 153.411 130.169 154.701 131.76 154.701H136.08C137.671 154.701 138.96 153.411 138.96 151.821V147.501C138.96 145.91 137.671 144.621 136.08 144.621Z" stroke="#074139" stroke-width="1.5" stroke-linecap="round" stroke-linejoin="round"/>
<path d="M120.24 144.621H115.92C114.329 144.621 113.04 145.91 113.04 147.501V151.821C113.04 153.411 114.329 154.701 115.92 154.701H120.24C121.831 154.701 123.12 153.411 123.12 151.821V147.501C123.12 145.91 121.831 144.621 120.24 144.621Z" stroke="#074139" stroke-width="1.5" stroke-linecap="round" stroke-linejoin="round"/>
<path d="M108.451 176.705L110.965 169.469H112.189L109.031 178H108.158L108.451 176.705ZM106.102 169.469L108.592 176.705L108.902 178H108.029L104.877 169.469H106.102ZM114.352 171.66V178H113.262V171.66H114.352ZM113.18 169.979C113.18 169.803 113.232 169.654 113.338 169.533C113.447 169.412 113.607 169.352 113.818 169.352C114.025 169.352 114.184 169.412 114.293 169.533C114.406 169.654 114.463 169.803 114.463 169.979C114.463 170.146 114.406 170.291 114.293 170.412C114.184 170.529 114.025 170.588 113.818 170.588C113.607 170.588 113.447 170.529 113.338 170.412C113.232 170.291 113.18 170.146 113.18 169.979ZM118.723 178.117C118.281 178.117 117.881 178.043 117.521 177.895C117.166 177.742 116.859 177.529 116.602 177.256C116.348 176.982 116.152 176.658 116.016 176.283C115.879 175.908 115.811 175.498 115.811 175.053V174.807C115.811 174.291 115.887 173.832 116.039 173.43C116.191 173.023 116.398 172.68 116.66 172.398C116.922 172.117 117.219 171.904 117.551 171.76C117.883 171.615 118.227 171.543 118.582 171.543C119.035 171.543 119.426 171.621 119.754 171.777C120.086 171.934 120.357 172.152 120.568 172.434C120.779 172.711 120.936 173.039 121.037 173.418C121.139 173.793 121.189 174.203 121.189 174.648V175.135H116.455V174.25H120.105V174.168C120.09 173.887 120.031 173.613 119.93 173.348C119.832 173.082 119.676 172.863 119.461 172.691C119.246 172.52 118.953 172.434 118.582 172.434C118.336 172.434 118.109 172.486 117.902 172.592C117.695 172.693 117.518 172.846 117.369 173.049C117.221 173.252 117.105 173.5 117.023 173.793C116.941 174.086 116.9 174.424 116.9 174.807V175.053C116.9 175.354 116.941 175.637 117.023 175.902C117.109 176.164 117.232 176.395 117.393 176.594C117.557 176.793 117.754 176.949 117.984 177.062C118.219 177.176 118.484 177.232 118.781 177.232C119.164 177.232 119.488 177.154 119.754 176.998C120.02 176.842 120.252 176.633 120.451 176.371L121.107 176.893C120.971 177.1 120.797 177.297 120.586 177.484C120.375 177.672 120.115 177.824 119.807 177.941C119.502 178.059 119.141 178.117 118.723 178.117ZM124.061 176.875L125.689 171.66H126.404L126.264 172.697L124.605 178H123.908L124.061 176.875ZM122.965 171.66L124.354 176.934L124.453 178H123.721L121.881 171.66H122.965ZM127.963 176.893L129.287 171.66H130.365L128.525 178H127.799L127.963 176.893ZM126.562 171.66L128.156 176.787L128.338 178H127.646L125.941 172.686L125.801 171.66H126.562ZM137.777 170.225L134.953 178H133.799L137.051 169.469H137.795L137.777 170.225ZM140.145 178L137.314 170.225L137.297 169.469H138.041L141.305 178H140.145ZM139.998 174.842V175.768H135.205V174.842H139.998ZM143.461 169V178H142.371V169H143.461ZM146.379 169V178H145.289V169H146.379Z" fill="#074139"/>
<defs>
<clipPath id="clip0_26_961">
<rect width="36" height="36" fill="white" transform="translate(17 39)"/>
</clipPath>
<clipPath id="clip1_26_961">
<rect width="36" height="36" fill="white" transform="translate(108 39)"/>
</clipPath>
<clipPath id="clip2_26_961">
<rect width="36" height="36" fill="white" transform="translate(199 39)"/>
</clipPath>
<clipPath id="clip3_26_961">
<rect width="36" height="36" fill="white" transform="translate(17 124)"/>
</clipPath>
</defs>
</svg>
