<svg width="36" height="32" viewBox="0 0 36 32" fill="none" xmlns="http://www.w3.org/2000/svg">
<g filter="url(#filter0_i_133_975)">
<path d="M12.4433 19.0375C12.4433 22.4026 9.55657 25.0741 6.13863 25.0741C2.72068 25.0741 0.0658417 22.4026 0.0658417 19.0375C0.0658417 15.6725 2.83663 12.9446 6.25458 12.9446C9.67252 12.9446 12.4433 15.6725 12.4433 19.0375Z" fill="#074139"/>
</g>
<path d="M18.2578 6.58936C19.109 6.60394 19.9501 6.76218 20.7373 7.05908C21.564 7.37093 22.3155 7.82858 22.9482 8.40479C23.5809 8.98093 24.0833 9.66475 24.4258 10.4175C24.7682 11.1703 24.9443 11.9777 24.9443 12.7925C24.9443 13.6073 24.7682 14.4146 24.4258 15.1675C24.0833 15.9204 23.581 16.6049 22.9482 17.1812C22.3155 17.7573 21.564 18.214 20.7373 18.5259C19.9518 18.8221 19.1129 18.9804 18.2637 18.9956C19.1128 19.0109 19.9519 19.1691 20.7373 19.4653C21.564 19.7772 22.3155 20.2348 22.9482 20.811C23.5808 21.3872 24.0833 22.071 24.4258 22.8237C24.7682 23.5765 24.9443 24.384 24.9443 25.1987C24.9443 26.0135 24.7681 26.8209 24.4258 27.5737C24.0833 28.3266 23.581 29.0112 22.9482 29.5874C22.3155 30.1636 21.564 30.6203 20.7373 30.9321C19.9501 31.2291 19.109 31.3863 18.2578 31.4009L18.2588 31.4136H0V25.0747H16.8145C17.7764 25.0745 18.1259 24.4168 18.126 23.814L18.1299 24.0366V14.5933L18.126 14.853C18.126 13.9059 18.0805 13.0497 16.8145 13.0444L0 12.9243V6.58643H18.2588L18.2578 6.58936Z" fill="#074139"/>
<path d="M23 2.58443H27.842V3.60443H26.06V6.58643H24.782V3.60443H23V2.58443ZM28.1218 2.58443H30.3298L31.5178 5.18243L32.7118 2.58443H34.9078V6.58643H33.7078L33.7378 3.59243H33.5338L32.0278 6.58643H31.0138L29.5078 3.59243H29.2918L29.3218 6.58643H28.1218V2.58443Z" fill="#074139"/>
<defs>
<filter id="filter0_i_133_975" x="0.0658417" y="12.9446" width="12.3775" height="12.1294" filterUnits="userSpaceOnUse" color-interpolation-filters="sRGB">
<feFlood flood-opacity="0" result="BackgroundImageFix"/>
<feBlend mode="normal" in="SourceGraphic" in2="BackgroundImageFix" result="shape"/>
<feColorMatrix in="SourceAlpha" type="matrix" values="0 0 0 0 0 0 0 0 0 0 0 0 0 0 0 0 0 0 127 0" result="hardAlpha"/>
<feOffset/>
<feGaussianBlur stdDeviation="0.25"/>
<feComposite in2="hardAlpha" operator="arithmetic" k2="-1" k3="1"/>
<feColorMatrix type="matrix" values="0 0 0 0 0 0 0 0 0 1 0 0 0 0 1 0 0 0 0.2 0"/>
<feBlend mode="normal" in2="shape" result="effect1_innerShadow_133_975"/>
</filter>
</defs>
</svg>
