<svg width="84" height="84" viewBox="0 0 84 84" fill="none" xmlns="http://www.w3.org/2000/svg">
<path d="M42 2C47.2529 2 52.4543 3.03463 57.3073 5.04482C62.1604 7.05501 66.5699 10.0014 70.2843 13.7157C73.9986 17.4301 76.945 21.8396 78.9552 26.6927C80.9654 31.5457 82 36.7471 82 42C82 47.2529 80.9654 52.4543 78.9552 57.3073C76.945 62.1604 73.9986 66.5699 70.2843 70.2843C66.5699 73.9986 62.1604 76.945 57.3073 78.9552C52.4543 80.9654 47.2529 82 42 82C36.7471 82 31.5457 80.9654 26.6926 78.9552C21.8396 76.945 17.4301 73.9986 13.7157 70.2843C10.0014 66.5699 7.055 62.1603 5.04481 57.3073C3.03463 52.4543 2 47.2529 2 42C2 36.7471 3.03464 31.5457 5.04483 26.6926C7.05502 21.8396 10.0014 17.4301 13.7157 13.7157C17.4301 10.0014 21.8397 7.05499 26.6927 5.04481C31.5457 3.03462 36.7472 2 42 2L42 2Z" stroke="#074139" stroke-width="3" stroke-linecap="round" stroke-linejoin="round"/>
<circle cx="42" cy="42.0001" r="29.2674" fill="#074139" stroke="#074139"/>
<rect x="30.407" y="31.3372" width="23.186" height="21.3256" fill="#074139"/>
<rect x="30.407" y="31.3372" width="23.186" height="21.3256" stroke="#074139"/>
<path fill-rule="evenodd" clip-rule="evenodd" d="M45.9161 41.3978C46.0693 41.624 46.0693 41.9111 45.9161 42.1373L40.8774 49.5792C40.6561 49.9059 40.1898 50.0053 39.8359 49.801C39.4819 49.5968 39.3743 49.1664 39.5955 48.8397L44.3839 41.7676L39.5955 34.6955C39.3743 34.3687 39.4819 33.9383 39.8359 33.7341C40.1898 33.5299 40.6561 33.6292 40.8774 33.9559L45.9161 41.3978Z" fill="white"/>
</svg>
