<svg width="296" height="232" viewBox="0 0 296 232" fill="none" xmlns="http://www.w3.org/2000/svg">
<g clip-path="url(#clip0_2_3312)">
<path opacity="0.1" d="M187.792 30.9445C172.055 30.4002 157.064 25.3169 142.749 19.772C128.433 14.2271 114.255 8.05533 98.8937 5.10907C89.012 3.21422 77.7142 2.94638 69.7502 8.24339C62.091 13.3409 59.6149 22.1427 58.2842 30.3062C57.2812 36.4495 56.6943 42.9176 59.4382 48.6676C61.3416 52.6568 64.7238 56.0162 67.0632 59.8401C75.201 73.1496 69.4481 89.5592 60.6293 102.552C56.492 108.633 51.6907 114.449 48.5023 120.925C45.3138 127.402 43.8321 134.85 46.6245 141.466C49.3941 148.02 55.9905 152.955 63.151 156.423C77.6686 163.461 94.7792 165.475 111.451 166.618C148.373 169.143 185.492 168.043 222.514 166.954C236.214 166.55 249.974 166.139 263.451 164.019C270.937 162.843 278.664 160.976 284.098 156.469C290.997 150.747 292.706 141.056 288.087 133.881C280.334 121.846 258.895 118.857 253.479 105.94C250.495 98.8311 253.558 90.9098 257.892 84.3163C267.193 70.172 282.779 57.7629 283.599 41.5955C284.169 30.4829 276.67 19.3702 265.078 14.116C252.934 8.60811 236.097 9.30051 227.136 18.4186C217.901 27.8158 201.688 31.4289 187.792 30.9445Z" fill="#074139"/>
<path d="M143.367 213.633C143.367 213.633 130.26 190.407 110.508 183.714C102.219 180.905 94.9844 175.622 90.0378 168.402C87.6971 164.973 85.6751 161.337 83.9971 157.54" stroke="#535461" stroke-width="0.569877" stroke-miterlimit="10"/>
<path d="M71.5794 153.243C73.8276 155.426 84.3077 157.685 84.3077 157.685C84.3077 157.685 81.7432 147.279 79.4865 145.094C78.3985 144.084 76.9586 143.541 75.475 143.58C73.9914 143.619 72.5821 144.237 71.5486 145.302C70.5152 146.368 69.9397 147.795 69.9455 149.279C69.9512 150.763 70.5377 152.186 71.5794 153.243Z" fill="#074139"/>
<path d="M77.5062 172.075C80.5835 172.684 90.6134 168.886 90.6134 168.886C90.6134 168.886 82.7975 161.546 79.723 160.936C78.9856 160.775 78.2234 160.763 77.4811 160.9C76.7388 161.037 76.0312 161.321 75.3998 161.734C74.7684 162.148 74.2258 162.683 73.8037 163.309C73.3816 163.935 73.0884 164.638 72.9415 165.379C72.7945 166.119 72.7966 166.881 72.9476 167.621C73.0987 168.361 73.3957 169.063 73.8212 169.686C74.2468 170.309 74.7924 170.842 75.4261 171.252C76.0597 171.662 76.7688 171.942 77.5119 172.075H77.5062Z" fill="#074139"/>
<path d="M99.0931 192.445C102.056 191.419 108.781 183.079 108.781 183.079C108.781 183.079 98.3324 180.688 95.369 181.714C93.99 182.238 92.8693 183.279 92.2443 184.616C91.6193 185.952 91.539 187.48 92.0204 188.874C92.5019 190.269 93.5072 191.422 94.8236 192.088C96.1401 192.754 97.6642 192.882 99.0732 192.445H99.0931Z" fill="#074139"/>
<path d="M118.896 204.193C121.991 203.683 130.038 196.602 130.038 196.602C130.038 196.602 120.142 192.479 117.047 192.989C115.586 193.26 114.289 194.094 113.435 195.311C112.582 196.528 112.239 198.031 112.481 199.497C112.723 200.964 113.53 202.277 114.73 203.155C115.929 204.033 117.425 204.405 118.896 204.193Z" fill="#074139"/>
<path d="M99.3467 160.754C99.3467 163.888 93.6736 172.986 93.6736 172.986C93.6736 172.986 87.9919 163.894 87.9891 160.76C87.9891 159.254 88.5874 157.809 89.6524 156.744C90.7173 155.679 92.1618 155.081 93.6679 155.081C95.174 155.081 96.6184 155.679 97.6834 156.744C98.7484 157.809 99.3467 159.254 99.3467 160.76V160.754Z" fill="#074139"/>
<path d="M122.333 174.779C121.395 177.771 113.26 184.752 113.26 184.752C113.26 184.752 110.559 174.377 111.497 171.385C111.694 170.644 112.039 169.952 112.511 169.348C112.984 168.744 113.573 168.243 114.245 167.873C114.916 167.503 115.655 167.273 116.418 167.197C117.181 167.121 117.951 167.199 118.682 167.429C119.414 167.658 120.091 168.033 120.674 168.531C121.256 169.029 121.732 169.639 122.072 170.326C122.412 171.013 122.61 171.761 122.654 172.527C122.697 173.292 122.585 174.058 122.324 174.779H122.333Z" fill="#074139"/>
<path d="M142.803 191.476C142.387 194.582 135.548 202.839 135.548 202.839C135.548 202.839 131.132 193.072 131.559 189.963C131.658 189.224 131.902 188.512 132.277 187.868C132.651 187.223 133.149 186.658 133.742 186.206C134.335 185.754 135.01 185.423 135.731 185.232C136.452 185.041 137.203 184.994 137.942 185.093C138.681 185.193 139.393 185.437 140.037 185.811C140.682 186.186 141.246 186.683 141.698 187.276C142.151 187.869 142.482 188.545 142.673 189.265C142.863 189.986 142.911 190.737 142.811 191.476H142.803Z" fill="#074139"/>
<path opacity="0.25" d="M71.5794 153.243C73.8276 155.426 84.3077 157.685 84.3077 157.685C84.3077 157.685 81.7432 147.279 79.4865 145.094C78.3985 144.084 76.9586 143.541 75.475 143.58C73.9914 143.619 72.5821 144.237 71.5486 145.302C70.5152 146.368 69.9397 147.795 69.9455 149.279C69.9512 150.763 70.5377 152.186 71.5794 153.243Z" fill="#2E3231"/>
<path opacity="0.25" d="M77.5062 172.075C80.5835 172.684 90.6134 168.886 90.6134 168.886C90.6134 168.886 82.7975 161.546 79.723 160.936C78.9856 160.775 78.2234 160.763 77.4811 160.9C76.7388 161.037 76.0312 161.321 75.3998 161.734C74.7684 162.148 74.2258 162.683 73.8037 163.309C73.3816 163.935 73.0884 164.638 72.9415 165.379C72.7945 166.119 72.7966 166.881 72.9476 167.621C73.0987 168.361 73.3957 169.063 73.8212 169.686C74.2468 170.309 74.7924 170.842 75.4261 171.252C76.0597 171.662 76.7688 171.942 77.5119 172.075H77.5062Z" fill="#2E3231"/>
<path opacity="0.25" d="M99.0931 192.445C102.056 191.419 108.781 183.079 108.781 183.079C108.781 183.079 98.3324 180.688 95.369 181.714C93.99 182.238 92.8693 183.279 92.2443 184.616C91.6193 185.952 91.539 187.48 92.0204 188.874C92.5019 190.269 93.5072 191.422 94.8236 192.088C96.1401 192.754 97.6642 192.882 99.0732 192.445H99.0931Z" fill="#2E3231"/>
<path opacity="0.25" d="M118.896 204.193C121.991 203.683 130.038 196.602 130.038 196.602C130.038 196.602 120.142 192.479 117.047 192.989C115.586 193.26 114.289 194.094 113.435 195.311C112.582 196.528 112.239 198.031 112.481 199.497C112.723 200.964 113.53 202.277 114.73 203.155C115.929 204.033 117.425 204.405 118.896 204.193Z" fill="#2E3231"/>
<path opacity="0.25" d="M99.3467 160.754C99.3467 163.888 93.6736 172.986 93.6736 172.986C93.6736 172.986 87.9919 163.894 87.9891 160.76C87.9891 159.254 88.5874 157.809 89.6524 156.744C90.7173 155.679 92.1618 155.081 93.6679 155.081C95.174 155.081 96.6184 155.679 97.6834 156.744C98.7484 157.809 99.3467 159.254 99.3467 160.76V160.754Z" fill="#2E3231"/>
<path opacity="0.25" d="M122.333 174.779C121.395 177.771 113.26 184.752 113.26 184.752C113.26 184.752 110.559 174.377 111.497 171.385C111.694 170.644 112.039 169.952 112.511 169.348C112.984 168.744 113.573 168.243 114.245 167.873C114.916 167.503 115.655 167.273 116.418 167.197C117.181 167.121 117.951 167.199 118.682 167.429C119.414 167.658 120.091 168.033 120.674 168.531C121.256 169.029 121.732 169.639 122.072 170.326C122.412 171.013 122.61 171.761 122.654 172.527C122.697 173.292 122.585 174.058 122.324 174.779H122.333Z" fill="#2E3231"/>
<path opacity="0.25" d="M142.803 191.476C142.387 194.582 135.548 202.839 135.548 202.839C135.548 202.839 131.132 193.072 131.559 189.963C131.658 189.224 131.902 188.512 132.277 187.868C132.651 187.223 133.149 186.658 133.742 186.206C134.335 185.754 135.01 185.423 135.731 185.232C136.452 185.041 137.203 184.994 137.942 185.093C138.681 185.193 139.393 185.437 140.037 185.811C140.682 186.186 141.246 186.683 141.698 187.276C142.151 187.869 142.482 188.545 142.673 189.265C142.863 189.986 142.911 190.737 142.811 191.476H142.803Z" fill="#2E3231"/>
<path d="M142.612 213.171C142.612 213.171 140.047 186.623 124.698 172.502C118.258 166.575 113.785 158.825 112.189 150.208C111.438 146.124 111.063 141.98 111.069 137.828" stroke="#535461" stroke-width="0.569877" stroke-miterlimit="10"/>
<path d="M101.455 128.872C102.626 131.781 111.291 138.093 111.291 138.093C111.291 138.093 113.158 127.536 111.987 124.626C111.708 123.934 111.295 123.304 110.773 122.771C110.251 122.238 109.628 121.813 108.942 121.521C108.255 121.228 107.518 121.074 106.771 121.067C106.025 121.059 105.285 121.199 104.592 121.478C103.9 121.757 103.27 122.169 102.737 122.691C102.204 123.214 101.779 123.836 101.487 124.523C101.194 125.209 101.04 125.947 101.033 126.693C101.025 127.439 101.165 128.18 101.444 128.872H101.455Z" fill="#074139"/>
<path d="M99.2413 148.49C101.806 150.294 112.511 150.884 112.511 150.884C112.511 150.884 108.342 141.008 105.778 139.201C105.169 138.757 104.477 138.438 103.744 138.263C103.01 138.089 102.249 138.062 101.506 138.185C100.762 138.308 100.05 138.577 99.411 138.978C98.7724 139.379 98.22 139.903 97.786 140.519C97.3521 141.136 97.0452 141.833 96.8834 142.569C96.7215 143.306 96.7079 144.067 96.8434 144.808C96.9788 145.55 97.2606 146.257 97.6723 146.889C98.084 147.521 98.6174 148.064 99.2413 148.487V148.49Z" fill="#074139"/>
<path d="M110.719 175.867C113.853 176.129 123.381 171.234 123.381 171.234C123.381 171.234 114.796 164.806 111.67 164.552C110.918 164.472 110.158 164.543 109.433 164.761C108.709 164.979 108.036 165.339 107.453 165.821C106.869 166.302 106.388 166.896 106.038 167.566C105.687 168.236 105.474 168.969 105.41 169.723C105.347 170.477 105.435 171.236 105.668 171.955C105.902 172.674 106.278 173.339 106.772 173.912C107.266 174.484 107.87 174.952 108.548 175.288C109.226 175.623 109.964 175.82 110.719 175.867Z" fill="#074139"/>
<path d="M124.065 194.627C127.103 195.414 137.329 192.2 137.329 192.2C137.329 192.2 129.952 184.421 126.917 183.635C125.469 183.284 123.94 183.516 122.662 184.282C121.383 185.048 120.457 186.286 120.083 187.729C119.709 189.172 119.917 190.704 120.663 191.994C121.408 193.285 122.631 194.231 124.068 194.627H124.065Z" fill="#074139"/>
<path d="M123.797 146.988C122.526 149.858 113.654 155.873 113.654 155.873C113.654 155.873 112.143 145.259 113.411 142.392C114.026 141.023 115.157 139.952 116.559 139.414C117.961 138.877 119.518 138.916 120.891 139.523C122.264 140.131 123.34 141.257 123.885 142.656C124.429 144.055 124.398 145.613 123.797 146.988Z" fill="#074139"/>
<path d="M139.127 169.125C137.058 171.482 126.792 174.568 126.792 174.568C126.792 174.568 128.527 163.988 130.596 161.634C131.088 161.074 131.685 160.616 132.354 160.287C133.023 159.958 133.75 159.764 134.494 159.715C135.238 159.667 135.984 159.766 136.69 160.006C137.395 160.246 138.047 160.623 138.607 161.114C139.167 161.606 139.625 162.204 139.954 162.872C140.284 163.541 140.478 164.268 140.526 165.012C140.574 165.756 140.476 166.502 140.236 167.208C139.996 167.914 139.619 168.565 139.127 169.125Z" fill="#074139"/>
<path d="M151.077 192.687C149.425 195.36 139.839 200.138 139.839 200.138C139.839 200.138 139.76 189.419 141.401 186.746C142.189 185.461 143.455 184.542 144.921 184.191C146.387 183.84 147.932 184.086 149.217 184.874C150.501 185.662 151.42 186.928 151.771 188.394C152.123 189.86 151.877 191.405 151.089 192.69L151.077 192.687Z" fill="#074139"/>
<path opacity="0.1" d="M170.353 231.592C212.655 231.592 246.948 229.126 246.948 226.085C246.948 223.043 212.655 220.577 170.353 220.577C128.051 220.577 93.759 223.043 93.759 226.085C93.759 229.126 128.051 231.592 170.353 231.592Z" fill="#074139"/>
<path d="M278.701 72.3316C278.924 71.7247 277.257 68.3567 277.257 68.1914C277.257 68.0261 275.533 66.1484 275.533 65.0998C275.533 64.0513 273.253 61.7888 273.253 61.7888C273.253 61.7888 270.196 60.518 269.863 57.757C269.529 54.9959 266.201 54.9418 266.193 54.9418C266.193 54.9418 266.207 54.6882 266.212 54.3092C266.212 53.4544 266.187 51.9157 265.802 51.078C265.232 49.8642 263.91 49.4766 263.91 49.4766C263.91 49.4766 263.577 47.3225 262.91 46.6586C262.537 46.2693 262.27 45.7911 262.134 45.2695C261.998 44.7478 261.997 44.2 262.132 43.6781C262.466 42.6324 261.688 39.9739 260.075 39.595C258.462 39.216 256.627 38.6005 256.627 38.6005C256.627 38.6005 256.448 38.6347 256.183 38.6718L255.96 38.6005C255.574 38.6724 255.184 38.7209 254.792 38.7458C254.451 38.7553 254.118 38.6455 253.849 38.4353C253.279 37.8284 248.791 36.6686 247.956 36.6686C247.122 36.6686 244.731 35.5631 244.731 35.5631C244.731 35.5631 243.064 34.2951 242.343 33.7423C241.671 33.2323 240.431 31.1608 240.252 30.8559L240.229 30.816H240.215C240.044 30.4237 239.899 30.0212 239.779 29.6107C239.753 29.5252 239.733 29.4398 239.71 29.3543C240.523 28.5004 241.219 27.5422 241.779 26.5049C241.836 26.3966 241.887 26.2855 241.941 26.1772C242.064 26.1768 242.186 26.1576 242.303 26.1202C242.353 26.1037 242.401 26.0847 242.449 26.0632C243.012 25.7664 243.436 25.2597 243.628 24.6528C243.668 24.5331 243.702 24.4106 243.734 24.2881L243.759 24.1655C243.779 24.0829 243.796 23.9974 243.813 23.9119C243.831 23.8265 243.828 23.8179 243.836 23.7695C243.845 23.721 243.862 23.6042 243.873 23.5216C243.885 23.4389 243.873 23.4275 243.893 23.382C243.907 23.2765 243.919 23.174 243.933 23.0685C243.979 22.6782 244.024 22.2878 244.107 21.906C244.106 21.9003 244.106 21.8945 244.107 21.8889C244.437 20.3901 245.341 19.125 245.979 17.7402C246.07 17.5407 246.156 17.3384 246.235 17.1361C246.315 16.9338 246.389 16.6916 246.455 16.4636C246.475 16.3953 246.489 16.3269 246.509 16.2585C246.551 16.0913 246.588 15.9232 246.62 15.7542C246.634 15.6829 246.649 15.6117 246.66 15.5376C246.7 15.3096 246.731 15.0788 246.748 14.848C246.863 13.5286 246.668 12.2007 246.178 10.97C245.762 9.93285 245.141 8.99825 244.72 7.96393C244.081 6.39106 243.913 4.61305 243.132 3.11997C241.825 0.609659 238.742 -0.64692 236.208 0.296227C235 0.74643 233.952 1.62119 232.724 2.00586C231.082 2.53015 229.324 2.13693 227.623 1.90043C225.922 1.66393 224.044 1.64399 222.677 2.75525C221.101 4.03462 220.682 6.4395 219.195 7.8414C218.574 8.43123 217.801 8.80735 217.146 9.35158C216.686 9.7213 216.331 10.2058 216.117 10.7563C216.117 10.7962 216.092 10.8361 216.08 10.876C216.069 10.9159 216.055 10.97 216.043 11.0185C216.032 11.0669 216.023 11.1296 216.015 11.1837C216.006 11.2379 216.015 11.2607 216.015 11.2977C216.007 11.3925 216.007 11.4878 216.015 11.5826C216.024 11.6785 216.039 11.7736 216.06 11.8676C216.065 11.8927 216.072 11.9175 216.08 11.9417C216.099 12.0208 216.122 12.0988 216.149 12.1753C216.149 12.1753 216.149 12.2038 216.149 12.2181C216.18 12.3035 216.214 12.3862 216.248 12.4717L216.303 12.5942C216.303 12.6284 216.334 12.6626 216.348 12.6996C216.565 13.1076 216.738 13.5374 216.864 13.9818C216.935 14.2653 216.917 14.5637 216.813 14.8366C216.664 15.1448 216.454 15.4199 216.197 15.6459C215.09 16.7961 214.235 18.1644 213.687 19.6635C213.624 19.8345 213.564 20.0054 213.507 20.1792C213.507 20.1792 213.507 20.1792 213.507 20.1935L213.581 20.2134C213.741 20.2594 213.904 20.2947 214.069 20.3189C214.163 20.3189 214.257 20.3417 214.354 20.3474C214.736 20.3693 215.119 20.3406 215.493 20.2619C215.59 20.2419 215.684 20.2191 215.778 20.1935C216.165 20.0892 216.542 19.9509 216.904 19.7803C216.904 19.8943 216.904 20.0054 216.904 20.1194C216.904 20.1821 216.904 20.2448 216.904 20.3075C216.907 22.7496 217.591 25.1424 218.88 27.2168C220.168 29.2913 222.01 30.965 224.198 32.0498C224.215 32.1723 224.23 32.2891 224.247 32.4088C224.264 32.5285 224.272 32.6111 224.284 32.7109L224.133 32.5655C224.133 32.5655 223.133 32.0697 222.187 33.5058C221.241 34.9419 219.463 35.603 219.463 35.603C219.463 35.603 209.344 37.2043 208.957 38.5293L204.23 38.8142C204.23 38.8142 202.563 39.0336 202.398 42.5184C202.232 46.0032 201.34 46.3281 201.34 46.3281C201.34 46.3281 199.394 49.7473 199.562 51.5168C199.731 53.2863 198.061 54.1667 198.061 54.1667L197.839 57.3011C197.839 57.3011 196.004 57.0161 195.502 59.1788C195.001 61.3415 194.114 62.3131 194.114 62.3131C194.114 62.3131 191.054 64.8548 190.889 67.0061L189 68.1658C189 68.1658 184.606 67.1713 183.606 65.4047L183.298 65.1198C183.288 65.1066 183.279 65.0922 183.273 65.077C183.272 65.0837 183.272 65.0904 183.273 65.097C182.617 64.4787 181.221 63.1793 181.435 63.4785C181.563 63.7564 181.595 64.0693 181.526 64.3675L181.198 64.0057L180.323 63.034C180.323 63.034 173.79 55.5287 169.621 55.0016L169.305 54.3776C169.219 54.2089 169.07 54.0811 168.889 54.0224C168.709 53.9636 168.514 53.9786 168.345 54.0642L162.056 57.1985C161.972 57.24 161.897 57.2976 161.836 57.3682C161.774 57.4387 161.728 57.5207 161.698 57.6094C161.668 57.6981 161.656 57.7918 161.663 57.8851C161.67 57.9784 161.695 58.0695 161.737 58.153L162.441 59.535H162.426C162.418 59.5389 162.411 59.5444 162.405 59.5512C162.4 59.558 162.395 59.5659 162.392 59.5744C162.39 59.583 162.389 59.5919 162.39 59.6008C162.391 59.6097 162.394 59.6184 162.398 59.6262L162.646 60.1134C162.654 60.1296 162.668 60.142 162.685 60.1479C162.702 60.1538 162.721 60.1526 162.737 60.1447L162.996 60.6548C162.978 60.664 162.965 60.6799 162.958 60.6991C162.952 60.7183 162.953 60.7392 162.962 60.7574L163.432 61.6806C163.436 61.6898 163.443 61.698 163.45 61.7048C163.458 61.7115 163.466 61.7167 163.476 61.7199C163.486 61.7231 163.496 61.7243 163.506 61.7234C163.516 61.7225 163.526 61.7196 163.535 61.7148L163.726 62.088C163.709 62.0971 163.697 62.1122 163.691 62.1302C163.685 62.1483 163.686 62.1678 163.694 62.1849L164.173 63.1252C164.177 63.134 164.183 63.1418 164.19 63.1483C164.197 63.1547 164.205 63.1595 164.215 63.1625C164.224 63.1655 164.233 63.1665 164.243 63.1654C164.252 63.1644 164.262 63.1614 164.27 63.1566L168.829 72.1635C168.915 72.3321 169.064 72.46 169.244 72.5192C169.424 72.5785 169.62 72.5643 169.789 72.4797L174.616 70.0663L174.787 70.1917L176.212 72.0238C175.97 72.5937 175.767 73.1636 175.596 73.6736C175.592 73.69 175.588 73.7062 175.582 73.7221C175.545 73.8304 175.511 73.9386 175.479 74.0412L175.445 74.1495C175.411 74.2549 175.38 74.3575 175.351 74.4544L175.3 74.6367C175.3 74.6709 175.277 74.708 175.269 74.7422C175.112 75.2949 175.012 75.7223 174.958 75.9588L174.59 75.8449L174.949 75.9987C174.949 76.0187 174.949 76.0415 174.949 76.0557C174.932 76.1298 174.927 76.1725 174.927 76.1725C175.035 76.2238 175.149 76.2723 175.269 76.3207C177.215 77.1755 186.934 81.4325 187.433 82.0793C187.988 82.7974 191.658 84.8945 194.995 83.1279C198.332 81.3613 199.052 78.6572 199.052 78.6572C199.052 78.6572 202.278 74.1837 202.389 73.5283C202.5 72.873 205.002 72.1036 205.002 72.1036C205.002 72.1036 205.224 79.512 203.945 82.2076C202.665 84.9031 200.275 96.8904 200.275 96.8904C200.43 96.8596 200.59 96.85 200.748 96.8619L200.608 97.5544C200.802 97.5177 201.001 97.5177 201.195 97.5544C201.019 98.9135 199.998 105.248 199.998 105.248C199.998 105.248 199.665 108.12 199.107 109.111C198.548 110.103 198.497 115.295 198.497 115.295L197.608 119.05C197.608 119.05 197.725 119.309 197.944 119.697V119.711C197.944 119.711 198.899 121.831 200.508 123.019C200.434 123.606 200.284 124.181 200.061 124.729C199.491 125.832 199.617 127.379 199.617 127.379C199.617 127.379 198.673 131.627 198.782 132.844C198.89 134.061 198.149 137.038 198.149 137.038L197.149 146.644C197.149 146.644 196.482 154.978 196.816 157.243C197.149 159.509 196.593 162.597 196.593 162.597C196.593 162.597 197.26 169.168 197.092 169.883C196.924 170.598 196.092 173.693 196.593 175.405C197.095 177.118 196.816 181.808 196.816 181.808C196.816 181.808 197.149 187.994 197.537 189.98C197.924 191.966 197.425 194.508 197.425 194.508C197.425 194.508 197.035 198.759 196.856 198.759C196.676 198.759 195.243 201.682 198.189 204.555C201.135 207.427 199.317 206.977 199.317 206.977C199.317 206.977 196.981 205.817 197.26 208.19C197.522 210.45 197.89 209.86 197.924 209.797L197.354 211.612C197.354 211.612 197.5 211.63 197.745 211.667L197.423 212.054C197.085 212.475 196.709 212.865 196.3 213.217C195.633 213.712 195.576 214.815 195.576 214.815C195.576 214.815 191.465 219.289 187.629 221.551C185.612 222.742 183.868 223.751 183.11 224.583C182.426 225.332 182.54 225.939 183.965 226.409C186.968 227.404 192.248 227.9 196.026 226.632C198.281 225.88 200.308 224.569 201.919 222.822C201.919 222.822 204.312 221.605 206.646 222.047C208.98 222.489 213.65 219.454 213.65 219.454L213.564 218.67L213.316 216.417C213.316 216.417 212.747 215.753 212.926 215.037C213.003 214.713 212.886 213.875 212.735 213.043C212.695 212.823 212.653 212.607 212.61 212.402L213.037 212.322C213.037 212.322 212.484 209.507 213.485 208.954C214.485 208.401 214.205 201.169 214.205 201.169C214.205 201.169 212.926 199.514 212.259 199.238C211.593 198.961 212.202 195.533 212.316 195.097C212.43 194.661 213.316 186.099 213.316 186.099C213.316 186.099 212.983 183.395 213.428 182.235C213.872 181.076 212.872 176.605 212.872 176.605C212.872 176.605 212.539 176.052 213.157 175.388C213.775 174.724 213.536 168.837 213.536 168.837C213.536 168.837 213.482 165.857 213.482 165.082C213.482 164.307 214.148 161.495 214.758 160.557C215.368 159.62 214.983 156.691 214.983 156.691L215.018 156.471C215.018 156.388 215.046 156.28 215.066 156.158L215.117 155.873C215.384 154.255 215.746 152.655 216.2 151.08C216.924 148.761 217.759 144.678 217.759 144.678L222.939 131.183L222.999 131.023C222.999 131.023 225.386 135.44 225.386 139.529C225.386 139.529 226.002 144.441 225.834 145.766C225.666 147.091 226.335 153.328 226.335 153.328C226.335 153.328 227.056 162.27 227.056 162.657C227.056 163.045 227.945 169.946 228.504 170.997C229.062 172.049 227.934 175.246 227.612 175.576C227.29 175.907 227.723 184.025 227.723 184.025C227.723 184.025 226.888 190.427 226.723 191.752C226.558 193.077 225.888 198.158 226.438 200.147C226.988 202.135 226.771 202.409 226.771 202.409C226.771 202.409 228.766 204.452 227.606 204.617C226.446 204.782 224.663 206.273 225.381 208.646C226.099 211.02 227.831 214.556 227.831 214.556C227.831 214.556 228.176 214.479 228.752 214.362V215.017L228.82 218.309C228.82 218.309 229.207 221.443 228.985 222.175C228.823 222.697 228.601 225.173 228.492 226.449C228.452 226.922 228.43 227.238 228.43 227.238C228.43 227.238 228.43 230.162 234.599 229.282C240.767 228.401 241.882 225.968 241.882 225.968L241.927 225.663C242.018 225.093 242.212 223.922 242.38 223.264C242.605 222.377 240.605 218.403 240.605 218.403C240.605 218.403 240.269 215.701 239.713 215.092C239.483 214.741 239.33 214.346 239.266 213.932C239.215 213.71 239.172 213.479 239.135 213.251C239.28 213.271 239.42 213.296 239.545 213.325C239.545 213.325 239.212 211.393 240.494 210.783C241.776 210.174 241.437 208.908 241.272 208.356C241.107 207.803 241.77 204.714 241.77 204.714C241.681 204.407 241.675 204.081 241.753 203.771C241.831 203.46 241.991 203.176 242.215 202.947C242.996 202.172 243.605 196.761 243.605 196.761L243.739 175.918C243.739 175.918 244.13 172.214 243.685 170.727C243.241 169.239 242.793 166.367 243.4 165.598C244.007 164.828 243.457 161.238 243.457 161.238C243.457 161.238 243.457 153.673 244.289 151.798C245.121 149.923 244.859 138.05 244.859 138.05L245.079 130.268C245.079 130.268 246.894 128.559 246.463 119.589C248.401 119.469 250.586 119.398 250.917 119.666C251.527 120.161 255.476 122.703 257.81 121.09C258.311 120.868 260.588 118.936 260.588 118.936L259.608 102.384C260.22 103.307 260.591 103.92 260.591 103.92C260.591 101.6 267.144 94.0923 267.144 94.0923C267.144 94.0923 273.259 86.1995 274.593 85.2592C275.926 84.3189 278.539 79.3525 278.539 79.3525C278.926 78.405 279.372 77.4828 279.875 76.5914C280.479 75.5913 278.479 72.9413 278.701 72.3316ZM264.358 78.1301C262.691 78.2953 259.189 82.105 259.132 82.9313C259.103 83.3672 258.736 83.9542 258.394 84.4158C258.368 84.0824 258.34 83.7434 258.311 83.3986C257.918 78.5204 257.496 72.5709 257.69 72.001C258.023 71.0066 257.909 66.5359 257.909 66.5359L257.972 66.4504C259.095 69.9153 262.574 74.0013 262.574 74.0013C262.574 74.0013 263.186 75.7679 263.907 75.8221C264.628 75.8762 264.358 78.1301 264.358 78.1301Z" fill="url(#paint0_linear_2_3312)"/>
<path d="M175.226 76.8679C175.226 76.8679 177.252 66.2397 183.774 66.1855L188.538 75.9931L185.361 78.1843C185.361 78.1843 178.457 78.4037 175.226 76.8679Z" fill="#65617D"/>
<path opacity="0.1" d="M188.538 75.9903L185.361 78.1843C185.361 78.1843 180.517 78.3382 177.029 77.4834C176.409 77.3385 175.805 77.1323 175.226 76.8679C175.226 76.8679 175.226 76.8109 175.263 76.6969C175.262 76.6836 175.262 76.6703 175.263 76.657C175.562 75.3231 175.975 74.0172 176.497 72.7534C176.696 72.2775 176.924 71.7846 177.169 71.2945C178.124 69.4566 179.466 67.6558 181.301 66.764C181.98 66.4301 182.719 66.2363 183.475 66.1941H183.669H183.765L183.868 66.4106L185.481 69.7245L188.538 75.9903Z" fill="#2E3231"/>
<path d="M242.671 120.153C242.671 120.153 249.509 119.495 250.122 119.988C250.735 120.481 254.616 123.002 256.915 121.412C259.214 119.822 257.681 114.289 257.681 114.069C257.681 113.85 257.465 106.017 257.465 106.017L253.353 100.484L248.204 90.7956L237.684 89.7556L237.969 105.142L237.915 113.032L242.671 120.153Z" fill="#65617D"/>
<path opacity="0.1" d="M242.671 120.153C242.671 120.153 249.509 119.495 250.122 119.988C250.735 120.481 254.616 123.002 256.915 121.412C259.214 119.822 257.681 114.289 257.681 114.069C257.681 113.85 257.465 106.017 257.465 106.017L253.353 100.484L248.204 90.7956L237.684 89.7556L237.969 105.142L237.915 113.032L242.671 120.153Z" fill="#2E3231"/>
<path d="M182.401 65.9119C182.401 65.9119 181.856 72.5966 177.691 72.7049C177.691 72.7049 176.511 71.9925 174.924 70.8072C171.265 68.0689 165.458 62.8061 167.062 57.9109C169.365 50.8985 180.54 63.829 180.54 63.829L181.395 64.7921L182.401 65.9119Z" fill="#FBBEBE"/>
<path opacity="0.1" d="M182.401 65.912C182.401 65.912 181.856 72.5967 177.691 72.705C177.691 72.705 176.511 71.9926 174.924 70.8073L174.568 70.3514C175.273 70.72 176.052 70.9291 176.847 70.964C177.893 70.9868 179.07 70.5993 179.825 69.0891C180.258 68.2287 180.638 67.3428 180.965 66.4363C181.164 65.9052 181.306 65.3539 181.386 64.7922L182.401 65.912Z" fill="#2E3231"/>
<path d="M180.594 78.019L179.657 76.8137L176.494 72.7533L174.887 70.6789C175.592 71.0493 176.37 71.2595 177.166 71.2944C178.212 71.3172 179.389 70.9297 180.147 69.4167C180.58 68.5563 180.961 67.6704 181.287 66.7639C181.808 65.2851 181.797 64.5243 181.614 64.2678C181.432 64.0114 182.777 65.2623 183.424 65.8749L183.446 65.8977C183.632 66.0686 183.751 66.1826 183.751 66.1826L183.862 66.4049L185.45 69.5791L185.467 69.713C185.612 70.7217 186.148 77.1129 180.594 78.019Z" fill="#E7EFFD"/>
<path d="M213.413 219.047C213.413 219.047 208.812 222.061 206.512 221.611C204.213 221.161 201.853 222.38 201.853 222.38C200.268 224.112 198.269 225.414 196.044 226.162C192.319 227.421 187.116 226.928 184.159 225.939C182.757 225.475 182.646 224.871 183.318 224.13C184.068 223.301 185.786 222.301 187.775 221.118C191.553 218.873 195.608 214.434 195.608 214.434C195.608 214.434 195.662 213.339 196.32 212.846C196.723 212.502 197.093 212.12 197.425 211.707C198.012 211.011 198.565 210.282 198.565 210.282L212.1 210.721C212.1 210.721 212.331 211.698 212.51 212.695C212.661 213.513 212.778 214.345 212.701 214.667C212.536 215.377 213.086 216.035 213.086 216.035L213.328 218.272L213.413 219.047Z" fill="#65617D"/>
<path d="M241.745 222.825C241.582 223.48 241.386 224.657 241.297 225.21C241.266 225.398 241.252 225.512 241.252 225.512C241.252 225.512 240.155 227.922 234.074 228.8C227.994 229.678 227.994 226.771 227.994 226.771C227.994 226.771 228.016 226.458 228.056 225.988C228.162 224.705 228.381 222.252 228.541 221.731C228.76 221.018 228.378 217.895 228.378 217.895L228.313 214.63L228.267 212.35L238.348 211.308C238.412 212.062 238.521 212.812 238.673 213.553C238.736 213.96 238.887 214.349 239.115 214.693C239.662 215.3 239.992 217.981 239.992 217.981C239.992 217.981 241.959 221.947 241.745 222.825Z" fill="#65617D"/>
<path opacity="0.1" d="M212.111 210.718C212.111 210.718 212.342 211.695 212.522 212.693C211.06 212.96 204.669 214.069 203.07 213.294C201.264 212.416 197.371 211.923 197.371 211.923L197.437 211.701C198.024 211.006 198.577 210.276 198.577 210.276L212.111 210.718Z" fill="#2E3231"/>
<path opacity="0.1" d="M238.667 213.564C236.103 213.131 230.513 214.18 228.307 214.63L228.261 212.35L238.343 211.308C238.406 212.066 238.515 212.819 238.667 213.564Z" fill="#2E3231"/>
<path d="M244.369 130.508L244.15 138.232C244.15 138.232 244.435 150.012 243.603 151.875C242.771 153.739 242.779 161.244 242.779 161.244C242.779 161.244 243.329 164.806 242.725 165.569C242.121 166.333 242.56 169.188 243.01 170.667C243.46 172.146 243.061 175.819 243.061 175.819L242.953 196.528C242.953 196.528 242.352 201.896 241.582 202.666C241.361 202.893 241.205 203.175 241.128 203.483C241.051 203.791 241.058 204.113 241.146 204.418C241.146 204.418 240.488 207.484 240.654 208.034C240.819 208.584 241.146 209.84 239.887 210.442C238.628 211.043 238.952 212.963 238.952 212.963C235.941 212.251 227.395 214.171 227.395 214.171C227.395 214.171 225.686 210.664 224.982 208.307C224.278 205.951 226.025 204.472 227.173 204.318C228.321 204.164 226.352 202.124 226.352 202.124C226.352 202.124 226.572 201.839 226.025 199.879C225.478 197.919 226.133 192.864 226.31 191.55C226.486 190.237 227.296 183.88 227.296 183.88C227.296 183.88 226.86 175.827 227.187 175.497C227.515 175.166 228.612 171.989 228.065 170.938C227.518 169.886 226.64 163.048 226.64 162.675C226.64 162.301 225.928 153.414 225.928 153.414C225.928 153.414 225.273 147.222 225.435 145.909C225.597 144.595 224.996 139.72 224.996 139.72C224.996 135.662 222.643 131.28 222.643 131.28L222.583 131.437L217.491 144.829C217.491 144.829 216.67 148.881 215.955 151.183C215.506 152.746 215.15 154.334 214.887 155.939L214.838 156.223C214.818 156.346 214.801 156.451 214.79 156.531L214.755 156.753C214.755 156.753 215.137 159.657 214.536 160.589C213.935 161.521 213.251 164.313 213.251 165.091C213.251 165.869 213.302 168.821 213.302 168.821C213.302 168.821 213.525 174.682 212.92 175.34C212.316 175.998 212.636 176.545 212.636 176.545C212.636 176.545 213.624 180.982 213.185 182.133C212.747 183.284 213.077 185.965 213.077 185.965C213.077 185.965 212.208 194.439 212.111 194.884C212.014 195.328 211.399 198.719 212.054 198.993C212.71 199.266 213.972 200.91 213.972 200.91C213.972 200.91 214.257 208.088 213.262 208.635C212.268 209.182 212.821 211.977 212.821 211.977C212.821 211.977 204.879 213.513 203.07 212.636C201.261 211.758 197.371 211.265 197.371 211.265L197.916 209.464C197.884 209.527 197.522 210.111 197.263 207.869C196.978 205.512 199.292 206.663 199.292 206.663C199.292 206.663 201.098 207.102 198.192 204.253C195.286 201.403 196.713 198.5 196.878 198.5C197.044 198.5 197.425 194.283 197.425 194.283C197.425 194.283 197.918 191.761 197.534 189.789C197.149 187.817 196.824 181.68 196.824 181.68C196.824 181.68 197.109 177.024 196.605 175.326C196.101 173.628 196.933 170.559 197.098 169.844C197.263 169.128 196.605 162.612 196.605 162.612C196.605 162.612 197.155 159.546 196.824 157.301C196.494 155.055 197.155 146.781 197.155 146.781L198.141 137.247C198.141 137.247 198.85 134.289 198.742 133.084C198.634 131.878 199.563 127.67 199.563 127.67C199.563 127.67 199.454 126.134 200.001 125.04C200.548 123.946 200.771 120.33 200.771 120.33L206.031 108.274L208.595 97.6458L243.386 97.3181C243.386 97.3181 243.514 98.2385 243.722 99.9139C243.93 101.589 244.232 104.071 244.577 107.131C244.879 109.912 245.21 113.184 245.535 116.819C246.56 128.425 244.369 130.508 244.369 130.508Z" fill="#3F3D56"/>
<path d="M241.138 34.5715L233.026 43.2308C233.026 43.2308 222.62 39.065 223.714 37.6403C224.138 37.0875 224.07 35.3608 223.825 33.4289C223.44 30.3971 222.62 26.9009 222.62 26.9009C222.62 26.9009 240.807 23.9433 239.272 27.0092C238.702 28.1319 238.81 29.4397 239.158 30.6479C239.602 32.0539 240.271 33.3789 241.138 34.5715Z" fill="#FBBEBE"/>
<path opacity="0.1" d="M239.272 27.0092C238.702 28.1319 238.445 28.2401 238.796 29.4483C236.416 32.0127 233.382 34.7909 229.632 34.7909C227.617 34.7941 225.629 34.3277 223.825 33.4289C223.44 30.3971 222.62 26.9009 222.62 26.9009C222.62 26.9009 240.807 23.9433 239.272 27.0092Z" fill="#2E3231"/>
<path d="M242.671 21.4217C242.696 23.1504 242.378 24.8669 241.734 26.4714C241.09 28.076 240.134 29.5364 238.92 30.7679C237.707 31.9994 236.261 32.9774 234.666 33.6449C233.071 34.3124 231.36 34.6561 229.631 34.6561C227.902 34.6561 226.19 34.3124 224.595 33.6449C223.001 32.9774 221.554 31.9994 220.341 30.7679C219.127 29.5364 218.171 28.076 217.527 26.4714C216.883 24.8669 216.565 23.1504 216.59 21.4217C216.59 21.3591 216.59 21.2964 216.59 21.2337C216.615 17.7756 218.013 14.469 220.476 12.0414C222.939 9.61379 226.265 8.26398 229.723 8.28891C233.181 8.31385 236.488 9.7115 238.916 12.1744C241.343 14.6373 242.693 17.9636 242.668 21.4217H242.671Z" fill="#FBBEBE"/>
<path opacity="0.1" d="M244.56 107.448C242.833 107.462 237.08 107.51 230.652 107.613H230.575L228.45 107.647H228.384C220.762 107.77 213.251 106.279 210.236 106.564C203.825 107.165 212.536 100.646 212.536 100.646C212.536 100.646 219.474 102.498 227.139 102.122L228.982 102.028C234.809 101.697 240.665 101.15 243.72 100.233C243.933 101.925 244.23 104.399 244.56 107.448Z" fill="#2E3231"/>
<path d="M244.56 107.12C242.833 107.12 237.08 107.183 230.652 107.282H230.575L228.45 107.319H228.384C220.762 107.442 213.251 105.952 210.236 106.234C203.825 106.835 212.536 100.318 212.536 100.318C212.536 100.318 219.474 102.168 227.139 101.794L228.982 101.697C234.809 101.37 240.665 100.82 243.72 99.9023C243.933 101.595 244.23 104.06 244.56 107.12Z" fill="#E3A79F"/>
<path opacity="0.1" d="M226.124 38.1876L216.043 42.9005L208.265 103.057C208.265 103.057 212.866 100.977 215.496 102.29C218.126 103.604 226.233 102.401 226.233 102.401C226.233 102.401 232.151 102.071 233.029 102.729C233.906 103.387 244.204 99.9908 244.204 99.9908C244.204 99.9908 246.067 95.825 244.643 95.1696C243.218 94.5143 245.081 88.0462 245.081 88.0462L244.204 44.6529L242.451 39.0652L237.739 36.2158L232.912 40.0511L230.632 40.3788L226.124 38.1876Z" fill="#2E3231"/>
<path d="M226.124 37.5293L216.043 42.2422L208.265 102.404C208.265 102.404 212.866 100.321 215.496 101.638C218.126 102.954 226.233 101.746 226.233 101.746C226.233 101.746 232.151 101.418 233.029 102.074C233.906 102.729 244.204 99.3354 244.204 99.3354C244.204 99.3354 246.067 95.1724 244.643 94.5142C243.218 93.856 245.081 87.3907 245.081 87.3907L244.204 43.9917L242.451 38.4041L237.739 35.5547L232.912 39.3928L230.632 39.7176L226.124 37.5293Z" fill="#E7EFFD"/>
<path opacity="0.1" d="M225.959 40.3246C225.959 40.3246 228.863 43.7752 228.809 44.4876C228.754 45.1999 228.646 46.8982 228.646 46.8982L226.452 51.3375C226.452 51.3375 225.247 56.871 225.247 58.0222C225.247 59.1733 223.329 69.1348 223.329 69.1348L221.03 84.4759L218.126 104.584L221.084 109.679L224.591 106.721L229.247 70.8872L230.233 63.8207C230.233 63.8207 231.273 51.1096 231.273 49.796C231.273 48.4824 230.672 45.029 230.672 45.029C230.672 45.029 231.384 41.7408 234.342 40.9743C237.3 40.2078 234.123 40.809 234.123 40.809L232.413 39.4385L230.934 40.0425C230.934 40.0425 226.837 38.7917 225.959 40.3246Z" fill="#2E3231"/>
<path d="M225.632 40.0025C225.632 40.0025 228.535 43.4531 228.481 44.1654C228.427 44.8778 228.316 46.576 228.316 46.576L226.125 51.0153C226.125 51.0153 224.934 56.5431 224.934 57.6914C224.934 58.8398 223.016 68.8041 223.016 68.8041L220.699 84.1679L217.81 104.262L220.771 109.359L224.261 106.393L228.923 70.5678L229.909 63.5013C229.909 63.5013 230.949 50.7902 230.949 49.4738C230.949 48.1574 230.347 44.7068 230.347 44.7068C230.347 44.7068 231.06 41.4214 234.017 40.6521C236.975 39.8828 233.798 40.4897 233.798 40.4897L232.088 39.1191L230.632 39.7175C230.632 39.7175 226.509 38.4609 225.632 40.0025Z" fill="#3F3D56"/>
<path opacity="0.1" d="M223.714 34.2439C223.714 34.2439 223.275 34.5716 223.167 36.7628C223.059 38.9539 221.523 43.8862 221.523 43.8862C221.523 43.8862 227.221 39.9398 230.071 40.3786L223.714 34.2439Z" fill="#2E3231"/>
<path d="M223.714 33.5857C223.714 33.5857 223.275 33.9134 223.167 36.1074C223.059 38.3014 221.523 43.2309 221.523 43.2309C221.523 43.2309 227.221 39.2873 230.071 39.7261L223.714 33.5857Z" fill="#E7EFFD"/>
<path opacity="0.1" d="M239.274 32.4888L230.287 40.3787C230.287 40.3787 237.85 44.8722 238.836 45.9692C239.821 47.0662 240.807 35.2299 240.807 35.2299L239.274 32.4888Z" fill="#2E3231"/>
<path d="M239.602 31.8335L230.632 39.7177C230.632 39.7177 238.192 44.2084 239.18 45.3054C240.169 46.4024 241.155 34.5661 241.155 34.5661L239.602 31.8335Z" fill="#E7EFFD"/>
<path opacity="0.1" d="M224.042 34.2441C224.042 34.2441 223.056 33.7511 222.124 35.1758C221.192 36.6005 219.44 37.2559 219.44 37.2559C219.44 37.2559 209.467 38.8458 209.085 40.1594L204.429 40.4443C204.429 40.4443 202.785 40.6609 202.62 44.1144C202.455 47.5678 201.568 47.8869 201.568 47.8869C201.568 47.8869 199.651 51.2834 199.813 53.0358C199.976 54.7882 198.334 55.6658 198.334 55.6658L205.173 73.4716C205.173 73.4716 205.392 80.8145 204.13 83.4986C202.868 86.1827 200.514 98.0732 200.514 98.0732C200.514 98.0732 201.503 97.8538 201.446 98.5091C201.389 99.1645 200.241 106.345 200.241 106.345C200.241 106.345 199.913 109.194 199.366 110.18C198.819 111.166 198.762 116.318 198.762 116.318L197.884 120.042C197.884 120.042 199.967 124.701 203.144 124.031C206.321 123.362 212.111 110.952 212.111 110.952L215.781 97.529L218.631 84.2708L219.451 75.2866L220.768 55.3979L222.685 42.248C222.685 42.248 224.811 35.1758 224.042 34.2441Z" fill="#2E3231"/>
<path d="M223.714 33.5859C223.714 33.5859 222.728 33.0929 221.796 34.5176C220.865 35.9423 219.112 36.6005 219.112 36.6005C219.112 36.6005 209.139 38.1876 208.757 39.504L204.099 39.789C204.099 39.789 202.455 40.0084 202.292 43.459C202.13 46.9096 201.249 47.2401 201.249 47.2401C201.249 47.2401 199.332 50.6366 199.497 52.389C199.662 54.1413 198.018 55.019 198.018 55.019L204.857 72.8248C204.857 72.8248 205.076 80.1676 203.817 82.8518C202.557 85.5359 200.201 97.4264 200.201 97.4264C200.201 97.4264 201.187 97.207 201.133 97.8652C201.078 98.5234 199.927 105.698 199.927 105.698C199.927 105.698 199.6 108.548 199.05 109.533C198.5 110.519 198.448 115.671 198.448 115.671L197.579 119.384C197.579 119.384 199.662 124.043 202.839 123.373C206.016 122.703 211.769 110.28 211.769 110.28L215.442 96.8565L218.292 83.5955L219.115 74.6113L220.429 54.7226L222.346 41.5727C222.346 41.5727 224.48 34.5176 223.714 33.5859Z" fill="#65617D"/>
<path opacity="0.1" d="M188.538 75.9902L185.361 78.1843C185.361 78.1843 180.517 78.3381 177.03 77.4833L175.263 76.6969L174.907 76.543L175.271 76.657C177.104 77.2012 178.537 77.1898 179.657 76.8137C184.153 75.3007 183.646 67.8752 183.483 66.1941C183.466 66.0259 183.455 65.9091 183.446 65.8749C183.446 65.8683 183.446 65.8616 183.446 65.855L183.472 65.8977C183.533 65.9986 183.602 66.094 183.68 66.1827C183.743 66.2539 183.808 66.328 183.879 66.3964L185.467 69.5706L185.484 69.7045L188.538 75.9902Z" fill="#2E3231"/>
<path d="M199.551 54.5686L198.018 55.0074L197.799 58.1417C197.799 58.1417 195.989 57.8568 195.496 60.0052C195.003 62.1537 194.129 63.1396 194.129 63.1396C194.129 63.1396 191.114 65.6613 190.949 67.7955L189.088 68.9352C189.088 68.9352 184.757 67.9265 183.774 66.1856C183.774 66.1856 185.746 80.3214 175.226 76.8679C175.226 76.8679 187.005 82.0196 187.552 82.7319C188.099 83.4443 191.718 85.5243 195.003 83.772C198.289 82.0196 199.004 79.3241 199.004 79.3241C199.004 79.3241 202.181 74.8847 202.292 74.2265C202.403 73.5683 204.857 72.8018 204.857 72.8018L209.569 61.4043L199.551 54.5686Z" fill="#65617D"/>
<path opacity="0.1" d="M238.015 39.0652L239.602 31.8335C239.602 31.8335 240.314 34.1899 241.027 34.737L243.383 36.5435C243.383 36.5435 245.74 37.6405 246.56 37.6405C247.381 37.6405 251.82 38.7803 252.367 39.3929C252.914 40.0055 255.109 39.5582 255.109 39.5582C255.109 39.5582 256.915 40.1594 258.505 40.5441C260.095 40.9287 260.861 43.5587 260.531 44.5988C260.399 45.1166 260.4 45.6595 260.534 46.1768C260.669 46.694 260.932 47.1687 261.3 47.5564C261.956 48.2146 262.286 50.3517 262.286 50.3517C263.092 50.614 263.761 51.1846 264.147 51.9388C264.697 53.1441 264.531 55.774 264.531 55.774L256.368 67.2799C256.368 67.2799 256.476 71.7192 256.149 72.6937C255.821 73.6682 257.288 90.4454 257.288 90.4454L258.998 119.264C258.998 119.264 256.753 121.182 256.26 121.401C255.767 121.621 255.271 111.209 255.271 110.827C255.271 110.445 242.617 91.8701 242.617 91.8701C242.617 91.8701 240.907 89.129 240.907 88.5277C240.907 87.9265 239.317 82.3902 239.317 82.3902L236.907 71.7078L238.015 39.0652Z" fill="#2E3231"/>
<path d="M265.21 55.1471C265.21 55.5232 265.19 55.774 265.19 55.774L257.032 67.2713C257.032 67.2713 257.146 71.7078 256.815 72.6851C256.624 73.255 257.043 79.1532 257.431 83.9943C257.716 87.4905 257.966 90.4368 257.966 90.4368L258.687 102.661L259.662 119.255C259.662 119.255 257.417 121.173 256.924 121.393C256.431 121.612 255.938 111.2 255.938 110.816C255.938 110.431 243.281 91.8615 243.281 91.8615C243.281 91.8615 241.571 89.1203 241.571 88.5191C241.571 87.9179 239.984 82.3816 239.984 82.3816L237.573 71.6964L238.668 39.0452L239.599 31.8135C239.599 31.8135 240.97 34.1699 241.682 34.7142C242.395 35.2584 244.036 36.5235 244.036 36.5235C244.036 36.5235 246.392 37.6205 247.216 37.6205C248.039 37.6205 252.476 38.7603 253.023 39.3729C253.57 39.9855 255.764 39.5382 255.764 39.5382C255.764 39.5382 257.57 40.1394 259.157 40.5241C260.745 40.9087 261.514 43.5387 261.186 44.5759C261.053 45.0939 261.053 45.6372 261.188 46.155C261.322 46.6728 261.585 47.1481 261.953 47.5364C262.611 48.1946 262.939 50.3288 262.939 50.3288C263.746 50.593 264.416 51.1655 264.802 51.9216C265.187 52.7736 265.224 54.2923 265.21 55.1471Z" fill="#65617D"/>
<path opacity="0.1" d="M198.238 201.13C198.522 201.13 210.017 201.568 209.798 203.432C209.578 205.295 198.238 201.13 198.238 201.13Z" fill="#2E3231"/>
<path opacity="0.1" d="M200.813 204.253C200.813 204.253 208.538 205.512 206.512 206.663C204.486 207.814 200.813 204.253 200.813 204.253Z" fill="#2E3231"/>
<path opacity="0.1" d="M229.521 199.924C229.521 199.924 242.343 201.021 240.426 202.443C238.508 203.865 233.96 204.087 233.741 204.153C233.522 204.218 229.521 199.924 229.521 199.924Z" fill="#2E3231"/>
<path opacity="0.1" d="M227.988 205.569C227.988 205.569 235.112 206.774 235.328 208.134C235.545 209.493 227.988 205.569 227.988 205.569Z" fill="#2E3231"/>
<path opacity="0.1" d="M231.932 172.584C231.932 172.584 238.451 174.117 238.836 175.149L231.932 172.584Z" fill="#2E3231"/>
<path opacity="0.1" d="M206.783 177.297C206.783 177.297 203.386 178.283 206.675 180.255C209.963 182.227 206.783 177.297 206.783 177.297Z" fill="#2E3231"/>
<path opacity="0.1" d="M221.85 124.644C222.235 124.644 228.207 122.672 230.287 123.55C232.367 124.427 234.946 124.424 234.946 124.424L221.85 124.644Z" fill="#2E3231"/>
<path opacity="0.1" d="M222.62 130.898L222.56 131.439L217.468 144.831C217.468 144.831 216.647 148.883 215.932 151.186C215.484 152.749 215.127 154.336 214.864 155.941L219.386 127.9L222.62 130.898Z" fill="#2E3231"/>
<path d="M230.575 107.282L228.45 107.319H228.384L227.139 101.797C227.752 101.766 228.364 101.735 228.982 101.698L230.575 107.282Z" fill="#3F3D56"/>
<path d="M256.422 100.595L255.057 101.718L250.498 105.467C250.498 105.467 238.169 112.044 234.772 105.798C231.778 100.296 245.757 96.3664 249.122 95.5088C249.581 95.3919 249.84 95.335 249.84 95.335L256.422 100.595Z" fill="#FBBEBE"/>
<path opacity="0.1" d="M203.771 46.7356C203.771 46.7356 206.182 47.8298 206.729 49.3656C207.276 50.9014 203.771 46.7356 203.771 46.7356Z" fill="#2E3231"/>
<path opacity="0.1" d="M196.32 63.1709C196.32 63.1709 192.812 67.445 194.237 69.0891C195.662 70.7332 196.32 63.1709 196.32 63.1709Z" fill="#2E3231"/>
<path opacity="0.1" d="M258.998 49.1462C258.998 49.1462 255.71 49.4739 255.601 52.3233L258.998 49.1462Z" fill="#2E3231"/>
<path opacity="0.1" d="M228.535 94.0725C228.863 93.7448 236.425 82.5666 238.177 83.5525L228.535 94.0725Z" fill="#2E3231"/>
<path opacity="0.1" d="M242.671 21.4217C242.674 23.5691 242.144 25.6837 241.129 27.5763L241.032 27.5592C240.206 27.3854 239.776 26.4195 239.143 25.8211C238.756 25.4515 238.262 25.2127 237.731 25.1381C237.201 25.0635 236.66 25.1569 236.186 25.4051C235.706 25.6926 235.316 26.108 235.059 26.6047C234.803 27.1015 234.689 27.6599 234.732 28.2174C234.316 26.4622 234.448 24.5959 234.04 22.8378C233.633 21.0797 232.405 19.3017 230.726 19.2704C230.002 19.2704 229.156 19.5382 228.635 18.9854C228.318 18.6578 228.253 18.1306 228.016 17.746C226.817 15.8027 223.173 16.7857 221.674 17.7801C220.232 18.7375 218.448 20.3674 216.593 21.2222C216.618 17.7641 218.016 14.4575 220.479 12.0299C222.942 9.60231 226.268 8.2525 229.726 8.27744C233.184 8.30238 236.491 9.70002 238.918 12.1629C241.346 14.6258 242.696 17.9522 242.671 21.4103V21.4217Z" fill="#2E3231"/>
<path d="M228.017 17.4267C228.256 17.8228 228.319 18.3414 228.635 18.6662C229.156 19.2076 230.003 18.9312 230.726 18.9512C232.405 18.9797 233.633 20.7605 234.04 22.5186C234.448 24.2767 234.325 26.1402 234.733 27.8954C234.69 27.338 234.803 26.7797 235.061 26.2833C235.318 25.787 235.708 25.3723 236.189 25.0859C236.663 24.8379 237.202 24.7445 237.732 24.8185C238.262 24.8926 238.756 25.1306 239.143 25.4991C239.776 26.1003 240.206 27.0634 241.033 27.2372C241.859 27.411 242.657 26.6189 242.953 25.747C243.249 24.875 243.238 23.9205 243.426 23.0172C243.799 21.3076 244.913 19.9086 245.532 18.2844C246.266 16.3066 246.245 14.1277 245.475 12.1639C245.064 11.1353 244.452 10.2092 244.05 9.18061C243.417 7.61915 243.252 5.85823 242.486 4.37085C241.195 1.88049 238.158 0.632455 235.661 1.5699C234.47 2.01726 233.436 2.88347 232.228 3.27953C230.607 3.79812 228.877 3.40776 227.199 3.17411C225.52 2.94046 223.671 2.91766 222.323 4.02892C220.773 5.2969 220.349 7.68184 218.904 9.07519C218.292 9.65931 217.531 10.0326 216.884 10.574C216.237 11.1153 215.682 11.9189 215.744 12.7993C215.841 13.9391 216.952 14.9649 216.542 16.0163C216.394 16.32 216.187 16.592 215.935 16.817C214.713 18.0956 213.805 19.6407 213.282 21.3304C216.214 22.2451 219.389 19.0138 221.682 17.4866C223.167 16.4693 226.817 15.4977 228.017 17.4267Z" fill="#7C5C5C"/>
<path opacity="0.1" d="M256.422 100.595L255.057 101.718C253.855 99.723 248.917 95.7139 248.917 95.7139L249.13 95.5088C249.589 95.3919 249.849 95.335 249.849 95.335L256.422 100.595Z" fill="#2E3231"/>
<path d="M257.738 98.5659C257.738 98.5659 257.248 99.7855 256.741 100.845C256.234 101.905 255.684 102.857 255.656 102.079C255.601 100.543 249.247 95.3917 249.247 95.3917L250.102 94.554L251.102 93.5852L257.738 98.5659Z" fill="#E7EFFD"/>
<path opacity="0.1" d="M257.958 90.4566L258.679 102.68C256.969 100.033 252.305 93.249 249.299 93.4684L256.587 85.0884C256.89 84.7501 257.169 84.3911 257.422 84.0142C257.701 87.5104 257.958 90.4566 257.958 90.4566Z" fill="#2E3231"/>
<path opacity="0.1" d="M257.738 98.5659C257.738 98.5659 257.248 99.7855 256.741 100.845C254.832 98.2269 252.205 95.1324 250.108 94.554L251.108 93.5852L257.738 98.5659Z" fill="#2E3231"/>
<path d="M263.218 54.2495L265.19 55.7825C265.19 55.7825 268.475 55.8395 268.805 58.5777C269.136 61.316 272.148 62.5669 272.148 62.5669C272.148 62.5669 274.393 64.8122 274.393 65.8522C274.393 66.8922 276.103 68.7586 276.103 68.921C276.103 69.0834 277.747 72.4286 277.527 73.0298C277.308 73.631 279.28 76.2639 278.667 77.2498C278.171 78.134 277.732 79.0485 277.351 79.988C277.351 79.988 274.786 84.9203 273.461 85.8521C272.136 86.7838 266.121 94.6168 266.121 94.6168C266.121 94.6168 259.656 102.068 259.656 104.37C259.656 104.37 253.353 93.8503 249.629 94.1124L256.915 85.7295C256.915 85.7295 258.177 84.3618 258.231 83.5384C258.285 82.7149 261.736 78.9366 263.38 78.7713C263.38 78.7713 263.665 76.526 262.941 76.4719C262.218 76.4177 261.628 74.6625 261.628 74.6625C261.628 74.6625 256.807 68.9638 256.752 65.3479C256.698 61.732 263.218 54.2495 263.218 54.2495Z" fill="#65617D"/>
<path opacity="0.1" d="M266.121 59.4468C266.121 59.4468 261.517 62.8432 262.505 63.9374C263.494 65.0316 266.121 59.4468 266.121 59.4468Z" fill="#2E3231"/>
<path opacity="0.1" d="M266.341 73.4714C266.341 73.4714 274.889 70.7331 275.764 73.4714H266.341Z" fill="#2E3231"/>
<path opacity="0.1" d="M213.413 219.047C213.413 219.047 208.812 222.061 206.512 221.611C204.213 221.161 201.853 222.38 201.853 222.38C200.268 224.112 198.269 225.413 196.044 226.162C192.319 227.421 187.116 226.928 184.159 225.939C182.757 225.475 182.646 224.871 183.318 224.13C186.535 224.771 193.724 226.045 195.662 225.119C198.181 223.913 201.796 221.283 201.796 221.283C201.796 221.283 206.512 220.625 207.168 220.625C207.635 220.625 211.273 219.124 213.328 218.26L213.413 219.047Z" fill="#2E3231"/>
<path opacity="0.1" d="M241.292 225.213C241.26 225.401 241.246 225.515 241.246 225.515C241.246 225.515 240.149 227.925 234.069 228.803C227.988 229.68 227.988 226.774 227.988 226.774C227.988 226.774 228.011 226.461 228.051 225.991C229.974 226.717 234.174 227.535 241.292 225.213Z" fill="#2E3231"/>
<path opacity="0.1" d="M206.045 58.7886C206.045 58.7886 206.045 71.2803 204.976 72.5141C203.908 73.7479 206.045 58.7886 206.045 58.7886Z" fill="#2E3231"/>
<path opacity="0.1" d="M255.436 62.8147L257.023 67.2797C257.023 67.2797 257.656 62.8973 255.436 62.8147Z" fill="#2E3231"/>
<g opacity="0.1">
<path opacity="0.1" d="M216.696 14.9278C217.098 13.8992 216.046 12.8933 215.909 11.7935C215.77 12.1043 215.709 12.445 215.733 12.785C215.804 13.6142 216.417 14.3921 216.588 15.1586C216.631 15.0854 216.667 15.0081 216.696 14.9278Z" fill="#2E3231"/>
<path opacity="0.1" d="M234.881 26.7271C234.487 24.9976 234.596 23.1682 234.202 21.4415C233.809 19.7148 232.57 17.9026 230.891 17.8741C230.168 17.8741 229.321 18.1391 228.797 17.5891C228.484 17.2643 228.418 16.7343 228.182 16.3497C226.982 14.4064 223.338 15.3923 221.836 16.3867C219.594 17.8769 216.516 20.9913 213.644 20.2847C213.505 20.618 213.376 20.9543 213.271 21.2991C216.203 22.2137 219.377 18.9825 221.671 17.4552C223.167 16.4608 226.817 15.4607 228.016 17.4182C228.256 17.8143 228.318 18.3328 228.635 18.6577C229.156 19.1991 230.002 18.9227 230.726 18.9426C232.405 18.9711 233.633 20.752 234.04 22.51C234.448 24.2681 234.325 26.1316 234.732 27.8868C234.704 27.4943 234.755 27.1 234.881 26.7271Z" fill="#2E3231"/>
<path opacity="0.1" d="M243.118 24.6699C242.833 25.5418 242.038 26.3396 241.195 26.1601C240.352 25.9806 239.938 25.0204 239.309 24.422C238.921 24.0529 238.427 23.8146 237.896 23.7405C237.366 23.6664 236.825 23.7602 236.351 24.0088C235.894 24.2818 235.518 24.672 235.263 25.1389C235.007 25.6058 234.881 26.1325 234.898 26.6645C235.117 25.9939 235.577 25.4284 236.189 25.0774C236.663 24.8294 237.202 24.7359 237.732 24.81C238.262 24.8841 238.756 25.122 239.143 25.4905C239.776 26.0918 240.206 27.0548 241.033 27.2287C241.859 27.4025 242.657 26.6103 242.953 25.7384C243.11 25.2265 243.211 24.6992 243.255 24.1656C243.22 24.3362 243.174 24.5047 243.118 24.6699Z" fill="#2E3231"/>
<path opacity="0.1" d="M245.694 17.2073C245.079 18.8315 243.962 20.2334 243.591 21.943C243.517 22.2878 243.474 22.6411 243.432 22.9944C243.808 21.2848 244.916 19.8943 245.532 18.2758C245.805 17.5431 245.976 16.776 246.039 15.9963C245.955 16.4081 245.839 16.8129 245.694 17.2073Z" fill="#2E3231"/>
</g>
<path d="M171.104 58.0577L171.073 58.0731C171.02 58.1 170.998 58.1651 171.025 58.2185L171.853 59.8625C171.88 59.9159 171.945 59.9374 171.998 59.9105L172.029 59.8952C172.082 59.8683 172.104 59.8032 172.077 59.7497L171.249 58.1057C171.222 58.0523 171.157 58.0308 171.104 58.0577Z" fill="#3A3768"/>
<path d="M162.911 60.3484L162.894 60.3574C162.864 60.3722 162.852 60.4082 162.867 60.4377L163.118 60.9365C163.133 60.966 163.169 60.9779 163.199 60.963L163.217 60.954C163.246 60.9391 163.258 60.9032 163.243 60.8736L162.992 60.3749C162.977 60.3454 162.941 60.3335 162.911 60.3484Z" fill="#3A3768"/>
<path d="M163.475 61.4842L163.458 61.4932C163.424 61.5102 163.41 61.5513 163.427 61.585L163.896 62.5164C163.913 62.5502 163.955 62.5637 163.988 62.5467L164.006 62.5378C164.04 62.5208 164.053 62.4797 164.036 62.4459L163.567 61.5145C163.55 61.4808 163.509 61.4672 163.475 61.4842Z" fill="#3A3768"/>
<path d="M164.189 62.9069L164.171 62.9158C164.139 62.9321 164.126 62.9715 164.142 63.0038L164.618 63.948C164.634 63.9803 164.674 63.9933 164.706 63.9771L164.724 63.9681C164.756 63.9518 164.769 63.9124 164.753 63.8801L164.277 62.9359C164.261 62.9036 164.222 62.8906 164.189 62.9069Z" fill="#3A3768"/>
<path d="M168.792 54.9109L162.476 58.0918C162.161 58.2504 162.034 58.6341 162.193 58.949L169.252 72.9662C169.411 73.281 169.794 73.4077 170.109 73.2492L176.426 70.0682C176.74 69.9097 176.867 69.5259 176.709 69.2111L169.649 55.1938C169.491 54.879 169.107 54.7523 168.792 54.9109Z" fill="#3A3768"/>
<path d="M167.923 55.8309C167.886 55.8471 167.854 55.8708 167.827 55.9004C167.801 55.93 167.78 55.9648 167.768 56.0027C167.756 56.0405 167.752 56.0805 167.756 56.1201C167.76 56.1597 167.772 56.1981 167.792 56.2326L167.82 56.2868C167.84 56.3215 167.852 56.36 167.856 56.3997C167.86 56.4395 167.855 56.4796 167.843 56.5175C167.83 56.5553 167.81 56.5901 167.783 56.6196C167.756 56.6491 167.723 56.6726 167.686 56.6885L164.526 58.2813C164.492 58.3011 164.453 58.3134 164.414 58.3175C164.374 58.3216 164.334 58.3173 164.296 58.3049C164.259 58.2926 164.224 58.2725 164.194 58.2458C164.165 58.2192 164.141 58.1866 164.125 58.1503L164.096 58.0933C164.08 58.0569 164.056 58.0244 164.027 57.9977C163.997 57.9711 163.962 57.9509 163.924 57.9386C163.886 57.9262 163.846 57.9219 163.807 57.926C163.767 57.9301 163.729 57.9424 163.694 57.9622L163.079 58.2699C163.011 58.3035 162.951 58.3501 162.902 58.407C162.853 58.464 162.815 58.5302 162.792 58.6017C162.768 58.6732 162.759 58.7487 162.765 58.8239C162.77 58.899 162.791 58.9722 162.825 59.0393L169.547 72.3829C169.581 72.4504 169.627 72.5105 169.684 72.5598C169.741 72.6091 169.807 72.6467 169.879 72.6702C169.95 72.6938 170.026 72.703 170.101 72.6972C170.176 72.6914 170.249 72.6708 170.316 72.6365L175.83 69.8584C175.897 69.8248 175.957 69.7783 176.006 69.7216C176.055 69.6649 176.092 69.599 176.116 69.5278C176.139 69.4566 176.149 69.3814 176.143 69.3066C176.138 69.2318 176.117 69.1589 176.083 69.0919L169.37 55.7454C169.336 55.6785 169.29 55.619 169.233 55.5703C169.176 55.5215 169.11 55.4844 169.039 55.4611C168.968 55.4378 168.893 55.4288 168.818 55.4345C168.743 55.4403 168.671 55.4607 168.604 55.4946L167.923 55.8309Z" fill="#074139"/>
<path d="M166.094 56.8386L165.237 57.2705C165.186 57.296 165.166 57.3577 165.191 57.4083L165.205 57.4363C165.231 57.4869 165.293 57.5072 165.343 57.4817L166.201 57.0498C166.251 57.0244 166.272 56.9627 166.246 56.9121L166.232 56.8841C166.207 56.8335 166.145 56.8131 166.094 56.8386Z" fill="#E6E8EC"/>
<path d="M166.515 56.8767C166.589 56.8767 166.649 56.8168 166.649 56.7428C166.649 56.6688 166.589 56.6089 166.515 56.6089C166.441 56.6089 166.381 56.6688 166.381 56.7428C166.381 56.8168 166.441 56.8767 166.515 56.8767Z" fill="#E6E8EC"/>
<path opacity="0.1" d="M27.6418 7.43397C27.6418 7.43397 55.3208 5.76424 52.0582 25.16C52.0582 25.16 52.7051 28.5793 49.5992 30.1436C49.5992 30.1436 49.5508 28.7189 46.7498 29.1947C45.7559 29.3597 44.746 29.4075 43.7409 29.3372C42.383 29.2466 41.0921 28.7143 40.0652 27.8213C40.0652 27.8213 32.2977 24.6158 29.2688 11.8904C29.2688 11.8904 27.0321 9.11511 27.1204 8.40277L31.7906 10.3973C31.7906 10.3973 30.1949 13.7682 31.4515 16.5691C31.4515 16.5691 31.6025 10.5199 32.5 10.6623C32.6824 10.6937 34.9277 11.8306 34.9277 11.8306C34.9277 11.8306 32.1809 17.7003 34.2524 21.9658C34.2524 21.9658 33.466 14.7341 35.7854 12.2551L39.0736 14.1756C39.0736 14.1756 35.8623 20.2363 38.0393 25.1857C38.0393 25.1857 37.4694 17.5977 39.7489 14.6429L42.7293 16.9652C42.7293 16.9652 39.7147 22.9489 41.5526 27.0435C41.5526 27.0435 41.7919 18.2104 43.3733 17.5436C43.3733 17.5436 45.9805 19.8431 46.3794 20.7862C46.3794 20.7862 44.3136 25.123 45.5958 27.4139C45.5958 27.4139 46.3794 21.5299 47.0205 21.5014C47.0205 21.5014 49.6192 25.4022 49.8899 28.0721C49.8899 28.0721 49.7759 24.0972 47.6502 21.1281C47.6502 21.1281 50.1606 21.5584 51.6394 23.1882C51.6394 23.1882 51.2348 20.43 47.0205 20.1907C47.0205 20.1907 44.8749 17.233 44.2994 17.0564C44.2994 17.0564 48.4908 16.7059 51.0325 17.8314C51.0325 17.8314 48.7957 15.2299 43.5329 16.4067L40.5923 14.0075C40.5923 14.0075 46.1087 13.2496 48.4481 14.0844C48.4481 14.0844 45.7554 11.785 39.7973 13.4604L36.5889 11.5485C36.5889 11.5485 41.2933 10.5341 44.0971 10.9017C44.0971 10.9017 41.1394 9.30602 35.6515 11.0356L33.372 10.007C33.372 10.007 36.8197 9.32882 37.8284 9.22339C38.8371 9.11796 38.8912 8.83587 38.8912 8.83587C36.7081 8.47298 34.4672 8.72252 32.4174 9.55677C32.4174 9.55677 27.5592 7.73886 27.6418 7.43397Z" fill="#074139"/>
<path opacity="0.1" d="M43.1426 59.3215C43.1426 59.3215 55.6485 58.5664 54.1754 67.3311C54.1754 67.3311 54.4603 68.8783 53.0641 69.5821C53.0641 69.5821 53.0413 68.9325 51.7819 69.1519C51.3331 69.2284 50.8768 69.2504 50.4227 69.2174C49.8093 69.1764 49.2261 68.9363 48.7615 68.5336C48.7615 68.5336 45.2454 67.0804 43.8777 61.3331C43.8777 61.3331 42.8662 60.0823 42.9061 59.7603L45.0175 60.6607C45.0175 60.6607 44.2966 62.1823 44.8636 63.4474C44.8636 63.4474 44.932 60.7148 45.3366 60.7804C45.4192 60.7946 46.4336 61.3075 46.4336 61.3075C46.4336 61.3075 45.1941 63.9603 46.1287 65.8865C46.1287 65.8865 45.7754 62.6211 46.8211 61.4984L48.3085 62.3675C48.3085 62.3675 46.8468 65.1057 47.8326 67.3568C47.8326 67.3568 47.5791 63.9375 48.6105 62.5926L49.9583 63.6412C49.9583 63.6412 48.5963 66.3424 49.4255 68.2002C49.4255 68.2002 49.5337 64.211 50.2489 63.9062C50.2489 63.9062 51.4257 64.9433 51.6081 65.3707C51.6081 65.3707 50.6735 67.3311 51.2519 68.3654C51.2519 68.3654 51.6081 65.707 51.8987 65.6956C51.8987 65.6956 53.0727 67.4565 53.1952 68.6646C53.1952 68.6646 53.1439 66.8667 52.1837 65.5303C52.8599 65.6596 53.4838 65.9834 53.9788 66.462C53.9788 66.462 53.7964 65.2169 51.893 65.1086C51.893 65.1086 50.9242 63.7722 50.6649 63.6839C50.6649 63.6839 52.5569 63.5243 53.7052 64.0344C53.7052 64.0344 52.6965 62.8604 50.3173 63.3933L48.9866 62.3076C48.9866 62.3076 51.4799 61.9686 52.537 62.3447C52.537 62.3447 51.3203 61.3047 48.6305 62.0597L47.183 61.2049C47.183 61.2049 49.3086 60.749 50.5738 60.92C50.5738 60.92 49.2374 60.1991 46.7584 60.9798L45.7241 60.5154C45.7241 60.5154 47.2799 60.2076 47.7386 60.1592C48.1974 60.1108 48.2173 59.9854 48.2173 59.9854C47.2315 59.8207 46.2194 59.9332 45.2938 60.3102C45.2938 60.3102 43.097 59.4583 43.1426 59.3215Z" fill="#074139"/>
<path opacity="0.1" d="M0.23649 12.4776C0.23649 12.4776 12.7424 11.7253 11.2693 20.4872C11.2693 20.4872 11.5543 22.0373 10.1581 22.7411C10.1581 22.7411 10.1353 22.0914 8.87583 22.3108C8.42692 22.3859 7.97073 22.4079 7.51667 22.3763C6.90297 22.3343 6.31974 22.0932 5.85548 21.6896C5.85548 21.6896 2.33934 20.2393 0.971632 14.4921C0.971632 14.4921 -0.0399015 13.2384 -1.00557e-05 12.9164L2.11139 13.8168C2.11139 13.8168 1.39049 15.3412 1.95752 16.6063C1.95752 16.6063 2.02591 13.8738 2.43052 13.9393C2.51315 13.9393 3.52753 14.4665 3.52753 14.4665C3.52753 14.4665 2.28805 17.1192 3.22265 19.0454C3.22265 19.0454 2.86932 15.7772 3.91505 14.6574L5.40243 15.5122C5.40243 15.5122 3.95209 18.2533 4.93513 20.4872C4.93513 20.4872 4.68153 17.0679 5.71301 15.7259L7.06077 16.7745C7.06077 16.7745 5.69876 19.4757 6.52794 21.3335C6.52794 21.3335 6.63621 17.3443 7.35141 17.0423C7.35141 17.0423 8.52821 18.0795 8.71057 18.5069C8.71057 18.5069 7.77597 20.4673 8.35439 21.5016C8.35439 21.5016 8.71057 18.8431 9.0012 18.8289C9.0012 18.8289 10.1752 20.5926 10.2977 21.7979C10.2977 21.7979 10.2464 20.0028 9.28614 18.6636C9.96291 18.7915 10.5872 19.1155 11.0813 19.5953C11.0813 19.5953 10.8989 18.3473 8.99551 18.239C8.99551 18.239 8.02671 16.9027 7.76742 16.8143C7.76742 16.8143 9.65941 16.6548 10.8077 17.1648C10.8077 17.1648 9.79903 15.988 7.41979 16.5237L6.10053 15.4495C6.10053 15.4495 8.59374 15.1076 9.65086 15.4865C9.65086 15.4865 8.43418 14.4465 5.74435 15.2016L4.29687 14.3468C4.29687 14.3468 6.42251 13.888 7.68764 14.0618C7.68764 14.0618 6.35127 13.3409 3.87231 14.1217L2.83798 13.6572C2.83798 13.6572 4.3966 13.3523 4.8525 13.3039C5.3084 13.2555 5.33119 13.1301 5.33119 13.1301C4.34332 12.9579 3.32699 13.0644 2.39633 13.4378C2.39633 13.4378 0.199448 12.6172 0.23649 12.4776Z" fill="#074139"/>
<path d="M282.782 212.108C290.082 212.108 296 211.108 296 209.875C296 208.641 290.082 207.641 282.782 207.641C275.481 207.641 269.563 208.641 269.563 209.875C269.563 211.108 275.481 212.108 282.782 212.108Z" fill="#074139"/>
<path d="M288.247 206.222C288.817 205.694 289.344 205.082 289.509 204.318C289.674 203.555 289.35 202.657 288.629 202.381C287.819 202.073 286.956 202.634 286.301 203.198C285.645 203.763 284.893 204.412 284.035 204.293C284.477 203.893 284.807 203.386 284.994 202.82C285.18 202.255 285.217 201.651 285.101 201.067C285.068 200.827 284.969 200.6 284.816 200.412C284.369 199.93 283.554 200.127 283.015 200.514C281.306 201.717 280.83 204.039 280.821 206.13C280.648 205.375 280.793 204.589 280.79 203.817C280.787 203.044 280.573 202.187 279.935 201.771C279.528 201.553 279.071 201.446 278.61 201.46C277.841 201.432 276.986 201.509 276.462 202.07C275.809 202.768 275.977 203.939 276.547 204.709C277.117 205.478 277.972 205.959 278.77 206.489C279.407 206.869 279.95 207.387 280.36 208.005C280.408 208.096 280.448 208.191 280.477 208.29H285.295C286.367 207.735 287.36 207.04 288.247 206.222Z" fill="#074139"/>
<path d="M16.5236 228.575C22.2533 228.575 26.8982 227.789 26.8982 226.82C26.8982 225.85 22.2533 225.064 16.5236 225.064C10.7939 225.064 6.14899 225.85 6.14899 226.82C6.14899 227.789 10.7939 228.575 16.5236 228.575Z" fill="#074139"/>
<path d="M20.812 223.95C21.2859 223.565 21.6317 223.044 21.8035 222.457C21.9289 221.865 21.6782 221.152 21.1111 220.936C20.4757 220.694 19.7976 221.132 19.2847 221.577C18.7718 222.021 18.1791 222.529 17.5067 222.432C17.8529 222.118 18.1121 221.72 18.2589 221.277C18.4057 220.834 18.4352 220.36 18.3444 219.901C18.3148 219.711 18.2341 219.533 18.1107 219.386C17.7574 219.01 17.1191 219.172 16.686 219.468C15.344 220.411 14.9764 222.235 14.9622 223.876C14.8282 223.284 14.9422 222.668 14.9365 222.061C14.9308 221.454 14.7684 220.779 14.2555 220.454C13.9364 220.282 13.5777 220.198 13.2155 220.209C12.6143 220.186 11.9418 220.249 11.5286 220.688C11.0186 221.238 11.1497 222.158 11.5942 222.759C12.0387 223.361 12.7168 223.742 13.3409 224.158C13.8413 224.456 14.2679 224.864 14.5889 225.349C14.6259 225.417 14.6573 225.488 14.6829 225.56H18.4641C19.3161 225.133 20.106 224.591 20.812 223.95Z" fill="#074139"/>
<path d="M42.6781 215.402C48.4079 215.402 53.0528 214.616 53.0528 213.647C53.0528 212.678 48.4079 211.892 42.6781 211.892C36.9484 211.892 32.3035 212.678 32.3035 213.647C32.3035 214.616 36.9484 215.402 42.6781 215.402Z" fill="#074139"/>
<path d="M46.9693 210.778C47.4425 210.392 47.7873 209.871 47.9581 209.285C48.0863 208.692 47.8327 207.982 47.2657 207.766C46.6331 207.521 45.9549 207.963 45.4392 208.407C44.9235 208.852 44.3365 209.359 43.664 209.262C44.01 208.948 44.2688 208.549 44.4151 208.105C44.5614 207.661 44.5903 207.187 44.4989 206.729C44.4694 206.54 44.3886 206.362 44.2653 206.216C43.9148 205.837 43.2765 205.999 42.8548 206.296C41.5127 207.242 41.1452 209.062 41.1309 210.704C40.9942 210.111 41.1081 209.495 41.1053 208.889C41.1024 208.282 40.9343 207.609 40.4243 207.282C40.1053 207.11 39.7463 207.026 39.3843 207.039C38.7802 207.017 38.1077 207.076 37.6974 207.518C37.1845 208.065 37.3184 208.985 37.7629 209.59C38.2075 210.194 38.8856 210.57 39.5096 210.989C40.0093 211.286 40.4358 211.692 40.7577 212.177C40.7954 212.245 40.8259 212.316 40.8488 212.39H44.63C45.4792 211.961 46.2662 211.419 46.9693 210.778Z" fill="#074139"/>
<path d="M160.48 64.5644V96.0586C160.481 96.4738 160.4 96.8851 160.241 97.2688C160.083 97.6525 159.85 98.0012 159.556 98.2947C159.263 98.5883 158.914 98.8211 158.531 98.9796C158.147 99.1381 157.736 99.2193 157.32 99.2186H153.927V61.4072H157.32C157.735 61.4065 158.146 61.4876 158.53 61.646C158.913 61.8043 159.262 62.0368 159.555 62.3301C159.849 62.6234 160.082 62.9717 160.241 63.3551C160.399 63.7385 160.481 64.1494 160.48 64.5644Z" fill="#C7CCE1"/>
<path opacity="0.2" d="M157.939 61.4671V99.1588C157.735 99.1988 157.528 99.2189 157.32 99.2186H156.802V61.4072H157.32C157.528 61.4069 157.735 61.427 157.939 61.4671Z" fill="#2E3231"/>
<path d="M145.498 110.454H133.263V208.558H145.498V110.454Z" fill="#DCDFED"/>
<path d="M148.407 219.032H128.949V221.765H148.407V219.032Z" fill="#C7CCE1"/>
<path opacity="0.1" d="M148.407 219.032H128.949V220.565H148.407V219.032Z" fill="#2E3231"/>
<path opacity="0.1" d="M145.498 206.618H133.263V208.555H145.498V206.618Z" fill="#2E3231"/>
<path d="M124.669 207.019H152.684C154.207 207.019 155.715 207.319 157.122 207.902C158.529 208.485 159.808 209.339 160.885 210.416C161.962 211.493 162.816 212.771 163.399 214.178C163.981 215.585 164.281 217.093 164.281 218.616V220.4H113.072V218.616C113.072 217.093 113.372 215.585 113.955 214.178C114.538 212.771 115.392 211.493 116.469 210.416C117.546 209.339 118.824 208.485 120.231 207.902C121.638 207.319 123.146 207.019 124.669 207.019Z" fill="#DCDFED"/>
<path opacity="0.1" d="M145.498 123.96H133.263V135.728H145.498V123.96Z" fill="#2E3231"/>
<path opacity="0.1" d="M145.498 123.159H133.263V134.927H145.498V123.159Z" fill="#2E3231"/>
<path d="M146.772 123.558H132.129V135.326H146.772V123.558Z" fill="#DCDFED"/>
<path d="M152.089 103.062V107.946C152.089 109.161 151.606 110.327 150.747 111.186C149.888 112.045 148.722 112.528 147.507 112.528H131.266C130.05 112.528 128.885 112.045 128.026 111.186C127.167 110.327 126.684 109.161 126.684 107.946V103.062C126.684 102.461 126.803 101.866 127.033 101.31C127.264 100.755 127.601 100.25 128.027 99.8255C128.452 99.4005 128.957 99.0636 129.513 98.8338C130.069 98.604 130.664 98.486 131.266 98.4863H147.507C148.108 98.486 148.704 98.604 149.26 98.8338C149.815 99.0636 150.32 99.4005 150.746 99.8255C151.171 100.25 151.509 100.755 151.739 101.31C151.97 101.866 152.089 102.461 152.089 103.062Z" fill="#C7CCE1"/>
<path opacity="0.1" d="M152.089 103.062V103.561C150.597 105.516 148.675 107.101 146.471 108.191C144.267 109.282 141.841 109.849 139.382 109.849C136.923 109.849 134.497 109.282 132.293 108.191C130.089 107.101 128.167 105.516 126.675 103.561V103.062C126.676 102.461 126.794 101.866 127.025 101.31C127.255 100.755 127.593 100.25 128.018 99.8252C128.444 99.4003 128.949 99.0633 129.504 98.8336C130.06 98.6038 130.656 98.4857 131.257 98.4861H147.498C148.101 98.4846 148.697 98.6018 149.254 98.8311C149.81 99.0604 150.316 99.3972 150.743 99.8222C151.169 100.247 151.507 100.752 151.738 101.308C151.969 101.864 152.088 102.46 152.089 103.062Z" fill="#2E3231"/>
<path d="M124.692 57.5576H154.072C154.414 57.5576 154.743 57.6936 154.985 57.9357C155.227 58.1777 155.363 58.5061 155.363 58.8484V95.6055C155.363 99.279 153.904 102.802 151.306 105.4C148.708 107.997 145.185 109.456 141.512 109.456H137.252C133.579 109.456 130.056 107.997 127.458 105.4C124.861 102.802 123.401 99.279 123.401 95.6055V58.8484C123.401 58.5061 123.537 58.1777 123.779 57.9357C124.021 57.6936 124.35 57.5576 124.692 57.5576Z" fill="#C7CCE1"/>
<path d="M130.123 38.5722H148.644C149.948 38.5722 151.199 39.0903 152.122 40.0126C153.044 40.935 153.562 42.1859 153.562 43.4902V57.5804C153.562 58.0505 153.375 58.5013 153.043 58.8337C152.711 59.166 152.26 59.3528 151.79 59.3528H126.977C126.745 59.3528 126.514 59.3069 126.299 59.2179C126.084 59.1288 125.889 58.9982 125.724 58.8337C125.559 58.6691 125.429 58.4737 125.34 58.2587C125.251 58.0437 125.205 57.8132 125.205 57.5804V43.4874C125.205 42.183 125.723 40.9321 126.645 40.0098C127.568 39.0875 128.819 38.5693 130.123 38.5693V38.5722Z" fill="#C7CCE1"/>
<path opacity="0.2" d="M150.75 53.1497H128.55V54.6199H150.75V53.1497Z" fill="#2E3231"/>
<path opacity="0.1" d="M152.086 62.2764H126.678V80.7147H152.086V62.2764Z" fill="#2E3231"/>
<path d="M152.086 61.8745H126.678V80.3129H152.086V61.8745Z" fill="#074139"/>
<g opacity="0.1">
<path opacity="0.1" d="M132.311 83.4727H127.046C126.921 83.4727 126.82 83.5734 126.82 83.6978V85.2877C126.82 85.412 126.921 85.5128 127.046 85.5128H132.311C132.436 85.5128 132.536 85.412 132.536 85.2877V83.6978C132.536 83.5734 132.436 83.4727 132.311 83.4727Z" fill="#2E3231"/>
<path opacity="0.1" d="M138.779 83.4727H133.514C133.389 83.4727 133.289 83.5734 133.289 83.6978V85.2877C133.289 85.412 133.389 85.5128 133.514 85.5128H138.779C138.904 85.5128 139.005 85.412 139.005 85.2877V83.6978C139.005 83.5734 138.904 83.4727 138.779 83.4727Z" fill="#2E3231"/>
<path opacity="0.1" d="M145.247 83.4727H139.982C139.857 83.4727 139.757 83.5734 139.757 83.6978V85.2877C139.757 85.412 139.857 85.5128 139.982 85.5128H145.247C145.372 85.5128 145.473 85.412 145.473 85.2877V83.6978C145.473 83.5734 145.372 83.4727 145.247 83.4727Z" fill="#2E3231"/>
<path opacity="0.1" d="M151.718 83.4727H146.453C146.328 83.4727 146.228 83.5734 146.228 83.6978V85.2877C146.228 85.412 146.328 85.5128 146.453 85.5128H151.718C151.843 85.5128 151.944 85.412 151.944 85.2877V83.6978C151.944 83.5734 151.843 83.4727 151.718 83.4727Z" fill="#2E3231"/>
<path opacity="0.1" d="M132.311 87.4675H127.046C126.921 87.4675 126.82 87.5683 126.82 87.6926V89.2826C126.82 89.4069 126.921 89.5077 127.046 89.5077H132.311C132.436 89.5077 132.536 89.4069 132.536 89.2826V87.6926C132.536 87.5683 132.436 87.4675 132.311 87.4675Z" fill="#2E3231"/>
<path opacity="0.1" d="M138.779 87.4675H133.514C133.389 87.4675 133.289 87.5683 133.289 87.6926V89.2826C133.289 89.4069 133.389 89.5077 133.514 89.5077H138.779C138.904 89.5077 139.005 89.4069 139.005 89.2826V87.6926C139.005 87.5683 138.904 87.4675 138.779 87.4675Z" fill="#2E3231"/>
<path opacity="0.1" d="M145.247 87.4675H139.982C139.857 87.4675 139.757 87.5683 139.757 87.6926V89.2826C139.757 89.4069 139.857 89.5077 139.982 89.5077H145.247C145.372 89.5077 145.473 89.4069 145.473 89.2826V87.6926C145.473 87.5683 145.372 87.4675 145.247 87.4675Z" fill="#2E3231"/>
<path opacity="0.1" d="M132.311 91.3625H127.046C126.921 91.3625 126.82 91.4633 126.82 91.5876V93.1776C126.82 93.3019 126.921 93.4027 127.046 93.4027H132.311C132.436 93.4027 132.536 93.3019 132.536 93.1776V91.5876C132.536 91.4633 132.436 91.3625 132.311 91.3625Z" fill="#2E3231"/>
<path opacity="0.1" d="M138.779 91.3625H133.514C133.389 91.3625 133.289 91.4633 133.289 91.5876V93.1776C133.289 93.3019 133.389 93.4027 133.514 93.4027H138.779C138.904 93.4027 139.005 93.3019 139.005 93.1776V91.5876C139.005 91.4633 138.904 91.3625 138.779 91.3625Z" fill="#2E3231"/>
<path opacity="0.1" d="M145.247 91.3625H139.982C139.857 91.3625 139.757 91.4633 139.757 91.5876V93.1776C139.757 93.3019 139.857 93.4027 139.982 93.4027H145.247C145.372 93.4027 145.473 93.3019 145.473 93.1776V91.5876C145.473 91.4633 145.372 91.3625 145.247 91.3625Z" fill="#2E3231"/>
<path opacity="0.1" d="M132.311 95.6594H127.046C126.921 95.6594 126.82 95.7602 126.82 95.8845V97.4745C126.82 97.5988 126.921 97.6996 127.046 97.6996H132.311C132.436 97.6996 132.536 97.5988 132.536 97.4745V95.8845C132.536 95.7602 132.436 95.6594 132.311 95.6594Z" fill="#2E3231"/>
<path opacity="0.1" d="M138.779 95.6594H133.514C133.389 95.6594 133.289 95.7602 133.289 95.8845V97.4745C133.289 97.5988 133.389 97.6996 133.514 97.6996H138.779C138.904 97.6996 139.005 97.5988 139.005 97.4745V95.8845C139.005 95.7602 138.904 95.6594 138.779 95.6594Z" fill="#2E3231"/>
<path opacity="0.1" d="M145.247 95.6594H139.982C139.857 95.6594 139.757 95.7602 139.757 95.8845V97.4745C139.757 97.5988 139.857 97.6996 139.982 97.6996H145.247C145.372 97.6996 145.473 97.5988 145.473 97.4745V95.8845C145.473 95.7602 145.372 95.6594 145.247 95.6594Z" fill="#2E3231"/>
<path opacity="0.1" d="M151.718 87.4675H146.453C146.328 87.4675 146.228 87.5683 146.228 87.6926V89.2826C146.228 89.4069 146.328 89.5077 146.453 89.5077H151.718C151.843 89.5077 151.944 89.4069 151.944 89.2826V87.6926C151.944 87.5683 151.843 87.4675 151.718 87.4675Z" fill="#2E3231"/>
<path opacity="0.1" d="M151.083 91.1431H147.14C146.83 91.1431 146.578 91.3944 146.578 91.7044V97.8534C146.578 98.1634 146.83 98.4147 147.14 98.4147H151.083C151.393 98.4147 151.644 98.1634 151.644 97.8534V91.7044C151.644 91.3944 151.393 91.1431 151.083 91.1431Z" fill="#2E3231"/>
</g>
<path d="M132.311 83.071H127.046C126.921 83.071 126.82 83.1718 126.82 83.2961V84.8861C126.82 85.0104 126.921 85.1112 127.046 85.1112H132.311C132.436 85.1112 132.536 85.0104 132.536 84.8861V83.2961C132.536 83.1718 132.436 83.071 132.311 83.071Z" fill="#F2F3F3"/>
<path d="M138.779 83.071H133.514C133.389 83.071 133.289 83.1718 133.289 83.2961V84.8861C133.289 85.0104 133.389 85.1112 133.514 85.1112H138.779C138.904 85.1112 139.005 85.0104 139.005 84.8861V83.2961C139.005 83.1718 138.904 83.071 138.779 83.071Z" fill="#F2F3F3"/>
<path d="M145.247 83.071H139.982C139.857 83.071 139.757 83.1718 139.757 83.2961V84.8861C139.757 85.0104 139.857 85.1112 139.982 85.1112H145.247C145.372 85.1112 145.473 85.0104 145.473 84.8861V83.2961C145.473 83.1718 145.372 83.071 145.247 83.071Z" fill="#F2F3F3"/>
<path d="M151.718 83.071H146.453C146.328 83.071 146.228 83.1718 146.228 83.2961V84.8861C146.228 85.0104 146.328 85.1112 146.453 85.1112H151.718C151.843 85.1112 151.944 85.0104 151.944 84.8861V83.2961C151.944 83.1718 151.843 83.071 151.718 83.071Z" fill="#D44F6A"/>
<path d="M132.311 87.0659H127.046C126.921 87.0659 126.82 87.1667 126.82 87.291V88.881C126.82 89.0053 126.921 89.1061 127.046 89.1061H132.311C132.436 89.1061 132.536 89.0053 132.536 88.881V87.291C132.536 87.1667 132.436 87.0659 132.311 87.0659Z" fill="#F2F3F3"/>
<path d="M138.779 87.0659H133.514C133.389 87.0659 133.289 87.1667 133.289 87.291V88.881C133.289 89.0053 133.389 89.1061 133.514 89.1061H138.779C138.904 89.1061 139.005 89.0053 139.005 88.881V87.291C139.005 87.1667 138.904 87.0659 138.779 87.0659Z" fill="#F2F3F3"/>
<path d="M145.247 87.0659H139.982C139.857 87.0659 139.757 87.1667 139.757 87.291V88.881C139.757 89.0053 139.857 89.1061 139.982 89.1061H145.247C145.372 89.1061 145.473 89.0053 145.473 88.881V87.291C145.473 87.1667 145.372 87.0659 145.247 87.0659Z" fill="#F2F3F3"/>
<path d="M132.311 90.9609H127.046C126.921 90.9609 126.82 91.0617 126.82 91.186V92.776C126.82 92.9003 126.921 93.0011 127.046 93.0011H132.311C132.436 93.0011 132.536 92.9003 132.536 92.776V91.186C132.536 91.0617 132.436 90.9609 132.311 90.9609Z" fill="#F2F3F3"/>
<path d="M138.779 90.9609H133.514C133.389 90.9609 133.289 91.0617 133.289 91.186V92.776C133.289 92.9003 133.389 93.0011 133.514 93.0011H138.779C138.904 93.0011 139.005 92.9003 139.005 92.776V91.186C139.005 91.0617 138.904 90.9609 138.779 90.9609Z" fill="#F2F3F3"/>
<path d="M145.247 90.9609H139.982C139.857 90.9609 139.757 91.0617 139.757 91.186V92.776C139.757 92.9003 139.857 93.0011 139.982 93.0011H145.247C145.372 93.0011 145.473 92.9003 145.473 92.776V91.186C145.473 91.0617 145.372 90.9609 145.247 90.9609Z" fill="#F2F3F3"/>
<path d="M132.311 95.2578H127.046C126.921 95.2578 126.82 95.3586 126.82 95.4829V97.0729C126.82 97.1972 126.921 97.298 127.046 97.298H132.311C132.436 97.298 132.536 97.1972 132.536 97.0729V95.4829C132.536 95.3586 132.436 95.2578 132.311 95.2578Z" fill="#F2F3F3"/>
<path d="M138.779 95.2578H133.514C133.389 95.2578 133.289 95.3586 133.289 95.4829V97.0729C133.289 97.1972 133.389 97.298 133.514 97.298H138.779C138.904 97.298 139.005 97.1972 139.005 97.0729V95.4829C139.005 95.3586 138.904 95.2578 138.779 95.2578Z" fill="#F2F3F3"/>
<path d="M145.247 95.2578H139.982C139.857 95.2578 139.757 95.3586 139.757 95.4829V97.0729C139.757 97.1972 139.857 97.298 139.982 97.298H145.247C145.372 97.298 145.473 97.1972 145.473 97.0729V95.4829C145.473 95.3586 145.372 95.2578 145.247 95.2578Z" fill="#F2F3F3"/>
<path d="M151.718 87.0659H146.453C146.328 87.0659 146.228 87.1667 146.228 87.291V88.881C146.228 89.0053 146.328 89.1061 146.453 89.1061H151.718C151.843 89.1061 151.944 89.0053 151.944 88.881V87.291C151.944 87.1667 151.843 87.0659 151.718 87.0659Z" fill="#FECB42"/>
<path d="M151.083 90.7444H147.139C146.829 90.7444 146.578 90.9957 146.578 91.3057V97.4547C146.578 97.7647 146.829 98.016 147.139 98.016H151.083C151.393 98.016 151.644 97.7647 151.644 97.4547V91.3057C151.644 90.9957 151.393 90.7444 151.083 90.7444Z" fill="#97D25E"/>
<path d="M142.085 78.0732H139.346V78.4009H142.085V78.0732Z" fill="#C7CCE1"/>
<path d="M145.92 78.0732H143.182V78.4009H145.92V78.0732Z" fill="#C7CCE1"/>
<path d="M149.755 78.0732H147.017V78.4009H149.755V78.0732Z" fill="#C7CCE1"/>
</g>
<defs>
<linearGradient id="paint0_linear_2_3312" x1="220.813" y1="229.455" x2="220.813" y2="-0.000103495" gradientUnits="userSpaceOnUse">
<stop stop-color="#808080" stop-opacity="0.25"/>
<stop offset="0.54" stop-color="#808080" stop-opacity="0.12"/>
<stop offset="1" stop-color="#808080" stop-opacity="0.1"/>
</linearGradient>
<clipPath id="clip0_2_3312">
<rect width="296" height="231.592" fill="white"/>
</clipPath>
</defs>
</svg>
