<svg width="49" height="48" viewBox="0 0 49 48" fill="none" xmlns="http://www.w3.org/2000/svg">
<rect x="1" y="0.5" width="47" height="47" rx="23.5" fill="#074139"/>
<rect x="1" y="0.5" width="47" height="47" rx="23.5" stroke="#074139"/>
<mask id="mask0_3_5262" style="mask-type:alpha" maskUnits="userSpaceOnUse" x="14" y="14" width="21" height="20">
<rect x="14.5" y="14" width="20" height="20" fill="#D9D9D9"/>
</mask>
<g mask="url(#mask0_3_5262)">
<path d="M17 23.1667V16.5H23.6667V23.1667H17ZM18.6667 21.5H22V18.1667H18.6667V21.5ZM17 31.5V24.8333H23.6667V31.5H17ZM18.6667 29.8333H22V26.5H18.6667V29.8333ZM25.3333 23.1667V16.5H32V23.1667H25.3333ZM27 21.5H30.3333V18.1667H27V21.5ZM30.3333 31.5V29.8333H32V31.5H30.3333ZM25.3333 26.5V24.8333H27V26.5H25.3333ZM27 28.1667V26.5H28.6667V28.1667H27ZM25.3333 29.8333V28.1667H27V29.8333H25.3333ZM27 31.5V29.8333H28.6667V31.5H27ZM28.6667 29.8333V28.1667H30.3333V29.8333H28.6667ZM28.6667 26.5V24.8333H30.3333V26.5H28.6667ZM30.3333 28.1667V26.5H32V28.1667H30.3333Z" fill="white"/>
<path d="M17 23.1667V16.5H23.6667V23.1667H17ZM18.6667 21.5H22V18.1667H18.6667V21.5ZM17 31.5V24.8333H23.6667V31.5H17ZM18.6667 29.8333H22V26.5H18.6667V29.8333ZM25.3333 23.1667V16.5H32V23.1667H25.3333ZM27 21.5H30.3333V18.1667H27V21.5ZM30.3333 31.5V29.8333H32V31.5H30.3333ZM25.3333 26.5V24.8333H27V26.5H25.3333ZM27 28.1667V26.5H28.6667V28.1667H27ZM25.3333 29.8333V28.1667H27V29.8333H25.3333ZM27 31.5V29.8333H28.6667V31.5H27ZM28.6667 29.8333V28.1667H30.3333V29.8333H28.6667ZM28.6667 26.5V24.8333H30.3333V26.5H28.6667ZM30.3333 28.1667V26.5H32V28.1667H30.3333Z" fill="white"/>
</g>
</svg>