<svg width="335" height="50" viewBox="0 0 335 50" fill="none" xmlns="http://www.w3.org/2000/svg">
<rect x="0.5" y="1.4209" width="334" height="48" rx="24" stroke="#DBDBDB"/>
<path d="M77 34.4209C77 34.4209 75 34.4209 75 32.4209V18.4209C75 18.4209 75 16.4209 77 16.4209H84C84 16.4209 86 16.4209 86 18.4209V32.4209C86 32.4209 86 34.4209 84 34.4209H77Z" fill="#31373D"/>
<path d="M76 18.9209H85V31.9209H76V18.9209Z" fill="#55ACEE"/>
<path d="M107.706 24.1744H105.846C105.793 23.8695 105.696 23.5994 105.553 23.3641C105.411 23.1254 105.233 22.9233 105.021 22.7575C104.809 22.5918 104.567 22.4675 104.295 22.3847C104.027 22.2985 103.737 22.2554 103.425 22.2554C102.872 22.2554 102.381 22.3946 101.954 22.673C101.526 22.9481 101.191 23.3525 100.949 23.8861C100.707 24.4164 100.586 25.0644 100.586 25.83C100.586 26.6089 100.707 27.2651 100.949 27.7987C101.195 28.329 101.529 28.7301 101.954 29.0019C102.381 29.2703 102.87 29.4046 103.42 29.4046C103.725 29.4046 104.01 29.3648 104.275 29.2852C104.544 29.2024 104.784 29.0814 104.996 28.9223C105.212 28.7632 105.392 28.5677 105.538 28.3357C105.687 28.1037 105.79 27.8385 105.846 27.5402L107.706 27.5502C107.636 28.0341 107.485 28.4881 107.253 28.9124C107.025 29.3366 106.725 29.7111 106.354 30.036C105.982 30.3575 105.548 30.6093 105.051 30.7916C104.554 30.9706 104.002 31.0601 103.395 31.0601C102.501 31.0601 101.702 30.853 100.999 30.4387C100.296 30.0244 99.743 29.4261 99.3386 28.6439C98.9342 27.8617 98.7321 26.9237 98.7321 25.83C98.7321 24.7329 98.9359 23.795 99.3436 23.0161C99.7512 22.2339 100.306 21.6356 101.009 21.2213C101.712 20.807 102.507 20.5999 103.395 20.5999C103.962 20.5999 104.489 20.6794 104.976 20.8385C105.464 20.9976 105.898 21.2313 106.279 21.5395C106.66 21.8444 106.973 22.219 107.219 22.6631C107.467 23.1039 107.63 23.6077 107.706 24.1744ZM112.896 31.07C112.151 31.07 111.504 30.906 110.957 30.5779C110.411 30.2497 109.986 29.7907 109.685 29.2007C109.386 28.6108 109.237 27.9214 109.237 27.1325C109.237 26.3437 109.386 25.6527 109.685 25.0594C109.986 24.4661 110.411 24.0054 110.957 23.6773C111.504 23.3492 112.151 23.1851 112.896 23.1851C113.642 23.1851 114.288 23.3492 114.835 23.6773C115.382 24.0054 115.805 24.4661 116.103 25.0594C116.405 25.6527 116.555 26.3437 116.555 27.1325C116.555 27.9214 116.405 28.6108 116.103 29.2007C115.805 29.7907 115.382 30.2497 114.835 30.5779C114.288 30.906 113.642 31.07 112.896 31.07ZM112.906 29.6283C113.311 29.6283 113.649 29.5173 113.92 29.2952C114.192 29.0698 114.394 28.7682 114.527 28.3904C114.663 28.0125 114.731 27.5916 114.731 27.1276C114.731 26.6602 114.663 26.2377 114.527 25.8598C114.394 25.4787 114.192 25.1754 113.92 24.95C113.649 24.7246 113.311 24.6119 112.906 24.6119C112.492 24.6119 112.147 24.7246 111.872 24.95C111.6 25.1754 111.397 25.4787 111.261 25.8598C111.128 26.2377 111.062 26.6602 111.062 27.1276C111.062 27.5916 111.128 28.0125 111.261 28.3904C111.397 28.7682 111.6 29.0698 111.872 29.2952C112.147 29.5173 112.492 29.6283 112.906 29.6283ZM120.133 26.4465V30.9209H118.333V23.2845H120.053V24.5821H120.143C120.318 24.1546 120.598 23.8148 120.983 23.5629C121.371 23.311 121.849 23.1851 122.42 23.1851C122.947 23.1851 123.406 23.2978 123.797 23.5232C124.191 23.7485 124.496 24.075 124.711 24.5026C124.93 24.9301 125.038 25.4488 125.035 26.0587V30.9209H123.235V26.3371C123.235 25.8267 123.102 25.4273 122.837 25.1389C122.575 24.8506 122.212 24.7064 121.748 24.7064C121.434 24.7064 121.153 24.776 120.908 24.9152C120.666 25.0511 120.476 25.2483 120.336 25.5068C120.201 25.7654 120.133 26.0786 120.133 26.4465ZM130.927 23.2845V24.6766H126.537V23.2845H130.927ZM127.621 21.455H129.421V28.624C129.421 28.866 129.457 29.0516 129.53 29.1808C129.607 29.3068 129.706 29.393 129.829 29.4394C129.951 29.4858 130.087 29.509 130.236 29.509C130.349 29.509 130.452 29.5007 130.545 29.4841C130.641 29.4675 130.714 29.4526 130.763 29.4394L131.067 30.8463C130.97 30.8795 130.833 30.9159 130.654 30.9557C130.478 30.9955 130.263 31.0187 130.008 31.0253C129.557 31.0386 129.151 30.9706 128.79 30.8215C128.428 30.669 128.142 30.4337 127.93 30.1155C127.721 29.7973 127.618 29.3996 127.621 28.9223V21.455ZM132.683 30.9209V23.2845H134.482V30.9209H132.683ZM133.587 22.2007C133.302 22.2007 133.057 22.1063 132.852 21.9173C132.646 21.7251 132.543 21.4948 132.543 21.2263C132.543 20.9545 132.646 20.7242 132.852 20.5352C133.057 20.343 133.302 20.2469 133.587 20.2469C133.876 20.2469 134.121 20.343 134.323 20.5352C134.529 20.7242 134.631 20.9545 134.631 21.2263C134.631 21.4948 134.529 21.7251 134.323 21.9173C134.121 22.1063 133.876 22.2007 133.587 22.2007ZM138.383 26.4465V30.9209H136.583V23.2845H138.303V24.5821H138.393C138.568 24.1546 138.848 23.8148 139.233 23.5629C139.621 23.311 140.099 23.1851 140.67 23.1851C141.197 23.1851 141.656 23.2978 142.047 23.5232C142.441 23.7485 142.746 24.075 142.961 24.5026C143.18 24.9301 143.288 25.4488 143.285 26.0587V30.9209H141.485V26.3371C141.485 25.8267 141.352 25.4273 141.087 25.1389C140.825 24.8506 140.462 24.7064 139.998 24.7064C139.684 24.7064 139.403 24.776 139.158 24.9152C138.916 25.0511 138.726 25.2483 138.586 25.5068C138.451 25.7654 138.383 26.0786 138.383 26.4465ZM150.231 27.7093V23.2845H152.031V30.9209H150.286V29.5637H150.206C150.034 29.9912 149.751 30.3409 149.356 30.6127C148.965 30.8844 148.483 31.0203 147.91 31.0203C147.409 31.0203 146.967 30.9093 146.582 30.6872C146.201 30.4619 145.903 30.1354 145.687 29.7078C145.472 29.277 145.364 28.7566 145.364 28.1468V23.2845H147.164V27.8683C147.164 28.3522 147.296 28.7367 147.562 29.0218C147.827 29.3068 148.175 29.4493 148.606 29.4493C148.871 29.4493 149.128 29.3847 149.376 29.2554C149.625 29.1262 149.829 28.9339 149.988 28.6787C150.15 28.4202 150.231 28.097 150.231 27.7093ZM157.512 31.07C156.747 31.07 156.086 30.911 155.529 30.5928C154.975 30.2713 154.549 29.8172 154.251 29.2306C153.953 28.6406 153.804 27.9462 153.804 27.1475C153.804 26.3619 153.953 25.6726 154.251 25.0793C154.553 24.4827 154.974 24.0187 155.514 23.6872C156.054 23.3525 156.689 23.1851 157.418 23.1851C157.889 23.1851 158.333 23.2613 158.75 23.4138C159.171 23.5629 159.542 23.795 159.864 24.1098C160.189 24.4247 160.444 24.8257 160.63 25.3129C160.815 25.7968 160.908 26.3735 160.908 27.0431V27.5949H154.649V26.3818H159.183C159.18 26.0371 159.105 25.7306 158.959 25.4621C158.813 25.1903 158.609 24.9765 158.348 24.8208C158.089 24.665 157.788 24.5871 157.443 24.5871C157.075 24.5871 156.752 24.6766 156.473 24.8556C156.195 25.0312 155.978 25.2632 155.822 25.5516C155.67 25.8366 155.592 26.1498 155.588 26.4912V27.5502C155.588 27.9943 155.67 28.3754 155.832 28.6936C155.994 29.0085 156.221 29.2504 156.513 29.4195C156.805 29.5852 157.146 29.6681 157.537 29.6681C157.799 29.6681 158.036 29.6316 158.248 29.5587C158.46 29.4825 158.644 29.3714 158.8 29.2256C158.956 29.0798 159.074 28.8991 159.153 28.6837L160.833 28.8726C160.727 29.3167 160.525 29.7045 160.227 30.036C159.932 30.3641 159.554 30.6193 159.093 30.8016C158.633 30.9806 158.106 31.07 157.512 31.07ZM167.979 30.9209L165.822 23.2845H167.656L168.998 28.6539H169.068L170.44 23.2845H172.255L173.627 28.624H173.702L175.024 23.2845H176.863L174.701 30.9209H172.827L171.395 25.7604H171.29L169.858 30.9209H167.979ZM178.37 30.9209V23.2845H180.17V30.9209H178.37ZM179.275 22.2007C178.99 22.2007 178.745 22.1063 178.539 21.9173C178.334 21.7251 178.231 21.4948 178.231 21.2263C178.231 20.9545 178.334 20.7242 178.539 20.5352C178.745 20.343 178.99 20.2469 179.275 20.2469C179.563 20.2469 179.808 20.343 180.011 20.5352C180.216 20.7242 180.319 20.9545 180.319 21.2263C180.319 21.4948 180.216 21.7251 180.011 21.9173C179.808 22.1063 179.563 22.2007 179.275 22.2007ZM186.084 23.2845V24.6766H181.694V23.2845H186.084ZM182.778 21.455H184.577V28.624C184.577 28.866 184.614 29.0516 184.687 29.1808C184.763 29.3068 184.862 29.393 184.985 29.4394C185.108 29.4858 185.243 29.509 185.393 29.509C185.505 29.509 185.608 29.5007 185.701 29.4841C185.797 29.4675 185.87 29.4526 185.92 29.4394L186.223 30.8463C186.127 30.8795 185.989 30.9159 185.81 30.9557C185.635 30.9955 185.419 31.0187 185.164 31.0253C184.713 31.0386 184.307 30.9706 183.946 30.8215C183.585 30.669 183.298 30.4337 183.086 30.1155C182.877 29.7973 182.774 29.3996 182.778 28.9223V21.455ZM189.803 26.4465V30.9209H188.003V20.7391H189.763V24.5821H189.852C190.031 24.1512 190.308 23.8115 190.683 23.5629C191.06 23.311 191.541 23.1851 192.124 23.1851C192.655 23.1851 193.117 23.2961 193.511 23.5182C193.906 23.7403 194.211 24.0651 194.426 24.4926C194.645 24.9202 194.754 25.4422 194.754 26.0587V30.9209H192.955V26.3371C192.955 25.8234 192.822 25.424 192.557 25.1389C192.295 24.8506 191.927 24.7064 191.453 24.7064C191.135 24.7064 190.85 24.776 190.598 24.9152C190.349 25.0511 190.154 25.2483 190.011 25.5068C189.872 25.7654 189.803 26.0786 189.803 26.4465ZM209.008 20.7391V30.9209H207.368L202.57 23.9855H202.485V30.9209H200.641V20.7391H202.292L207.084 27.6794H207.174V20.7391H209.008ZM216.056 27.7093V23.2845H217.855V30.9209H216.11V29.5637H216.031C215.858 29.9912 215.575 30.3409 215.181 30.6127C214.789 30.8844 214.307 31.0203 213.734 31.0203C213.233 31.0203 212.791 30.9093 212.406 30.6872C212.025 30.4619 211.727 30.1354 211.512 29.7078C211.296 29.277 211.188 28.7566 211.188 28.1468V23.2845H212.988V27.8683C212.988 28.3522 213.121 28.7367 213.386 29.0218C213.651 29.3068 213.999 29.4493 214.43 29.4493C214.695 29.4493 214.952 29.3847 215.2 29.2554C215.449 29.1262 215.653 28.9339 215.812 28.6787C215.974 28.4202 216.056 28.097 216.056 27.7093ZM219.956 30.9209V23.2845H221.676V24.5821H221.766C221.925 24.1446 222.188 23.8032 222.556 23.558C222.924 23.3094 223.363 23.1851 223.874 23.1851C224.391 23.1851 224.826 23.311 225.181 23.5629C225.539 23.8115 225.791 24.1512 225.937 24.5821H226.016C226.185 24.1579 226.47 23.8198 226.871 23.5679C227.276 23.3127 227.755 23.1851 228.308 23.1851C229.011 23.1851 229.584 23.4072 230.028 23.8513C230.473 24.2954 230.695 24.9434 230.695 25.7952V30.9209H228.89V26.0736C228.89 25.5996 228.764 25.2533 228.512 25.0345C228.26 24.8125 227.952 24.7014 227.587 24.7014C227.153 24.7014 226.813 24.8373 226.568 25.1091C226.326 25.3776 226.205 25.7272 226.205 26.1581V30.9209H224.44V25.999C224.44 25.6046 224.321 25.2897 224.082 25.0544C223.847 24.8191 223.539 24.7014 223.158 24.7014C222.899 24.7014 222.664 24.7677 222.452 24.9003C222.24 25.0296 222.071 25.2135 221.945 25.4521C221.819 25.6875 221.756 25.9626 221.756 26.2774V30.9209H219.956ZM232.85 30.9209V20.7391H234.65V24.5473H234.724C234.817 24.3617 234.948 24.1645 235.117 23.9557C235.286 23.7436 235.515 23.5629 235.803 23.4138C236.091 23.2613 236.459 23.1851 236.907 23.1851C237.497 23.1851 238.029 23.3359 238.503 23.6375C238.98 23.9358 239.358 24.3783 239.636 24.9649C239.918 25.5483 240.059 26.2642 240.059 27.1127C240.059 27.9512 239.921 28.6638 239.646 29.2504C239.371 29.8371 238.997 30.2845 238.523 30.5928C238.049 30.901 237.512 31.0551 236.912 31.0551C236.474 31.0551 236.111 30.9822 235.823 30.8364C235.535 30.6905 235.303 30.5149 235.127 30.3094C234.955 30.1006 234.82 29.9034 234.724 29.7178H234.62V30.9209H232.85ZM234.615 27.1027C234.615 27.5966 234.684 28.0291 234.824 28.4003C234.966 28.7715 235.17 29.0615 235.435 29.2703C235.704 29.4758 236.028 29.5786 236.41 29.5786C236.807 29.5786 237.14 29.4725 237.409 29.2604C237.677 29.045 237.88 28.7516 238.015 28.3804C238.155 28.0059 238.224 27.58 238.224 27.1027C238.224 26.6288 238.156 26.2078 238.02 25.8399C237.885 25.472 237.682 25.1837 237.414 24.9749C237.145 24.7661 236.811 24.6617 236.41 24.6617C236.025 24.6617 235.699 24.7628 235.43 24.9649C235.162 25.1671 234.958 25.4505 234.819 25.8151C234.683 26.1797 234.615 26.6089 234.615 27.1027ZM245.219 31.07C244.454 31.07 243.793 30.911 243.236 30.5928C242.682 30.2713 242.256 29.8172 241.958 29.2306C241.66 28.6406 241.511 27.9462 241.511 27.1475C241.511 26.3619 241.66 25.6726 241.958 25.0793C242.26 24.4827 242.681 24.0187 243.221 23.6872C243.761 23.3525 244.396 23.1851 245.125 23.1851C245.596 23.1851 246.04 23.2613 246.457 23.4138C246.878 23.5629 247.25 23.795 247.571 24.1098C247.896 24.4247 248.151 24.8257 248.337 25.3129C248.522 25.7968 248.615 26.3735 248.615 27.0431V27.5949H242.356V26.3818H246.89C246.887 26.0371 246.812 25.7306 246.666 25.4621C246.52 25.1903 246.317 24.9765 246.055 24.8208C245.796 24.665 245.495 24.5871 245.15 24.5871C244.782 24.5871 244.459 24.6766 244.18 24.8556C243.902 25.0312 243.685 25.2632 243.529 25.5516C243.377 25.8366 243.299 26.1498 243.295 26.4912V27.5502C243.295 27.9943 243.377 28.3754 243.539 28.6936C243.701 29.0085 243.929 29.2504 244.22 29.4195C244.512 29.5852 244.853 29.6681 245.244 29.6681C245.506 29.6681 245.743 29.6316 245.955 29.5587C246.167 29.4825 246.351 29.3714 246.507 29.2256C246.663 29.0798 246.781 28.8991 246.86 28.6837L248.54 28.8726C248.434 29.3167 248.232 29.7045 247.934 30.036C247.639 30.3641 247.261 30.6193 246.8 30.8016C246.34 30.9806 245.813 31.07 245.219 31.07ZM250.388 30.9209V23.2845H252.133V24.5573H252.212C252.351 24.1164 252.59 23.7767 252.928 23.5381C253.269 23.2961 253.659 23.1752 254.096 23.1752C254.196 23.1752 254.307 23.1801 254.43 23.1901C254.555 23.1967 254.66 23.2083 254.743 23.2249V24.8804C254.666 24.8539 254.546 24.8307 254.38 24.8108C254.217 24.7876 254.06 24.776 253.907 24.776C253.579 24.776 253.284 24.8473 253.023 24.9898C252.764 25.129 252.56 25.3229 252.411 25.5715C252.262 25.82 252.187 26.1067 252.187 26.4316V30.9209H250.388Z" fill="#1C1B1F"/>
</svg>
