<svg width="84" height="84" viewBox="0 0 84 84" fill="none" xmlns="http://www.w3.org/2000/svg">
<path d="M42 2C49.9113 2 57.6448 4.34596 64.2228 8.74122C70.8008 13.1365 75.9277 19.3836 78.9552 26.6927C81.9827 34.0017 82.7748 42.0444 81.2314 49.8036C79.688 57.5629 75.8784 64.6902 70.2843 70.2843C64.6902 75.8784 57.5629 79.688 49.8036 81.2314C42.0444 82.7748 34.0017 81.9827 26.6927 78.9552C19.3836 75.9277 13.1365 70.8008 8.74122 64.2228C4.34596 57.6448 2 49.9113 2 42" stroke="#074139" stroke-width="3" stroke-linecap="round" stroke-linejoin="round"/>
<circle cx="42" cy="42.0001" r="29.2674" fill="#074139" stroke="#074139"/>
<rect x="30.407" y="31.3372" width="24.1163" height="21.3256" fill="#074139"/>
<rect x="30.407" y="31.3372" width="24.1163" height="21.3256" stroke="#074139"/>
<path fill-rule="evenodd" clip-rule="evenodd" d="M46.5319 41.3978C46.691 41.624 46.691 41.9111 46.5319 42.1373L41.2993 49.5792C41.0696 49.9059 40.5853 50.0053 40.2178 49.801C39.8502 49.5968 39.7384 49.1664 39.9682 48.8397L44.9407 41.7676L39.9682 34.6955C39.7384 34.3687 39.8502 33.9383 40.2178 33.7341C40.5853 33.5299 41.0696 33.6292 41.2993 33.9559L46.5319 41.3978Z" fill="white"/>
</svg>
