<svg width="82" height="82" viewBox="0 0 82 82" fill="none" xmlns="http://www.w3.org/2000/svg">
<path d="M40 2C45.2529 2 50.4543 3.03463 55.3073 5.04482C60.1604 7.05501 64.5699 10.0014 68.2843 13.7157C71.9986 17.4301 74.945 21.8396 76.9552 26.6927C78.9654 31.5457 80 36.7471 80 42" stroke="#074139" stroke-width="3" stroke-linecap="round" stroke-linejoin="round"/>
<circle cx="40" cy="42.0001" r="29.2674" fill="#074139" stroke="#074139"/>
<rect x="28.407" y="31.3372" width="23.186" height="21.3256" fill="#074139"/>
<rect x="28.407" y="31.3372" width="23.186" height="21.3256" stroke="#074139"/>
<path fill-rule="evenodd" clip-rule="evenodd" d="M43.9161 41.3978C44.0693 41.624 44.0693 41.9111 43.9161 42.1373L38.8774 49.5792C38.6561 49.9059 38.1898 50.0053 37.8359 49.801C37.4819 49.5968 37.3743 49.1664 37.5955 48.8397L42.3839 41.7676L37.5955 34.6955C37.3743 34.3687 37.4819 33.9383 37.8359 33.7341C38.1898 33.5299 38.6561 33.6292 38.8774 33.9559L43.9161 41.3978Z" fill="white"/>
</svg>
