<svg width="27" height="28" viewBox="0 0 27 28" fill="none" xmlns="http://www.w3.org/2000/svg">
<g filter="url(#filter0_i_3_5202)">
<path d="M13.1225 14.0396C13.1225 17.607 10.0785 20.4392 6.47429 20.4392C2.87013 20.4392 0.0706444 17.607 0.0706444 14.0396C0.0706444 10.4721 2.9924 7.58008 6.59656 7.58008C10.2007 7.58008 13.1225 10.4721 13.1225 14.0396Z" fill="#00392F"/>
</g>
<path d="M19.2529 0.84082C20.1507 0.856199 21.0378 1.02402 21.8682 1.33887C22.74 1.6695 23.5329 2.15372 24.2002 2.76465C24.8675 3.37557 25.3967 4.10121 25.7578 4.89941C26.1189 5.69758 26.3047 6.55307 26.3047 7.41699C26.3047 8.28092 26.1189 9.1364 25.7578 9.93457C25.3967 10.7328 24.8675 11.4584 24.2002 12.0693C23.5329 12.6803 22.74 13.1645 21.8682 13.4951C21.0349 13.8111 20.1442 13.9788 19.2432 13.9932C20.1445 14.0075 21.0357 14.1752 21.8691 14.4912C22.7408 14.8218 23.533 15.3072 24.2002 15.918C24.8672 16.5287 25.3967 17.2538 25.7578 18.0518C26.1189 18.8498 26.3046 19.7056 26.3047 20.5693C26.3047 21.4332 26.1189 22.2898 25.7578 23.0879C25.3967 23.8858 24.8672 24.6109 24.2002 25.2217C23.533 25.8325 22.7409 26.3178 21.8691 26.6484C21.0386 26.9634 20.1509 27.1292 19.2529 27.1445L19.2539 27.1621H0V20.4434H17.7305C18.7453 20.4434 19.1143 19.7446 19.1143 19.1055L19.1191 19.3867V13.9951L19.1182 13.9961V9.32617L19.1143 9.60156C19.1143 8.59714 19.0662 7.68895 17.7305 7.68359L0 7.55664V0.837891H19.2539L19.2529 0.84082Z" fill="#074139"/>
<defs>
<filter id="filter0_i_3_5202" x="0.0706444" y="7.58008" width="13.0518" height="14.8591" filterUnits="userSpaceOnUse" color-interpolation-filters="sRGB">
<feFlood flood-opacity="0" result="BackgroundImageFix"/>
<feBlend mode="normal" in="SourceGraphic" in2="BackgroundImageFix" result="shape"/>
<feColorMatrix in="SourceAlpha" type="matrix" values="0 0 0 0 0 0 0 0 0 0 0 0 0 0 0 0 0 0 127 0" result="hardAlpha"/>
<feOffset dy="2"/>
<feGaussianBlur stdDeviation="1"/>
<feComposite in2="hardAlpha" operator="arithmetic" k2="-1" k3="1"/>
<feColorMatrix type="matrix" values="0 0 0 0 0 0 0 0 0 1 0 0 0 0 1 0 0 0 0.2 0"/>
<feBlend mode="normal" in2="shape" result="effect1_innerShadow_3_5202"/>
</filter>
</defs>
</svg>
