<svg width="116" height="16" viewBox="0 0 116 16" fill="none" xmlns="http://www.w3.org/2000/svg">
<path d="M9.67186 0.0253906C15.4709 0.0253906 16.7595 0.182679 17.8195 1.05889C18.8796 1.93511 19.1914 3.44043 19.1914 7.73168C19.1914 12.0454 18.8796 13.5508 17.8195 14.427C16.7595 15.3032 15.4501 15.4605 9.71343 15.4605C3.87285 15.4605 2.58418 15.3032 1.52415 14.427C0.443335 13.5283 0.152344 12.0454 0.152344 7.64181C0.152344 3.46288 0.464117 1.93511 1.52415 1.05889C2.58418 0.182679 3.87285 0.0253906 9.67186 0.0253906ZM9.67186 3.91224C5.51484 3.91224 5.11995 3.97966 4.70425 4.85587C4.45485 5.3726 4.3717 6.22641 4.3717 8.13613C4.3717 10.0009 4.49637 10.6075 4.99523 11.0344C5.55642 11.5062 6.22157 11.5736 9.71343 11.5736C13.1014 11.5736 13.7872 11.4838 14.3484 11.0344C14.8265 10.63 14.972 9.97843 14.972 8.15859C14.972 5.93429 14.8473 5.08053 14.4732 4.58626C13.9951 3.97966 13.5378 3.91224 9.67186 3.91224ZM20.863 15.2358V0.250045H30.819C34.103 0.27255 34.103 0.272552 34.7265 0.317463C36.9921 0.497207 37.7404 1.44084 37.7404 4.15941C37.7404 6.29378 37.2623 7.16999 35.8697 7.5969C37.6988 7.93393 38.26 8.81015 38.26 11.2141C38.26 13.3486 37.7404 14.4494 36.5141 14.8988C35.7242 15.1909 35.4956 15.2133 30.8398 15.2358H20.863ZM24.8745 6.159H30.819C32.3155 6.159 32.9182 6.11403 33.1885 5.97925C33.5002 5.84442 33.6457 5.46247 33.6457 4.92329C33.6457 4.29419 33.4587 3.9572 33.0222 3.84483C32.7936 3.79992 32.7312 3.79992 30.819 3.77746H24.8745V6.159ZM24.8745 11.641H30.8398C33.3548 11.6185 33.3548 11.6185 33.6665 11.4613C34.0199 11.304 34.1653 10.967 34.1653 10.3379C34.1653 9.64145 33.9783 9.32687 33.5002 9.21454C33.2924 9.16963 33.2924 9.16963 30.8398 9.14713H24.8745V11.641ZM39.7399 15.2358V0.250045H49.2384C51.8574 0.250045 52.2318 0.272551 53.0006 0.384879C55.6196 0.811734 56.3679 2.02498 56.3679 5.86692C56.3679 9.19209 55.8068 10.4952 54.1438 11.1467C53.2087 11.4837 52.2731 11.5736 49.2802 11.5736H43.9592V15.2358H39.7399ZM43.9592 7.82155H49.2384C51.1922 7.7991 51.2753 7.7991 51.6289 7.57444C52.0237 7.30482 52.1487 6.90043 52.1487 5.86692C52.1487 4.78846 51.9615 4.33915 51.4212 4.1369C51.1299 4.02457 51.0886 4.02457 49.2384 4.00212H43.9592V7.82155ZM71.8782 15.2358L70.6937 12.697H61.5277L60.3427 15.2358H55.5205L62.8576 0.250045H69.426L76.68 15.2358H71.8782ZM69.2179 9.41674L66.5367 3.7325H65.7051L63.0239 9.41674H69.2179ZM77.3113 15.2358V0.250045H87.5164C92.2968 0.250045 92.2968 0.250046 93.1906 0.834239C94.2506 1.53071 94.5628 2.51925 94.5628 5.12549C94.5628 7.34974 94.3547 8.2035 93.6063 8.81015C93.2115 9.14713 92.8166 9.30442 91.9851 9.4392C94.1261 9.70881 94.5001 10.3828 94.4169 13.8428V15.2358H90.2599V14.4494C90.2599 12.7644 90.1772 12.2252 89.8446 11.8432C89.5534 11.4838 89.2417 11.4388 87.4955 11.4388H81.5306V15.2358H77.3113ZM81.5306 7.68677H87.4751C89.5952 7.64181 89.5952 7.64181 89.886 7.41715C90.2186 7.1925 90.343 6.74314 90.343 5.79951C90.343 4.78846 90.1772 4.36161 89.7406 4.15941C89.4493 4.02457 89.3871 4.02457 87.4751 4.00212H81.5306V7.68677ZM96.0256 0.250045H100.245V5.68718H102.552L108.04 0.160173H114.503L106.481 7.5969L115.169 15.2358H108.767L102.552 9.50661H100.245V15.2358H96.0256V0.250045Z" fill="#074139"/>
</svg>
