<svg width="327" height="49" viewBox="0 0 327 49" fill="none" xmlns="http://www.w3.org/2000/svg">
<path d="M113.52 4.48584C119.319 4.48584 120.607 4.64313 121.667 5.51934C122.727 6.39556 123.039 7.90088 123.039 12.1921C123.039 16.5059 122.727 18.0112 121.667 18.8874C120.607 19.7636 119.298 19.9209 113.561 19.9209C107.721 19.9209 106.432 19.7636 105.372 18.8874C104.291 17.9888 104 16.5059 104 12.1023C104 7.92333 104.312 6.39556 105.372 5.51934C106.432 4.64313 107.721 4.48584 113.52 4.48584ZM113.52 8.37269C109.362 8.37269 108.968 8.44011 108.552 9.31632C108.303 9.83305 108.219 10.6869 108.219 12.5966C108.219 14.4613 108.344 15.068 108.843 15.4948C109.404 15.9667 110.069 16.0341 113.561 16.0341C116.949 16.0341 117.635 15.9442 118.196 15.4948C118.674 15.0904 118.82 14.4389 118.82 12.619C118.82 10.3947 118.695 9.54098 118.321 9.04671C117.843 8.44011 117.386 8.37269 113.52 8.37269ZM124.711 19.6963V4.71049H134.667C137.951 4.733 137.951 4.733 138.574 4.77791C140.84 4.95766 141.588 5.90129 141.588 8.61985C141.588 10.7542 141.11 11.6304 139.717 12.0573C141.546 12.3944 142.108 13.2706 142.108 15.6746C142.108 17.809 141.588 18.9099 140.362 19.3592C139.572 19.6513 139.343 19.6738 134.687 19.6963H124.711ZM128.722 10.6194H134.667C136.163 10.6194 136.766 10.5745 137.036 10.4397C137.348 10.3049 137.493 9.92292 137.493 9.38374C137.493 8.75464 137.306 8.41765 136.87 8.30528C136.641 8.26036 136.579 8.26036 134.667 8.23791H128.722V10.6194ZM128.722 16.1015H134.687C137.202 16.079 137.202 16.079 137.514 15.9217C137.868 15.7645 138.013 15.4275 138.013 14.7984C138.013 14.1019 137.826 13.7873 137.348 13.675C137.14 13.6301 137.14 13.6301 134.687 13.6076H128.722V16.1015ZM143.588 19.6963V4.71049H153.086C155.705 4.71049 156.079 4.733 156.848 4.84533C159.467 5.27218 160.216 6.48543 160.216 10.3274C160.216 13.6525 159.654 14.9557 157.991 15.6072C157.056 15.9442 156.121 16.0341 153.128 16.0341H147.807V19.6963H143.588ZM147.807 12.282H153.086C155.04 12.2595 155.123 12.2595 155.477 12.0349C155.871 11.7653 155.996 11.3609 155.996 10.3274C155.996 9.24891 155.809 8.7996 155.269 8.59735C154.978 8.48502 154.936 8.48502 153.086 8.46257H147.807V12.282ZM175.726 19.6963L174.541 17.1574H165.375L164.19 19.6963H159.368L166.705 4.71049H173.274L180.528 19.6963H175.726ZM173.066 13.8772L170.384 8.19295H169.553L166.872 13.8772H173.066ZM181.159 19.6963V4.71049H191.364C196.144 4.71049 196.144 4.7105 197.038 5.29469C198.098 5.99116 198.41 6.9797 198.41 9.58594C198.41 11.8102 198.202 12.6639 197.454 13.2706C197.059 13.6076 196.664 13.7649 195.833 13.8996C197.974 14.1693 198.348 14.8433 198.265 18.3033V19.6963H194.108V18.9099C194.108 17.2249 194.025 16.6856 193.692 16.3037C193.401 15.9442 193.089 15.8993 191.343 15.8993H185.378V19.6963H181.159ZM185.378 12.1472H191.323C193.443 12.1023 193.443 12.1023 193.734 11.8776C194.066 11.6529 194.191 11.2036 194.191 10.26C194.191 9.24891 194.025 8.82205 193.588 8.61985C193.297 8.48502 193.235 8.48502 191.323 8.46257H185.378V12.1472ZM199.873 4.71049H204.093V10.1476H206.4L211.887 4.62062H218.351L210.328 12.0573L219.016 19.6963H212.615L206.4 13.9671H204.093V19.6963H199.873V4.71049Z" fill="#074139"/>
<path d="M218.75 3.12496C218.75 1.9514 219.701 1 220.875 1C222.049 1 223 1.9514 223 3.12496C223 4.29858 222.049 5.24998 220.875 5.24998C219.701 5.24998 218.75 4.29858 218.75 3.12496Z" stroke="#074139" stroke-width="0.5"/>
<path d="M221.299 3.90098C221.187 3.94649 221.064 3.97173 220.935 3.97173C220.431 3.97173 220.024 3.59113 220.024 3.1217C220.024 2.65228 220.431 2.27173 220.935 2.27173C221.064 2.27173 221.187 2.29697 221.299 2.34243" stroke="#074139" stroke-width="0.5" stroke-linecap="round"/>
<path d="M77.4554 36.2845C77.3958 35.7807 77.1538 35.3896 76.7296 35.1112C76.3053 34.8328 75.785 34.6936 75.1685 34.6936C74.7177 34.6936 74.3233 34.7665 73.9853 34.9124C73.6505 35.0582 73.3887 35.2587 73.1998 35.5139C73.0141 35.7691 72.9213 36.0592 72.9213 36.384C72.9213 36.6557 72.986 36.8894 73.1152 37.085C73.2478 37.2772 73.4168 37.4379 73.6223 37.5672C73.8278 37.6932 74.0433 37.7976 74.2686 37.8804C74.494 37.96 74.7012 38.0246 74.8901 38.0743L75.9242 38.3527C76.1893 38.4223 76.4843 38.5184 76.8091 38.6411C77.1373 38.7637 77.4505 38.9311 77.7488 39.1432C78.0504 39.352 78.2989 39.6205 78.4945 39.9486C78.69 40.2767 78.7878 40.6794 78.7878 41.1567C78.7878 41.7069 78.6436 42.204 78.3553 42.6482C78.0703 43.0923 77.6526 43.4453 77.1025 43.7071C76.5556 43.969 75.891 44.0999 75.1088 44.0999C74.3797 44.0999 73.7483 43.9822 73.2147 43.7469C72.6844 43.5116 72.2667 43.1834 71.9618 42.7625C71.6602 42.3416 71.4895 41.8527 71.4498 41.2959H72.7225C72.7556 41.6804 72.8849 41.9985 73.1103 42.2504C73.339 42.499 73.6273 42.6846 73.9753 42.8073C74.3266 42.9266 74.7045 42.9862 75.1088 42.9862C75.5795 42.9862 76.0021 42.91 76.3766 42.7575C76.7511 42.6018 77.0478 42.3863 77.2665 42.1112C77.4853 41.8328 77.5946 41.508 77.5946 41.1368C77.5946 40.7987 77.5002 40.5236 77.3113 40.3115C77.1223 40.0994 76.8738 39.9271 76.5655 39.7945C76.2573 39.6619 75.9242 39.5459 75.5662 39.4465L74.3134 39.0885C73.5179 38.8598 72.8882 38.5334 72.4242 38.1091C71.9602 37.6849 71.7282 37.1297 71.7282 36.4436C71.7282 35.8735 71.8823 35.3764 72.1905 34.9521C72.5021 34.5246 72.9197 34.1932 73.4434 33.9578C73.9703 33.7192 74.5587 33.5999 75.2083 33.5999C75.8645 33.5999 76.4479 33.7175 76.9583 33.9529C77.4687 34.1849 77.873 34.503 78.1713 34.9074C78.473 35.3118 78.632 35.7708 78.6486 36.2845H77.4554ZM83.8576 44.08C83.1218 44.08 82.4871 43.9176 81.9535 43.5928C81.4232 43.2646 81.0138 42.8073 80.7255 42.2206C80.4405 41.6307 80.2979 40.9446 80.2979 40.1624C80.2979 39.3802 80.4405 38.6908 80.7255 38.0942C81.0138 37.4943 81.4149 37.027 81.9286 36.6922C82.4457 36.3541 83.0489 36.1851 83.7383 36.1851C84.136 36.1851 84.5288 36.2514 84.9165 36.384C85.3043 36.5165 85.6573 36.732 85.9755 37.0303C86.2937 37.3253 86.5472 37.7164 86.7362 38.2036C86.9251 38.6908 87.0195 39.2907 87.0195 40.0033V40.5004H81.1332V39.4862H85.8263C85.8263 39.0554 85.7402 38.6709 85.5678 38.3328C85.3988 37.9948 85.1568 37.728 84.842 37.5324C84.5304 37.3369 84.1625 37.2391 83.7383 37.2391C83.271 37.2391 82.8666 37.3551 82.5252 37.5871C82.1871 37.8158 81.927 38.1141 81.7447 38.482C81.5624 38.8499 81.4712 39.2443 81.4712 39.6652V40.3414C81.4712 40.9181 81.5707 41.4069 81.7695 41.808C81.9717 42.2057 82.2518 42.509 82.6097 42.7178C82.9677 42.9233 83.3836 43.026 83.8576 43.026C84.1658 43.026 84.4442 42.9829 84.6928 42.8968C84.9447 42.8073 85.1618 42.6747 85.3441 42.499C85.5264 42.32 85.6673 42.098 85.7667 41.8328L86.9002 42.151C86.7809 42.5355 86.5804 42.8735 86.2987 43.1652C86.0169 43.4536 85.6689 43.6789 85.2546 43.8414C84.8403 44.0004 84.3746 44.08 83.8576 44.08ZM92.1254 36.2845V37.2789H88.168V36.2845H92.1254ZM89.3214 34.455H90.4947V41.7334C90.4947 42.0648 90.5427 42.3134 90.6388 42.4791C90.7383 42.6415 90.8642 42.7509 91.0167 42.8073C91.1725 42.8603 91.3365 42.8868 91.5089 42.8868C91.6381 42.8868 91.7442 42.8802 91.8271 42.8669C91.9099 42.8503 91.9762 42.8371 92.0259 42.8271L92.2646 43.8811C92.185 43.911 92.074 43.9408 91.9315 43.9706C91.7889 44.0038 91.6083 44.0203 91.3896 44.0203C91.0581 44.0203 90.7333 43.9491 90.4151 43.8066C90.1003 43.664 89.8384 43.4469 89.6296 43.1553C89.4241 42.8636 89.3214 42.4957 89.3214 42.0516V34.455ZM102.64 40.7987V36.2845H103.814V43.9209H102.64V42.6283H102.561C102.382 43.0161 102.103 43.3459 101.725 43.6176C101.348 43.8861 100.87 44.0203 100.294 44.0203C99.8164 44.0203 99.3922 43.9159 99.021 43.7071C98.6497 43.495 98.3581 43.1768 98.146 42.7526C97.9338 42.325 97.8278 41.7864 97.8278 41.1368V36.2845H99.0011V41.0573C99.0011 41.6141 99.1568 42.0582 99.4684 42.3896C99.7833 42.7211 100.184 42.8868 100.672 42.8868C100.963 42.8868 101.26 42.8122 101.561 42.6631C101.866 42.5139 102.122 42.2852 102.327 41.977C102.536 41.6688 102.64 41.276 102.64 40.7987ZM105.963 46.7845V36.2845H107.096V37.4976H107.235C107.321 37.365 107.441 37.196 107.593 36.9905C107.749 36.7817 107.971 36.5961 108.259 36.4337C108.551 36.268 108.945 36.1851 109.443 36.1851C110.086 36.1851 110.652 36.3459 111.143 36.6673C111.633 36.9888 112.016 37.4446 112.291 38.0345C112.566 38.6245 112.704 39.3205 112.704 40.1226C112.704 40.9313 112.566 41.6323 112.291 42.2256C112.016 42.8155 111.635 43.2729 111.148 43.5977C110.661 43.9192 110.099 44.08 109.463 44.08C108.972 44.08 108.579 43.9988 108.284 43.8364C107.989 43.6707 107.762 43.4834 107.603 43.2746C107.444 43.0625 107.321 42.8868 107.235 42.7476H107.136V46.7845H105.963ZM107.116 40.1027C107.116 40.6794 107.2 41.1882 107.369 41.629C107.539 42.0665 107.785 42.4095 108.11 42.6581C108.435 42.9034 108.833 43.026 109.303 43.026C109.794 43.026 110.203 42.8968 110.531 42.6382C110.863 42.3764 111.111 42.0251 111.277 41.5843C111.446 41.1401 111.531 40.6463 111.531 40.1027C111.531 39.5658 111.448 39.0819 111.282 38.651C111.12 38.2168 110.873 37.8738 110.541 37.6219C110.213 37.3667 109.801 37.2391 109.303 37.2391C108.826 37.2391 108.425 37.3601 108.1 37.602C107.776 37.8406 107.53 38.1754 107.365 38.6063C107.199 39.0338 107.116 39.5326 107.116 40.1027ZM119.187 46.7845C118.988 46.7845 118.811 46.768 118.655 46.7348C118.499 46.705 118.392 46.6752 118.332 46.6453L118.63 45.6112C118.915 45.6842 119.167 45.7107 119.386 45.6908C119.605 45.6709 119.798 45.5731 119.968 45.3975C120.14 45.2251 120.297 44.945 120.44 44.5573L120.659 43.9607L117.835 36.2845H119.107L121.215 42.3698H121.295L123.403 36.2845H124.676L121.434 45.0345C121.288 45.4289 121.108 45.7554 120.892 46.0139C120.677 46.2758 120.427 46.4697 120.142 46.5956C119.86 46.7216 119.542 46.7845 119.187 46.7845ZM129.053 44.08C128.364 44.08 127.759 43.9159 127.238 43.5878C126.721 43.2597 126.317 42.8006 126.025 42.2107C125.737 41.6207 125.593 40.9313 125.593 40.1425C125.593 39.347 125.737 38.6527 126.025 38.0594C126.317 37.4661 126.721 37.0054 127.238 36.6773C127.759 36.3492 128.364 36.1851 129.053 36.1851C129.742 36.1851 130.346 36.3492 130.863 36.6773C131.383 37.0054 131.787 37.4661 132.076 38.0594C132.367 38.6527 132.513 39.347 132.513 40.1425C132.513 40.9313 132.367 41.6207 132.076 42.2107C131.787 42.8006 131.383 43.2597 130.863 43.5878C130.346 43.9159 129.742 44.08 129.053 44.08ZM129.053 43.026C129.577 43.026 130.008 42.8918 130.346 42.6233C130.684 42.3548 130.934 42.0019 131.096 41.5644C131.259 41.1269 131.34 40.6529 131.34 40.1425C131.34 39.6321 131.259 39.1565 131.096 38.7156C130.934 38.2748 130.684 37.9185 130.346 37.6468C130.008 37.375 129.577 37.2391 129.053 37.2391C128.529 37.2391 128.099 37.375 127.76 37.6468C127.422 37.9185 127.172 38.2748 127.01 38.7156C126.847 39.1565 126.766 39.6321 126.766 40.1425C126.766 40.6529 126.847 41.1269 127.01 41.5644C127.172 42.0019 127.422 42.3548 127.76 42.6233C128.099 42.8918 128.529 43.026 129.053 43.026ZM139.117 40.7987V36.2845H140.29V43.9209H139.117V42.6283H139.037C138.858 43.0161 138.58 43.3459 138.202 43.6176C137.824 43.8861 137.347 44.0203 136.77 44.0203C136.293 44.0203 135.869 43.9159 135.498 43.7071C135.126 43.495 134.835 43.1768 134.623 42.7526C134.41 42.325 134.304 41.7864 134.304 41.1368V36.2845H135.478V41.0573C135.478 41.6141 135.633 42.0582 135.945 42.3896C136.26 42.7211 136.661 42.8868 137.148 42.8868C137.44 42.8868 137.736 42.8122 138.038 42.6631C138.343 42.5139 138.598 42.2852 138.804 41.977C139.012 41.6688 139.117 41.276 139.117 40.7987ZM142.439 43.9209V36.2845H143.573V37.4379H143.652C143.791 37.0601 144.043 36.7535 144.408 36.5182C144.772 36.2829 145.183 36.1652 145.641 36.1652C145.727 36.1652 145.835 36.1669 145.964 36.1702C146.093 36.1735 146.191 36.1785 146.257 36.1851V37.3783C146.218 37.3683 146.126 37.3534 145.984 37.3335C145.845 37.3103 145.697 37.2987 145.541 37.2987C145.17 37.2987 144.839 37.3766 144.547 37.5324C144.259 37.6849 144.03 37.897 143.861 38.1688C143.695 38.4372 143.612 38.7438 143.612 39.0885V43.9209H142.439ZM160.336 38.83C160.336 39.9039 160.142 40.8319 159.754 41.6141C159.366 42.3963 158.834 42.9995 158.158 43.4237C157.482 43.848 156.71 44.0601 155.841 44.0601C154.973 44.0601 154.201 43.848 153.525 43.4237C152.848 42.9995 152.316 42.3963 151.929 41.6141C151.541 40.8319 151.347 39.9039 151.347 38.83C151.347 37.7561 151.541 36.8281 151.929 36.0459C152.316 35.2637 152.848 34.6605 153.525 34.2362C154.201 33.812 154.973 33.5999 155.841 33.5999C156.71 33.5999 157.482 33.812 158.158 34.2362C158.834 34.6605 159.366 35.2637 159.754 36.0459C160.142 36.8281 160.336 37.7561 160.336 38.83ZM159.142 38.83C159.142 37.9484 158.995 37.2043 158.7 36.5977C158.408 35.9912 158.012 35.5322 157.512 35.2206C157.015 34.9091 156.458 34.7533 155.841 34.7533C155.225 34.7533 154.666 34.9091 154.166 35.2206C153.669 35.5322 153.273 35.9912 152.978 36.5977C152.686 37.2043 152.54 37.9484 152.54 38.83C152.54 39.7116 152.686 40.4557 152.978 41.0622C153.273 41.6688 153.669 42.1278 154.166 42.4394C154.666 42.7509 155.225 42.9067 155.841 42.9067C156.458 42.9067 157.015 42.7509 157.512 42.4394C158.012 42.1278 158.408 41.6688 158.7 41.0622C158.995 40.4557 159.142 39.7116 159.142 38.83ZM162.409 43.9209V33.7391H163.582V37.4976H163.681C163.768 37.365 163.887 37.196 164.039 36.9905C164.195 36.7817 164.417 36.5961 164.706 36.4337C164.997 36.268 165.392 36.1851 165.889 36.1851C166.532 36.1851 167.099 36.3459 167.589 36.6673C168.08 36.9888 168.462 37.4446 168.738 38.0345C169.013 38.6245 169.15 39.3205 169.15 40.1226C169.15 40.9313 169.013 41.6323 168.738 42.2256C168.462 42.8155 168.081 43.2729 167.594 43.5977C167.107 43.9192 166.545 44.08 165.909 44.08C165.418 44.08 165.025 43.9988 164.73 43.8364C164.435 43.6707 164.208 43.4834 164.049 43.2746C163.89 43.0625 163.768 42.8868 163.681 42.7476H163.542V43.9209H162.409ZM163.562 40.1027C163.562 40.6794 163.647 41.1882 163.816 41.629C163.985 42.0665 164.232 42.4095 164.556 42.6581C164.881 42.9034 165.279 43.026 165.75 43.026C166.24 43.026 166.65 42.8968 166.978 42.6382C167.309 42.3764 167.558 42.0251 167.723 41.5843C167.892 41.1401 167.977 40.6463 167.977 40.1027C167.977 39.5658 167.894 39.0819 167.728 38.651C167.566 38.2168 167.319 37.8738 166.988 37.6219C166.659 37.3667 166.247 37.2391 165.75 37.2391C165.272 37.2391 164.871 37.3601 164.547 37.602C164.222 37.8406 163.976 38.1754 163.811 38.6063C163.645 39.0338 163.562 39.5326 163.562 40.1027ZM170.945 46.7845V36.2845H172.078V37.4976H172.218C172.304 37.365 172.423 37.196 172.576 36.9905C172.731 36.7817 172.953 36.5961 173.242 36.4337C173.533 36.268 173.928 36.1851 174.425 36.1851C175.068 36.1851 175.635 36.3459 176.125 36.6673C176.616 36.9888 176.999 37.4446 177.274 38.0345C177.549 38.6245 177.686 39.3205 177.686 40.1226C177.686 40.9313 177.549 41.6323 177.274 42.2256C176.999 42.8155 176.618 43.2729 176.13 43.5977C175.643 43.9192 175.081 44.08 174.445 44.08C173.954 44.08 173.562 43.9988 173.267 43.8364C172.972 43.6707 172.745 43.4834 172.586 43.2746C172.426 43.0625 172.304 42.8868 172.218 42.7476H172.118V46.7845H170.945ZM172.098 40.1027C172.098 40.6794 172.183 41.1882 172.352 41.629C172.521 42.0665 172.768 42.4095 173.093 42.6581C173.417 42.9034 173.815 43.026 174.286 43.026C174.776 43.026 175.186 42.8968 175.514 42.6382C175.845 42.3764 176.094 42.0251 176.26 41.5843C176.429 41.1401 176.513 40.6463 176.513 40.1027C176.513 39.5658 176.43 39.0819 176.265 38.651C176.102 38.2168 175.855 37.8738 175.524 37.6219C175.196 37.3667 174.783 37.2391 174.286 37.2391C173.809 37.2391 173.408 37.3601 173.083 37.602C172.758 37.8406 172.513 38.1754 172.347 38.6063C172.181 39.0338 172.098 39.5326 172.098 40.1027ZM181.723 44.0999C181.239 44.0999 180.8 44.0087 180.406 43.8264C180.011 43.6408 179.698 43.374 179.466 43.026C179.234 42.6747 179.118 42.2504 179.118 41.7533C179.118 41.3158 179.204 40.9611 179.377 40.6894C179.549 40.4143 179.779 40.1988 180.068 40.0431C180.356 39.8873 180.674 39.7713 181.022 39.695C181.374 39.6155 181.727 39.5525 182.081 39.5061C182.545 39.4465 182.922 39.4017 183.21 39.3719C183.502 39.3387 183.714 39.2841 183.846 39.2078C183.982 39.1316 184.05 38.999 184.05 38.8101V38.7703C184.05 38.2798 183.916 37.8986 183.647 37.6269C183.382 37.3551 182.98 37.2192 182.439 37.2192C181.879 37.2192 181.44 37.3418 181.122 37.5871C180.804 37.8324 180.58 38.0942 180.451 38.3726L179.337 37.9749C179.536 37.5109 179.801 37.1496 180.132 36.8911C180.467 36.6292 180.832 36.4469 181.226 36.3442C181.624 36.2381 182.015 36.1851 182.4 36.1851C182.645 36.1851 182.926 36.2149 183.245 36.2746C183.566 36.3309 183.876 36.4486 184.174 36.6276C184.476 36.8066 184.726 37.0767 184.925 37.4379C185.124 37.7992 185.223 38.2831 185.223 38.8896V43.9209H184.05V42.8868H183.99C183.911 43.0525 183.778 43.2298 183.593 43.4188C183.407 43.6077 183.16 43.7684 182.852 43.901C182.544 44.0336 182.167 44.0999 181.723 44.0999ZM181.902 43.0459C182.366 43.0459 182.757 42.9548 183.076 42.7725C183.397 42.5902 183.639 42.3548 183.801 42.0665C183.967 41.7781 184.05 41.4749 184.05 41.1567V40.0828C184 40.1425 183.891 40.1972 183.722 40.2469C183.556 40.2933 183.364 40.3347 183.145 40.3712C182.93 40.4043 182.719 40.4342 182.514 40.4607C182.312 40.4839 182.148 40.5038 182.022 40.5203C181.717 40.5601 181.432 40.6247 181.167 40.7142C180.905 40.8004 180.693 40.9313 180.53 41.107C180.371 41.2793 180.292 41.5146 180.292 41.8129C180.292 42.2206 180.442 42.5289 180.744 42.7377C181.049 42.9432 181.435 43.0459 181.902 43.0459ZM187.365 43.9209V36.2845H188.498V37.4379H188.578C188.717 37.0601 188.969 36.7535 189.334 36.5182C189.698 36.2829 190.109 36.1652 190.567 36.1652C190.653 36.1652 190.76 36.1669 190.89 36.1702C191.019 36.1735 191.117 36.1785 191.183 36.1851V37.3783C191.143 37.3683 191.052 37.3534 190.91 37.3335C190.77 37.3103 190.623 37.2987 190.467 37.2987C190.096 37.2987 189.765 37.3766 189.473 37.5324C189.184 37.6849 188.956 37.897 188.787 38.1688C188.621 38.4372 188.538 38.7438 188.538 39.0885V43.9209H187.365ZM193.668 41.1368L193.648 39.6851H193.886L197.227 36.2845H198.679L195.119 39.884H195.02L193.668 41.1368ZM192.574 43.9209V33.7391H193.747V43.9209H192.574ZM197.426 43.9209L194.443 40.1425L195.278 39.3271L198.918 43.9209H197.426ZM206.374 44.0999C205.89 44.0999 205.451 44.0087 205.056 43.8264C204.662 43.6408 204.349 43.374 204.117 43.026C203.885 42.6747 203.769 42.2504 203.769 41.7533C203.769 41.3158 203.855 40.9611 204.027 40.6894C204.2 40.4143 204.43 40.1988 204.718 40.0431C205.007 39.8873 205.325 39.7713 205.673 39.695C206.024 39.6155 206.377 39.5525 206.732 39.5061C207.196 39.4465 207.572 39.4017 207.86 39.3719C208.152 39.3387 208.364 39.2841 208.497 39.2078C208.633 39.1316 208.7 38.999 208.7 38.8101V38.7703C208.7 38.2798 208.566 37.8986 208.298 37.6269C208.033 37.3551 207.63 37.2192 207.09 37.2192C206.53 37.2192 206.09 37.3418 205.772 37.5871C205.454 37.8324 205.23 38.0942 205.101 38.3726L203.987 37.9749C204.186 37.5109 204.451 37.1496 204.783 36.8911C205.118 36.6292 205.482 36.4469 205.877 36.3442C206.274 36.2381 206.665 36.1851 207.05 36.1851C207.295 36.1851 207.577 36.2149 207.895 36.2746C208.217 36.3309 208.526 36.4486 208.825 36.6276C209.126 36.8066 209.377 37.0767 209.575 37.4379C209.774 37.7992 209.874 38.2831 209.874 38.8896V43.9209H208.7V42.8868H208.641C208.561 43.0525 208.429 43.2298 208.243 43.4188C208.057 43.6077 207.811 43.7684 207.502 43.901C207.194 44.0336 206.818 44.0999 206.374 44.0999ZM206.553 43.0459C207.017 43.0459 207.408 42.9548 207.726 42.7725C208.048 42.5902 208.289 42.3548 208.452 42.0665C208.618 41.7781 208.7 41.4749 208.7 41.1567V40.0828C208.651 40.1425 208.541 40.1972 208.372 40.2469C208.207 40.2933 208.014 40.3347 207.796 40.3712C207.58 40.4043 207.37 40.4342 207.164 40.4607C206.962 40.4839 206.798 40.5038 206.672 40.5203C206.367 40.5601 206.082 40.6247 205.817 40.7142C205.555 40.8004 205.343 40.9313 205.181 41.107C205.021 41.2793 204.942 41.5146 204.942 41.8129C204.942 42.2206 205.093 42.5289 205.394 42.7377C205.699 42.9432 206.085 43.0459 206.553 43.0459ZM215.118 44.08C214.402 44.08 213.785 43.911 213.268 43.5729C212.751 43.2348 212.353 42.7691 212.075 42.1759C211.797 41.5826 211.657 40.9048 211.657 40.1425C211.657 39.3669 211.8 38.6825 212.085 38.0892C212.373 37.4926 212.774 37.027 213.288 36.6922C213.805 36.3541 214.408 36.1851 215.098 36.1851C215.635 36.1851 216.118 36.2845 216.549 36.4834C216.98 36.6823 217.333 36.9607 217.608 37.3186C217.883 37.6766 218.054 38.0942 218.12 38.5715H216.947C216.858 38.2235 216.659 37.9152 216.35 37.6468C216.046 37.375 215.635 37.2391 215.118 37.2391C214.66 37.2391 214.259 37.3584 213.914 37.597C213.573 37.8324 213.306 38.1655 213.114 38.5963C212.925 39.0239 212.831 39.526 212.831 40.1027C212.831 40.6927 212.923 41.2064 213.109 41.6439C213.298 42.0814 213.563 42.4211 213.904 42.6631C214.249 42.905 214.654 43.026 215.118 43.026C215.422 43.026 215.699 42.973 215.948 42.8669C216.196 42.7609 216.407 42.6084 216.579 42.4095C216.752 42.2107 216.874 41.972 216.947 41.6936H218.12C218.054 42.1444 217.89 42.5504 217.628 42.9117C217.37 43.2696 217.027 43.5547 216.599 43.7668C216.175 43.9756 215.681 44.08 215.118 44.08ZM222.938 44.08C222.222 44.08 221.605 43.911 221.088 43.5729C220.571 43.2348 220.174 42.7691 219.895 42.1759C219.617 41.5826 219.478 40.9048 219.478 40.1425C219.478 39.3669 219.62 38.6825 219.905 38.0892C220.194 37.4926 220.595 37.027 221.108 36.6922C221.625 36.3541 222.229 36.1851 222.918 36.1851C223.455 36.1851 223.939 36.2845 224.37 36.4834C224.801 36.6823 225.154 36.9607 225.429 37.3186C225.704 37.6766 225.874 38.0942 225.941 38.5715H224.767C224.678 38.2235 224.479 37.9152 224.171 37.6468C223.866 37.375 223.455 37.2391 222.938 37.2391C222.48 37.2391 222.079 37.3584 221.735 37.597C221.393 37.8324 221.127 38.1655 220.934 38.5963C220.745 39.0239 220.651 39.526 220.651 40.1027C220.651 40.6927 220.744 41.2064 220.929 41.6439C221.118 42.0814 221.383 42.4211 221.725 42.6631C222.069 42.905 222.474 43.026 222.938 43.026C223.243 43.026 223.52 42.973 223.768 42.8669C224.017 42.7609 224.227 42.6084 224.4 42.4095C224.572 42.2107 224.694 41.972 224.767 41.6936H225.941C225.874 42.1444 225.71 42.5504 225.449 42.9117C225.19 43.2696 224.847 43.5547 224.419 43.7668C223.995 43.9756 223.501 44.08 222.938 44.08ZM230.758 44.08C230.069 44.08 229.464 43.9159 228.944 43.5878C228.426 43.2597 228.022 42.8006 227.73 42.2107C227.442 41.6207 227.298 40.9313 227.298 40.1425C227.298 39.347 227.442 38.6527 227.73 38.0594C228.022 37.4661 228.426 37.0054 228.944 36.6773C229.464 36.3492 230.069 36.1851 230.758 36.1851C231.448 36.1851 232.051 36.3492 232.568 36.6773C233.088 37.0054 233.493 37.4661 233.781 38.0594C234.073 38.6527 234.218 39.347 234.218 40.1425C234.218 40.9313 234.073 41.6207 233.781 42.2107C233.493 42.8006 233.088 43.2597 232.568 43.5878C232.051 43.9159 231.448 44.08 230.758 44.08ZM230.758 43.026C231.282 43.026 231.713 42.8918 232.051 42.6233C232.389 42.3548 232.639 42.0019 232.801 41.5644C232.964 41.1269 233.045 40.6529 233.045 40.1425C233.045 39.6321 232.964 39.1565 232.801 38.7156C232.639 38.2748 232.389 37.9185 232.051 37.6468C231.713 37.375 231.282 37.2391 230.758 37.2391C230.234 37.2391 229.804 37.375 229.466 37.6468C229.127 37.9185 228.877 38.2748 228.715 38.7156C228.552 39.1565 228.471 39.6321 228.471 40.1425C228.471 40.6529 228.552 41.1269 228.715 41.5644C228.877 42.0019 229.127 42.3548 229.466 42.6233C229.804 42.8918 230.234 43.026 230.758 43.026ZM240.822 40.7987V36.2845H241.995V43.9209H240.822V42.6283H240.742C240.563 43.0161 240.285 43.3459 239.907 43.6176C239.529 43.8861 239.052 44.0203 238.475 44.0203C237.998 44.0203 237.574 43.9159 237.203 43.7071C236.831 43.495 236.54 43.1768 236.328 42.7526C236.115 42.325 236.009 41.7864 236.009 41.1368V36.2845H237.183V41.0573C237.183 41.6141 237.338 42.0582 237.65 42.3896C237.965 42.7211 238.366 42.8868 238.853 42.8868C239.145 42.8868 239.441 42.8122 239.743 42.6631C240.048 42.5139 240.303 42.2852 240.509 41.977C240.718 41.6688 240.822 41.276 240.822 40.7987ZM245.317 39.3271V43.9209H244.144V36.2845H245.278V37.4777H245.377C245.556 37.0899 245.828 36.7784 246.192 36.5431C246.557 36.3044 247.028 36.1851 247.604 36.1851C248.121 36.1851 248.574 36.2912 248.962 36.5033C249.349 36.7121 249.651 37.0303 249.866 37.4578C250.082 37.8821 250.19 38.419 250.19 39.0686V43.9209H249.016V39.1482C249.016 38.5483 248.861 38.0809 248.549 37.7462C248.237 37.4081 247.81 37.2391 247.266 37.2391C246.892 37.2391 246.557 37.3203 246.262 37.4827C245.97 37.6451 245.74 37.8821 245.571 38.1936C245.402 38.5052 245.317 38.883 245.317 39.3271ZM255.655 36.2845V37.2789H251.697V36.2845H255.655ZM252.851 34.455H254.024V41.7334C254.024 42.0648 254.072 42.3134 254.168 42.4791C254.268 42.6415 254.394 42.7509 254.546 42.8073C254.702 42.8603 254.866 42.8868 255.038 42.8868C255.167 42.8868 255.273 42.8802 255.356 42.8669C255.439 42.8503 255.506 42.8371 255.555 42.8271L255.794 43.8811C255.714 43.911 255.603 43.9408 255.461 43.9706C255.318 44.0038 255.138 44.0203 254.919 44.0203C254.587 44.0203 254.263 43.9491 253.944 43.8066C253.63 43.664 253.368 43.4469 253.159 43.1553C252.953 42.8636 252.851 42.4957 252.851 42.0516V34.455Z" fill="#00392F"/>
</svg>
