<svg width="284" height="255" viewBox="0 0 284 255" fill="none" xmlns="http://www.w3.org/2000/svg">
<g clip-path="url(#clip0_2_3230)">
<path d="M95.2895 245.326L0 254.278V29.9525L95.2895 21.0007V245.326Z" fill="url(#paint0_linear_2_3230)"/>
<path d="M95.2895 245.326L190.579 254.278V29.9525L95.2895 21.0007V245.326Z" fill="url(#paint1_linear_2_3230)"/>
<path d="M284 245.326L190.579 254.278V29.9525L284 21.0007V245.326Z" fill="url(#paint2_linear_2_3230)"/>
<path d="M95.627 239.099L3.03583 247.7V32.1602L95.627 23.5588V239.099Z" fill="#F5F5F5"/>
<path d="M95.6271 239.099L188.218 247.7V32.1602L95.6271 23.5588V239.099Z" fill="white"/>
<path d="M280.809 239.099L188.218 247.7V32.1602L280.809 23.5588V239.099Z" fill="#F5F5F5"/>
<path opacity="0.3" d="M95.627 43.3535L25.2982 45.8211V55.4345V68.5893V78.2028H85.0016V66.4945L95.627 66.1217L111.818 71.1193V48.3511L95.627 43.3535Z" fill="#074139"/>
<path opacity="0.3" d="M95.627 224.426L16.6969 232.016V203.176L95.627 195.586V224.426Z" fill="#074139"/>
<path opacity="0.3" d="M86.9879 135.155L8.05777 142.745V113.905L86.9879 106.315V135.155Z" fill="#074139"/>
<path opacity="0.3" d="M176.581 202.164H142.176V228.474H176.581V202.164Z" fill="#074139"/>
<path opacity="0.3" d="M165.382 140.41H130.977V166.72H165.382V140.41Z" fill="#074139"/>
<path opacity="0.3" d="M179.461 58.1785H145.055V84.4885H179.461V58.1785Z" fill="#074139"/>
<path opacity="0.3" d="M267.654 216.331L214.022 220.884V185.973L267.654 181.419V216.331Z" fill="#074139"/>
<path opacity="0.3" d="M261.255 93.4631L207.623 98.0169V63.1055L261.255 58.5518V93.4631Z" fill="#074139"/>
<path d="M256.639 28.601C256.639 41.1179 234.759 76.5639 234.759 76.5639C234.759 76.5639 212.879 41.1179 212.879 28.601C212.879 16.0842 222.675 5.93726 234.759 5.93726C246.843 5.93726 256.639 16.0842 256.639 28.601Z" fill="url(#paint3_linear_2_3230)"/>
<path d="M234.758 33.8716C238.412 33.8716 241.373 30.804 241.373 27.0198C241.373 23.2356 238.412 20.168 234.758 20.168C231.105 20.168 228.144 23.2356 228.144 27.0198C228.144 30.804 231.105 33.8716 234.758 33.8716Z" fill="url(#paint4_linear_2_3230)"/>
<path d="M255.005 28.6416C255.005 39.8235 234.758 71.4892 234.758 71.4892C234.758 71.4892 214.512 39.8235 214.512 28.6416C214.512 23.2719 216.645 18.1221 220.442 14.3251C224.239 10.5281 229.389 8.39502 234.758 8.39502C240.128 8.39502 245.278 10.5281 249.075 14.3251C252.872 18.1221 255.005 23.2719 255.005 28.6416Z" fill="#074139"/>
<path d="M234.758 33.3503C238.139 33.3503 240.88 30.6098 240.88 27.2292C240.88 23.8487 238.139 21.1082 234.758 21.1082C231.378 21.1082 228.637 23.8487 228.637 27.2292C228.637 30.6098 231.378 33.3503 234.758 33.3503Z" fill="white"/>
<path d="M72.1057 170.438C72.1057 183.043 49.5763 218.739 49.5763 218.739C49.5763 218.739 27.047 183.043 27.047 170.438C27.047 157.832 37.1337 147.614 49.5763 147.614C62.019 147.614 72.1057 157.832 72.1057 170.438Z" fill="url(#paint5_linear_2_3230)"/>
<path d="M49.5761 175.745C53.3378 175.745 56.3873 172.656 56.3873 168.845C56.3873 165.034 53.3378 161.945 49.5761 161.945C45.8144 161.945 42.7649 165.034 42.7649 168.845C42.7649 172.656 45.8144 175.745 49.5761 175.745Z" fill="url(#paint6_linear_2_3230)"/>
<path d="M69.8228 170.311C69.8228 181.493 49.5762 213.159 49.5762 213.159C49.5762 213.159 29.3295 181.493 29.3295 170.311C29.3285 167.652 29.8514 165.018 30.8684 162.561C31.8854 160.103 33.3766 157.87 35.2568 155.99C37.137 154.109 39.3693 152.617 41.8262 151.599C44.2832 150.581 46.9167 150.057 49.5762 150.057C52.2357 150.057 54.8691 150.581 57.3261 151.599C59.783 152.617 62.0154 154.109 63.8955 155.99C65.7757 157.87 67.2669 160.103 68.2839 162.561C69.3009 165.018 69.8238 167.652 69.8228 170.311H69.8228Z" fill="#074139"/>
<path d="M49.5762 175.02C52.9568 175.02 55.6973 172.279 55.6973 168.899C55.6973 165.518 52.9568 162.778 49.5762 162.778C46.1956 162.778 43.4551 165.518 43.4551 168.899C43.4551 172.279 46.1956 175.02 49.5762 175.02Z" fill="white"/>
<path d="M179.572 171.911C179.572 183.093 159.325 214.759 159.325 214.759C159.325 214.759 139.078 183.093 139.078 171.911C139.077 169.252 139.6 166.618 140.617 164.161C141.634 161.703 143.125 159.47 145.006 157.589C146.886 155.708 149.118 154.216 151.575 153.198C154.032 152.18 156.665 151.656 159.325 151.656C161.984 151.656 164.618 152.18 167.075 153.198C169.532 154.216 171.764 155.708 173.644 157.589C175.525 159.47 177.016 161.703 178.033 164.161C179.05 166.618 179.573 169.252 179.572 171.911Z" fill="#074139"/>
<path d="M159.325 176.62C162.706 176.62 165.446 173.879 165.446 170.499C165.446 167.118 162.706 164.377 159.325 164.377C155.944 164.377 153.204 167.118 153.204 170.499C153.204 173.879 155.944 176.62 159.325 176.62Z" fill="white"/>
<path d="M258.924 159.113C258.924 170.294 238.677 201.96 238.677 201.96C238.677 201.96 218.43 170.294 218.43 159.113C218.43 153.743 220.563 148.593 224.36 144.796C228.157 140.999 233.307 138.866 238.677 138.866C244.047 138.866 249.196 140.999 252.993 144.796C256.79 148.593 258.924 153.743 258.924 159.113Z" fill="#074139"/>
<path d="M238.677 163.821C242.057 163.821 244.798 161.081 244.798 157.7C244.798 154.319 242.057 151.579 238.677 151.579C235.296 151.579 232.556 154.319 232.556 157.7C232.556 161.081 235.296 163.821 238.677 163.821Z" fill="white"/>
<path d="M80.0618 20.2466C80.0618 31.4285 59.8151 63.0941 59.8151 63.0941C59.8151 63.0941 39.5685 31.4285 39.5685 20.2466C39.5674 17.5871 40.0903 14.9535 41.1074 12.4961C42.1244 10.0387 43.6156 7.80581 45.4957 5.92489C47.3759 4.04396 49.6082 2.55189 52.0652 1.5339C54.5222 0.515905 57.1556 -0.00805664 59.8151 -0.00805664C62.4746 -0.00805664 65.1081 0.515905 67.565 1.5339C70.022 2.55189 72.2543 4.04396 74.1345 5.92489C76.0147 7.80581 77.5059 10.0387 78.5229 12.4961C79.5399 14.9535 80.0628 17.5871 80.0617 20.2466H80.0618Z" fill="#074139"/>
<path d="M59.8152 24.955C63.1958 24.955 65.9363 22.2145 65.9363 18.834C65.9363 15.4534 63.1958 12.7129 59.8152 12.7129C56.4347 12.7129 53.6942 15.4534 53.6942 18.834C53.6942 22.2145 56.4347 24.955 59.8152 24.955Z" fill="white"/>
</g>
<defs>
<linearGradient id="paint0_linear_2_3230" x1="47.6448" y1="254.278" x2="47.6448" y2="21.0006" gradientUnits="userSpaceOnUse">
<stop stop-color="#808080" stop-opacity="0.25"/>
<stop offset="0.53514" stop-color="#808080" stop-opacity="0.12"/>
<stop offset="1" stop-color="#808080" stop-opacity="0.1"/>
</linearGradient>
<linearGradient id="paint1_linear_2_3230" x1="42662.7" y1="185406" x2="42662.7" y2="15331.8" gradientUnits="userSpaceOnUse">
<stop stop-color="#808080" stop-opacity="0.25"/>
<stop offset="0.53514" stop-color="#808080" stop-opacity="0.12"/>
<stop offset="1" stop-color="#808080" stop-opacity="0.1"/>
</linearGradient>
<linearGradient id="paint2_linear_2_3230" x1="69472" y1="185406" x2="69472" y2="15331.8" gradientUnits="userSpaceOnUse">
<stop stop-color="#808080" stop-opacity="0.25"/>
<stop offset="0.53514" stop-color="#808080" stop-opacity="0.12"/>
<stop offset="1" stop-color="#808080" stop-opacity="0.1"/>
</linearGradient>
<linearGradient id="paint3_linear_2_3230" x1="234.759" y1="76.5639" x2="234.759" y2="5.93726" gradientUnits="userSpaceOnUse">
<stop stop-color="#B3B3B3" stop-opacity="0.25"/>
<stop offset="0.53514" stop-color="#B3B3B3" stop-opacity="0.1"/>
<stop offset="1" stop-color="#B3B3B3" stop-opacity="0.05"/>
</linearGradient>
<linearGradient id="paint4_linear_2_3230" x1="234.758" y1="33.8716" x2="234.758" y2="20.168" gradientUnits="userSpaceOnUse">
<stop stop-opacity="0.12"/>
<stop offset="0.55135" stop-opacity="0.09"/>
<stop offset="1" stop-opacity="0.02"/>
</linearGradient>
<linearGradient id="paint5_linear_2_3230" x1="14046.9" y1="52516.3" x2="14046.9" y2="36705.6" gradientUnits="userSpaceOnUse">
<stop stop-color="#B3B3B3" stop-opacity="0.25"/>
<stop offset="0.53514" stop-color="#B3B3B3" stop-opacity="0.1"/>
<stop offset="1" stop-color="#B3B3B3" stop-opacity="0.05"/>
</linearGradient>
<linearGradient id="paint6_linear_2_3230" x1="49.5761" y1="175.745" x2="49.5761" y2="161.945" gradientUnits="userSpaceOnUse">
<stop offset="0.00541" stop-opacity="0.12"/>
<stop offset="0.55135" stop-opacity="0.09"/>
<stop offset="1" stop-opacity="0.05"/>
</linearGradient>
<clipPath id="clip0_2_3230">
<rect width="284" height="254.278" fill="white"/>
</clipPath>
</defs>
</svg>
