<svg width="280" height="211" viewBox="0 0 280 211" fill="none" xmlns="http://www.w3.org/2000/svg">
<path d="M186.56 48.258C186.383 47.4898 186.056 46.764 185.598 46.1221C185.14 45.4802 184.561 44.9347 183.892 44.5168C183.223 44.099 182.479 43.8169 181.701 43.6867C180.924 43.5565 180.128 43.5807 179.36 43.758C178.592 43.9353 177.866 44.2621 177.224 44.7199C176.582 45.1777 176.037 45.7574 175.619 46.426C175.201 47.0946 174.919 47.8389 174.789 48.6165C174.659 49.3941 174.683 50.1898 174.86 50.958C177.113 59.9912 175.825 69.5442 171.26 77.658C161.36 94.758 139.16 100.758 122.06 90.858C104.96 81.258 98.96 59.058 108.86 41.958C118.76 24.858 140.96 18.858 158.06 28.758C158.73 29.152 159.471 29.4102 160.24 29.5178C161.01 29.6255 161.793 29.5806 162.545 29.3856C163.297 29.1906 164.003 28.8493 164.624 28.3813C165.244 27.9133 165.766 27.3277 166.16 26.658C166.554 25.9883 166.812 25.2475 166.92 24.4779C167.028 23.7084 166.983 22.9252 166.788 22.1731C166.593 21.4209 166.251 20.7145 165.783 20.0943C165.315 19.474 164.73 18.952 164.06 18.558C140.96 5.058 111.86 12.858 98.36 35.958C94.3879 42.7818 92.1561 50.4782 91.8616 58.3684C91.5671 66.2586 93.2189 74.1 96.6713 81.2009C100.124 88.3018 105.271 94.444 111.658 99.0855C118.045 103.727 125.477 106.725 133.297 107.816C141.117 108.906 149.085 108.056 156.498 105.339C163.912 102.622 170.543 98.1222 175.806 92.2367C181.07 86.3513 184.804 79.261 186.679 71.5913C188.555 63.9216 188.514 55.9082 186.56 48.258ZM120.86 54.858C119.507 53.9828 117.863 53.6807 116.287 54.0183C114.712 54.3559 113.335 55.3054 112.46 56.658C111.585 58.0106 111.283 59.6555 111.62 61.2308C111.958 62.8061 112.907 64.1828 114.26 65.058L138.26 80.058C139.25 80.6693 140.396 80.9818 141.56 80.958C142.488 80.9385 143.4 80.7131 144.23 80.2981C145.06 79.883 145.788 79.2887 146.36 78.558L177.86 38.058C179.96 35.358 179.36 31.758 176.66 29.658C173.96 27.558 170.36 28.158 168.26 30.858L140.06 66.858L120.86 54.858Z" fill="#074139"/>
<path d="M43.7689 142.994H48.5749L52.4809 147.8L56.2249 142.994H60.9949L54.4249 150.752V155H50.6449V150.752L43.7689 142.994ZM65.516 146.27C68.432 146.27 69.656 146.468 70.448 147.044C71.312 147.674 71.546 148.448 71.546 150.59C71.546 152.93 71.33 153.722 70.556 154.37C69.746 155.036 68.684 155.216 65.534 155.216C62.348 155.216 61.286 155.036 60.476 154.37C59.684 153.722 59.486 152.93 59.486 150.464C59.486 148.466 59.738 147.656 60.584 147.044C61.376 146.468 62.618 146.27 65.516 146.27ZM65.534 148.664C63.104 148.664 62.672 148.988 62.672 150.806C62.672 151.94 62.816 152.318 63.392 152.552C63.788 152.732 64.508 152.822 65.534 152.822C67.946 152.822 68.36 152.516 68.36 150.716C68.36 149.564 68.18 149.15 67.586 148.916C67.19 148.754 66.434 148.664 65.534 148.664ZM84.2118 155H81.2058V153.722H81.0438C80.5578 154.802 79.5498 155.216 77.4078 155.216C75.4278 155.216 74.3838 154.91 73.6098 154.136C72.8358 153.344 72.6738 152.696 72.6738 150.374V146.486H75.8598V150.374C75.8598 151.616 75.9498 152.012 76.2918 152.336C76.6698 152.696 77.1558 152.804 78.3618 152.804C79.4958 152.804 80.0718 152.678 80.4678 152.336C80.9178 151.94 81.0258 151.49 81.0258 149.906V146.486H84.2118V155ZM90.2562 142.994H94.0902V147.296H102.352V142.994H106.186V155H102.352V150.662H94.0902V155H90.2562V142.994ZM111.001 149.15H107.815C107.905 147.908 108.319 147.242 109.309 146.756C110.047 146.414 111.523 146.252 114.079 146.252C116.869 146.252 117.517 146.378 118.237 147.098C118.777 147.674 118.957 148.322 118.957 149.87V155H115.897V153.83H115.771C115.501 154.388 115.159 154.694 114.583 154.928C114.061 155.144 113.251 155.216 111.181 155.216C108.355 155.216 107.473 154.586 107.473 152.57C107.473 151.04 108.049 150.194 109.291 149.87C110.065 149.654 110.893 149.6 113.233 149.6C114.709 149.6 115.141 149.726 115.645 150.266H115.789V149.816C115.789 148.484 115.537 148.304 113.611 148.304C111.325 148.304 111.091 148.376 111.001 149.15ZM113.125 151.4C111.181 151.4 110.659 151.598 110.659 152.3C110.659 152.984 111.145 153.182 112.855 153.182C115.105 153.182 115.735 152.966 115.735 152.21C115.735 151.868 115.537 151.616 115.177 151.49C114.979 151.418 114.475 151.4 113.125 151.4ZM119.252 146.486H122.87L125.516 152.534L128.144 146.486H131.762L127.568 155H123.446L119.252 146.486ZM140.17 152.282H143.338C143.104 154.64 141.934 155.216 137.38 155.216C134.914 155.216 133.744 155 132.97 154.424C132.142 153.794 131.89 152.948 131.89 150.77C131.89 148.484 132.142 147.638 133.042 147.008C133.87 146.432 134.932 146.252 137.704 146.252C140.584 146.252 141.592 146.432 142.366 147.062C143.122 147.692 143.41 148.646 143.41 150.572C143.41 150.68 143.41 151.076 143.392 151.436H135.076C135.076 152.3 135.166 152.588 135.472 152.822C135.814 153.074 136.48 153.182 137.632 153.182C139.666 153.182 140.044 153.038 140.17 152.282ZM135.076 149.69H140.206C140.188 149.024 140.152 148.862 139.954 148.664C139.666 148.358 139.018 148.232 137.758 148.232C135.616 148.232 135.112 148.502 135.076 149.69ZM162.245 155L161.219 152.966H153.281L152.255 155H148.079L154.433 142.994H160.121L166.403 155H162.245ZM159.941 150.338L157.619 145.784H156.899L154.577 150.338H159.941ZM166.824 146.486H169.83V147.764H169.992C170.586 146.684 171.486 146.27 173.268 146.27C175.842 146.27 176.706 147.134 176.706 149.69V150.266H173.7C173.7 149.006 173.34 148.664 172.026 148.664C171.306 148.664 170.712 148.88 170.406 149.276C170.1 149.69 170.01 150.158 170.01 151.472V155H166.824V146.486ZM177.599 146.486H180.605V147.764H180.767C181.361 146.684 182.261 146.27 184.043 146.27C186.617 146.27 187.481 147.134 187.481 149.69V150.266H184.475C184.475 149.006 184.115 148.664 182.801 148.664C182.081 148.664 181.487 148.88 181.181 149.276C180.875 149.69 180.785 150.158 180.785 151.472V155H177.599V146.486ZM188.374 146.486H191.56V155H188.374V146.486ZM188.374 142.994H191.56V145.388H188.374V142.994ZM192.043 146.486H195.661L198.307 152.534L200.935 146.486H204.553L200.359 155H196.237L192.043 146.486ZM212.961 152.282H216.129C215.895 154.64 214.725 155.216 210.171 155.216C207.705 155.216 206.535 155 205.761 154.424C204.933 153.794 204.681 152.948 204.681 150.77C204.681 148.484 204.933 147.638 205.833 147.008C206.661 146.432 207.723 146.252 210.495 146.252C213.375 146.252 214.383 146.432 215.157 147.062C215.913 147.692 216.201 148.646 216.201 150.572C216.201 150.68 216.201 151.076 216.183 151.436H207.867C207.867 152.3 207.957 152.588 208.263 152.822C208.605 153.074 209.271 153.182 210.423 153.182C212.457 153.182 212.835 153.038 212.961 152.282ZM207.867 149.69H212.997C212.979 149.024 212.943 148.862 212.745 148.664C212.457 148.358 211.809 148.232 210.549 148.232C208.407 148.232 207.903 148.502 207.867 149.69ZM229.15 142.994V155H226.144V153.884H225.982C225.37 154.91 224.524 155.216 222.22 155.216C219.916 155.216 218.818 154.982 218.08 154.316C217.378 153.668 217.162 152.804 217.162 150.68C217.162 148.52 217.504 147.494 218.404 146.9C219.178 146.396 220.06 146.252 222.256 146.252C224.488 146.252 225.226 146.54 225.838 147.62H225.964V142.994H229.15ZM223.3 148.646C220.78 148.646 220.348 148.934 220.348 150.644C220.348 152.516 220.708 152.804 223.102 152.804C224.272 152.804 225.136 152.66 225.496 152.408C225.856 152.174 225.982 151.724 225.982 150.734C225.982 148.97 225.568 148.646 223.3 148.646ZM231.083 142.994H234.683V149.852H231.083V142.994ZM230.867 151.238H234.899V155H230.867V151.238Z" fill="#2E3231"/>
<path d="M11.6141 183V173.662H17.5221C20.6721 173.732 20.6721 173.732 21.2461 174.166C21.7781 174.572 22.0021 175.272 22.0021 176.546C22.0021 177.806 21.8061 178.478 21.3021 178.898C20.8121 179.332 20.4061 179.444 19.2581 179.472C18.9641 179.486 18.9641 179.486 17.5221 179.486H12.8601V183H11.6141ZM12.8601 178.394H17.5221C19.7901 178.394 19.9721 178.366 20.3501 178.058C20.6301 177.82 20.7281 177.47 20.7281 176.588C20.7281 175.622 20.6581 175.314 20.3781 175.104C20.0001 174.824 19.8601 174.796 17.5221 174.754H12.8601V178.394ZM23.85 173.662H24.872V183H23.85V173.662ZM34.1482 180.998H35.2262C35.1842 182.552 34.2742 183.084 31.6422 183.084C29.4722 183.084 28.4642 182.93 27.8902 182.524C27.2322 182.062 26.9102 181.166 26.9102 179.78C26.9102 178.24 27.2602 177.33 28.0582 176.868C28.6042 176.546 29.3462 176.434 30.9702 176.434C33.1962 176.434 33.9802 176.616 34.5822 177.288C35.0722 177.862 35.2122 178.45 35.2402 179.99H28.0162C28.0442 180.83 28.1842 181.334 28.4922 181.656C28.8842 182.062 29.5842 182.188 31.5302 182.188C33.0002 182.188 33.5742 182.076 33.9102 181.698C34.0782 181.53 34.1062 181.418 34.1482 180.998ZM28.0442 179.108H34.1062C34.0922 177.68 33.4622 177.33 30.9422 177.33C28.7022 177.33 28.1562 177.666 28.0442 179.108ZM38.3581 178.464H37.2801V178.184C37.2801 176.826 38.1061 176.434 40.9201 176.434C43.1181 176.434 43.8741 176.588 44.4201 177.162C44.8681 177.61 44.9661 178.044 44.9661 179.584V183H43.9441L43.9581 182.244H43.9161C43.4261 182.944 42.9501 183.084 40.9761 183.084C38.7081 183.084 38.0641 183 37.6021 182.664C37.1541 182.328 37.0001 181.936 37.0001 181.124C37.0001 180.116 37.2381 179.626 37.8821 179.36C38.2741 179.192 38.8761 179.136 40.3041 179.136C42.9641 179.136 43.4121 179.22 43.8601 179.836H43.9441V179.136C43.9441 178.464 43.8741 178.184 43.6361 177.904C43.2721 177.456 42.6841 177.33 40.9901 177.33C39.1141 177.33 38.6241 177.442 38.4421 177.918C38.4001 178.002 38.3721 178.184 38.3581 178.464ZM40.9761 180.046C39.2961 180.046 38.7781 180.088 38.4981 180.256C38.2181 180.424 38.0921 180.704 38.0921 181.138C38.0921 181.6 38.2321 181.838 38.5681 182.006C38.8621 182.146 39.5481 182.188 41.1861 182.188C43.3561 182.188 43.8741 181.978 43.8741 181.11C43.8741 180.27 43.2581 180.046 40.9761 180.046ZM46.9288 180.746H48.0208L48.0348 180.928C48.0348 181.488 48.0908 181.712 48.3008 181.866C48.6508 182.132 49.1268 182.188 51.1708 182.188C52.9068 182.188 53.4248 182.132 53.7328 181.908C53.9428 181.74 54.0408 181.516 54.0408 181.18C54.0408 180.41 53.6208 180.158 52.3188 180.172C52.0388 180.172 51.8288 180.172 49.3508 180.144C47.6428 180.116 47.0408 179.654 47.0408 178.352C47.0408 177.666 47.2508 177.204 47.6848 176.882C48.1468 176.56 49.0988 176.434 51.0588 176.434C53.2428 176.434 54.1248 176.63 54.6008 177.246C54.8388 177.54 54.8948 177.75 54.8948 178.52H53.8028C53.8028 178.044 53.7608 177.876 53.6068 177.736C53.3268 177.442 52.5568 177.33 51.0168 177.33C49.6168 177.33 48.7628 177.428 48.4548 177.624C48.2308 177.778 48.1328 178.002 48.1328 178.366C48.1328 179.08 48.5108 179.248 50.0648 179.22C50.4988 179.206 52.3748 179.248 53.0468 179.276C54.5168 179.332 55.1328 179.892 55.1328 181.166C55.1328 181.95 54.9228 182.398 54.4048 182.706C53.9568 182.972 53.0328 183.084 51.1148 183.084C48.9728 183.084 48.0768 182.972 47.5868 182.65C47.0968 182.314 46.9288 181.908 46.9288 181.082V180.746ZM64.1502 180.998H65.2282C65.1862 182.552 64.2762 183.084 61.6442 183.084C59.4742 183.084 58.4662 182.93 57.8922 182.524C57.2342 182.062 56.9122 181.166 56.9122 179.78C56.9122 178.24 57.2622 177.33 58.0602 176.868C58.6062 176.546 59.3482 176.434 60.9722 176.434C63.1982 176.434 63.9822 176.616 64.5842 177.288C65.0742 177.862 65.2142 178.45 65.2422 179.99H58.0182C58.0462 180.83 58.1862 181.334 58.4942 181.656C58.8862 182.062 59.5862 182.188 61.5322 182.188C63.0022 182.188 63.5762 182.076 63.9122 181.698C64.0802 181.53 64.1082 181.418 64.1502 180.998ZM58.0462 179.108H64.1082C64.0942 177.68 63.4642 177.33 60.9442 177.33C58.7042 177.33 58.1582 177.666 58.0462 179.108ZM78.6153 180.648H79.6653C79.6513 181.516 79.4973 181.978 79.1193 182.37C78.6153 182.902 77.8873 183.084 76.2073 183.084C73.9673 183.084 73.0573 182.944 72.4833 182.51C71.8393 182.034 71.5313 181.138 71.5313 179.766C71.5313 178.24 71.8813 177.344 72.6653 176.882C73.2253 176.546 73.9953 176.434 75.5913 176.434C77.6633 176.434 78.5453 176.616 79.0633 177.162C79.4413 177.54 79.5813 177.988 79.6233 178.828H78.5593C78.5313 177.61 77.9713 177.33 75.5913 177.33C74.3173 177.33 73.6873 177.428 73.2953 177.68C72.8333 177.988 72.6233 178.646 72.6233 179.836C72.6233 180.97 72.8753 181.6 73.4353 181.88C73.8273 182.09 74.6113 182.174 76.0113 182.174C78.1113 182.174 78.5733 181.908 78.6153 180.648ZM81.6137 173.662H82.6357V183H81.6137V173.662ZM84.8559 176.518H85.8779V183H84.8559V176.518ZM84.8559 173.662H85.8779V174.88H84.8559V173.662ZM95.0001 180.648H96.0501C96.0361 181.516 95.8821 181.978 95.5041 182.37C95.0001 182.902 94.2721 183.084 92.5921 183.084C90.3521 183.084 89.4421 182.944 88.8681 182.51C88.2241 182.034 87.9161 181.138 87.9161 179.766C87.9161 178.24 88.2661 177.344 89.0501 176.882C89.6101 176.546 90.3801 176.434 91.9761 176.434C94.0481 176.434 94.9301 176.616 95.4481 177.162C95.8261 177.54 95.9661 177.988 96.0081 178.828H94.9441C94.9161 177.61 94.3561 177.33 91.9761 177.33C90.7021 177.33 90.0721 177.428 89.6801 177.68C89.2181 177.988 89.0081 178.646 89.0081 179.836C89.0081 180.97 89.2601 181.6 89.8201 181.88C90.2121 182.09 90.9961 182.174 92.3961 182.174C94.4961 182.174 94.9581 181.908 95.0001 180.648ZM97.9985 173.662H99.0205V179.01H99.6225L103.542 176.518H105.166L100.644 179.472L105.824 183H104.116L99.5525 179.92H99.0205V183H97.9985V173.662ZM111.838 173.662H112.86V177.288H112.93C113.392 176.588 113.966 176.42 115.814 176.42C117.942 176.42 118.628 176.518 119.202 176.938C119.944 177.47 120.238 178.296 120.238 179.85C120.238 181.474 119.832 182.328 118.852 182.762C118.292 183.014 117.634 183.084 115.982 183.084C113.924 183.084 113.392 182.93 112.902 182.174H112.846V183H111.838V173.662ZM115.828 177.316C113.28 177.316 112.832 177.68 112.832 179.766C112.832 181.082 113.028 181.586 113.63 181.908C114.036 182.104 114.792 182.188 116.346 182.188C118.642 182.188 119.146 181.754 119.146 179.78C119.146 178.506 118.908 177.904 118.306 177.596C117.914 177.386 117.242 177.316 115.828 177.316ZM122.174 176.518H123.196V179.794C123.196 181.012 123.294 181.418 123.672 181.754C124.036 182.062 124.638 182.188 125.842 182.188C127.396 182.188 128.194 181.978 128.628 181.418C128.908 181.096 128.992 180.662 128.992 179.724V176.518H130.014V183H128.992V182.034H128.936C128.418 182.86 127.746 183.084 125.73 183.084C124.134 183.084 123.308 182.916 122.804 182.468C122.342 182.062 122.174 181.446 122.174 180.102V176.518ZM133.124 174.908H134.146V176.518H138.682V177.4H134.146V180.2C134.174 181.432 134.174 181.474 134.384 181.74C134.65 182.062 135.112 182.188 136.092 182.188C137.002 182.188 137.352 182.09 137.576 181.74C137.73 181.502 137.772 181.264 137.772 180.466V180.06H138.794V180.466C138.794 181.488 138.71 181.894 138.444 182.286C138.066 182.86 137.366 183.084 135.994 183.084C134.608 183.084 133.866 182.874 133.488 182.356C133.208 181.964 133.124 181.558 133.124 180.536V177.4H131.528V176.518H133.124V174.908ZM141.808 174.908H142.83V176.518H147.366V177.4H142.83V180.2C142.858 181.432 142.858 181.474 143.068 181.74C143.334 182.062 143.796 182.188 144.776 182.188C145.686 182.188 146.036 182.09 146.26 181.74C146.414 181.502 146.456 181.264 146.456 180.466V180.06H147.478V180.466C147.478 181.488 147.394 181.894 147.128 182.286C146.75 182.86 146.05 183.084 144.678 183.084C143.292 183.084 142.55 182.874 142.172 182.356C141.892 181.964 141.808 181.558 141.808 180.536V177.4H140.212V176.518H141.808V174.908ZM153.156 176.434C155.2 176.434 156.012 176.532 156.558 176.868C157.384 177.358 157.72 178.212 157.72 179.752C157.72 181.292 157.398 182.146 156.628 182.622C156.068 182.972 155.34 183.084 153.618 183.084C151.77 183.084 150.972 182.986 150.384 182.664C149.53 182.188 149.18 181.362 149.18 179.724C149.18 178.226 149.558 177.316 150.37 176.854C150.902 176.546 151.644 176.434 153.156 176.434ZM153.324 177.33C150.734 177.33 150.272 177.708 150.272 179.794C150.272 181.096 150.538 181.684 151.238 181.964C151.672 182.132 152.288 182.188 153.534 182.188C155.018 182.188 155.578 182.104 155.998 181.796C156.446 181.474 156.628 180.886 156.628 179.724C156.628 178.478 156.39 177.904 155.788 177.596C155.382 177.4 154.696 177.33 153.324 177.33ZM159.699 176.518H160.721V177.498H160.805C161.225 176.658 161.939 176.434 164.067 176.434C165.929 176.434 166.699 176.602 167.203 177.148C167.595 177.582 167.735 178.128 167.735 179.346V183H166.713V179.78C166.713 178.618 166.643 178.226 166.349 177.89C166.013 177.484 165.369 177.33 163.955 177.33C162.359 177.33 161.547 177.54 161.099 178.086C160.777 178.464 160.721 178.772 160.721 180.004V183H159.699V176.518ZM175.312 174.908H176.334V176.518H180.87V177.4H176.334V180.2C176.362 181.432 176.362 181.474 176.572 181.74C176.838 182.062 177.3 182.188 178.28 182.188C179.19 182.188 179.54 182.09 179.764 181.74C179.918 181.502 179.96 181.264 179.96 180.466V180.06H180.982V180.466C180.982 181.488 180.898 181.894 180.632 182.286C180.254 182.86 179.554 183.084 178.182 183.084C176.796 183.084 176.054 182.874 175.676 182.356C175.396 181.964 175.312 181.558 175.312 180.536V177.4H173.716V176.518H175.312V174.908ZM186.66 176.434C188.704 176.434 189.516 176.532 190.062 176.868C190.888 177.358 191.224 178.212 191.224 179.752C191.224 181.292 190.902 182.146 190.132 182.622C189.572 182.972 188.844 183.084 187.122 183.084C185.274 183.084 184.476 182.986 183.888 182.664C183.034 182.188 182.684 181.362 182.684 179.724C182.684 178.226 183.062 177.316 183.874 176.854C184.406 176.546 185.148 176.434 186.66 176.434ZM186.828 177.33C184.238 177.33 183.776 177.708 183.776 179.794C183.776 181.096 184.042 181.684 184.742 181.964C185.176 182.132 185.792 182.188 187.038 182.188C188.522 182.188 189.082 182.104 189.502 181.796C189.95 181.474 190.132 180.886 190.132 179.724C190.132 178.478 189.894 177.904 189.292 177.596C188.886 177.4 188.2 177.33 186.828 177.33ZM197.045 177.4V176.518H198.501C198.501 174.236 199.061 173.732 201.623 173.676L204.437 173.634V174.516L201.707 174.558C199.761 174.6 199.523 174.81 199.523 176.518H204.437V183H203.415V177.4H199.523V183H198.501V177.4H197.045ZM206.605 176.518H207.627V177.498H207.711C208.131 176.658 208.845 176.434 210.973 176.434C212.835 176.434 213.605 176.602 214.109 177.148C214.501 177.582 214.641 178.128 214.641 179.346V183H213.619V179.78C213.619 178.618 213.549 178.226 213.255 177.89C212.919 177.484 212.275 177.33 210.861 177.33C209.265 177.33 208.453 177.54 208.005 178.086C207.683 178.464 207.627 178.772 207.627 180.004V183H206.605V176.518ZM224.984 173.662V183H223.976V182.174H223.92C223.43 182.93 222.884 183.084 220.798 183.084C219.062 183.084 218.306 182.972 217.732 182.65C216.92 182.174 216.584 181.348 216.584 179.78C216.584 178.24 216.92 177.358 217.718 176.854C218.25 176.532 219.048 176.42 221.05 176.42C222.842 176.42 223.444 176.602 223.892 177.288H223.962V173.662H224.984ZM220.966 177.316C219.426 177.316 218.768 177.414 218.362 177.666C217.872 178.002 217.676 178.604 217.676 179.78C217.676 181.796 218.166 182.188 220.63 182.188C222.212 182.188 222.926 182.09 223.318 181.824C223.808 181.502 224.004 180.914 224.004 179.822C224.004 177.694 223.556 177.316 220.966 177.316ZM230.958 176.518H232.162L235.284 182.174H235.424L238.336 176.518H239.54L236.376 182.552C235.634 183.994 235.298 184.456 234.78 184.82C234.29 185.156 233.8 185.268 232.736 185.268C232.498 185.268 232.372 185.268 232.162 185.254V184.316C232.358 184.344 232.442 184.344 232.638 184.344C233.996 184.344 234.346 184.134 234.962 183H234.612L230.958 176.518ZM244.656 176.434C246.7 176.434 247.512 176.532 248.058 176.868C248.884 177.358 249.22 178.212 249.22 179.752C249.22 181.292 248.898 182.146 248.128 182.622C247.568 182.972 246.84 183.084 245.118 183.084C243.27 183.084 242.472 182.986 241.884 182.664C241.03 182.188 240.68 181.362 240.68 179.724C240.68 178.226 241.058 177.316 241.87 176.854C242.402 176.546 243.144 176.434 244.656 176.434ZM244.824 177.33C242.234 177.33 241.772 177.708 241.772 179.794C241.772 181.096 242.038 181.684 242.738 181.964C243.172 182.132 243.788 182.188 245.034 182.188C246.518 182.188 247.078 182.104 247.498 181.796C247.946 181.474 248.128 180.886 248.128 179.724C248.128 178.478 247.89 177.904 247.288 177.596C246.882 177.4 246.196 177.33 244.824 177.33ZM251.157 176.518H252.179V179.794C252.179 181.012 252.277 181.418 252.655 181.754C253.019 182.062 253.621 182.188 254.825 182.188C256.379 182.188 257.177 181.978 257.611 181.418C257.891 181.096 257.975 180.662 257.975 179.724V176.518H258.997V183H257.975V182.034H257.919C257.401 182.86 256.729 183.084 254.713 183.084C253.117 183.084 252.291 182.916 251.787 182.468C251.325 182.062 251.157 181.446 251.157 180.102V176.518ZM261.113 176.518H262.135V177.386H262.205C262.373 177.092 262.597 176.882 262.933 176.7C263.325 176.504 263.871 176.434 265.145 176.434C266.419 176.434 266.937 176.546 267.371 176.924C267.805 177.302 268.029 177.918 268.029 178.758V179.43H266.979V178.968C266.979 177.624 266.629 177.33 265.033 177.33C262.569 177.33 262.135 177.722 262.135 180.004V183H261.113V176.518ZM42.5216 200.648H43.5716C43.5576 201.516 43.4036 201.978 43.0256 202.37C42.5216 202.902 41.7936 203.084 40.1136 203.084C37.8736 203.084 36.9636 202.944 36.3896 202.51C35.7456 202.034 35.4376 201.138 35.4376 199.766C35.4376 198.24 35.7876 197.344 36.5716 196.882C37.1316 196.546 37.9016 196.434 39.4976 196.434C41.5696 196.434 42.4516 196.616 42.9696 197.162C43.3476 197.54 43.4876 197.988 43.5296 198.828H42.4656C42.4376 197.61 41.8776 197.33 39.4976 197.33C38.2236 197.33 37.5936 197.428 37.2016 197.68C36.7396 197.988 36.5296 198.646 36.5296 199.836C36.5296 200.97 36.7816 201.6 37.3416 201.88C37.7336 202.09 38.5176 202.174 39.9176 202.174C42.0176 202.174 42.4796 201.908 42.5216 200.648ZM46.6667 198.464H45.5887V198.184C45.5887 196.826 46.4147 196.434 49.2287 196.434C51.4267 196.434 52.1827 196.588 52.7287 197.162C53.1767 197.61 53.2747 198.044 53.2747 199.584V203H52.2527L52.2667 202.244H52.2247C51.7347 202.944 51.2587 203.084 49.2847 203.084C47.0167 203.084 46.3727 203 45.9107 202.664C45.4627 202.328 45.3087 201.936 45.3087 201.124C45.3087 200.116 45.5467 199.626 46.1907 199.36C46.5827 199.192 47.1847 199.136 48.6127 199.136C51.2727 199.136 51.7207 199.22 52.1687 199.836H52.2527V199.136C52.2527 198.464 52.1827 198.184 51.9447 197.904C51.5807 197.456 50.9927 197.33 49.2987 197.33C47.4227 197.33 46.9327 197.442 46.7507 197.918C46.7087 198.002 46.6807 198.184 46.6667 198.464ZM49.2847 200.046C47.6047 200.046 47.0867 200.088 46.8067 200.256C46.5267 200.424 46.4007 200.704 46.4007 201.138C46.4007 201.6 46.5407 201.838 46.8767 202.006C47.1707 202.146 47.8567 202.188 49.4947 202.188C51.6647 202.188 52.1827 201.978 52.1827 201.11C52.1827 200.27 51.5667 200.046 49.2847 200.046ZM55.351 196.518H56.373V197.386H56.443C56.611 197.092 56.835 196.882 57.171 196.7C57.563 196.504 58.109 196.434 59.383 196.434C60.657 196.434 61.175 196.546 61.609 196.924C62.043 197.302 62.267 197.918 62.267 198.758V199.43H61.217V198.968C61.217 197.624 60.867 197.33 59.271 197.33C56.807 197.33 56.373 197.722 56.373 200.004V203H55.351V196.518ZM67.7262 197.4V196.518H69.1822C69.1822 194.236 69.7422 193.732 72.3042 193.676L73.4802 193.634V194.516L72.3742 194.558C70.4702 194.6 70.2322 194.81 70.2322 196.518H73.4802V197.4H70.2042V203H69.1822V197.4H67.7262ZM75.058 196.518H76.08V197.386H76.15C76.318 197.092 76.542 196.882 76.878 196.7C77.27 196.504 77.816 196.434 79.09 196.434C80.364 196.434 80.882 196.546 81.316 196.924C81.75 197.302 81.974 197.918 81.974 198.758V199.43H80.924V198.968C80.924 197.624 80.574 197.33 78.978 197.33C76.514 197.33 76.08 197.722 76.08 200.004V203H75.058V196.518ZM87.5913 196.434C89.6353 196.434 90.4473 196.532 90.9933 196.868C91.8193 197.358 92.1553 198.212 92.1553 199.752C92.1553 201.292 91.8333 202.146 91.0633 202.622C90.5033 202.972 89.7753 203.084 88.0533 203.084C86.2053 203.084 85.4073 202.986 84.8193 202.664C83.9653 202.188 83.6153 201.362 83.6153 199.724C83.6153 198.226 83.9933 197.316 84.8053 196.854C85.3373 196.546 86.0793 196.434 87.5913 196.434ZM87.7593 197.33C85.1693 197.33 84.7073 197.708 84.7073 199.794C84.7073 201.096 84.9733 201.684 85.6733 201.964C86.1073 202.132 86.7233 202.188 87.9693 202.188C89.4533 202.188 90.0133 202.104 90.4333 201.796C90.8813 201.474 91.0633 200.886 91.0633 199.724C91.0633 198.478 90.8253 197.904 90.2233 197.596C89.8173 197.4 89.1313 197.33 87.7593 197.33ZM94.1342 196.518H95.1562L95.1702 197.372C95.7582 196.602 96.2482 196.434 97.8302 196.434C99.9442 196.434 100.672 196.686 101.19 197.568C101.61 196.714 102.352 196.434 104.214 196.434C105.978 196.434 106.72 196.63 107.266 197.218C107.686 197.694 107.77 198.072 107.77 199.584V203H106.748V199.36C106.748 197.652 106.342 197.33 104.2 197.33C102.898 197.33 102.282 197.484 101.932 197.904C101.568 198.31 101.47 198.87 101.47 200.452V203H100.448V199.36C100.448 198.422 100.364 198.072 100.098 197.806C99.7342 197.47 99.1042 197.33 97.8862 197.33C96.5842 197.33 95.9402 197.498 95.5622 197.918C95.2262 198.296 95.1562 198.744 95.1562 200.452V203H94.1342V196.518ZM114.345 205.338V196.518H115.367V197.358H115.423C115.885 196.602 116.473 196.434 118.517 196.434C120.267 196.434 121.023 196.546 121.597 196.868C122.437 197.372 122.759 198.17 122.759 199.766C122.759 201.25 122.409 202.118 121.611 202.622C121.093 202.958 120.239 203.084 118.405 203.084C116.529 203.084 115.913 202.902 115.423 202.23H115.367V205.338H114.345ZM118.755 197.33C117.117 197.33 116.417 197.414 116.025 197.68C115.535 198.016 115.339 198.59 115.339 199.696C115.339 201.81 115.801 202.188 118.377 202.188C119.903 202.188 120.575 202.09 120.981 201.824C121.471 201.502 121.667 200.914 121.667 199.78C121.667 197.722 121.205 197.33 118.755 197.33ZM125.872 198.464H124.794V198.184C124.794 196.826 125.62 196.434 128.434 196.434C130.632 196.434 131.388 196.588 131.934 197.162C132.382 197.61 132.48 198.044 132.48 199.584V203H131.458L131.472 202.244H131.43C130.94 202.944 130.464 203.084 128.49 203.084C126.222 203.084 125.578 203 125.116 202.664C124.668 202.328 124.514 201.936 124.514 201.124C124.514 200.116 124.752 199.626 125.396 199.36C125.788 199.192 126.39 199.136 127.818 199.136C130.478 199.136 130.926 199.22 131.374 199.836H131.458V199.136C131.458 198.464 131.388 198.184 131.15 197.904C130.786 197.456 130.198 197.33 128.504 197.33C126.628 197.33 126.138 197.442 125.956 197.918C125.914 198.002 125.886 198.184 125.872 198.464ZM128.49 200.046C126.81 200.046 126.292 200.088 126.012 200.256C125.732 200.424 125.606 200.704 125.606 201.138C125.606 201.6 125.746 201.838 126.082 202.006C126.376 202.146 127.062 202.188 128.7 202.188C130.87 202.188 131.388 201.978 131.388 201.11C131.388 200.27 130.772 200.046 128.49 200.046ZM134.556 196.518H135.578V197.386H135.648C135.816 197.092 136.04 196.882 136.376 196.7C136.768 196.504 137.314 196.434 138.588 196.434C139.862 196.434 140.38 196.546 140.814 196.924C141.248 197.302 141.472 197.918 141.472 198.758V199.43H140.422V198.968C140.422 197.624 140.072 197.33 138.476 197.33C136.012 197.33 135.578 197.722 135.578 200.004V203H134.556V196.518ZM143.213 193.662H144.235V199.01H144.837L148.757 196.518H150.381L145.859 199.472L151.039 203H149.331L144.767 199.92H144.235V203H143.213V193.662ZM152.649 196.518H153.671V203H152.649V196.518ZM152.649 193.662H153.671V194.88H152.649V193.662ZM155.849 196.518H156.871V197.498H156.955C157.375 196.658 158.089 196.434 160.217 196.434C162.079 196.434 162.849 196.602 163.353 197.148C163.745 197.582 163.885 198.128 163.885 199.346V203H162.863V199.78C162.863 198.618 162.793 198.226 162.499 197.89C162.163 197.484 161.519 197.33 160.105 197.33C158.509 197.33 157.697 197.54 157.249 198.086C156.927 198.464 156.871 198.772 156.871 200.004V203H155.849V196.518ZM173.234 196.518H174.27V201.376C174.27 202.356 174.214 203.196 174.116 203.7C173.976 204.372 173.444 204.974 172.772 205.17C172.17 205.366 171.456 205.422 169.888 205.422C167.718 205.422 166.822 205.184 166.304 204.484C166.066 204.162 165.996 203.924 165.996 203.322H167.06C167.144 204.274 167.69 204.526 169.776 204.526C171.736 204.526 172.478 204.386 172.828 203.938C173.122 203.574 173.178 203.252 173.234 201.922H173.164C172.604 202.622 172.086 202.762 170 202.762C168.236 202.762 167.354 202.622 166.85 202.258C166.15 201.74 165.828 200.9 165.828 199.584C165.828 198.114 166.262 197.218 167.158 196.798C167.718 196.518 168.488 196.434 170.21 196.434C171.61 196.434 172.114 196.504 172.548 196.742C172.842 196.91 173.01 197.064 173.192 197.344H173.248L173.234 196.518ZM170.21 197.33C168.852 197.33 168.124 197.428 167.676 197.652C167.172 197.904 166.92 198.562 166.92 199.612C166.92 200.718 167.186 201.334 167.774 201.614C168.124 201.796 168.838 201.866 170.07 201.866C171.47 201.866 172.156 201.768 172.534 201.53C173.038 201.194 173.234 200.634 173.234 199.5C173.234 197.708 172.702 197.33 170.21 197.33ZM180.93 193.662H181.952V203H180.93V193.662ZM187.966 196.434C190.01 196.434 190.822 196.532 191.368 196.868C192.194 197.358 192.53 198.212 192.53 199.752C192.53 201.292 192.208 202.146 191.438 202.622C190.878 202.972 190.15 203.084 188.428 203.084C186.58 203.084 185.782 202.986 185.194 202.664C184.34 202.188 183.99 201.362 183.99 199.724C183.99 198.226 184.368 197.316 185.18 196.854C185.712 196.546 186.454 196.434 187.966 196.434ZM188.134 197.33C185.544 197.33 185.082 197.708 185.082 199.794C185.082 201.096 185.348 201.684 186.048 201.964C186.482 202.132 187.098 202.188 188.344 202.188C189.828 202.188 190.388 202.104 190.808 201.796C191.256 201.474 191.438 200.886 191.438 199.724C191.438 198.478 191.2 197.904 190.598 197.596C190.192 197.4 189.506 197.33 188.134 197.33ZM201.453 200.648H202.503C202.489 201.516 202.335 201.978 201.957 202.37C201.453 202.902 200.725 203.084 199.045 203.084C196.805 203.084 195.895 202.944 195.321 202.51C194.677 202.034 194.369 201.138 194.369 199.766C194.369 198.24 194.719 197.344 195.503 196.882C196.063 196.546 196.833 196.434 198.429 196.434C200.501 196.434 201.383 196.616 201.901 197.162C202.279 197.54 202.419 197.988 202.461 198.828H201.397C201.369 197.61 200.809 197.33 198.429 197.33C197.155 197.33 196.525 197.428 196.133 197.68C195.671 197.988 195.461 198.646 195.461 199.836C195.461 200.97 195.713 201.6 196.273 201.88C196.665 202.09 197.449 202.174 198.849 202.174C200.949 202.174 201.411 201.908 201.453 200.648ZM205.598 198.464H204.52V198.184C204.52 196.826 205.346 196.434 208.16 196.434C210.358 196.434 211.114 196.588 211.66 197.162C212.108 197.61 212.206 198.044 212.206 199.584V203H211.184L211.198 202.244H211.156C210.666 202.944 210.19 203.084 208.216 203.084C205.948 203.084 205.304 203 204.842 202.664C204.394 202.328 204.24 201.936 204.24 201.124C204.24 200.116 204.478 199.626 205.122 199.36C205.514 199.192 206.116 199.136 207.544 199.136C210.204 199.136 210.652 199.22 211.1 199.836H211.184V199.136C211.184 198.464 211.114 198.184 210.876 197.904C210.512 197.456 209.924 197.33 208.23 197.33C206.354 197.33 205.864 197.442 205.682 197.918C205.64 198.002 205.612 198.184 205.598 198.464ZM208.216 200.046C206.536 200.046 206.018 200.088 205.738 200.256C205.458 200.424 205.332 200.704 205.332 201.138C205.332 201.6 205.472 201.838 205.808 202.006C206.102 202.146 206.788 202.188 208.426 202.188C210.596 202.188 211.114 201.978 211.114 201.11C211.114 200.27 210.498 200.046 208.216 200.046ZM215.318 194.908H216.34V196.518H220.876V197.4H216.34V200.2C216.368 201.432 216.368 201.474 216.578 201.74C216.844 202.062 217.306 202.188 218.286 202.188C219.196 202.188 219.546 202.09 219.77 201.74C219.924 201.502 219.966 201.264 219.966 200.466V200.06H220.988V200.466C220.988 201.488 220.904 201.894 220.638 202.286C220.26 202.86 219.56 203.084 218.188 203.084C216.802 203.084 216.06 202.874 215.682 202.356C215.402 201.964 215.318 201.558 215.318 200.536V197.4H213.722V196.518H215.318V194.908ZM222.844 196.518H223.866V203H222.844V196.518ZM222.844 193.662H223.866V194.88H222.844V193.662ZM229.88 196.434C231.924 196.434 232.736 196.532 233.282 196.868C234.108 197.358 234.444 198.212 234.444 199.752C234.444 201.292 234.122 202.146 233.352 202.622C232.792 202.972 232.064 203.084 230.342 203.084C228.494 203.084 227.696 202.986 227.108 202.664C226.254 202.188 225.904 201.362 225.904 199.724C225.904 198.226 226.282 197.316 227.094 196.854C227.626 196.546 228.368 196.434 229.88 196.434ZM230.048 197.33C227.458 197.33 226.996 197.708 226.996 199.794C226.996 201.096 227.262 201.684 227.962 201.964C228.396 202.132 229.012 202.188 230.258 202.188C231.742 202.188 232.302 202.104 232.722 201.796C233.17 201.474 233.352 200.886 233.352 199.724C233.352 198.478 233.114 197.904 232.512 197.596C232.106 197.4 231.42 197.33 230.048 197.33ZM236.423 196.518H237.445V197.498H237.529C237.949 196.658 238.663 196.434 240.791 196.434C242.653 196.434 243.423 196.602 243.927 197.148C244.319 197.582 244.459 198.128 244.459 199.346V203H243.437V199.78C243.437 198.618 243.367 198.226 243.073 197.89C242.737 197.484 242.093 197.33 240.679 197.33C239.083 197.33 238.271 197.54 237.823 198.086C237.501 198.464 237.445 198.772 237.445 200.004V203H236.423V196.518Z" fill="#425452"/>
</svg>
